<?xml version="1.0" encoding="UTF-8"?>
<svg xmlns="http://www.w3.org/2000/svg" xmlns:xlink="http://www.w3.org/1999/xlink" width="4001" height="4001" viewBox="0 0 4001 4001">
<path fill-rule="evenodd" fill="rgb(100%, 100%, 100%)" fill-opacity="1" d="M 0.496094 0.191406 L 4000.5 0.191406 L 4000.5 4000.191406 L 0.496094 4000.191406 L 0.496094 0.191406 "/>
<path fill-rule="evenodd" fill="rgb(27.43988%, 27.43988%, 27.43988%)" fill-opacity="1" d="M 1886.078125 538.898438 L 1889.390625 1128.488281 C 1890.691406 1360.898438 1635.628906 1553.648438 1647.628906 2282.941406 C 1653.910156 2664.449219 1667.339844 3049.722656 1677.011719 3425.136719 C 1741.699219 3467.515625 1871.101562 3488.710938 2000.5 3488.710938 C 2129.890625 3488.710938 2259.289062 3467.515625 2323.980469 3425.136719 C 2333.660156 3049.722656 2347.078125 2664.449219 2353.371094 2282.941406 C 2365.371094 1553.648438 2110.300781 1360.898438 2111.609375 1128.488281 L 2114.921875 538.898438 C 2114.960938 531.421875 2112.320312 524.960938 2107.050781 519.660156 C 2101.769531 514.351562 2095.328125 511.671875 2087.851562 511.671875 L 1913.148438 511.671875 C 1905.660156 511.671875 1899.230469 514.351562 1893.949219 519.660156 C 1888.671875 524.960938 1886.03125 531.421875 1886.078125 538.898438 "/>
<path fill-rule="evenodd" fill="rgb(27.43988%, 27.43988%, 27.43988%)" fill-opacity="1" d="M 1888.558594 555.308594 L 2112.441406 555.308594 C 2119.710938 555.308594 2125.660156 561.261719 2125.660156 568.539062 L 2125.660156 638.449219 C 2125.660156 645.71875 2119.710938 651.671875 2112.441406 651.671875 L 1888.558594 651.671875 C 1881.28125 651.671875 1875.328125 645.71875 1875.328125 638.449219 L 1875.328125 568.539062 C 1875.328125 561.261719 1881.28125 555.308594 1888.558594 555.308594 "/>
<path fill-rule="evenodd" fill="rgb(99.21875%, 72.068787%, 1.179504%)" fill-opacity="1" d="M 2111.640625 1123.199219 L 2114.289062 651.539062 C 2120.691406 650.628906 2125.660156 645.089844 2125.660156 638.449219 L 2125.660156 568.539062 C 2125.660156 562.078125 2120.96875 556.660156 2114.828125 555.53125 L 2114.921875 538.898438 C 2114.96875 531.421875 2112.320312 524.960938 2107.050781 519.660156 C 2101.769531 514.351562 2095.328125 511.671875 2087.851562 511.671875 L 1913.148438 511.671875 C 1905.660156 511.671875 1899.230469 514.351562 1893.949219 519.660156 C 1888.671875 524.960938 1886.03125 531.421875 1886.078125 538.898438 L 1886.171875 555.53125 C 1880.019531 556.660156 1875.339844 562.078125 1875.339844 568.539062 L 1875.339844 638.449219 C 1875.339844 645.089844 1880.300781 650.628906 1886.710938 651.539062 L 1889.359375 1123.199219 L 2111.640625 1123.199219 "/>
<path fill-rule="evenodd" fill="rgb(98.826599%, 95.3125%, 91.796875%)" fill-opacity="1" d="M 1658.25 1991.480469 C 1649.960938 2078.050781 1645.851562 2174.570312 1647.628906 2282.941406 C 1649.28125 2383.121094 1651.421875 2483.550781 1653.859375 2584 L 2347.140625 2584 C 2349.578125 2483.550781 2351.71875 2383.121094 2353.371094 2282.941406 C 2355.148438 2174.570312 2351.039062 2078.050781 2342.738281 1991.480469 L 1658.25 1991.480469 "/>
<path fill-rule="evenodd" fill="rgb(98.826599%, 95.3125%, 91.796875%)" fill-opacity="1" d="M 2000.5 1920.519531 C 2122.769531 1920.519531 2221.898438 1956.191406 2221.898438 2000.191406 C 2221.898438 2044.191406 2122.769531 2079.859375 2000.5 2079.859375 C 1878.21875 2079.859375 1779.101562 2044.191406 1779.101562 2000.191406 C 1779.101562 1956.191406 1878.21875 1920.519531 2000.5 1920.519531 "/>
</svg>
