<?xml version="1.0" encoding="UTF-8"?>
<svg xmlns="http://www.w3.org/2000/svg" xmlns:xlink="http://www.w3.org/1999/xlink" width="2347" height="2384" viewBox="0 0 2347 2384">
<defs>
<clipPath id="clip-0">
<path clip-rule="nonzero" d="M 972 0 L 1375 0 L 1375 403 L 972 403 Z M 972 0 "/>
</clipPath>
<clipPath id="clip-1">
<path clip-rule="nonzero" d="M 1374.859375 201.429688 C 1374.859375 312.679688 1284.679688 402.859375 1173.429688 402.859375 C 1062.179688 402.859375 972 312.679688 972 201.429688 C 972 90.179688 1062.179688 0 1173.429688 0 C 1284.679688 0 1374.859375 90.179688 1374.859375 201.429688 Z M 1374.859375 201.429688 "/>
</clipPath>
<clipPath id="clip-2">
<path clip-rule="nonzero" d="M 1374.859375 201.429688 C 1374.859375 312.679688 1284.679688 402.859375 1173.429688 402.859375 C 1062.179688 402.859375 972 312.679688 972 201.429688 C 972 90.179688 1062.179688 0 1173.429688 0 C 1284.679688 0 1374.859375 90.179688 1374.859375 201.429688 Z M 1374.859375 201.429688 "/>
</clipPath>
<linearGradient id="linear-pattern-0" gradientUnits="userSpaceOnUse" x1="126.650667" y1="-359.171" x2="663.797333" y2="-359.171" gradientTransform="matrix(0.75, 0, 0, 0.75, 877.012, 655.34)">
<stop offset="0" stop-color="rgb(95.391846%, 50.292969%, 5.490112%)" stop-opacity="1"/>
<stop offset="0.03125" stop-color="rgb(95.307922%, 50.135803%, 5.451965%)" stop-opacity="1"/>
<stop offset="0.0625" stop-color="rgb(95.143127%, 49.824524%, 5.378723%)" stop-opacity="1"/>
<stop offset="0.09375" stop-color="rgb(94.976807%, 49.511719%, 5.305481%)" stop-opacity="1"/>
<stop offset="0.125" stop-color="rgb(94.812012%, 49.198914%, 5.232239%)" stop-opacity="1"/>
<stop offset="0.15625" stop-color="rgb(94.647217%, 48.886108%, 5.158997%)" stop-opacity="1"/>
<stop offset="0.1875" stop-color="rgb(94.480896%, 48.573303%, 5.084229%)" stop-opacity="1"/>
<stop offset="0.21875" stop-color="rgb(94.316101%, 48.262024%, 5.010986%)" stop-opacity="1"/>
<stop offset="0.25" stop-color="rgb(94.14978%, 47.949219%, 4.937744%)" stop-opacity="1"/>
<stop offset="0.28125" stop-color="rgb(93.984985%, 47.636414%, 4.864502%)" stop-opacity="1"/>
<stop offset="0.3125" stop-color="rgb(93.818665%, 47.323608%, 4.79126%)" stop-opacity="1"/>
<stop offset="0.34375" stop-color="rgb(93.65387%, 47.010803%, 4.716492%)" stop-opacity="1"/>
<stop offset="0.375" stop-color="rgb(93.489075%, 46.699524%, 4.64325%)" stop-opacity="1"/>
<stop offset="0.40625" stop-color="rgb(93.322754%, 46.386719%, 4.570007%)" stop-opacity="1"/>
<stop offset="0.4375" stop-color="rgb(93.157959%, 46.073914%, 4.496765%)" stop-opacity="1"/>
<stop offset="0.46875" stop-color="rgb(92.991638%, 45.761108%, 4.423523%)" stop-opacity="1"/>
<stop offset="0.5" stop-color="rgb(92.826843%, 45.448303%, 4.350281%)" stop-opacity="1"/>
<stop offset="0.53125" stop-color="rgb(92.662048%, 45.137024%, 4.275513%)" stop-opacity="1"/>
<stop offset="0.5625" stop-color="rgb(92.495728%, 44.824219%, 4.202271%)" stop-opacity="1"/>
<stop offset="0.59375" stop-color="rgb(92.330933%, 44.511414%, 4.129028%)" stop-opacity="1"/>
<stop offset="0.625" stop-color="rgb(92.164612%, 44.198608%, 4.055786%)" stop-opacity="1"/>
<stop offset="0.65625" stop-color="rgb(91.999817%, 43.885803%, 3.982544%)" stop-opacity="1"/>
<stop offset="0.6875" stop-color="rgb(91.833496%, 43.574524%, 3.907776%)" stop-opacity="1"/>
<stop offset="0.71875" stop-color="rgb(91.668701%, 43.261719%, 3.834534%)" stop-opacity="1"/>
<stop offset="0.75" stop-color="rgb(91.503906%, 42.948914%, 3.761292%)" stop-opacity="1"/>
<stop offset="0.78125" stop-color="rgb(91.337585%, 42.636108%, 3.688049%)" stop-opacity="1"/>
<stop offset="0.8125" stop-color="rgb(91.172791%, 42.323303%, 3.614807%)" stop-opacity="1"/>
<stop offset="0.84375" stop-color="rgb(91.00647%, 42.012024%, 3.540039%)" stop-opacity="1"/>
<stop offset="0.875" stop-color="rgb(90.841675%, 41.699219%, 3.466797%)" stop-opacity="1"/>
<stop offset="0.90625" stop-color="rgb(90.675354%, 41.386414%, 3.393555%)" stop-opacity="1"/>
<stop offset="0.9375" stop-color="rgb(90.510559%, 41.073608%, 3.320312%)" stop-opacity="1"/>
<stop offset="0.96875" stop-color="rgb(90.345764%, 40.760803%, 3.24707%)" stop-opacity="1"/>
<stop offset="1" stop-color="rgb(90.179443%, 40.449524%, 3.173828%)" stop-opacity="1"/>
</linearGradient>
<clipPath id="clip-3">
<path clip-rule="nonzero" d="M 169 217 L 2178 217 L 2178 1808 L 169 1808 Z M 169 217 "/>
</clipPath>
<clipPath id="clip-4">
<path clip-rule="nonzero" d="M 1173.390625 217.859375 C 1155.140625 219.039062 1136.730469 220.859375 1118.140625 223.289062 C 1058.761719 231.261719 999.515625 245.070312 940.417969 264.71875 L 852.722656 297.898438 C 794.605469 322.71875 738.316406 352.03125 683.84375 385.828125 C 568.273438 458.109375 470.011719 541.859375 389.050781 637.089844 L 389.128906 637.101562 C 346.828125 696.5 322.972656 736.078125 317.5625 755.851562 C 291.722656 807.96875 269.960938 862.070312 252.277344 918.148438 C 220.097656 999.519531 194.898438 1148.910156 176.671875 1366.308594 C 170.40625 1448.238281 168.078125 1581.703125 169.679688 1766.707031 L 169.757812 1766.710938 L 1173.429688 1807.433594 L 1173.429688 1807.441406 L 2177.089844 1766.707031 L 2177.179688 1766.710938 C 2178.789062 1581.707031 2176.460938 1448.238281 2170.191406 1366.308594 C 2151.96875 1148.910156 2126.769531 999.519531 2094.589844 918.148438 C 2076.898438 862.070312 2055.140625 807.96875 2029.300781 755.851562 C 2023.890625 736.089844 2000.058594 696.550781 1957.808594 637.210938 L 1957.910156 637.210938 C 1876.929688 541.929688 1778.640625 458.128906 1663.019531 385.828125 C 1608.550781 352.03125 1552.261719 322.71875 1494.140625 297.898438 L 1406.441406 264.71875 C 1347.351562 245.070312 1288.109375 231.261719 1228.71875 223.289062 C 1210.140625 220.859375 1191.71875 219.039062 1173.480469 217.859375 Z M 1173.390625 217.859375 "/>
</clipPath>
<clipPath id="clip-5">
<path clip-rule="nonzero" d="M 1173.390625 217.859375 C 1155.140625 219.039062 1136.730469 220.859375 1118.140625 223.289062 C 1058.761719 231.261719 999.515625 245.070312 940.417969 264.71875 L 852.722656 297.898438 C 794.605469 322.71875 738.316406 352.03125 683.84375 385.828125 C 568.273438 458.109375 470.011719 541.859375 389.050781 637.089844 L 389.128906 637.101562 C 346.828125 696.5 322.972656 736.078125 317.5625 755.851562 C 291.722656 807.96875 269.960938 862.070312 252.277344 918.148438 C 220.097656 999.519531 194.898438 1148.910156 176.671875 1366.308594 C 170.40625 1448.238281 168.078125 1581.703125 169.679688 1766.707031 L 169.757812 1766.710938 L 1173.429688 1807.433594 L 1173.429688 1807.441406 L 2177.089844 1766.707031 L 2177.179688 1766.710938 C 2178.789062 1581.707031 2176.460938 1448.238281 2170.191406 1366.308594 C 2151.96875 1148.910156 2126.769531 999.519531 2094.589844 918.148438 C 2076.898438 862.070312 2055.140625 807.96875 2029.300781 755.851562 C 2023.890625 736.089844 2000.058594 696.550781 1957.808594 637.210938 L 1957.910156 637.210938 C 1876.929688 541.929688 1778.640625 458.128906 1663.019531 385.828125 C 1608.550781 352.03125 1552.261719 322.71875 1494.140625 297.898438 L 1406.441406 264.71875 C 1347.351562 245.070312 1288.109375 231.261719 1228.71875 223.289062 C 1210.140625 220.859375 1191.71875 219.039062 1173.480469 217.859375 Z M 1173.390625 217.859375 "/>
</clipPath>
<linearGradient id="linear-pattern-1" gradientUnits="userSpaceOnUse" x1="-945.245333" y1="715.117" x2="1735.704" y2="715.117" gradientTransform="matrix(0.75, 0, 0, 0.75, 877.012, 655.34)">
<stop offset="0" stop-color="rgb(98.391724%, 67.282104%, 4.550171%)" stop-opacity="1"/>
<stop offset="0.015625" stop-color="rgb(98.388672%, 67.176819%, 4.568481%)" stop-opacity="1"/>
<stop offset="0.03125" stop-color="rgb(98.382568%, 66.969299%, 4.605103%)" stop-opacity="1"/>
<stop offset="0.046875" stop-color="rgb(98.376465%, 66.76178%, 4.641724%)" stop-opacity="1"/>
<stop offset="0.0625" stop-color="rgb(98.370361%, 66.552734%, 4.678345%)" stop-opacity="1"/>
<stop offset="0.078125" stop-color="rgb(98.364258%, 66.345215%, 4.714966%)" stop-opacity="1"/>
<stop offset="0.09375" stop-color="rgb(98.358154%, 66.137695%, 4.751587%)" stop-opacity="1"/>
<stop offset="0.109375" stop-color="rgb(98.352051%, 65.930176%, 4.788208%)" stop-opacity="1"/>
<stop offset="0.125" stop-color="rgb(98.344421%, 65.72113%, 4.824829%)" stop-opacity="1"/>
<stop offset="0.140625" stop-color="rgb(98.338318%, 65.513611%, 4.862976%)" stop-opacity="1"/>
<stop offset="0.15625" stop-color="rgb(98.332214%, 65.306091%, 4.899597%)" stop-opacity="1"/>
<stop offset="0.171875" stop-color="rgb(98.326111%, 65.097046%, 4.936218%)" stop-opacity="1"/>
<stop offset="0.1875" stop-color="rgb(98.320007%, 64.889526%, 4.972839%)" stop-opacity="1"/>
<stop offset="0.203125" stop-color="rgb(98.313904%, 64.682007%, 5.00946%)" stop-opacity="1"/>
<stop offset="0.21875" stop-color="rgb(98.3078%, 64.474487%, 5.046082%)" stop-opacity="1"/>
<stop offset="0.234375" stop-color="rgb(98.301697%, 64.265442%, 5.082703%)" stop-opacity="1"/>
<stop offset="0.25" stop-color="rgb(98.295593%, 64.057922%, 5.119324%)" stop-opacity="1"/>
<stop offset="0.265625" stop-color="rgb(98.28949%, 63.850403%, 5.155945%)" stop-opacity="1"/>
<stop offset="0.28125" stop-color="rgb(98.283386%, 63.641357%, 5.192566%)" stop-opacity="1"/>
<stop offset="0.296875" stop-color="rgb(98.277283%, 63.433838%, 5.229187%)" stop-opacity="1"/>
<stop offset="0.3125" stop-color="rgb(98.271179%, 63.226318%, 5.265808%)" stop-opacity="1"/>
<stop offset="0.328125" stop-color="rgb(98.265076%, 63.018799%, 5.302429%)" stop-opacity="1"/>
<stop offset="0.34375" stop-color="rgb(98.258972%, 62.809753%, 5.33905%)" stop-opacity="1"/>
<stop offset="0.359375" stop-color="rgb(98.252869%, 62.602234%, 5.375671%)" stop-opacity="1"/>
<stop offset="0.375" stop-color="rgb(98.246765%, 62.394714%, 5.412292%)" stop-opacity="1"/>
<stop offset="0.390625" stop-color="rgb(98.240662%, 62.185669%, 5.448914%)" stop-opacity="1"/>
<stop offset="0.40625" stop-color="rgb(98.234558%, 61.978149%, 5.485535%)" stop-opacity="1"/>
<stop offset="0.421875" stop-color="rgb(98.228455%, 61.77063%, 5.522156%)" stop-opacity="1"/>
<stop offset="0.4375" stop-color="rgb(98.222351%, 61.561584%, 5.560303%)" stop-opacity="1"/>
<stop offset="0.453125" stop-color="rgb(98.216248%, 61.354065%, 5.596924%)" stop-opacity="1"/>
<stop offset="0.46875" stop-color="rgb(98.210144%, 61.146545%, 5.633545%)" stop-opacity="1"/>
<stop offset="0.484375" stop-color="rgb(98.204041%, 60.939026%, 5.670166%)" stop-opacity="1"/>
<stop offset="0.5" stop-color="rgb(98.197937%, 60.72998%, 5.706787%)" stop-opacity="1"/>
<stop offset="0.515625" stop-color="rgb(98.191833%, 60.522461%, 5.743408%)" stop-opacity="1"/>
<stop offset="0.53125" stop-color="rgb(98.18573%, 60.314941%, 5.780029%)" stop-opacity="1"/>
<stop offset="0.546875" stop-color="rgb(98.179626%, 60.105896%, 5.81665%)" stop-opacity="1"/>
<stop offset="0.5625" stop-color="rgb(98.173523%, 59.898376%, 5.853271%)" stop-opacity="1"/>
<stop offset="0.578125" stop-color="rgb(98.167419%, 59.690857%, 5.889893%)" stop-opacity="1"/>
<stop offset="0.59375" stop-color="rgb(98.161316%, 59.483337%, 5.926514%)" stop-opacity="1"/>
<stop offset="0.609375" stop-color="rgb(98.155212%, 59.274292%, 5.963135%)" stop-opacity="1"/>
<stop offset="0.625" stop-color="rgb(98.149109%, 59.066772%, 5.999756%)" stop-opacity="1"/>
<stop offset="0.640625" stop-color="rgb(98.143005%, 58.859253%, 6.036377%)" stop-opacity="1"/>
<stop offset="0.65625" stop-color="rgb(98.136902%, 58.650208%, 6.072998%)" stop-opacity="1"/>
<stop offset="0.671875" stop-color="rgb(98.130798%, 58.442688%, 6.109619%)" stop-opacity="1"/>
<stop offset="0.6875" stop-color="rgb(98.124695%, 58.235168%, 6.14624%)" stop-opacity="1"/>
<stop offset="0.703125" stop-color="rgb(98.118591%, 58.027649%, 6.182861%)" stop-opacity="1"/>
<stop offset="0.71875" stop-color="rgb(98.112488%, 57.818604%, 6.219482%)" stop-opacity="1"/>
<stop offset="0.734375" stop-color="rgb(98.106384%, 57.611084%, 6.256104%)" stop-opacity="1"/>
<stop offset="0.75" stop-color="rgb(98.100281%, 57.403564%, 6.29425%)" stop-opacity="1"/>
<stop offset="0.765625" stop-color="rgb(98.094177%, 57.194519%, 6.330872%)" stop-opacity="1"/>
<stop offset="0.78125" stop-color="rgb(98.088074%, 56.987%, 6.367493%)" stop-opacity="1"/>
<stop offset="0.796875" stop-color="rgb(98.08197%, 56.77948%, 6.404114%)" stop-opacity="1"/>
<stop offset="0.8125" stop-color="rgb(98.075867%, 56.570435%, 6.440735%)" stop-opacity="1"/>
<stop offset="0.828125" stop-color="rgb(98.069763%, 56.362915%, 6.477356%)" stop-opacity="1"/>
<stop offset="0.84375" stop-color="rgb(98.06366%, 56.155396%, 6.513977%)" stop-opacity="1"/>
<stop offset="0.859375" stop-color="rgb(98.057556%, 55.947876%, 6.550598%)" stop-opacity="1"/>
<stop offset="0.875" stop-color="rgb(98.051453%, 55.738831%, 6.587219%)" stop-opacity="1"/>
<stop offset="1" stop-color="rgb(98.042297%, 55.464172%, 6.636047%)" stop-opacity="1"/>
</linearGradient>
<clipPath id="clip-6">
<path clip-rule="nonzero" d="M 0 1693 L 2347 1693 L 2347 2384 L 0 2384 Z M 0 1693 "/>
</clipPath>
<clipPath id="clip-7">
<path clip-rule="nonzero" d="M 2214.898438 1693.691406 C 2212.410156 1693.691406 2209.871094 1693.742188 2207.269531 1693.839844 L 2159 1698.453125 L 2153.441406 1699.347656 L 2139.820312 1700.28125 L 2139.820312 1700.285156 L 2130.320312 1701.191406 C 2127.578125 1701.289062 2124.839844 1701.390625 2122.121094 1701.492188 L 2122.21875 1701.496094 L 1959.261719 1712.671875 C 1867.78125 1722.214844 1787.730469 1730.488281 1719.109375 1737.492188 L 1719.199219 1737.496094 L 1558.890625 1754.574219 L 1392.089844 1768.824219 C 1358.839844 1771.304688 1323.980469 1773.222656 1287.5 1774.570312 L 1287.589844 1774.574219 C 1253.148438 1776.199219 1223.089844 1777.011719 1197.390625 1777.011719 C 1194.28125 1777.011719 1191.230469 1776.996094 1188.261719 1776.972656 C 1183.308594 1776.960938 1178.378906 1776.945312 1173.480469 1776.917969 L 1173.390625 1776.921875 C 1168.480469 1776.945312 1163.558594 1776.960938 1158.609375 1776.972656 C 1155.628906 1776.996094 1152.578125 1777.011719 1149.46875 1777.011719 C 1123.769531 1777.011719 1093.699219 1776.195312 1059.269531 1774.570312 L 1059.351562 1774.574219 C 1022.878906 1773.222656 988.015625 1771.304688 954.773438 1768.824219 L 787.972656 1754.574219 L 627.414062 1737.464844 L 627.496094 1737.46875 C 558.933594 1730.46875 478.96875 1722.203125 387.605469 1712.671875 L 224.621094 1701.488281 L 224.699219 1701.492188 C 221.992188 1701.390625 219.273438 1701.289062 216.539062 1701.191406 L 207.039062 1700.28125 L 207.039062 1700.285156 L 193.425781 1699.347656 L 187.859375 1698.453125 L 187.859375 1698.457031 L 139.585938 1693.839844 C 136.992188 1693.742188 134.449219 1693.691406 131.957031 1693.691406 C 118.664062 1693.691406 106.90625 1695.105469 96.683594 1697.925781 C 57.277344 1709.242188 30.820312 1743.039062 17.304688 1799.320312 C -0.382812 1909.390625 -4.511719 2010.929688 4.921875 2103.945312 L 23.160156 2215.585938 C 23.679688 2217.996094 24.253906 2220.308594 24.878906 2222.527344 L 24.953125 2222.53125 C 25.628906 2223.90625 26.316406 2225.230469 27.011719 2226.507812 C 28.039062 2238.621094 41.164062 2251.867188 66.386719 2266.253906 L 66.464844 2266.257812 C 70.019531 2267.613281 73.875 2268.949219 78.03125 2270.273438 L 169.6875 2287.992188 L 181.210938 2290.273438 C 512.355469 2348.773438 840.339844 2379.730469 1165.160156 2383.144531 C 1167.910156 2383.171875 1170.660156 2383.203125 1173.429688 2383.226562 L 1173.429688 2383.234375 C 1176.191406 2383.203125 1178.960938 2383.171875 1181.710938 2383.144531 C 1506.519531 2379.730469 1834.511719 2348.773438 2165.660156 2290.273438 L 2177.179688 2287.992188 L 2268.839844 2270.273438 C 2272.960938 2268.957031 2276.800781 2267.628906 2280.339844 2266.277344 L 2280.429688 2266.28125 C 2305.679688 2251.882812 2318.820312 2238.625 2319.859375 2226.507812 C 2320.53125 2225.265625 2321.199219 2223.972656 2321.859375 2222.632812 L 2321.960938 2222.640625 C 2322.589844 2220.382812 2323.179688 2218.035156 2323.710938 2215.585938 L 2341.949219 2103.945312 C 2351.378906 2010.929688 2347.25 1909.390625 2329.558594 1799.320312 C 2316.039062 1743.039062 2289.589844 1709.242188 2250.179688 1697.925781 C 2239.960938 1695.105469 2228.199219 1693.691406 2214.898438 1693.691406 Z M 2214.898438 1693.691406 "/>
</clipPath>
<clipPath id="clip-8">
<path clip-rule="nonzero" d="M 2214.898438 1693.691406 C 2212.410156 1693.691406 2209.871094 1693.742188 2207.269531 1693.839844 L 2159 1698.453125 L 2153.441406 1699.347656 L 2139.820312 1700.28125 L 2139.820312 1700.285156 L 2130.320312 1701.191406 C 2127.578125 1701.289062 2124.839844 1701.390625 2122.121094 1701.492188 L 2122.21875 1701.496094 L 1959.261719 1712.671875 C 1867.78125 1722.214844 1787.730469 1730.488281 1719.109375 1737.492188 L 1719.199219 1737.496094 L 1558.890625 1754.574219 L 1392.089844 1768.824219 C 1358.839844 1771.304688 1323.980469 1773.222656 1287.5 1774.570312 L 1287.589844 1774.574219 C 1253.148438 1776.199219 1223.089844 1777.011719 1197.390625 1777.011719 C 1194.28125 1777.011719 1191.230469 1776.996094 1188.261719 1776.972656 C 1183.308594 1776.960938 1178.378906 1776.945312 1173.480469 1776.917969 L 1173.390625 1776.921875 C 1168.480469 1776.945312 1163.558594 1776.960938 1158.609375 1776.972656 C 1155.628906 1776.996094 1152.578125 1777.011719 1149.46875 1777.011719 C 1123.769531 1777.011719 1093.699219 1776.195312 1059.269531 1774.570312 L 1059.351562 1774.574219 C 1022.878906 1773.222656 988.015625 1771.304688 954.773438 1768.824219 L 787.972656 1754.574219 L 627.414062 1737.464844 L 627.496094 1737.46875 C 558.933594 1730.46875 478.96875 1722.203125 387.605469 1712.671875 L 224.621094 1701.488281 L 224.699219 1701.492188 C 221.992188 1701.390625 219.273438 1701.289062 216.539062 1701.191406 L 207.039062 1700.28125 L 207.039062 1700.285156 L 193.425781 1699.347656 L 187.859375 1698.453125 L 187.859375 1698.457031 L 139.585938 1693.839844 C 136.992188 1693.742188 134.449219 1693.691406 131.957031 1693.691406 C 118.664062 1693.691406 106.90625 1695.105469 96.683594 1697.925781 C 57.277344 1709.242188 30.820312 1743.039062 17.304688 1799.320312 C -0.382812 1909.390625 -4.511719 2010.929688 4.921875 2103.945312 L 23.160156 2215.585938 C 23.679688 2217.996094 24.253906 2220.308594 24.878906 2222.527344 L 24.953125 2222.53125 C 25.628906 2223.90625 26.316406 2225.230469 27.011719 2226.507812 C 28.039062 2238.621094 41.164062 2251.867188 66.386719 2266.253906 L 66.464844 2266.257812 C 70.019531 2267.613281 73.875 2268.949219 78.03125 2270.273438 L 169.6875 2287.992188 L 181.210938 2290.273438 C 512.355469 2348.773438 840.339844 2379.730469 1165.160156 2383.144531 C 1167.910156 2383.171875 1170.660156 2383.203125 1173.429688 2383.226562 L 1173.429688 2383.234375 C 1176.191406 2383.203125 1178.960938 2383.171875 1181.710938 2383.144531 C 1506.519531 2379.730469 1834.511719 2348.773438 2165.660156 2290.273438 L 2177.179688 2287.992188 L 2268.839844 2270.273438 C 2272.960938 2268.957031 2276.800781 2267.628906 2280.339844 2266.277344 L 2280.429688 2266.28125 C 2305.679688 2251.882812 2318.820312 2238.625 2319.859375 2226.507812 C 2320.53125 2225.265625 2321.199219 2223.972656 2321.859375 2222.632812 L 2321.960938 2222.640625 C 2322.589844 2220.382812 2323.179688 2218.035156 2323.710938 2215.585938 L 2341.949219 2103.945312 C 2351.378906 2010.929688 2347.25 1909.390625 2329.558594 1799.320312 C 2316.039062 1743.039062 2289.589844 1709.242188 2250.179688 1697.925781 C 2239.960938 1695.105469 2228.199219 1693.691406 2214.898438 1693.691406 Z M 2214.898438 1693.691406 "/>
</clipPath>
<linearGradient id="linear-pattern-2" gradientUnits="userSpaceOnUse" x1="-1169.349333" y1="1789.41" x2="1959.984" y2="1789.41" gradientTransform="matrix(0.75, 0, 0, 0.75, 877.012, 655.34)">
<stop offset="0" stop-color="rgb(97.885132%, 55.001831%, 6.5979%)" stop-opacity="1"/>
<stop offset="0.015625" stop-color="rgb(97.80426%, 54.850769%, 6.561279%)" stop-opacity="1"/>
<stop offset="0.03125" stop-color="rgb(97.642517%, 54.547119%, 6.489563%)" stop-opacity="1"/>
<stop offset="0.046875" stop-color="rgb(97.4823%, 54.243469%, 6.417847%)" stop-opacity="1"/>
<stop offset="0.0625" stop-color="rgb(97.322083%, 53.939819%, 6.347656%)" stop-opacity="1"/>
<stop offset="0.078125" stop-color="rgb(97.160339%, 53.636169%, 6.27594%)" stop-opacity="1"/>
<stop offset="0.09375" stop-color="rgb(97.000122%, 53.33252%, 6.204224%)" stop-opacity="1"/>
<stop offset="0.109375" stop-color="rgb(96.839905%, 53.02887%, 6.132507%)" stop-opacity="1"/>
<stop offset="0.125" stop-color="rgb(96.679688%, 52.726746%, 6.060791%)" stop-opacity="1"/>
<stop offset="0.140625" stop-color="rgb(96.517944%, 52.423096%, 5.990601%)" stop-opacity="1"/>
<stop offset="0.15625" stop-color="rgb(96.357727%, 52.119446%, 5.918884%)" stop-opacity="1"/>
<stop offset="0.171875" stop-color="rgb(96.19751%, 51.815796%, 5.847168%)" stop-opacity="1"/>
<stop offset="0.1875" stop-color="rgb(96.037292%, 51.512146%, 5.775452%)" stop-opacity="1"/>
<stop offset="0.203125" stop-color="rgb(95.875549%, 51.208496%, 5.703735%)" stop-opacity="1"/>
<stop offset="0.21875" stop-color="rgb(95.715332%, 50.904846%, 5.633545%)" stop-opacity="1"/>
<stop offset="0.234375" stop-color="rgb(95.555115%, 50.602722%, 5.561829%)" stop-opacity="1"/>
<stop offset="0.25" stop-color="rgb(95.393372%, 50.299072%, 5.490112%)" stop-opacity="1"/>
<stop offset="0.265625" stop-color="rgb(95.233154%, 49.995422%, 5.418396%)" stop-opacity="1"/>
<stop offset="0.28125" stop-color="rgb(95.072937%, 49.691772%, 5.348206%)" stop-opacity="1"/>
<stop offset="0.296875" stop-color="rgb(94.91272%, 49.388123%, 5.276489%)" stop-opacity="1"/>
<stop offset="0.3125" stop-color="rgb(94.750977%, 49.084473%, 5.204773%)" stop-opacity="1"/>
<stop offset="0.328125" stop-color="rgb(94.590759%, 48.780823%, 5.133057%)" stop-opacity="1"/>
<stop offset="0.34375" stop-color="rgb(94.430542%, 48.478699%, 5.06134%)" stop-opacity="1"/>
<stop offset="0.359375" stop-color="rgb(94.270325%, 48.175049%, 4.99115%)" stop-opacity="1"/>
<stop offset="0.375" stop-color="rgb(94.108582%, 47.871399%, 4.919434%)" stop-opacity="1"/>
<stop offset="0.390625" stop-color="rgb(93.948364%, 47.567749%, 4.847717%)" stop-opacity="1"/>
<stop offset="0.40625" stop-color="rgb(93.788147%, 47.264099%, 4.776001%)" stop-opacity="1"/>
<stop offset="0.421875" stop-color="rgb(93.626404%, 46.960449%, 4.704285%)" stop-opacity="1"/>
<stop offset="0.4375" stop-color="rgb(93.466187%, 46.658325%, 4.634094%)" stop-opacity="1"/>
<stop offset="0.453125" stop-color="rgb(93.305969%, 46.354675%, 4.562378%)" stop-opacity="1"/>
<stop offset="0.46875" stop-color="rgb(93.145752%, 46.051025%, 4.490662%)" stop-opacity="1"/>
<stop offset="0.484375" stop-color="rgb(92.984009%, 45.747375%, 4.418945%)" stop-opacity="1"/>
<stop offset="0.5" stop-color="rgb(92.823792%, 45.443726%, 4.347229%)" stop-opacity="1"/>
<stop offset="0.515625" stop-color="rgb(92.663574%, 45.140076%, 4.277039%)" stop-opacity="1"/>
<stop offset="0.53125" stop-color="rgb(92.501831%, 44.836426%, 4.205322%)" stop-opacity="1"/>
<stop offset="0.546875" stop-color="rgb(92.341614%, 44.534302%, 4.133606%)" stop-opacity="1"/>
<stop offset="0.5625" stop-color="rgb(92.181396%, 44.230652%, 4.06189%)" stop-opacity="1"/>
<stop offset="0.578125" stop-color="rgb(92.021179%, 43.927002%, 3.991699%)" stop-opacity="1"/>
<stop offset="0.59375" stop-color="rgb(91.859436%, 43.623352%, 3.919983%)" stop-opacity="1"/>
<stop offset="0.609375" stop-color="rgb(91.699219%, 43.319702%, 3.848267%)" stop-opacity="1"/>
<stop offset="0.625" stop-color="rgb(91.539001%, 43.016052%, 3.77655%)" stop-opacity="1"/>
<stop offset="0.640625" stop-color="rgb(91.378784%, 42.712402%, 3.704834%)" stop-opacity="1"/>
<stop offset="0.65625" stop-color="rgb(91.217041%, 42.410278%, 3.634644%)" stop-opacity="1"/>
<stop offset="0.671875" stop-color="rgb(91.056824%, 42.106628%, 3.562927%)" stop-opacity="1"/>
<stop offset="0.6875" stop-color="rgb(90.896606%, 41.802979%, 3.491211%)" stop-opacity="1"/>
<stop offset="0.703125" stop-color="rgb(90.734863%, 41.499329%, 3.419495%)" stop-opacity="1"/>
<stop offset="0.71875" stop-color="rgb(90.574646%, 41.195679%, 3.347778%)" stop-opacity="1"/>
<stop offset="0.734375" stop-color="rgb(90.414429%, 40.892029%, 3.277588%)" stop-opacity="1"/>
<stop offset="0.75" stop-color="rgb(90.254211%, 40.588379%, 3.205872%)" stop-opacity="1"/>
<stop offset="0.765625" stop-color="rgb(90.092468%, 40.286255%, 3.134155%)" stop-opacity="1"/>
<stop offset="0.78125" stop-color="rgb(89.932251%, 39.982605%, 3.062439%)" stop-opacity="1"/>
<stop offset="0.796875" stop-color="rgb(89.772034%, 39.678955%, 2.990723%)" stop-opacity="1"/>
<stop offset="0.8125" stop-color="rgb(89.610291%, 39.375305%, 2.920532%)" stop-opacity="1"/>
<stop offset="0.828125" stop-color="rgb(89.450073%, 39.071655%, 2.848816%)" stop-opacity="1"/>
<stop offset="0.84375" stop-color="rgb(89.289856%, 38.768005%, 2.7771%)" stop-opacity="1"/>
<stop offset="0.859375" stop-color="rgb(89.129639%, 38.464355%, 2.705383%)" stop-opacity="1"/>
<stop offset="0.875" stop-color="rgb(88.967896%, 38.162231%, 2.635193%)" stop-opacity="1"/>
<stop offset="0.890625" stop-color="rgb(88.807678%, 37.858582%, 2.563477%)" stop-opacity="1"/>
<stop offset="0.90625" stop-color="rgb(88.647461%, 37.554932%, 2.49176%)" stop-opacity="1"/>
<stop offset="0.921875" stop-color="rgb(88.487244%, 37.251282%, 2.420044%)" stop-opacity="1"/>
<stop offset="0.9375" stop-color="rgb(88.3255%, 36.947632%, 2.348328%)" stop-opacity="1"/>
<stop offset="0.953125" stop-color="rgb(88.165283%, 36.643982%, 2.278137%)" stop-opacity="1"/>
<stop offset="0.96875" stop-color="rgb(88.005066%, 36.340332%, 2.206421%)" stop-opacity="1"/>
<stop offset="0.984375" stop-color="rgb(87.843323%, 36.038208%, 2.134705%)" stop-opacity="1"/>
<stop offset="1" stop-color="rgb(87.683105%, 35.734558%, 2.062988%)" stop-opacity="1"/>
</linearGradient>
<clipPath id="clip-9">
<path clip-rule="nonzero" d="M 170 384 L 2177 384 L 2177 1617 L 170 1617 Z M 170 384 "/>
</clipPath>
<clipPath id="clip-10">
<path clip-rule="nonzero" d="M 686.515625 384.171875 L 686.515625 384.179688 C 685.625 384.730469 684.734375 385.269531 683.84375 385.828125 C 632.207031 418.121094 584.019531 452.710938 539.292969 489.589844 L 539.402344 489.589844 C 590.640625 494.910156 637.183594 499.691406 679.035156 503.96875 L 678.960938 503.96875 L 824.359375 519.460938 L 975.417969 532.359375 C 1005.519531 534.609375 1037.089844 536.339844 1070.121094 537.570312 L 1070.039062 537.570312 C 1101.230469 539.039062 1128.460938 539.78125 1151.730469 539.78125 C 1154.550781 539.78125 1157.308594 539.769531 1160 539.738281 C 1164.488281 539.730469 1168.949219 539.71875 1173.390625 539.691406 L 1173.46875 539.699219 C 1177.910156 539.71875 1182.371094 539.730469 1186.859375 539.738281 C 1189.558594 539.769531 1192.308594 539.78125 1195.128906 539.78125 C 1218.398438 539.78125 1245.628906 539.039062 1276.808594 537.570312 L 1276.730469 537.570312 C 1309.769531 536.351562 1341.339844 534.609375 1371.441406 532.359375 L 1522.5 519.460938 L 1667.679688 503.988281 L 1667.589844 504 C 1709.5 499.710938 1756.121094 494.910156 1807.449219 489.589844 L 1807.570312 489.589844 C 1762.839844 452.710938 1714.660156 418.121094 1663.019531 385.828125 C 1662.128906 385.269531 1661.238281 384.71875 1660.351562 384.171875 L 1660.230469 384.179688 C 1632.878906 387 1607.351562 389.621094 1583.628906 392.039062 L 1583.699219 392.039062 L 1463.191406 404.878906 L 1337.808594 415.589844 C 1312.808594 417.460938 1286.601562 418.898438 1259.179688 419.910156 L 1259.25 419.921875 C 1233.359375 421.140625 1210.761719 421.75 1191.441406 421.75 C 1189.101562 421.75 1186.820312 421.738281 1184.570312 421.71875 C 1180.851562 421.710938 1177.148438 421.691406 1173.460938 421.679688 L 1173.390625 421.679688 C 1169.710938 421.699219 1166.011719 421.710938 1162.289062 421.71875 C 1160.050781 421.738281 1157.761719 421.75 1155.421875 421.75 C 1136.101562 421.75 1113.5 421.128906 1087.609375 419.910156 L 1087.679688 419.921875 C 1060.25 418.898438 1034.050781 417.460938 1009.058594 415.589844 L 883.667969 404.878906 L 762.972656 392.019531 L 763.039062 392.03125 C 739.375 389.609375 713.90625 386.988281 686.628906 384.171875 Z M 361.914062 676.359375 C 336.460938 714.320312 321.679688 740.820312 317.5625 755.851562 C 308.019531 775.089844 299.035156 794.609375 290.605469 814.398438 L 290.714844 814.398438 L 299.820312 815.019531 C 401.394531 825.621094 490.289062 834.808594 566.507812 842.589844 L 566.417969 842.589844 L 744.914062 861.601562 L 930.351562 877.441406 C 967.308594 880.199219 1006.058594 882.328125 1046.609375 883.828125 L 1046.511719 883.839844 C 1084.800781 885.640625 1118.230469 886.539062 1146.800781 886.539062 C 1150.25 886.539062 1153.640625 886.53125 1156.949219 886.5 C 1162.460938 886.488281 1167.929688 886.46875 1173.378906 886.441406 L 1173.480469 886.441406 C 1178.929688 886.46875 1184.410156 886.488281 1189.910156 886.5 C 1193.230469 886.53125 1196.609375 886.539062 1200.070312 886.539062 C 1228.640625 886.539062 1262.058594 885.640625 1300.339844 883.828125 L 1300.238281 883.839844 C 1340.800781 882.328125 1379.558594 880.199219 1416.519531 877.441406 L 1601.949219 861.601562 L 1780.160156 842.621094 L 1780.058594 842.621094 C 1856.339844 834.828125 1945.339844 825.628906 2047.039062 815.019531 L 2056.128906 814.398438 L 2056.261719 814.398438 C 2047.828125 794.609375 2038.839844 775.089844 2029.300781 755.851562 C 2025.179688 740.820312 2010.398438 714.320312 1984.949219 676.371094 L 1984.820312 676.371094 L 1898.609375 682.28125 C 1814.191406 691.089844 1740.320312 698.71875 1676.988281 705.179688 L 1677.078125 705.191406 L 1529.140625 720.941406 L 1375.210938 734.101562 C 1344.53125 736.390625 1312.359375 738.160156 1278.691406 739.398438 L 1278.78125 739.410156 C 1247 740.898438 1219.25 741.648438 1195.539062 741.648438 C 1192.671875 741.648438 1189.859375 741.640625 1187.109375 741.621094 C 1182.539062 741.609375 1177.988281 741.589844 1173.46875 741.570312 L 1173.390625 741.570312 C 1168.871094 741.589844 1164.320312 741.609375 1159.75 741.621094 C 1157 741.640625 1154.191406 741.648438 1151.320312 741.648438 C 1127.609375 741.648438 1099.859375 740.898438 1068.070312 739.398438 L 1068.160156 739.410156 C 1034.5 738.160156 1002.320312 736.390625 971.644531 734.101562 L 817.71875 720.941406 L 669.550781 705.160156 L 669.628906 705.171875 C 606.355469 698.710938 532.566406 691.078125 448.25 682.28125 L 362.023438 676.359375 Z M 223.625 1016.730469 C 214.339844 1058.511719 205.835938 1107.910156 198.113281 1164.949219 L 198.21875 1164.949219 L 257.710938 1169.03125 C 364.179688 1180.140625 457.363281 1189.769531 537.257812 1197.929688 L 537.160156 1197.929688 L 724.261719 1217.859375 L 918.628906 1234.46875 C 957.371094 1237.359375 997.992188 1239.589844 1040.5 1241.160156 L 1040.390625 1241.171875 C 1080.53125 1243.058594 1115.570312 1244 1145.511719 1244 C 1149.140625 1244 1152.679688 1243.988281 1156.160156 1243.960938 C 1161.929688 1243.949219 1167.671875 1243.929688 1173.378906 1243.898438 L 1173.480469 1243.898438 C 1179.191406 1243.929688 1184.941406 1243.949219 1190.710938 1243.960938 C 1194.179688 1243.988281 1197.730469 1244 1201.351562 1244 C 1231.300781 1244 1266.328125 1243.058594 1306.460938 1241.160156 L 1306.359375 1241.171875 C 1348.871094 1239.589844 1389.488281 1237.359375 1428.230469 1234.460938 L 1622.601562 1217.859375 L 1809.410156 1197.960938 L 1809.308594 1197.960938 C 1889.269531 1189.800781 1982.550781 1180.160156 2089.148438 1169.03125 L 2148.628906 1164.949219 L 2148.75 1164.960938 C 2141.03125 1107.921875 2132.53125 1058.511719 2123.238281 1016.730469 L 2123.109375 1016.730469 L 2121.398438 1017 L 2108.230469 1017.910156 L 2099.039062 1018.78125 C 2096.390625 1018.878906 2093.738281 1018.980469 2091.109375 1019.078125 L 2091.199219 1019.078125 L 1933.570312 1029.890625 C 1845.078125 1039.121094 1767.640625 1047.128906 1701.269531 1053.898438 L 1701.359375 1053.910156 L 1546.289062 1070.421875 L 1384.941406 1084.210938 C 1352.78125 1086.609375 1319.058594 1088.460938 1283.769531 1089.769531 L 1283.859375 1089.769531 C 1250.550781 1091.339844 1221.460938 1092.121094 1196.609375 1092.121094 C 1193.601562 1092.121094 1190.660156 1092.109375 1187.769531 1092.089844 C 1182.980469 1092.078125 1178.210938 1092.058594 1173.46875 1092.039062 L 1173.390625 1092.039062 C 1168.648438 1092.070312 1163.878906 1092.078125 1159.089844 1092.089844 C 1156.210938 1092.109375 1153.269531 1092.121094 1150.261719 1092.121094 C 1125.398438 1092.121094 1096.308594 1091.339844 1063 1089.769531 L 1063.078125 1089.769531 C 1027.800781 1088.460938 994.078125 1086.609375 961.921875 1084.210938 L 800.574219 1070.421875 L 645.261719 1053.871094 L 645.34375 1053.878906 C 579.023438 1047.109375 501.675781 1039.109375 413.296875 1029.890625 L 255.640625 1019.070312 L 255.71875 1019.078125 C 253.097656 1018.980469 250.46875 1018.878906 247.824219 1018.78125 L 238.636719 1017.910156 L 225.464844 1017 L 223.734375 1016.730469 Z M 175.992188 1375.640625 C 173.121094 1416.792969 171.164062 1469.824219 170.109375 1534.730469 L 170.214844 1534.734375 L 198.527344 1536.671875 C 311.878906 1548.5 411.082031 1558.753906 496.140625 1567.433594 L 496.035156 1567.4375 L 695.226562 1588.652344 L 902.164062 1606.335938 C 943.40625 1609.414062 986.652344 1611.789062 1031.898438 1613.464844 L 1031.800781 1613.46875 C 1074.519531 1615.484375 1111.820312 1616.488281 1143.710938 1616.488281 C 1147.558594 1616.488281 1151.339844 1616.476562 1155.039062 1616.445312 C 1161.179688 1616.433594 1167.289062 1616.410156 1173.378906 1616.378906 L 1173.480469 1616.382812 C 1179.570312 1616.414062 1185.679688 1616.433594 1191.820312 1616.445312 C 1195.519531 1616.476562 1199.300781 1616.488281 1203.148438 1616.488281 C 1235.039062 1616.488281 1272.339844 1615.480469 1315.058594 1613.464844 L 1314.941406 1613.472656 C 1360.199219 1611.792969 1403.449219 1609.414062 1444.699219 1606.335938 L 1651.628906 1588.652344 L 1850.519531 1567.464844 L 1850.398438 1567.46875 C 1935.53125 1558.78125 2034.839844 1548.515625 2148.328125 1536.671875 L 2176.628906 1534.730469 L 2176.75 1534.734375 C 2175.699219 1469.828125 2173.738281 1416.792969 2170.878906 1375.640625 L 2170.75 1375.640625 L 2168.640625 1375.78125 L 2158.859375 1376.710938 C 2156.03125 1376.820312 2153.21875 1376.921875 2150.421875 1377.03125 L 2150.511719 1377.03125 L 1982.691406 1388.539062 C 1888.480469 1398.371094 1806.050781 1406.890625 1735.378906 1414.101562 L 1735.480469 1414.105469 L 1570.390625 1431.6875 L 1398.609375 1446.367188 C 1364.371094 1448.921875 1328.46875 1450.894531 1290.898438 1452.285156 L 1290.988281 1452.289062 C 1255.53125 1453.960938 1224.570312 1454.796875 1198.101562 1454.796875 C 1194.898438 1454.796875 1191.769531 1454.785156 1188.699219 1454.761719 C 1183.601562 1454.75 1178.519531 1454.730469 1173.480469 1454.703125 L 1173.390625 1454.707031 C 1168.339844 1454.730469 1163.269531 1454.75 1158.160156 1454.761719 C 1155.089844 1454.785156 1151.960938 1454.796875 1148.761719 1454.796875 C 1122.289062 1454.796875 1091.320312 1453.957031 1055.859375 1452.285156 L 1055.949219 1452.289062 C 1018.390625 1450.898438 982.484375 1448.921875 948.25 1446.367188 L 776.472656 1431.6875 L 611.128906 1414.074219 L 611.214844 1414.082031 C 540.605469 1406.871094 458.257812 1398.359375 364.164062 1388.539062 L 196.324219 1377.019531 L 196.402344 1377.03125 C 193.613281 1376.921875 190.8125 1376.820312 188 1376.710938 L 178.21875 1375.78125 L 176.097656 1375.640625 Z M 175.992188 1375.640625 "/>
</clipPath>
<clipPath id="clip-11">
<path clip-rule="nonzero" d="M 686.515625 384.171875 L 686.515625 384.179688 C 685.625 384.730469 684.734375 385.269531 683.84375 385.828125 C 632.207031 418.121094 584.019531 452.710938 539.292969 489.589844 L 539.402344 489.589844 C 590.640625 494.910156 637.183594 499.691406 679.035156 503.96875 L 678.960938 503.96875 L 824.359375 519.460938 L 975.417969 532.359375 C 1005.519531 534.609375 1037.089844 536.339844 1070.121094 537.570312 L 1070.039062 537.570312 C 1101.230469 539.039062 1128.460938 539.78125 1151.730469 539.78125 C 1154.550781 539.78125 1157.308594 539.769531 1160 539.738281 C 1164.488281 539.730469 1168.949219 539.71875 1173.390625 539.691406 L 1173.46875 539.699219 C 1177.910156 539.71875 1182.371094 539.730469 1186.859375 539.738281 C 1189.558594 539.769531 1192.308594 539.78125 1195.128906 539.78125 C 1218.398438 539.78125 1245.628906 539.039062 1276.808594 537.570312 L 1276.730469 537.570312 C 1309.769531 536.351562 1341.339844 534.609375 1371.441406 532.359375 L 1522.5 519.460938 L 1667.679688 503.988281 L 1667.589844 504 C 1709.5 499.710938 1756.121094 494.910156 1807.449219 489.589844 L 1807.570312 489.589844 C 1762.839844 452.710938 1714.660156 418.121094 1663.019531 385.828125 C 1662.128906 385.269531 1661.238281 384.71875 1660.351562 384.171875 L 1660.230469 384.179688 C 1632.878906 387 1607.351562 389.621094 1583.628906 392.039062 L 1583.699219 392.039062 L 1463.191406 404.878906 L 1337.808594 415.589844 C 1312.808594 417.460938 1286.601562 418.898438 1259.179688 419.910156 L 1259.25 419.921875 C 1233.359375 421.140625 1210.761719 421.75 1191.441406 421.75 C 1189.101562 421.75 1186.820312 421.738281 1184.570312 421.71875 C 1180.851562 421.710938 1177.148438 421.691406 1173.460938 421.679688 L 1173.390625 421.679688 C 1169.710938 421.699219 1166.011719 421.710938 1162.289062 421.71875 C 1160.050781 421.738281 1157.761719 421.75 1155.421875 421.75 C 1136.101562 421.75 1113.5 421.128906 1087.609375 419.910156 L 1087.679688 419.921875 C 1060.25 418.898438 1034.050781 417.460938 1009.058594 415.589844 L 883.667969 404.878906 L 762.972656 392.019531 L 763.039062 392.03125 C 739.375 389.609375 713.90625 386.988281 686.628906 384.171875 Z M 361.914062 676.359375 C 336.460938 714.320312 321.679688 740.820312 317.5625 755.851562 C 308.019531 775.089844 299.035156 794.609375 290.605469 814.398438 L 290.714844 814.398438 L 299.820312 815.019531 C 401.394531 825.621094 490.289062 834.808594 566.507812 842.589844 L 566.417969 842.589844 L 744.914062 861.601562 L 930.351562 877.441406 C 967.308594 880.199219 1006.058594 882.328125 1046.609375 883.828125 L 1046.511719 883.839844 C 1084.800781 885.640625 1118.230469 886.539062 1146.800781 886.539062 C 1150.25 886.539062 1153.640625 886.53125 1156.949219 886.5 C 1162.460938 886.488281 1167.929688 886.46875 1173.378906 886.441406 L 1173.480469 886.441406 C 1178.929688 886.46875 1184.410156 886.488281 1189.910156 886.5 C 1193.230469 886.53125 1196.609375 886.539062 1200.070312 886.539062 C 1228.640625 886.539062 1262.058594 885.640625 1300.339844 883.828125 L 1300.238281 883.839844 C 1340.800781 882.328125 1379.558594 880.199219 1416.519531 877.441406 L 1601.949219 861.601562 L 1780.160156 842.621094 L 1780.058594 842.621094 C 1856.339844 834.828125 1945.339844 825.628906 2047.039062 815.019531 L 2056.128906 814.398438 L 2056.261719 814.398438 C 2047.828125 794.609375 2038.839844 775.089844 2029.300781 755.851562 C 2025.179688 740.820312 2010.398438 714.320312 1984.949219 676.371094 L 1984.820312 676.371094 L 1898.609375 682.28125 C 1814.191406 691.089844 1740.320312 698.71875 1676.988281 705.179688 L 1677.078125 705.191406 L 1529.140625 720.941406 L 1375.210938 734.101562 C 1344.53125 736.390625 1312.359375 738.160156 1278.691406 739.398438 L 1278.78125 739.410156 C 1247 740.898438 1219.25 741.648438 1195.539062 741.648438 C 1192.671875 741.648438 1189.859375 741.640625 1187.109375 741.621094 C 1182.539062 741.609375 1177.988281 741.589844 1173.46875 741.570312 L 1173.390625 741.570312 C 1168.871094 741.589844 1164.320312 741.609375 1159.75 741.621094 C 1157 741.640625 1154.191406 741.648438 1151.320312 741.648438 C 1127.609375 741.648438 1099.859375 740.898438 1068.070312 739.398438 L 1068.160156 739.410156 C 1034.5 738.160156 1002.320312 736.390625 971.644531 734.101562 L 817.71875 720.941406 L 669.550781 705.160156 L 669.628906 705.171875 C 606.355469 698.710938 532.566406 691.078125 448.25 682.28125 L 362.023438 676.359375 Z M 223.625 1016.730469 C 214.339844 1058.511719 205.835938 1107.910156 198.113281 1164.949219 L 198.21875 1164.949219 L 257.710938 1169.03125 C 364.179688 1180.140625 457.363281 1189.769531 537.257812 1197.929688 L 537.160156 1197.929688 L 724.261719 1217.859375 L 918.628906 1234.46875 C 957.371094 1237.359375 997.992188 1239.589844 1040.5 1241.160156 L 1040.390625 1241.171875 C 1080.53125 1243.058594 1115.570312 1244 1145.511719 1244 C 1149.140625 1244 1152.679688 1243.988281 1156.160156 1243.960938 C 1161.929688 1243.949219 1167.671875 1243.929688 1173.378906 1243.898438 L 1173.480469 1243.898438 C 1179.191406 1243.929688 1184.941406 1243.949219 1190.710938 1243.960938 C 1194.179688 1243.988281 1197.730469 1244 1201.351562 1244 C 1231.300781 1244 1266.328125 1243.058594 1306.460938 1241.160156 L 1306.359375 1241.171875 C 1348.871094 1239.589844 1389.488281 1237.359375 1428.230469 1234.460938 L 1622.601562 1217.859375 L 1809.410156 1197.960938 L 1809.308594 1197.960938 C 1889.269531 1189.800781 1982.550781 1180.160156 2089.148438 1169.03125 L 2148.628906 1164.949219 L 2148.75 1164.960938 C 2141.03125 1107.921875 2132.53125 1058.511719 2123.238281 1016.730469 L 2123.109375 1016.730469 L 2121.398438 1017 L 2108.230469 1017.910156 L 2099.039062 1018.78125 C 2096.390625 1018.878906 2093.738281 1018.980469 2091.109375 1019.078125 L 2091.199219 1019.078125 L 1933.570312 1029.890625 C 1845.078125 1039.121094 1767.640625 1047.128906 1701.269531 1053.898438 L 1701.359375 1053.910156 L 1546.289062 1070.421875 L 1384.941406 1084.210938 C 1352.78125 1086.609375 1319.058594 1088.460938 1283.769531 1089.769531 L 1283.859375 1089.769531 C 1250.550781 1091.339844 1221.460938 1092.121094 1196.609375 1092.121094 C 1193.601562 1092.121094 1190.660156 1092.109375 1187.769531 1092.089844 C 1182.980469 1092.078125 1178.210938 1092.058594 1173.46875 1092.039062 L 1173.390625 1092.039062 C 1168.648438 1092.070312 1163.878906 1092.078125 1159.089844 1092.089844 C 1156.210938 1092.109375 1153.269531 1092.121094 1150.261719 1092.121094 C 1125.398438 1092.121094 1096.308594 1091.339844 1063 1089.769531 L 1063.078125 1089.769531 C 1027.800781 1088.460938 994.078125 1086.609375 961.921875 1084.210938 L 800.574219 1070.421875 L 645.261719 1053.871094 L 645.34375 1053.878906 C 579.023438 1047.109375 501.675781 1039.109375 413.296875 1029.890625 L 255.640625 1019.070312 L 255.71875 1019.078125 C 253.097656 1018.980469 250.46875 1018.878906 247.824219 1018.78125 L 238.636719 1017.910156 L 225.464844 1017 L 223.734375 1016.730469 Z M 175.992188 1375.640625 C 173.121094 1416.792969 171.164062 1469.824219 170.109375 1534.730469 L 170.214844 1534.734375 L 198.527344 1536.671875 C 311.878906 1548.5 411.082031 1558.753906 496.140625 1567.433594 L 496.035156 1567.4375 L 695.226562 1588.652344 L 902.164062 1606.335938 C 943.40625 1609.414062 986.652344 1611.789062 1031.898438 1613.464844 L 1031.800781 1613.46875 C 1074.519531 1615.484375 1111.820312 1616.488281 1143.710938 1616.488281 C 1147.558594 1616.488281 1151.339844 1616.476562 1155.039062 1616.445312 C 1161.179688 1616.433594 1167.289062 1616.410156 1173.378906 1616.378906 L 1173.480469 1616.382812 C 1179.570312 1616.414062 1185.679688 1616.433594 1191.820312 1616.445312 C 1195.519531 1616.476562 1199.300781 1616.488281 1203.148438 1616.488281 C 1235.039062 1616.488281 1272.339844 1615.480469 1315.058594 1613.464844 L 1314.941406 1613.472656 C 1360.199219 1611.792969 1403.449219 1609.414062 1444.699219 1606.335938 L 1651.628906 1588.652344 L 1850.519531 1567.464844 L 1850.398438 1567.46875 C 1935.53125 1558.78125 2034.839844 1548.515625 2148.328125 1536.671875 L 2176.628906 1534.730469 L 2176.75 1534.734375 C 2175.699219 1469.828125 2173.738281 1416.792969 2170.878906 1375.640625 L 2170.75 1375.640625 L 2168.640625 1375.78125 L 2158.859375 1376.710938 C 2156.03125 1376.820312 2153.21875 1376.921875 2150.421875 1377.03125 L 2150.511719 1377.03125 L 1982.691406 1388.539062 C 1888.480469 1398.371094 1806.050781 1406.890625 1735.378906 1414.101562 L 1735.480469 1414.105469 L 1570.390625 1431.6875 L 1398.609375 1446.367188 C 1364.371094 1448.921875 1328.46875 1450.894531 1290.898438 1452.285156 L 1290.988281 1452.289062 C 1255.53125 1453.960938 1224.570312 1454.796875 1198.101562 1454.796875 C 1194.898438 1454.796875 1191.769531 1454.785156 1188.699219 1454.761719 C 1183.601562 1454.75 1178.519531 1454.730469 1173.480469 1454.703125 L 1173.390625 1454.707031 C 1168.339844 1454.730469 1163.269531 1454.75 1158.160156 1454.761719 C 1155.089844 1454.785156 1151.960938 1454.796875 1148.761719 1454.796875 C 1122.289062 1454.796875 1091.320312 1453.957031 1055.859375 1452.285156 L 1055.949219 1452.289062 C 1018.390625 1450.898438 982.484375 1448.921875 948.25 1446.367188 L 776.472656 1431.6875 L 611.128906 1414.074219 L 611.214844 1414.082031 C 540.605469 1406.871094 458.257812 1398.359375 364.164062 1388.539062 L 196.324219 1377.019531 L 196.402344 1377.03125 C 193.613281 1376.921875 190.8125 1376.820312 188 1376.710938 L 178.21875 1375.78125 L 176.097656 1375.640625 Z M 175.992188 1375.640625 "/>
</clipPath>
<linearGradient id="linear-pattern-3" gradientUnits="userSpaceOnUse" x1="-942.537333" y1="715.117" x2="1732.984" y2="715.117" gradientTransform="matrix(0.75, 0, 0, 0.75, 877.012, 655.34)">
<stop offset="0" stop-color="rgb(98.822021%, 76.469421%, 0%)" stop-opacity="1"/>
<stop offset="0.125" stop-color="rgb(98.796082%, 76.339722%, 0.038147%)" stop-opacity="1"/>
<stop offset="0.15625" stop-color="rgb(98.74115%, 76.057434%, 0.12207%)" stop-opacity="1"/>
<stop offset="0.1875" stop-color="rgb(98.680115%, 75.752258%, 0.213623%)" stop-opacity="1"/>
<stop offset="0.21875" stop-color="rgb(98.61908%, 75.447083%, 0.305176%)" stop-opacity="1"/>
<stop offset="0.25" stop-color="rgb(98.558044%, 75.141907%, 0.396729%)" stop-opacity="1"/>
<stop offset="0.28125" stop-color="rgb(98.495483%, 74.836731%, 0.488281%)" stop-opacity="1"/>
<stop offset="0.3125" stop-color="rgb(98.434448%, 74.531555%, 0.579834%)" stop-opacity="1"/>
<stop offset="0.34375" stop-color="rgb(98.373413%, 74.226379%, 0.671387%)" stop-opacity="1"/>
<stop offset="0.375" stop-color="rgb(98.312378%, 73.921204%, 0.762939%)" stop-opacity="1"/>
<stop offset="0.40625" stop-color="rgb(98.251343%, 73.616028%, 0.854492%)" stop-opacity="1"/>
<stop offset="0.4375" stop-color="rgb(98.190308%, 73.310852%, 0.946045%)" stop-opacity="1"/>
<stop offset="0.46875" stop-color="rgb(98.129272%, 73.005676%, 1.037598%)" stop-opacity="1"/>
<stop offset="0.5" stop-color="rgb(98.068237%, 72.7005%, 1.130676%)" stop-opacity="1"/>
<stop offset="0.53125" stop-color="rgb(98.007202%, 72.395325%, 1.222229%)" stop-opacity="1"/>
<stop offset="0.5625" stop-color="rgb(97.946167%, 72.090149%, 1.313782%)" stop-opacity="1"/>
<stop offset="0.59375" stop-color="rgb(97.885132%, 71.784973%, 1.405334%)" stop-opacity="1"/>
<stop offset="0.625" stop-color="rgb(97.824097%, 71.479797%, 1.496887%)" stop-opacity="1"/>
<stop offset="0.65625" stop-color="rgb(97.763062%, 71.174622%, 1.58844%)" stop-opacity="1"/>
<stop offset="0.6875" stop-color="rgb(97.702026%, 70.869446%, 1.679993%)" stop-opacity="1"/>
<stop offset="0.71875" stop-color="rgb(97.640991%, 70.56427%, 1.771545%)" stop-opacity="1"/>
<stop offset="0.75" stop-color="rgb(97.579956%, 70.259094%, 1.863098%)" stop-opacity="1"/>
<stop offset="0.78125" stop-color="rgb(97.518921%, 69.953918%, 1.954651%)" stop-opacity="1"/>
<stop offset="0.8125" stop-color="rgb(97.457886%, 69.648743%, 2.046204%)" stop-opacity="1"/>
<stop offset="0.84375" stop-color="rgb(97.396851%, 69.343567%, 2.137756%)" stop-opacity="1"/>
<stop offset="0.875" stop-color="rgb(97.335815%, 69.038391%, 2.229309%)" stop-opacity="1"/>
<stop offset="1" stop-color="rgb(97.279358%, 68.756104%, 2.313232%)" stop-opacity="1"/>
</linearGradient>
</defs>
<g clip-path="url(#clip-0)">
<g clip-path="url(#clip-1)">
<g clip-path="url(#clip-2)">
<path fill-rule="nonzero" fill="url(#linear-pattern-0)" d="M 972 0 L 972 402.859375 L 1374.859375 402.859375 L 1374.859375 0 Z M 972 0 "/>
</g>
</g>
</g>
<g clip-path="url(#clip-3)">
<g clip-path="url(#clip-4)">
<g clip-path="url(#clip-5)">
<path fill-rule="nonzero" fill="url(#linear-pattern-1)" d="M 168.078125 217.859375 L 168.078125 1807.441406 L 2178.789062 1807.441406 L 2178.789062 217.859375 Z M 168.078125 217.859375 "/>
</g>
</g>
</g>
<g clip-path="url(#clip-6)">
<g clip-path="url(#clip-7)">
<g clip-path="url(#clip-8)">
<path fill-rule="nonzero" fill="url(#linear-pattern-2)" d="M 0 1693.691406 L 0 2383.234375 L 2347 2383.234375 L 2347 1693.691406 Z M 0 1693.691406 "/>
</g>
</g>
</g>
<g clip-path="url(#clip-9)">
<g clip-path="url(#clip-10)">
<g clip-path="url(#clip-11)">
<path fill-rule="nonzero" fill="url(#linear-pattern-3)" d="M 170.109375 384.171875 L 170.109375 1616.488281 L 2176.75 1616.488281 L 2176.75 384.171875 Z M 170.109375 384.171875 "/>
</g>
</g>
</g>
</svg>
