<?xml version="1.0" encoding="UTF-8"?>
<svg xmlns="http://www.w3.org/2000/svg" xmlns:xlink="http://www.w3.org/1999/xlink" width="3000" height="3000" viewBox="0 0 3000 3000">
<path fill-rule="nonzero" fill="rgb(94.921875%, 72.264099%, 29.393005%)" fill-opacity="1" d="M 2601.019531 2516.5 C 2401.691406 2713.808594 2096.621094 2762.191406 1816.96875 2740.738281 C 1537.320312 2719.289062 1264.46875 2639 984.578125 2620.921875 C 961.921875 2619.449219 939.089844 2618.480469 916.160156 2618.03125 C 656.019531 2612.910156 384.03125 2675.679688 207.519531 2863.519531 C 223.449219 2687.921875 293.800781 2517.648438 406.460938 2382.011719 C 348.769531 2408.351562 291.089844 2434.691406 233.398438 2461.03125 C 348.570312 2244.929688 558.351562 2081.769531 797.089844 2026.761719 C 799.828125 2026.128906 802.578125 2025.511719 805.320312 2024.910156 C 814.039062 2022.988281 822.800781 2021.230469 831.601562 2019.601562 C 829.449219 2013.160156 827.378906 2006.691406 825.410156 2000.199219 C 781.699219 1857.351562 777.988281 1701.578125 820.691406 1534.710938 C 1087.820312 1535.53125 1355.011719 1485.320312 1636.078125 1391.039062 C 1888.03125 1559.929688 2252.570312 1403.179688 2519.980469 1546.351562 C 2635.019531 1607.949219 2717.738281 1720.589844 2759.660156 1844.179688 C 2837.609375 2074.011719 2773.488281 2345.75 2601.019531 2516.5 "/>
<path fill-rule="nonzero" fill="rgb(94.921875%, 72.264099%, 29.393005%)" fill-opacity="1" d="M 1821.671875 430.671875 C 1808.148438 518.980469 1784.550781 605.75 1751.28125 688.628906 C 1747.96875 696.851562 1744.570312 705.050781 1741.070312 713.191406 C 1734.878906 727.628906 1728.398438 741.941406 1721.609375 756.109375 C 1608.898438 667.308594 1525.371094 599.960938 1433.28125 547.648438 C 1446.078125 521.050781 1460.148438 495.191406 1475.410156 470.140625 C 1479.621094 463.199219 1483.941406 456.308594 1488.359375 449.488281 C 1523.351562 395.320312 1563.988281 345.160156 1609.5 299.640625 C 1673.71875 235.390625 1747.640625 180.398438 1829.160156 136.480469 C 1839.25 234.328125 1836.570312 333.441406 1821.671875 430.671875 "/>
<path fill-rule="nonzero" fill="rgb(94.921875%, 72.264099%, 29.393005%)" fill-opacity="1" d="M 866.789062 547.648438 C 777.789062 598.191406 696.789062 662.800781 589.71875 747.230469 C 585.988281 750.171875 582.238281 753.121094 578.460938 756.109375 C 575.558594 750.050781 572.710938 743.960938 569.921875 737.839844 C 520.679688 630.078125 488.300781 514.679688 473.75 397.101562 C 463.058594 310.691406 461.980469 223.101562 470.921875 136.480469 C 547.550781 177.769531 617.46875 228.851562 678.929688 288.191406 C 738.210938 345.429688 789.609375 410.371094 831.550781 481.640625 C 835.121094 487.691406 838.609375 493.789062 842.03125 499.929688 C 850.730469 515.558594 859 531.46875 866.789062 547.648438 "/>
<path fill-rule="nonzero" fill="rgb(94.921875%, 72.264099%, 29.393005%)" fill-opacity="1" d="M 1930.710938 1309.460938 C 1929.78125 1310.359375 1928.859375 1311.269531 1927.929688 1312.148438 C 1726.570312 1507.949219 1485.78125 1675.421875 1223.328125 1796.21875 C 1219.488281 1797.980469 1215.648438 1799.730469 1211.800781 1801.480469 C 1197.621094 1799.050781 1183.480469 1796.390625 1169.410156 1793.488281 C 873.929688 1732.640625 603.671875 1568.050781 416.160156 1335.230469 C 415.519531 1334.441406 414.871094 1333.640625 414.230469 1332.839844 C 462.578125 1054.160156 551.128906 785.210938 669.289062 534.878906 C 981.039062 457.898438 1307.5 441 1623.308594 487.648438 C 1784.589844 734.511719 1890.390625 1017.371094 1930.710938 1309.460938 "/>
<path fill-rule="nonzero" fill="rgb(80.076599%, 60.351562%, 23.901367%)" fill-opacity="1" d="M 2706.28125 1877.808594 C 2693.710938 1984.230469 2632.96875 2050.640625 2546.699219 2107.550781 C 2289.789062 2303.109375 1970.988281 2229.191406 1690.738281 2130.671875 C 1046.921875 1946.128906 822.808594 2021.238281 831.609375 2019.609375 C 829.460938 2013.171875 817.300781 1970.730469 815.339844 1964.230469 C 1035.460938 1931.328125 1272.449219 1991.519531 1486.929688 2047.441406 C 1775.898438 2119.25 2066.839844 2277.320312 2370 2177.398438 C 2459.699219 2142.148438 2563.328125 2080.921875 2630.25 2007.628906 C 2692.378906 1932.789062 2697.539062 1820.339844 2673.199219 1730.25 C 2698.851562 1784.03125 2716.339844 1816 2706.28125 1877.808594 "/>
<path fill-rule="nonzero" fill="rgb(100%, 92.576599%, 78.709412%)" fill-opacity="1" d="M 1076.429688 2520.140625 C 1016.71875 2540.039062 967.660156 2581.101562 916.171875 2618.03125 C 656.03125 2612.910156 384.039062 2675.679688 207.53125 2863.519531 C 223.460938 2687.921875 293.808594 2517.648438 406.46875 2382.011719 C 348.78125 2408.351562 291.101562 2434.691406 233.410156 2461.03125 C 348.578125 2244.929688 558.359375 2081.769531 797.101562 2026.761719 C 857.78125 2054.179688 918.46875 2081.589844 979.171875 2109.011719 C 933.378906 2137.429688 891.378906 2171.941406 854.609375 2211.328125 C 927.378906 2235.871094 997.28125 2268.941406 1062.398438 2309.660156 C 1010.199219 2347.980469 958 2386.300781 905.808594 2424.609375 C 965.589844 2450.820312 1022.828125 2482.871094 1076.429688 2520.140625 "/>
<path fill-rule="nonzero" fill="rgb(100%, 92.576599%, 78.709412%)" fill-opacity="1" d="M 1701.601562 618.171875 C 1677.179688 573.691406 1651.070312 530.140625 1623.308594 487.648438 C 1596.488281 483.691406 1569.578125 480.179688 1542.621094 477.140625 C 1607 389.878906 1686.679688 312.328125 1777.199219 250.609375 C 1790.949219 376.988281 1763.859375 507.390625 1701.601562 618.171875 "/>
<path fill-rule="nonzero" fill="rgb(100%, 92.576599%, 78.709412%)" fill-opacity="1" d="M 774.96875 511.210938 C 739.578125 518.328125 704.339844 526.230469 669.289062 534.878906 C 650.71875 574.230469 632.871094 614.050781 615.800781 654.289062 C 549.089844 541.21875 519.699219 406.359375 533.910156 275.800781 C 627.488281 339.601562 709.480469 420.328125 774.96875 511.210938 "/>
<path fill-rule="nonzero" fill="rgb(100%, 92.576599%, 78.709412%)" fill-opacity="1" d="M 1169.421875 1793.488281 C 873.941406 1732.640625 603.679688 1568.050781 416.171875 1335.230469 C 471.699219 1287.300781 528.238281 1239.429688 593.808594 1206.648438 C 661.808594 1172.648438 741.640625 1156.058594 814.640625 1177.289062 C 906.339844 1203.960938 971.960938 1284.519531 1018.910156 1367.679688 C 1084.320312 1483.570312 1125.039062 1611.609375 1159.859375 1740.039062 C 1164.511719 1757.21875 1168.890625 1775.699219 1169.421875 1793.488281 "/>
<path fill-rule="nonzero" fill="rgb(100%, 92.576599%, 78.709412%)" fill-opacity="1" d="M 1927.929688 1312.148438 C 1726.570312 1507.949219 1485.78125 1675.421875 1223.328125 1796.21875 C 1235.558594 1629.828125 1261.410156 1480.78125 1339.351562 1331.050781 C 1367.078125 1277.78125 1413.550781 1202.070312 1462.890625 1167.839844 C 1536.660156 1116.691406 1648.839844 1121.179688 1731.851562 1155.351562 C 1810.050781 1187.558594 1874.269531 1246.5 1927.929688 1312.148438 "/>
<path fill-rule="nonzero" fill="rgb(14.892578%, 11.791992%, 0.39978%)" fill-opacity="1" d="M 1821.671875 430.671875 C 1814.238281 411.601562 1809.191406 391.578125 1806.75 371.25 C 1796.609375 384.441406 1785.519531 396.890625 1773.601562 408.480469 C 1781.578125 356.300781 1782.910156 303.109375 1777.199219 250.609375 C 1748.550781 270.148438 1720.980469 291.269531 1694.640625 313.789062 C 1669.949219 323.679688 1646.019531 335.449219 1623.121094 348.980469 C 1633.710938 327.320312 1644.300781 305.660156 1654.890625 284.011719 C 1639.761719 289.21875 1624.628906 294.429688 1609.5 299.640625 C 1673.710938 235.390625 1747.640625 180.398438 1829.160156 136.480469 C 1839.25 234.328125 1836.570312 333.441406 1821.671875 430.671875 "/>
<path fill-rule="nonzero" fill="rgb(14.892578%, 11.791992%, 0.39978%)" fill-opacity="1" d="M 664.921875 337.390625 C 629.671875 316.570312 591.949219 299.898438 552.820312 287.839844 C 552.820312 288.238281 552.828125 288.640625 552.828125 289.039062 C 546.578125 284.550781 540.269531 280.140625 533.910156 275.800781 C 528.859375 322.171875 529.320312 369.078125 534.988281 415.359375 C 515.089844 398.878906 497.039062 380.171875 481.28125 359.679688 C 479.761719 372.328125 477.25 384.859375 473.75 397.101562 C 463.058594 310.691406 461.988281 223.101562 470.921875 136.480469 C 547.539062 177.769531 617.46875 228.839844 678.929688 288.191406 C 663.671875 282.941406 648.410156 277.691406 633.140625 272.429688 C 643.738281 294.089844 654.328125 315.738281 664.921875 337.390625 "/>
<path fill-rule="nonzero" fill="rgb(14.892578%, 5.899048%, 0.39978%)" fill-opacity="1" d="M 1258.171875 1686.769531 C 1223.410156 1689.210938 1188.648438 1691.648438 1153.898438 1694.089844 C 1145.230469 1694.699219 1135.71875 1695.679688 1129.679688 1701.941406 C 1122.648438 1709.230469 1123.058594 1720.820312 1125.128906 1730.738281 C 1128.839844 1748.53125 1136.601562 1765.78125 1149.339844 1778.738281 C 1162.070312 1791.699219 1180.101562 1799.960938 1198.230469 1798.808594 C 1216.230469 1797.671875 1232.851562 1787.429688 1244.410156 1773.589844 C 1255.96875 1759.75 1262.910156 1742.578125 1267.328125 1725.101562 C 1269.210938 1717.679688 1270.660156 1709.878906 1268.890625 1702.429688 C 1267.121094 1694.980469 1261.300781 1688.019531 1258.171875 1686.769531 "/>
<path fill-rule="evenodd" fill="rgb(14.892578%, 5.899048%, 0.39978%)" fill-opacity="1" d="M 1491.121094 1244.429688 C 1518.289062 1244.429688 1540.351562 1277.28125 1540.351562 1317.738281 C 1540.351562 1358.199219 1518.289062 1391.050781 1491.121094 1391.050781 C 1463.949219 1391.050781 1441.890625 1358.199219 1441.890625 1317.738281 C 1441.890625 1277.28125 1463.949219 1244.429688 1491.121094 1244.429688 "/>
<path fill-rule="evenodd" fill="rgb(14.892578%, 5.899048%, 0.39978%)" fill-opacity="1" d="M 827.171875 1294.109375 C 854.339844 1294.109375 876.398438 1326.960938 876.398438 1367.421875 C 876.398438 1407.878906 854.339844 1440.730469 827.171875 1440.730469 C 800 1440.730469 777.941406 1407.878906 777.941406 1367.421875 C 777.941406 1326.960938 800 1294.109375 827.171875 1294.109375 "/>
</svg>
