<?xml version="1.0" encoding="UTF-8"?>
<svg xmlns="http://www.w3.org/2000/svg" xmlns:xlink="http://www.w3.org/1999/xlink" width="2836" height="2836" viewBox="0 0 2836 2836">

<path fill-rule="evenodd" fill="rgb(0%, 0%, 0%)" fill-opacity="1" d="M 1309.871094 1179.480469 C 1130.199219 1281.351562 1067.859375 1511.5 1050.738281 1673.878906 C 1051.121094 1687.128906 1051.308594 1693.761719 1051.308594 1693.761719 C 923.554688 1755.488281 770.988281 1781.25 596.53125 1751.789062 C 565.761719 1746.589844 443.363281 1709.679688 422.917969 1665.808594 C 399.078125 1614.660156 541.445312 1567.671875 571.789062 1560.511719 C 619.9375 1549.160156 674.699219 1539.339844 722.597656 1526.71875 C 745.183594 1520.769531 758.527344 1511.308594 757.84375 1507.140625 C 757.234375 1503.429688 749.449219 1500 719.683594 1504.679688 C 658.636719 1514.261719 595.300781 1522.671875 536.273438 1534.921875 C 481.277344 1546.328125 377.566406 1577.699219 362.679688 1644 C 346.539062 1715.921875 480.53125 1775.261719 533.300781 1791.121094 C 687.144531 1837.382812 881.238281 1821.289062 1115.578125 1742.839844 C 1163.261719 1730.621094 1189.75 1736.070312 1195.039062 1759.191406 C 1216.828125 1850.648438 1249.28125 1895.179688 1292.390625 1892.789062 C 1402.511719 1910.636719 1508.148438 1919.957031 1609.300781 1920.753906 C 1616.769531 1889.835938 1598.480469 1869.640625 1554.410156 1860.167969 C 1505.539062 1856.761719 1467.738281 1851.925781 1441.011719 1845.671875 C 1396.179688 1835.480469 1371.148438 1820.289062 1365.921875 1800.101562 C 1401.480469 1798.300781 1433.539062 1791 1462.109375 1778.199219 C 1463.421875 1778.21875 1464.738281 1778.199219 1466.070312 1778.128906 C 1568.679688 1794.761719 1667.121094 1803.441406 1761.378906 1804.191406 C 1768.351562 1775.371094 1751.300781 1756.550781 1710.238281 1747.730469 C 1664.691406 1744.550781 1629.46875 1740.050781 1604.558594 1734.21875 C 1588.269531 1730.511719 1574.78125 1726.101562 1564.101562 1720.980469 C 1665.730469 1727.441406 1715.878906 1684.609375 1836.378906 1693.050781 C 1845.441406 1771.5 1878.210938 1846.5625 1922.019531 1912.128906 C 1932.03125 1932.683594 1954.328125 1943.695312 1988.898438 1945.160156 C 1988.898438 1945.160156 2023.160156 1945.230469 2091.679688 1945.367188 C 2091.679688 1945.367188 2091.410156 1939.589844 2090.859375 1928.03125 C 2087.691406 1913.515625 2077.21875 1905.359375 2059.460938 1903.5625 C 2059.460938 1903.5625 2045.859375 1903.699219 2018.679688 1903.972656 C 2001.230469 1903.789062 1989.539062 1891.828125 1983.601562 1868.082031 C 1970.628906 1823.480469 1969.511719 1784.160156 1976.988281 1751.710938 C 1978.609375 1745.449219 1980.628906 1739.449219 1983.050781 1733.691406 C 1993.789062 1756.761719 2006.828125 1779.378906 2022.328125 1802.578125 C 2031.011719 1820.398438 2050.339844 1829.949219 2080.320312 1831.21875 C 2080.320312 1831.21875 2110.019531 1831.28125 2169.421875 1831.390625 C 2169.421875 1831.390625 2169.179688 1826.390625 2168.710938 1816.371094 C 2165.960938 1803.78125 2156.878906 1796.710938 2141.488281 1795.148438 C 2141.488281 1795.148438 2129.699219 1795.269531 2106.128906 1795.511719 C 2091.011719 1795.351562 2080.871094 1784.980469 2075.71875 1764.390625 C 2049.011719 1649.851562 2084.019531 1675.550781 2117.671875 1589.539062 C 2122.78125 1587.648438 2128.078125 1585.878906 2133.570312 1584.21875 C 2150.191406 1581.121094 2167.589844 1580.171875 2181.148438 1584.828125 C 2255.289062 1610.328125 2334 1615.421875 2417.25 1600.011719 C 2436.308594 1597.949219 2454.140625 1591.878906 2470.75 1581.808594 C 2482.050781 1549.921875 2471.199219 1494.589844 2438.210938 1415.808594 C 2376.421875 1281.859375 2294.980469 1175.789062 2193.898438 1097.589844 C 2199.128906 974.609375 2166.039062 905.488281 2094.640625 890.21875 C 2086.550781 987.289062 2082.5 1035.820312 2082.5 1035.820312 C 2050.261719 963.761719 1995.96875 922.078125 1932.699219 942.039062 C 1893.441406 954.429688 1856.058594 993.488281 1864.941406 1063.949219 C 1868.441406 1092.070312 1872.109375 1113.03125 1875.960938 1126.828125 C 1877.300781 1131.269531 1878.578125 1135.730469 1880.628906 1139.910156 C 1839.609375 1148.988281 1818.109375 1146.058594 1756.121094 1137.511719 C 1615.078125 1116.179688 1469.449219 1089.011719 1309.871094 1179.480469 Z M 2235.230469 1355.089844 C 2256.558594 1355.089844 2273.851562 1372.378906 2273.851562 1393.710938 C 2273.851562 1415.039062 2256.558594 1432.339844 2235.230469 1432.339844 C 2213.890625 1432.339844 2196.601562 1415.039062 2196.601562 1393.710938 C 2196.601562 1372.378906 2213.890625 1355.089844 2235.230469 1355.089844 "/>
</svg>
