<?xml version="1.0" encoding="UTF-8"?>
<svg xmlns="http://www.w3.org/2000/svg" xmlns:xlink="http://www.w3.org/1999/xlink" width="4800" height="4800" viewBox="0 0 4800 4800">

<path fill-rule="evenodd" fill="rgb(0%, 0%, 0%)" fill-opacity="1" d="M 2244.289062 1492.761719 L 2243.75 1492.910156 L 2527.828125 2524.640625 L 2557.191406 2567.871094 L 2557.109375 2568.140625 C 2613.671875 2650.511719 2797.539062 2927.839844 2842 2994.929688 C 2846.609375 2994.628906 2851.25 2996.488281 2854.390625 3000.238281 C 2893.648438 3046.390625 3074.75 3203.050781 3214.449219 3282.261719 C 3410.78125 3345.730469 3553.949219 3541.390625 3553.949219 3772.660156 C 3553.949219 4055.277344 3340.148438 4284.726562 3076.800781 4284.726562 C 2896.398438 4284.726562 2739.261719 4177.0625 2658.148438 4018.386719 C 2658.148438 4018.386719 2648.210938 4021.949219 2637.589844 4025.757812 C 2630.898438 4028.160156 2623.519531 4027.804688 2617.089844 4024.765625 C 2610.660156 4021.730469 2605.699219 4016.261719 2603.300781 4009.566406 C 2592.488281 3979.429688 2574.519531 3929.328125 2563.710938 3899.191406 C 2561.308594 3892.496094 2561.671875 3885.121094 2564.710938 3878.6875 C 2567.738281 3872.257812 2573.210938 3867.292969 2579.898438 3864.894531 C 2592.828125 3860.257812 2605.878906 3855.578125 2605.878906 3855.578125 C 2601.78125 3828.59375 2599.640625 3800.890625 2599.640625 3772.660156 C 2599.640625 3718.621094 2607.460938 3666.53125 2621.941406 3617.628906 C 2648.28125 3447.109375 2662.011719 3162.558594 2664.300781 3111.96875 C 2664.460938 3108.398438 2665.890625 3105.050781 2668.261719 3102.488281 C 2627.339844 3049.378906 2480.050781 2859.460938 2466.96875 2860.320312 C 2444.488281 2861.800781 2421.371094 2859.460938 2398.808594 2853.921875 C 2376.25 2859.460938 2353.128906 2861.800781 2330.660156 2860.320312 C 2317.578125 2859.460938 2172.871094 3049.199219 2132.558594 3102.421875 C 2134.320312 3103.648438 2135.421875 3105.640625 2135.511719 3107.808594 C 2137.109375 3144.011719 2150.871094 3441.578125 2178.058594 3617.628906 C 2192.539062 3666.53125 2200.359375 3718.621094 2200.359375 3772.660156 C 2200.359375 3800.890625 2198.21875 3828.59375 2194.121094 3855.578125 C 2194.121094 3855.578125 2207.878906 3860.511719 2221.140625 3865.265625 C 2227.558594 3867.570312 2232.800781 3872.324219 2235.710938 3878.492188 C 2238.621094 3884.65625 2238.960938 3891.726562 2236.660156 3898.144531 C 2225.78125 3928.503906 2207.21875 3980.253906 2196.328125 4010.613281 C 2194.03125 4017.03125 2189.269531 4022.269531 2183.109375 4025.183594 C 2176.941406 4028.09375 2169.871094 4028.433594 2163.449219 4026.132812 C 2152.449219 4022.1875 2141.851562 4018.386719 2141.851562 4018.386719 C 2060.738281 4177.0625 1903.601562 4284.726562 1723.199219 4284.726562 C 1459.851562 4284.726562 1246.050781 4055.277344 1246.050781 3772.660156 C 1246.050781 3541.390625 1389.210938 3345.730469 1585.550781 3282.261719 C 1729.871094 3200.421875 1918.378906 3035.941406 1949 2996.011719 C 1949.890625 2994.300781 1951.460938 2993.03125 1953.328125 2992.519531 C 1955.03125 2992.058594 1956.828125 2992.261719 1958.371094 2993.070312 C 2007.808594 2918.089844 2185.238281 2649.160156 2240.53125 2568.21875 C 2181.828125 2364.519531 1879.910156 1308.660156 1837.601562 994.859375 C 1815.449219 830.589844 1847.46875 654.109375 1968.988281 515.269531 Z M 3076.800781 3412.820312 C 3261.859375 3412.820312 3412.101562 3574.058594 3412.101562 3772.660156 C 3412.101562 3971.257812 3261.859375 4132.496094 3076.800781 4132.496094 C 2891.738281 4132.496094 2741.488281 3971.257812 2741.488281 3772.660156 C 2741.488281 3574.058594 2891.738281 3412.820312 3076.800781 3412.820312 Z M 1723.199219 3412.820312 C 1538.140625 3412.820312 1387.898438 3574.058594 1387.898438 3772.660156 C 1387.898438 3971.257812 1538.140625 4132.496094 1723.199219 4132.496094 C 1908.261719 4132.496094 2058.511719 3971.257812 2058.511719 3772.660156 C 2058.511719 3574.058594 1908.261719 3412.820312 1723.199219 3412.820312 Z M 2400 2570.871094 C 2429.179688 2570.871094 2452.871094 2594.558594 2452.871094 2623.738281 C 2452.871094 2652.910156 2429.179688 2676.601562 2400 2676.601562 C 2370.820312 2676.601562 2347.140625 2652.910156 2347.140625 2623.738281 C 2347.140625 2594.558594 2370.820312 2570.871094 2400 2570.871094 Z M 2436.730469 1906.808594 L 2828.628906 515.269531 C 2950.160156 654.109375 2982.179688 830.589844 2960.03125 994.859375 C 2922.878906 1270.308594 2685.699219 2117.558594 2588.578125 2458.320312 L 2436.730469 1906.808594 "/>
</svg>
