<?xml version="1.0" encoding="UTF-8"?>
<svg xmlns="http://www.w3.org/2000/svg" xmlns:xlink="http://www.w3.org/1999/xlink" width="3000" height="3000" viewBox="0 0 3000 3000">
<path fill-rule="nonzero" fill="rgb(34.49707%, 38.792419%, 8.59375%)" fill-opacity="1" d="M 1399.710938 2077.171875 C 1330.230469 2040.179688 1287.089844 1969.261719 1240.621094 1905.71875 C 1170.359375 1809.570312 1082.460938 1721.910156 972.148438 1677.03125 C 945.480469 1666.171875 914.730469 1658.070312 888.449219 1669.859375 C 868.710938 1678.738281 852.898438 1688.878906 846.539062 1709.578125 C 840.179688 1730.28125 842.519531 1761.449219 845.070312 1782.960938 C 857.398438 1887.121094 921.179688 1981.828125 1007.429688 2041.558594 C 1093.679688 2101.289062 1200.449219 2127.601562 1305.328125 2126.011719 C 1335.121094 2125.558594 1369.351562 2120.339844 1399.710938 2077.171875 "/>
<path fill-rule="nonzero" fill="rgb(56.834412%, 63.867188%, 14.501953%)" fill-opacity="1" d="M 2864.039062 2337.480469 C 2861.851562 2341.890625 2858.761719 2345.851562 2854.890625 2348.941406 C 2842.46875 2358.871094 2800.230469 2357.820312 2800.230469 2357.820312 C 2800.230469 2357.820312 1655.011719 2370.179688 1082.398438 2376.359375 C 927.898438 2378.039062 766.710938 2378.25 628.289062 2309.578125 C 535.078125 2263.351562 458.039062 2187.121094 406.648438 2096.550781 C 396.421875 2078.578125 387.210938 2060.070312 379.109375 2041.078125 C 376.980469 2036.101562 374.910156 2030.941406 372.960938 2025.628906 C 329.25 1908.898438 320.128906 1718.21875 319.558594 1615.46875 C 319.320312 1573.261719 322.140625 1503 315.359375 1446.628906 C 308.96875 1393.410156 311.160156 1333.5 345.300781 1293.238281 C 343.5 1286.398438 341.578125 1279.621094 339.570312 1272.839844 C 325.859375 1227.148438 311.039062 1181.789062 294.148438 1137.148438 C 274.828125 1084.921875 258.480469 1031.671875 238.949219 979.53125 C 219.871094 929.640625 193.828125 874.46875 177.328125 830.519531 C 171.628906 817.078125 164.96875 804.089844 158.460938 791.011719 C 157.050781 787.410156 153.78125 783.089844 152.039062 778.890625 C 146.519531 778.289062 141.539062 774.871094 137.25 771.300781 C 133.621094 769.320312 132.179688 765.480469 132.539062 761.820312 C 131.371094 758.488281 131.609375 754.648438 133.738281 751.320312 C 139.140625 741.960938 152.488281 741.210938 159.898438 748.589844 C 167.339844 754.230469 170.398438 764.488281 166.5 771.660156 C 167.820312 773.640625 168.988281 775.828125 170.128906 777.71875 C 176.371094 788.101562 182.28125 798.660156 188.160156 809.21875 C 199.199219 831.359375 207.839844 854.578125 218.429688 876.929688 C 238.769531 920.160156 260.699219 965.429688 274.378906 1001.699219 C 293.039062 1049.941406 310.261719 1098.78125 327.328125 1147.621094 C 337.378906 1175.28125 346.050781 1203.390625 354.480469 1231.558594 C 358.621094 1245.628906 362.878906 1259.671875 366.71875 1273.828125 C 389.910156 1257.808594 418.921875 1250.640625 447.691406 1251.121094 C 450.359375 1208.460938 451.558594 1165.710938 453.628906 1123.019531 C 457.230469 1068.75 453.660156 1014.449219 454.410156 960.148438 C 455.398438 917.398438 459.390625 874.738281 457.351562 831.960938 C 456 797.609375 456.628906 763.078125 451.378906 729.03125 C 448.828125 707.96875 449.28125 710.28125 445.949219 688.230469 C 445.289062 683.039062 444.511719 678.480469 444 674.578125 C 435.78125 671.21875 429.570312 661.140625 428.160156 651.058594 C 428.160156 651.03125 428.128906 651.03125 428.128906 651 C 427.621094 650.070312 426.929688 648.390625 426.480469 647.191406 C 424.769531 643.738281 425.039062 639.71875 425.851562 636 C 428.488281 624.988281 441.570312 619.890625 451.230469 625.5 C 457.589844 628.890625 462.359375 635.039062 465.058594 641.640625 C 469.050781 650.371094 469.261719 661.351562 463.199219 669.058594 C 463.378906 669.929688 463.53125 670.769531 463.738281 671.609375 C 469.441406 699.359375 472.109375 727.621094 475.140625 755.761719 C 476.160156 778.648438 476.878906 801.570312 478.261719 824.429688 C 479.460938 850.351562 480.390625 876.269531 479.488281 902.21875 C 478.890625 925.019531 477.089844 947.789062 477.269531 970.621094 C 476.699219 1013.878906 479.308594 1057.140625 477.929688 1100.398438 C 475.949219 1151.429688 475.558594 1202.519531 473.191406 1253.550781 C 515.96875 1261.078125 554.730469 1283.550781 589.441406 1309.621094 C 670.890625 1370.761719 734.789062 1452.988281 784.050781 1542.089844 C 834.148438 1632.75 871.289062 1733.070312 943.351562 1807.441406 C 1000.230469 1866.148438 1075.46875 1904.519531 1153.5 1928.851562 C 1231.558594 1953.179688 1313.011719 1964.308594 1385.21875 1985.789062 C 1645.621094 1999.980469 1907.191406 2014.351562 2162.550781 2067.328125 C 2388.238281 2114.160156 2606.699219 2190.691406 2821.53125 2274.238281 C 2838.058594 2280.691406 2856.058594 2288.488281 2864.21875 2304.058594 C 2864.550781 2304.660156 2864.851562 2305.261719 2865.121094 2305.859375 C 2869.679688 2315.789062 2868.960938 2327.761719 2864.039062 2337.480469 "/>
<path fill-rule="nonzero" fill="rgb(65.818787%, 73.631287%, 16.50238%)" fill-opacity="1" d="M 2211 2086.769531 C 2062.828125 2113.140625 1912.378906 2113.351562 1761.898438 2102.789062 C 1741.078125 2101.351562 1720.230469 2099.671875 1699.410156 2097.839844 C 1615.53125 2090.460938 1531.738281 2080.378906 1448.429688 2070.328125 C 1424.671875 2067.480469 1400.191406 2064.238281 1376.398438 2059.140625 C 1332.359375 2049.691406 1290.660156 2033.789062 1260.148438 2001.691406 C 1231.558594 1971.628906 1217.011719 1931.308594 1197.058594 1894.949219 C 1130.878906 1774.320312 999.71875 1696.441406 859.828125 1688.910156 C 855.660156 1670.671875 852.511719 1652.25 850.320312 1633.710938 C 846.089844 1597.828125 845.488281 1561.5 848.339844 1525.441406 C 860.820312 1366.980469 939.808594 1213.109375 1068.210938 1119.238281 C 1178.550781 1038.570312 1315.320312 1001.609375 1451.039062 985.621094 C 1576.261719 970.859375 1704.988281 972.839844 1826.160156 1007.730469 C 1937.128906 1039.679688 2039.011719 1100.339844 2122.050781 1180.53125 C 2199.089844 1254.929688 2259.898438 1346.128906 2296.558594 1446.808594 C 2372.730469 1656 2342.851562 1900.828125 2211 2086.769531 Z M 744.71875 1609.199219 C 737.640625 1591.171875 725.730469 1575.058594 710.550781 1563.03125 C 703.980469 1557.808594 695.28125 1553.191406 687.539062 1556.398438 C 682.140625 1558.621094 678.75 1564.289062 677.910156 1570.078125 C 677.070312 1575.839844 678.390625 1581.71875 680.25 1587.269531 C 686.398438 1605.808594 698.308594 1622.371094 713.910156 1634.070312 C 718.140625 1637.25 722.761719 1640.128906 727.949219 1641.179688 C 733.140625 1642.261719 738.988281 1641.238281 742.710938 1637.488281 C 749.128906 1631.070312 748.859375 1619.699219 744.71875 1609.199219 Z M 824.578125 1742.789062 C 825.390625 1748.128906 823.5 1754.25 818.761719 1756.828125 C 812.429688 1760.21875 804.75 1756.019531 799.289062 1751.308594 C 784.289062 1738.351562 773.640625 1720.5 769.351562 1701.148438 C 768.480469 1697.28125 767.878906 1693.230469 768.71875 1689.359375 C 769.558594 1685.488281 772.109375 1681.769531 775.859375 1680.511719 C 781.828125 1678.5 787.859375 1683.058594 792.238281 1687.589844 C 801.75 1697.371094 809.910156 1708.46875 816.421875 1720.5 C 822.628906 1731.898438 823.769531 1737.449219 824.578125 1742.789062 Z M 731.761719 1708.351562 C 732.328125 1713.75 728.851562 1719.988281 723.421875 1720.320312 C 719.128906 1720.589844 715.53125 1717.289062 712.679688 1714.050781 C 703.171875 1703.25 695.851562 1690.558594 691.261719 1676.941406 C 689.28125 1671.058594 688.621094 1662.988281 694.140625 1660.171875 C 698.671875 1657.859375 704.070312 1661.011719 707.851562 1664.460938 C 715.230469 1671.179688 721.171875 1679.460938 725.160156 1688.578125 C 729.121094 1697.820312 731.191406 1702.921875 731.761719 1708.351562 Z M 915.269531 1861.140625 C 913.558594 1864.558594 909.121094 1865.910156 905.371094 1865.128906 C 901.621094 1864.351562 898.441406 1861.921875 895.558594 1859.429688 C 881.578125 1847.398438 870.601562 1831.921875 863.878906 1814.761719 C 862.738281 1811.820312 861.691406 1808.730469 861.839844 1805.578125 C 862.019531 1802.429688 863.671875 1799.160156 866.550781 1797.929688 C 870.269531 1796.371094 874.441406 1798.5 877.738281 1800.75 C 890.699219 1809.601562 901.410156 1821.78125 908.460938 1835.789062 C 916.019531 1850.699219 917.488281 1856.640625 915.269531 1861.140625 Z M 788.460938 1807.710938 C 786.210938 1810.289062 782.308594 1810.921875 779.039062 1810.019531 C 775.738281 1809.121094 772.980469 1806.929688 770.519531 1804.53125 C 763.5 1797.660156 758.519531 1788.71875 756.359375 1779.148438 C 755.761719 1776.511719 755.429688 1773.601562 756.808594 1771.261719 C 758.308594 1768.738281 761.609375 1767.660156 764.519531 1768.078125 C 767.429688 1768.46875 770.039062 1770.089844 772.378906 1771.890625 C 779.910156 1777.738281 785.398438 1786.171875 787.769531 1795.410156 C 789.210938 1801.078125 790.710938 1805.160156 788.460938 1807.710938 Z M 641.160156 1467.75 C 643.019531 1472.96875 640.648438 1480.078125 635.21875 1481.160156 C 631.679688 1481.851562 628.199219 1479.898438 625.261719 1477.828125 C 614.039062 1470 604.738281 1459.46875 598.378906 1447.378906 C 596.28125 1443.421875 594.570312 1438.378906 597.148438 1434.71875 C 599.640625 1431.148438 604.921875 1430.96875 609.089844 1432.199219 C 618.839844 1435.109375 625.859375 1443.421875 632.308594 1451.339844 C 637.261719 1457.460938 639.300781 1462.53125 641.160156 1467.75 "/>
<path fill-rule="nonzero" fill="rgb(34.49707%, 38.792419%, 8.59375%)" fill-opacity="1" d="M 2864.039062 2337.480469 C 2861.851562 2341.890625 2858.761719 2345.851562 2854.890625 2348.941406 C 2842.46875 2358.871094 2800.230469 2357.820312 2800.230469 2357.820312 C 2800.230469 2357.820312 1655.011719 2370.179688 1082.398438 2376.359375 C 927.898438 2378.039062 766.710938 2378.25 628.289062 2309.578125 C 535.078125 2263.351562 458.039062 2187.121094 406.648438 2096.550781 C 443.820312 2133.179688 486.75 2161.800781 521.671875 2169.75 C 602.640625 2188.199219 689.699219 2182.46875 765.691406 2215.949219 C 834.71875 2246.371094 889.140625 2307.058594 961.949219 2326.679688 C 1095.75 2362.769531 1235.429688 2247.988281 1369.769531 2282.039062 C 1441.710938 2300.28125 1502.191406 2359.800781 1576.441406 2360.191406 C 1648.921875 2360.550781 1711.859375 2303.671875 1784.308594 2301.839844 C 1857.78125 2300.011719 1924.050781 2355.148438 1997.460938 2351.730469 C 2067.480469 2348.460938 2126.25 2292.691406 2196.121094 2287.019531 C 2267.519531 2281.199219 2332.558594 2328.539062 2403.660156 2337.238281 C 2479.261719 2346.511719 2552.550781 2311.648438 2627.761719 2299.648438 C 2706.058594 2287.171875 2787.691406 2301.71875 2864.039062 2337.480469 Z M 2002.199219 1636.351562 C 2001.480469 1656.839844 2000.308594 1677.570312 1994.488281 1697.339844 C 1988.371094 1717.378906 1977.449219 1735.53125 1964.851562 1752.148438 C 1952.398438 1768.5 1938.421875 1783.828125 1921.859375 1796.101562 C 1862.25 1842.148438 1775.878906 1855.378906 1718.789062 1798.171875 C 1690.378906 1768.621094 1669.949219 1728.449219 1671.871094 1686.691406 C 1673.308594 1665.148438 1682.488281 1642.738281 1701.660156 1631.308594 C 1728.929688 1615.5 1769.191406 1613.699219 1792.410156 1637.578125 C 1800.359375 1646.160156 1804.648438 1657.5 1806.839844 1668.839844 C 1809.691406 1681.289062 1806.121094 1694.371094 1797.511719 1703.761719 C 1793.699219 1710.238281 1782.988281 1709.851562 1780.410156 1702.558594 C 1777.589844 1697.191406 1781.851562 1692.628906 1785.238281 1688.730469 C 1785.628906 1688.101562 1786.261719 1687.199219 1786.738281 1686.421875 C 1787.25 1685.609375 1787.820312 1684.46875 1788.121094 1683.75 C 1788.480469 1682.699219 1788.78125 1681.441406 1788.929688 1680.660156 C 1789.078125 1679.128906 1789.078125 1677.601562 1788.960938 1676.070312 C 1788.929688 1675.859375 1788.929688 1675.710938 1788.898438 1675.558594 C 1788.03125 1669.921875 1786.351562 1664.398438 1784.101562 1659.148438 C 1774.5 1635.601562 1732.710938 1634.519531 1710.71875 1649.96875 C 1681.921875 1673.609375 1691.488281 1722.75 1716.988281 1760.039062 C 1759.46875 1823.578125 1833.628906 1829.820312 1902.269531 1779.148438 C 1902.390625 1779.058594 1902.449219 1779 1902.570312 1778.941406 C 1904.25 1777.710938 1904.578125 1777.351562 1903.921875 1777.859375 C 1911.691406 1771.648438 1918.949219 1764.898438 1925.550781 1757.519531 C 1928.730469 1753.828125 1931.910156 1750.171875 1935.089844 1746.480469 C 1945.171875 1733.011719 1954.679688 1718.941406 1961.488281 1703.488281 C 1970.550781 1679.25 1969.261719 1667.761719 1969.199219 1638.179688 C 1967.730469 1616.519531 1969.621094 1625.488281 1963.078125 1597.109375 C 1959.660156 1584.421875 1955.039062 1572.121094 1949.941406 1560.03125 C 1932.121094 1523.460938 1923.359375 1511.789062 1893.421875 1485.449219 C 1858.980469 1455.148438 1823.578125 1439.28125 1774.109375 1431.691406 C 1757.96875 1430.21875 1741.710938 1429.410156 1725.601562 1431.390625 C 1726.019531 1431.328125 1726.410156 1431.238281 1726.710938 1431.179688 C 1726.078125 1431.269531 1725.421875 1431.390625 1724.761719 1431.480469 C 1724.429688 1431.539062 1724.101562 1431.539062 1723.738281 1431.601562 C 1722.480469 1431.71875 1721.851562 1431.78125 1721.640625 1431.839844 C 1721.820312 1431.839844 1722.808594 1431.75 1723.890625 1431.628906 C 1711.980469 1433.519531 1700.101562 1435.5 1688.460938 1438.769531 C 1666.320312 1445.460938 1670.878906 1443.328125 1652.191406 1453.441406 C 1632.71875 1465.140625 1626.660156 1471.648438 1605.539062 1493.039062 C 1582.5 1519.078125 1566.78125 1550.070312 1557.570312 1596 C 1542.300781 1674.660156 1564.769531 1804.859375 1603.53125 1900.050781 C 1612.46875 1918.800781 1609.410156 1912.828125 1618.890625 1930.648438 C 1639.410156 1966.648438 1671.75 2011.710938 1687.949219 2030.878906 C 1693.199219 2037 1698.539062 2043 1704.058594 2048.878906 C 1705.558594 2050.53125 1707.148438 2052.148438 1708.589844 2053.859375 C 1711.050781 2056.621094 1713.511719 2059.378906 1716 2062.109375 C 1733.820312 2081.96875 1745.699219 2090.671875 1760.460938 2101.828125 C 1760.96875 2102.128906 1761.449219 2102.429688 1761.898438 2102.789062 C 1741.078125 2101.351562 1720.230469 2099.671875 1699.410156 2097.839844 C 1695.121094 2094.089844 1689.691406 2089.230469 1681.621094 2081.96875 C 1677.75 2078.941406 1674.570312 2074.859375 1670.941406 2071.53125 C 1662.78125 2063.21875 1654.800781 2054.699219 1647.421875 2045.699219 C 1621.890625 2014.261719 1614.269531 2004.480469 1593.511719 1973.519531 C 1572.480469 1942.828125 1558.019531 1908.390625 1546.441406 1873.199219 C 1532.640625 1829.011719 1522.558594 1783.648438 1516.441406 1737.75 C 1507.621094 1673.699219 1505.761719 1606.859375 1528.199219 1545.269531 C 1550.191406 1483.949219 1600.558594 1424.851562 1662.691406 1402.378906 C 1809.539062 1351.589844 1944.839844 1434.121094 1985.578125 1545.089844 C 1996.769531 1574.160156 2003.039062 1605.148438 2002.199219 1636.351562 "/>
<path fill-rule="nonzero" fill="rgb(74.804688%, 83.984375%, 18.797302%)" fill-opacity="1" d="M 1376.398438 2059.140625 C 1332.359375 2049.691406 1290.660156 2033.789062 1260.148438 2001.691406 C 1231.558594 1971.628906 1217.011719 1931.308594 1197.058594 1894.949219 C 1130.878906 1774.320312 999.71875 1696.441406 859.828125 1688.910156 C 855.660156 1670.671875 852.511719 1652.25 850.320312 1633.710938 C 910.921875 1634.550781 971.640625 1644.058594 1028.25 1665.601562 C 1090.738281 1689.328125 1148.191406 1728.089844 1189.738281 1780.46875 C 1230.539062 1831.949219 1254.75 1894.261719 1286.941406 1951.5 C 1309.890625 1992.300781 1339.019531 2032.140625 1376.398438 2059.140625 Z M 1826.160156 1007.730469 C 1704.988281 972.839844 1576.261719 970.859375 1451.039062 985.621094 C 1315.320312 1001.609375 1178.550781 1038.570312 1068.210938 1119.238281 C 939.808594 1213.109375 860.820312 1366.980469 848.339844 1525.441406 C 899.609375 1361.191406 1023.871094 1221.75 1176.480469 1140.238281 C 1347.839844 1048.648438 1551.121094 1026.148438 1743.089844 1056.269531 C 1875.03125 1076.96875 2002.019531 1121.371094 2122.050781 1180.53125 C 2039.011719 1100.339844 1937.128906 1039.679688 1826.160156 1007.730469 "/>
<path fill-rule="nonzero" fill="rgb(56.834412%, 63.867188%, 14.501953%)" fill-opacity="1" d="M 2168.28125 1534.261719 C 2172.960938 1535.191406 2176.289062 1539.269531 2178.808594 1543.320312 C 2188.230469 1558.410156 2192.160156 1576.828125 2189.730469 1594.410156 C 2188.859375 1600.738281 2186.191406 1608 2180.011719 1609.589844 C 2172.121094 1611.601562 2165.820312 1603.050781 2162.699219 1595.519531 C 2155.320312 1577.730469 2151.390625 1558.5 2151.179688 1539.238281 C 2157.988281 1537.558594 2163.601562 1533.300781 2168.28125 1534.261719 Z M 2221.410156 1531.109375 C 2221.800781 1554.480469 2227.621094 1577.730469 2238.300781 1598.488281 C 2241.71875 1605.148438 2245.859375 1611.808594 2252.160156 1615.890625 C 2258.460938 1619.96875 2267.398438 1620.808594 2273.191406 1616.011719 C 2279.578125 1610.730469 2279.878906 1601.160156 2279.191406 1592.878906 C 2277.210938 1569.300781 2271.390625 1545.808594 2260.019531 1525.050781 C 2256.871094 1519.289062 2253.179688 1513.648438 2247.808594 1509.871094 C 2242.441406 1506.089844 2235.089844 1504.558594 2229.238281 1507.53125 C 2223.421875 1510.5 2221.199219 1518.660156 2221.410156 1531.109375 Z M 2132.761719 1439.671875 C 2135.011719 1457.730469 2142.660156 1475.070312 2154.449219 1488.898438 C 2158.230469 1493.308594 2163.839844 1497.75 2169.269531 1495.679688 C 2174.640625 1493.640625 2175.929688 1486.710938 2175.839844 1480.980469 C 2175.570312 1461.121094 2168.519531 1441.378906 2156.101562 1425.871094 C 2153.851562 1423.050781 2151.359375 1420.320312 2148.210938 1418.609375 C 2145.058594 1416.898438 2141.070312 1416.328125 2137.859375 1417.949219 C 2134.679688 1419.539062 2132.730469 1422.988281 2132.070312 1426.46875 C 2131.410156 1429.980469 2131.980469 1433.550781 2132.761719 1439.671875 Z M 1794.449219 2031.808594 C 1815.601562 2043.539062 1839.808594 2049.75 1864.019531 2049.601562 C 1868.550781 2049.570312 1873.890625 2048.851562 1876.050781 2044.859375 C 1878.269531 2040.71875 1875.628906 2035.648438 1872.539062 2032.109375 C 1865.191406 2023.710938 1854.988281 2018.191406 1844.308594 2014.890625 C 1833.628906 2011.621094 1822.441406 2010.449219 1811.308594 2009.671875 C 1806.601562 2009.339844 1801.738281 2009.101562 1797.210938 2010.511719 C 1792.679688 2011.921875 1788.511719 2015.339844 1787.519531 2019.988281 C 1786.558594 2024.578125 1790.191406 2029.441406 1794.449219 2031.808594 Z M 1709.21875 1967.550781 C 1718.761719 1978.320312 1731.421875 1986.300781 1745.25 1990.320312 C 1750.140625 1991.730469 1756.050781 1992.390625 1759.679688 1988.851562 C 1762.351562 1986.238281 1762.859375 1982.011719 1761.78125 1978.441406 C 1760.699219 1974.871094 1758.328125 1971.871094 1755.78125 1969.140625 C 1749.089844 1961.941406 1741.050781 1956 1732.230469 1951.738281 C 1728 1949.699219 1723.441406 1948.019531 1718.761719 1948.050781 C 1714.050781 1948.078125 1709.160156 1950.089844 1706.671875 1954.078125 C 1704.179688 1958.070312 1705.5 1963.351562 1709.21875 1967.550781 Z M 1246.289062 1724.339844 C 1251.960938 1741.890625 1261.199219 1758.300781 1273.289062 1772.25 C 1276.230469 1775.671875 1279.890625 1779.179688 1284.390625 1779.238281 C 1292.371094 1779.390625 1296.148438 1769.398438 1296.660156 1761.449219 C 1298.429688 1733.128906 1286.910156 1704.238281 1266.148438 1684.890625 C 1261.230469 1680.300781 1254.78125 1675.980469 1248.238281 1677.628906 C 1241.578125 1679.308594 1237.800781 1686.929688 1238.160156 1693.800781 C 1238.519531 1700.671875 1240.769531 1707.328125 1246.289062 1724.339844 Z M 1318.078125 1806.871094 C 1322.429688 1814.878906 1323.871094 1824.089844 1326.148438 1832.910156 C 1328.429688 1841.730469 1331.96875 1850.789062 1339.109375 1856.429688 C 1346.28125 1862.070312 1357.980469 1862.761719 1363.800781 1855.738281 C 1368.988281 1849.5 1367.699219 1840.230469 1365.480469 1832.429688 C 1362.570312 1822.171875 1358.488281 1812.269531 1353.359375 1802.941406 C 1350.390625 1797.539062 1346.910156 1792.171875 1341.839844 1788.660156 C 1336.769531 1785.148438 1329.691406 1783.890625 1324.378906 1787.011719 C 1319.039062 1790.128906 1314 1799.28125 1318.078125 1806.871094 "/>
</svg>
