<?xml version="1.0" encoding="utf-8"?>
<!-- Generator: Adobe Illustrator 18.0.0, SVG Export Plug-In . SVG Version: 6.00 Build 0)  -->
<!DOCTYPE svg PUBLIC "-//W3C//DTD SVG 1.1//EN" "http://www.w3.org/Graphics/SVG/1.1/DTD/svg11.dtd">
<svg xmlns="http://www.w3.org/2000/svg" xmlns:xlink="http://www.w3.org/1999/xlink" version="1.1" id="Layer_1" x="0px" y="0px" viewBox="0 0 1700 1400" enable-background="new 0 0 1700 1400" xml:space="preserve">
<g>
	
	<g>
		<linearGradient id="SVGID_1_" gradientUnits="userSpaceOnUse" x1="850" y1="289.1749" x2="850" y2="1111.6523">
			<stop offset="0" style="stop-color:#F26C60"/>
			<stop offset="0.1974" style="stop-color:#ED685F"/>
			<stop offset="0.4249" style="stop-color:#DF5E5D"/>
			<stop offset="0.6672" style="stop-color:#C84C59"/>
			<stop offset="0.9185" style="stop-color:#A83453"/>
			<stop offset="1" style="stop-color:#9C2B51"/>
		</linearGradient>
		<path fill="url(#SVGID_1_)" d="M850,289.2L850,289.2c-334.5,0-605.7,271.2-605.7,605.7v216.8h1211.4V894.9    C1455.7,560.4,1184.5,289.2,850,289.2z"/>
		<rect x="220.5" y="1111.7" fill="#396664" width="1259" height="31.9"/>
		<path fill="#FFFFFF" d="M781,258c0-32.6-26.5-59.1-59.1-59.1c-20.8,0-39,10.7-49.6,27c-8.2-4-17.4-6.3-27.2-6.3    c-34,0-61.6,27.6-61.6,61.6c0,6.4,1,12.6,2.8,18.4c-2.4-0.4-4.9-0.7-7.5-0.7c-24,0-43.5,19.5-43.5,43.5c0,10.8,3.9,20.7,10.4,28.2    c-6.6,10.7-10.4,23.4-10.4,36.9c0,38.9,31.6,70.5,70.5,70.5s70.5-31.6,70.5-70.5c0-8.8-1.6-17.2-4.5-24.9    c8.7-3.2,16.4-8.6,22.3-15.5c8.4,6.9,19.1,11,30.8,11c26.8,0,48.5-21.7,48.5-48.5c0-11.1-3.7-21.3-10-29.5    C774.2,289.4,781,274.5,781,258z"/>
		<g>
			<path fill="#396664" d="M1015,908.5h-31.9c-34.3,0-62.5,39.2-66.4,89.7h-1.6c-3.9-50.5-32.1-89.7-66.4-89.7h-31.9     c-36.6,0-66.4,44.9-66.8,100.4l-37.8,4c-5.2-36.9-26.7-64.6-52.6-64.6h-25.6c-27,0-49.4,30.3-53.2,69.8h-3.7     c-3.8-39.5-26.1-69.8-53.2-69.8h-25.6c-29.7,0-53.7,36.6-53.7,81.7c0,0,0,0,0,0c0,45.1,24.1,81.7,53.7,81.7h25.6     c27,0,49.4-30.3,53.2-69.8h3.7c3.8,39.5,26.1,69.8,53.2,69.8h25.6c28.2,0,51.3-33,53.6-75l38.4-4c6.8,45.2,33.4,79,65.2,79h31.9     c34.3,0,62.5-39.2,66.4-89.7h1.6c3.9,50.5,32.1,89.7,66.4,89.7h31.9c36.9,0,66.8-45.5,66.8-101.6     C1081.8,954,1051.9,908.5,1015,908.5z M470.4,1030C470.4,1030,470.4,1030,470.4,1030C470.4,1030,470.4,1030,470.4,1030     C470.4,1030,470.4,1030,470.4,1030z M794.8,1070c0.8,1.7,1.6,3.3,2.5,4.9C796.4,1073.3,795.6,1071.7,794.8,1070z M948.6,1022     L948.6,1022c0.1,0.7,0.1,1.5,0.2,2.2C948.7,1023.4,948.7,1022.7,948.6,1022z M961,1070c0.8,1.7,1.6,3.3,2.5,4.9     C962.7,1073.3,961.8,1071.7,961,1070z"/>
			<rect x="622.3" y="903.3" fill="#396664" width="700.8" height="120.4"/>
			<rect x="507.3" y="835.6" fill="#396664" width="369.7" height="38.6"/>
			<g>
				<rect x="817.2" y="482.9" fill="#3A898A" width="271.8" height="118"/>
				<rect x="817.2" y="600.9" fill="#396664" width="271.8" height="273.3"/>
			</g>
			<g>
				<path fill="#44AAA8" d="M894.1,597.3L894.1,597.3h-50.7H507.3v48h473.8C962.8,616.4,930.7,597.3,894.1,597.3z"/>
				<path fill="#3A898A" d="M507.3,645.2V862h336.1h50.7h0c56.8,0,102.9-46,102.9-102.9v-59c0-20.2-5.8-39-15.9-54.9H507.3z"/>
			</g>
			<rect x="662.8" y="717.7" fill="#396664" width="334.1" height="23.8"/>
			<g>
				<path fill="#17DB9C" d="M847.9,585h-20.2c63.4,0,115.1,51.6,115.1,115.1v59c0,63.4-51.6,115.1-115.1,115.1h20.2      c63.4,0,115.1-51.6,115.1-115.1v-59C963,636.7,911.3,585,847.9,585z"/>
				<path fill="#70FFC9" d="M942.7,759.1v-59c0-63.4-51.6-115.1-115.1-115.1c-6.9,0-13.7,0.6-20.2,1.8c-11.1,2-21.6,5.5-31.3,10.4      h50.7h0c56.8,0,102.9,46,102.9,102.9v59c0,56.8-46,102.9-102.9,102.9h0h-50.7c9.7,4.9,20.2,8.5,31.3,10.4      c6.6,1.2,13.3,1.8,20.2,1.8C891.1,874.2,942.7,822.6,942.7,759.1z"/>
			</g>
			<g>
				<path fill="#17DB9C" d="M849.2,569.7v-59.3c0-8.4,6.8-15.3,15.3-15.3h-16c-8.4,0-15.3,6.8-15.3,15.3v59.3      c0,8.4,6.8,15.3,15.3,15.3h16C856,585,849.2,578.2,849.2,569.7z"/>
				<path fill="#396664" d="M943.3,569.7v-59.3c0-8.4-6.8-15.3-15.3-15.3h-63.6c-8.4,0-15.3,6.8-15.3,15.3v59.3      c0,8.4,6.8,15.3,15.3,15.3H928C936.4,585,943.3,578.2,943.3,569.7z"/>
			</g>
			<path fill="#17DB9C" d="M975.4,569.7v-59.3c0-8.4,6.8-15.3,15.3-15.3h-16c-8.4,0-15.3,6.8-15.3,15.3v59.3     c0,8.4,6.8,15.3,15.3,15.3h16C982.2,585,975.4,578.2,975.4,569.7z"/>
			<path fill="#396664" d="M1069.5,569.7v-59.3c0-8.4-6.8-15.3-15.3-15.3h-63.6c-8.4,0-15.3,6.8-15.3,15.3v59.3     c0,8.4,6.8,15.3,15.3,15.3h63.6C1062.7,585,1069.5,578.2,1069.5,569.7z"/>
			<rect x="1089.1" y="482.9" fill="#3A898A" width="234.1" height="391.3"/>
			<g>
				<rect x="1089.1" y="482.9" fill="#70FFC9" width="12.8" height="391.3"/>
				<rect x="1101.8" y="482.9" fill="#17DB9C" width="20" height="391.3"/>
			</g>
			<g>
				<g>
					<path fill="#17DB9C" d="M1202,510.8h-16.7c9.1,0,16.4,7.3,16.4,16.4V674c0,9.1-7.3,16.4-16.4,16.4h16.7       c9.1,0,16.4-7.3,16.4-16.4V527.2C1218.4,518.1,1211.1,510.8,1202,510.8z"/>
					<path fill="#396664" d="M1201.8,674V527.2c0-9.1-7.3-16.4-16.4-16.4h-21.9c-9.1,0-16.4,7.3-16.4,16.4V674       c0,9.1,7.3,16.4,16.4,16.4h21.9C1194.4,690.4,1201.8,683.1,1201.8,674z"/>
				</g>
				<g>
					<path fill="#17DB9C" d="M1290.9,510.8h-16.7c9.1,0,16.4,7.3,16.4,16.4V674c0,9.1-7.3,16.4-16.4,16.4h16.7       c9.1,0,16.4-7.3,16.4-16.4V527.2C1307.3,518.1,1299.9,510.8,1290.9,510.8z"/>
					<path fill="#396664" d="M1290.6,674V527.2c0-9.1-7.3-16.4-16.4-16.4h-21.9c-9.1,0-16.4,7.3-16.4,16.4V674       c0,9.1,7.3,16.4,16.4,16.4h21.9C1283.3,690.4,1290.6,683.1,1290.6,674z"/>
				</g>
			</g>
			<rect x="1121.8" y="705.8" fill="#17DB9C" width="217.1" height="15.9"/>
			<rect x="804.4" y="456" fill="#FDB128" width="297.5" height="26.9"/>
			<path fill="#FED834" d="M818.7,441.7h283.2V456H804.4v0C804.4,448.1,810.8,441.7,818.7,441.7z"/>
			<rect x="1089.1" y="456" fill="#FE9702" width="271.3" height="26.9"/>
			<path fill="#FDB128" d="M1103.4,441.7h257V456h-271.3v0C1089.1,448.1,1095.5,441.7,1103.4,441.7z"/>
			<g>
				<rect x="958.5" y="416.8" fill="#70FFC9" width="143.3" height="25"/>
				<rect x="1101.8" y="416.8" fill="#17DB9C" width="143.3" height="25"/>
			</g>
			<rect x="392.2" y="874.2" fill="#70FFC9" width="230.1" height="29.2"/>
			<rect x="622.3" y="874.2" fill="#17DB9C" width="716.6" height="29.2"/>
			<rect x="359.4" y="903.3" fill="#17DB9C" width="283.2" height="39.8"/>
			<rect x="642.6" y="903.3" fill="#3A898A" width="39.5" height="39.8"/>
			<polygon fill="#3A898A" points="622.8,1099.5 339.6,1099.5 359.4,943.1 642.6,943.1    "/>
			<polygon fill="#396664" points="662.3,1099.5 622.8,1099.5 642.6,943.1 682,943.1    "/>
			<g>
				<g>
					<path fill="#17DB9C" d="M376.5,1064.6l13.6-98.2c0.5-3.4,2.7-6.3,5.8-7.6c-1.2-0.4-2.4-0.6-3.7-0.6l-3.3,0.1       c-4.7,0.1-8.7,3.7-9.3,8.4l-13.6,98.2c-0.8,6,3.9,11.2,9.9,11.1l3.5-0.1c1.3,0,2.5-0.3,3.6-0.8       C378.7,1073.6,375.8,1069.3,376.5,1064.6z"/>
					<path fill="#396664" d="M389.2,1067l13.4-97c0.7-5-2.3-9.6-6.8-11.1c-3,1.3-5.3,4.1-5.8,7.6l-13.6,98.2       c-0.7,4.7,2.2,9,6.4,10.5C386.2,1073.7,388.7,1070.7,389.2,1067z"/>
				</g>
				<g>
					<path fill="#17DB9C" d="M416.7,1064.6l13.6-98.2c0.5-3.4,2.7-6.3,5.8-7.6c-1.2-0.4-2.4-0.6-3.7-0.6l-3.3,0.1       c-4.7,0.1-8.7,3.7-9.3,8.4l-13.6,98.2c-0.8,6,3.9,11.2,9.9,11.1l3.5-0.1c1.3,0,2.5-0.3,3.6-0.8       C418.9,1073.6,416.1,1069.3,416.7,1064.6z"/>
					<path fill="#396664" d="M429.5,1067l13.4-97c0.7-5-2.3-9.6-6.8-11.1c-3,1.3-5.3,4.1-5.8,7.6l-13.6,98.2       c-0.7,4.7,2.2,9,6.4,10.5C426.5,1073.7,428.9,1070.7,429.5,1067z"/>
				</g>
				<g>
					<path fill="#17DB9C" d="M457,1064.6l13.6-98.2c0.5-3.4,2.7-6.3,5.8-7.6c-1.2-0.4-2.4-0.6-3.7-0.6l-3.3,0.1       c-4.7,0.1-8.7,3.7-9.3,8.4l-13.6,98.2c-0.8,6,3.9,11.2,9.9,11.1l3.5-0.1c1.3,0,2.5-0.3,3.6-0.8       C459.2,1073.6,456.3,1069.3,457,1064.6z"/>
					<path fill="#396664" d="M469.7,1067l13.4-97c0.7-5-2.3-9.6-6.8-11.1c-3,1.3-5.3,4.1-5.8,7.6l-13.6,98.2       c-0.7,4.7,2.2,9,6.4,10.5C466.7,1073.7,469.2,1070.7,469.7,1067z"/>
				</g>
				<g>
					<path fill="#17DB9C" d="M497.2,1064.6l13.6-98.2c0.5-3.4,2.7-6.3,5.8-7.6c-1.2-0.4-2.4-0.6-3.7-0.6l-3.3,0.1       c-4.7,0.1-8.7,3.7-9.3,8.4l-13.6,98.2c-0.8,6,3.9,11.2,9.9,11.1l3.5-0.1c1.3,0,2.5-0.3,3.6-0.8       C499.4,1073.6,496.5,1069.3,497.2,1064.6z"/>
					<path fill="#396664" d="M509.9,1067l13.4-97c0.7-5-2.3-9.6-6.8-11.1c-3,1.3-5.3,4.1-5.8,7.6l-13.6,98.2       c-0.7,4.7,2.2,9,6.4,10.5C506.9,1073.7,509.4,1070.7,509.9,1067z"/>
				</g>
				<g>
					<path fill="#17DB9C" d="M537.4,1064.6l13.6-98.2c0.5-3.4,2.7-6.3,5.8-7.6c-1.2-0.4-2.4-0.6-3.7-0.6l-3.3,0.1       c-4.7,0.1-8.7,3.7-9.3,8.4l-13.6,98.2c-0.8,6,3.9,11.2,9.9,11.1l3.5-0.1c1.3,0,2.5-0.3,3.6-0.8       C539.6,1073.6,536.8,1069.3,537.4,1064.6z"/>
					<path fill="#396664" d="M550.2,1067l13.4-97c0.7-5-2.3-9.6-6.8-11.1c-3,1.3-5.3,4.1-5.8,7.6l-13.6,98.2       c-0.7,4.7,2.2,9,6.4,10.5C547.2,1073.7,549.7,1070.7,550.2,1067z"/>
				</g>
				<g>
					<path fill="#17DB9C" d="M577.7,1064.6l13.6-98.2c0.5-3.4,2.7-6.3,5.8-7.6c-1.2-0.4-2.4-0.6-3.7-0.6l-3.3,0.1       c-4.7,0.1-8.7,3.7-9.3,8.4l-13.6,98.2c-0.8,6,3.9,11.2,9.9,11.1l3.5-0.1c1.3,0,2.5-0.3,3.6-0.8       C579.9,1073.6,577,1069.3,577.7,1064.6z"/>
					<path fill="#396664" d="M590.4,1067l13.4-97c0.7-5-2.3-9.6-6.8-11.1c-3,1.3-5.3,4.1-5.8,7.6l-13.6,98.2       c-0.7,4.7,2.2,9,6.4,10.5C587.4,1073.7,589.9,1070.7,590.4,1067z"/>
				</g>
			</g>
			<g>
				<path fill="#17DB9C" d="M1270.5,908.5c-36.9,0-66.8,45.5-66.8,101.6c0,56.1,29.9,101.6,66.8,101.6c36.9,0,66.8-45.5,66.8-101.6      C1337.3,954,1307.4,908.5,1270.5,908.5z M1303,1072.2c-5.4,8.1-16.7,21.8-32.5,21.8c-1.9,0-3.7-0.2-5.5-0.6      c-12.9-2.7-22.2-14.1-26.9-21.2c-10.6-16.1-16.7-38.7-16.7-62.1c0-23.4,6.1-46,16.7-62.1c4.7-7.2,14-18.6,26.9-21.2      c1.8-0.4,3.6-0.6,5.5-0.6c15.8,0,27.1,13.6,32.5,21.8c10.6,16.1,16.7,38.7,16.7,62.1C1319.6,1033.4,1313.6,1056.1,1303,1072.2z"/>
				<path fill="#396664" d="M1303,948c-5.4-8.1-16.7-21.8-32.5-21.8c-1.9,0-3.7,0.2-5.5,0.6c12.9,2.7,22.2,14.1,26.9,21.2      c10.6,16.1,16.7,38.7,16.7,62.1c0,23.4-6.1,46-16.7,62.1c-4.7,7.2-14,18.6-26.9,21.2c1.8,0.4,3.6,0.6,5.5,0.6      c15.8,0,27.1-13.6,32.5-21.8c10.6-16.1,16.7-38.7,16.7-62.1C1319.6,986.7,1313.6,964.1,1303,948z"/>
				<path fill="#3A898A" d="M1291.9,1072.2c10.6-16.1,16.7-38.7,16.7-62.1c0-23.4-6.1-46-16.7-62.1c-4.7-7.2-14-18.6-26.9-21.2      c-12.9,2.7-22.2,14.1-26.9,21.2c-10.6,16.1-16.7,38.7-16.7,62.1c0,23.4,6.1,46,16.7,62.1c4.7,7.2,14,18.6,26.9,21.2      C1277.9,1090.7,1287.2,1079.3,1291.9,1072.2z"/>
				<g>
					<path fill="#396664" d="M1203.7,1010.1c0-56.1,29.9-101.6,66.8-101.6h-31.9c-36.9,0-66.8,45.5-66.8,101.6c0,0,0,0,0,0       L1203.7,1010.1C1203.7,1010.1,1203.7,1010.1,1203.7,1010.1z"/>
					<path fill="#3A898A" d="M1203.7,1010.1h-31.9c0,56.1,29.9,101.6,66.8,101.6h31.9C1233.6,1111.7,1203.7,1066.2,1203.7,1010.1z"/>
				</g>
				<g>
					<ellipse fill="#17DB9C" cx="1273.1" cy="962.7" rx="9" ry="13.7"/>
					<g>
						<path fill="#396664" d="M1264.1,962.7c0-7.6,4-13.7,9-13.7h-4.3c-5,0-9,6.1-9,13.7c0,0,0,0,0,0L1264.1,962.7        C1264.1,962.7,1264.1,962.7,1264.1,962.7z"/>
						<path fill="#396664" d="M1264.1,962.7h-4.3c0,7.6,4,13.7,9,13.7h4.3C1268.1,976.4,1264.1,970.3,1264.1,962.7z"/>
					</g>
				</g>
				<g>
					<ellipse fill="#17DB9C" cx="1241.1" cy="1010.1" rx="9" ry="13.7"/>
					<g>
						<path fill="#396664" d="M1232.1,1010.1c0-7.6,4-13.7,9-13.7h-4.3c-5,0-9,6.1-9,13.7c0,0,0,0,0,0L1232.1,1010.1        C1232.1,1010.1,1232.1,1010.1,1232.1,1010.1z"/>
						<path fill="#396664" d="M1232.1,1010.1h-4.3c0,7.6,4,13.7,9,13.7h4.3C1236.2,1023.8,1232.1,1017.6,1232.1,1010.1z"/>
					</g>
				</g>
				<g>
					<ellipse fill="#17DB9C" cx="1301" cy="1010.1" rx="9" ry="13.7"/>
					<g>
						<path fill="#396664" d="M1292,1010.1c0-7.6,4-13.7,9-13.7h-4.3c-5,0-9,6.1-9,13.7c0,0,0,0,0,0L1292,1010.1        C1292,1010.1,1292,1010.1,1292,1010.1z"/>
						<path fill="#396664" d="M1292,1010.1h-4.3c0,7.6,4,13.7,9,13.7h4.3C1296.1,1023.8,1292,1017.6,1292,1010.1z"/>
					</g>
				</g>
				<g>
					<ellipse fill="#17DB9C" cx="1273.1" cy="1055.9" rx="9" ry="13.7"/>
					<g>
						<path fill="#396664" d="M1264.1,1055.9c0-7.6,4-13.7,9-13.7h-4.3c-5,0-9,6.1-9,13.7c0,0,0,0,0,0H1264.1        C1264.1,1055.9,1264.1,1055.9,1264.1,1055.9z"/>
						<path fill="#396664" d="M1264.1,1055.9h-4.3c0,7.6,4,13.7,9,13.7h4.3C1268.1,1069.6,1264.1,1063.4,1264.1,1055.9z"/>
					</g>
				</g>
				<path fill="#17DB9C" d="M1104.3,908.5c-36.9,0-66.8,45.5-66.8,101.6c0,56.1,29.9,101.6,66.8,101.6c36.9,0,66.8-45.5,66.8-101.6      C1171.1,954,1141.2,908.5,1104.3,908.5z M1136.8,1072.2c-5.4,8.1-16.7,21.8-32.5,21.8c-1.9,0-3.7-0.2-5.5-0.6      c-12.9-2.7-22.2-14.1-26.9-21.2c-10.6-16.1-16.7-38.7-16.7-62.1c0-23.4,6.1-46,16.7-62.1c4.7-7.2,14-18.6,26.9-21.2      c1.8-0.4,3.6-0.6,5.5-0.6c15.8,0,27.1,13.6,32.5,21.8c10.6,16.1,16.7,38.7,16.7,62.1C1153.4,1033.4,1147.3,1056.1,1136.8,1072.2      z"/>
				<path fill="#396664" d="M1136.8,948c-5.4-8.1-16.7-21.8-32.5-21.8c-1.9,0-3.7,0.2-5.5,0.6c12.9,2.7,22.2,14.1,26.9,21.2      c10.6,16.1,16.7,38.7,16.7,62.1c0,23.4-6.1,46-16.7,62.1c-4.7,7.2-14,18.6-26.9,21.2c1.8,0.4,3.6,0.6,5.5,0.6      c15.8,0,27.1-13.6,32.5-21.8c10.6-16.1,16.7-38.7,16.7-62.1C1153.4,986.7,1147.3,964.1,1136.8,948z"/>
				<path fill="#3A898A" d="M1125.7,1072.2c10.6-16.1,16.7-38.7,16.7-62.1c0-23.4-6.1-46-16.7-62.1c-4.7-7.2-14-18.6-26.9-21.2      c-12.9,2.7-22.2,14.1-26.9,21.2c-10.6,16.1-16.7,38.7-16.7,62.1c0,23.4,6.1,46,16.7,62.1c4.7,7.2,14,18.6,26.9,21.2      C1111.7,1090.7,1121,1079.3,1125.7,1072.2z"/>
				<g>
					<path fill="#396664" d="M1037.5,1010.1c0-56.1,29.9-101.6,66.8-101.6h-31.9c-36.9,0-66.8,45.5-66.8,101.6c0,0,0,0,0,0       L1037.5,1010.1C1037.5,1010.1,1037.5,1010.1,1037.5,1010.1z"/>
					<path fill="#3A898A" d="M1037.5,1010.1h-31.9c0,56.1,29.9,101.6,66.8,101.6h31.9C1067.4,1111.7,1037.5,1066.2,1037.5,1010.1z"/>
				</g>
				<g>
					<ellipse fill="#17DB9C" cx="1106.8" cy="962.7" rx="9" ry="13.7"/>
					<g>
						<path fill="#396664" d="M1097.8,962.7c0-7.6,4-13.7,9-13.7h-4.3c-5,0-9,6.1-9,13.7c0,0,0,0,0,0L1097.8,962.7        C1097.8,962.7,1097.8,962.7,1097.8,962.7z"/>
						<path fill="#396664" d="M1097.8,962.7h-4.3c0,7.6,4,13.7,9,13.7h4.3C1101.9,976.4,1097.8,970.3,1097.8,962.7z"/>
					</g>
				</g>
				<g>
					<ellipse fill="#17DB9C" cx="1074.9" cy="1010.1" rx="9" ry="13.7"/>
					<g>
						<path fill="#396664" d="M1065.9,1010.1c0-7.6,4-13.7,9-13.7h-4.3c-5,0-9,6.1-9,13.7c0,0,0,0,0,0L1065.9,1010.1        C1065.9,1010.1,1065.9,1010.1,1065.9,1010.1z"/>
						<path fill="#396664" d="M1065.9,1010.1h-4.3c0,7.6,4,13.7,9,13.7h4.3C1069.9,1023.8,1065.9,1017.6,1065.9,1010.1z"/>
					</g>
				</g>
				<g>
					<ellipse fill="#17DB9C" cx="1134.8" cy="1010.1" rx="9" ry="13.7"/>
					<g>
						<path fill="#396664" d="M1125.8,1010.1c0-7.6,4-13.7,9-13.7h-4.3c-5,0-9,6.1-9,13.7c0,0,0,0,0,0L1125.8,1010.1        C1125.8,1010.1,1125.8,1010.1,1125.8,1010.1z"/>
						<path fill="#396664" d="M1125.8,1010.1h-4.3c0,7.6,4,13.7,9,13.7h4.3C1129.8,1023.8,1125.8,1017.6,1125.8,1010.1z"/>
					</g>
				</g>
				<g>
					<ellipse fill="#17DB9C" cx="1106.8" cy="1055.9" rx="9" ry="13.7"/>
					<g>
						<path fill="#396664" d="M1097.8,1055.9c0-7.6,4-13.7,9-13.7h-4.3c-5,0-9,6.1-9,13.7c0,0,0,0,0,0H1097.8        C1097.8,1055.9,1097.8,1055.9,1097.8,1055.9z"/>
						<path fill="#396664" d="M1097.8,1055.9h-4.3c0,7.6,4,13.7,9,13.7h4.3C1101.9,1069.6,1097.8,1063.4,1097.8,1055.9z"/>
					</g>
				</g>
				<path fill="#17DB9C" d="M915.3,948.3c-29.7,0-53.7,36.6-53.7,81.7s24.1,81.7,53.7,81.7c29.7,0,53.7-36.6,53.7-81.7      S945,948.3,915.3,948.3z M941.4,1079.9c-4.3,6.5-13.4,17.5-26.1,17.5c-1.5,0-3-0.2-4.4-0.5c-10.4-2.1-17.9-11.3-21.7-17.1      c-8.5-12.9-13.4-31.1-13.4-49.9c0-18.8,4.9-37,13.4-49.9c3.8-5.8,11.3-14.9,21.7-17.1c1.4-0.3,2.9-0.5,4.4-0.5      c12.7,0,21.8,11,26.1,17.5c8.5,12.9,13.4,31.1,13.4,49.9C954.8,1048.8,949.9,1067,941.4,1079.9z"/>
				<path fill="#396664" d="M941.4,980c-4.3-6.5-13.4-17.5-26.1-17.5c-1.5,0-3,0.2-4.4,0.5c10.4,2.1,17.9,11.3,21.7,17.1      c8.5,12.9,13.4,31.1,13.4,49.9c0,18.8-4.9,37-13.4,49.9c-3.8,5.8-11.3,14.9-21.7,17.1c1.4,0.3,2.9,0.5,4.4,0.5      c12.7,0,21.8-11,26.1-17.5c8.5-12.9,13.4-31.1,13.4-49.9C954.8,1011.2,949.9,993,941.4,980z"/>
				<path fill="#3A898A" d="M932.5,1079.9c8.5-12.9,13.4-31.1,13.4-49.9c0-18.8-4.9-37-13.4-49.9c-3.8-5.8-11.3-14.9-21.7-17.1      c-10.4,2.1-17.9,11.3-21.7,17.1c-8.5,12.9-13.4,31.1-13.4,49.9c0,18.8,4.9,37,13.4,49.9c3.8,5.8,11.3,14.9,21.7,17.1      C921.2,1094.8,928.7,1085.7,932.5,1079.9z"/>
				<g>
					<path fill="#396664" d="M861.6,1030c0-45.1,24.1-81.7,53.7-81.7h-25.6c-29.7,0-53.7,36.6-53.7,81.7c0,0,0,0,0,0L861.6,1030       C861.6,1030,861.6,1030,861.6,1030z"/>
					<path fill="#3A898A" d="M861.6,1030h-25.6c0,45.1,24.1,81.7,53.7,81.7h25.6C885.6,1111.7,861.6,1075.1,861.6,1030z"/>
				</g>
				<g>
					<ellipse fill="#17DB9C" cx="917.4" cy="991.9" rx="7.2" ry="11"/>
					<g>
						<path fill="#396664" d="M910.1,991.9c0-6.1,3.2-11,7.2-11h-3.5c-4,0-7.2,4.9-7.2,11c0,0,0,0,0,0L910.1,991.9        C910.1,991.9,910.1,991.9,910.1,991.9z"/>
						<path fill="#396664" d="M910.1,991.9h-3.5c0,6.1,3.2,11,7.2,11h3.5C913.4,1002.9,910.1,998,910.1,991.9z"/>
					</g>
				</g>
				<g>
					<ellipse fill="#17DB9C" cx="891.7" cy="1030" rx="7.2" ry="11"/>
					<g>
						<path fill="#396664" d="M884.4,1030c0-6.1,3.2-11,7.2-11h-3.5c-4,0-7.2,4.9-7.2,11c0,0,0,0,0,0H884.4        C884.4,1030,884.4,1030,884.4,1030z"/>
						<path fill="#396664" d="M884.4,1030H881c0,6.1,3.2,11,7.2,11h3.5C887.7,1041,884.4,1036,884.4,1030z"/>
					</g>
				</g>
				<g>
					<ellipse fill="#17DB9C" cx="939.8" cy="1030" rx="7.2" ry="11"/>
					<g>
						<path fill="#396664" d="M932.6,1030c0-6.1,3.2-11,7.2-11h-3.5c-4,0-7.2,4.9-7.2,11c0,0,0,0,0,0H932.6        C932.6,1030,932.6,1030,932.6,1030z"/>
						<path fill="#396664" d="M932.6,1030h-3.5c0,6.1,3.2,11,7.2,11h3.5C935.8,1041,932.6,1036,932.6,1030z"/>
					</g>
				</g>
				<g>
					<ellipse fill="#17DB9C" cx="917.4" cy="1066.8" rx="7.2" ry="11"/>
					<g>
						<path fill="#396664" d="M910.1,1066.8c0-6.1,3.2-11,7.2-11h-3.5c-4,0-7.2,4.9-7.2,11c0,0,0,0,0,0H910.1        C910.1,1066.8,910.1,1066.8,910.1,1066.8z"/>
						<path fill="#396664" d="M910.1,1066.8h-3.5c0,6.1,3.2,11,7.2,11h3.5C913.4,1077.8,910.1,1072.9,910.1,1066.8z"/>
					</g>
				</g>
				<path fill="#17DB9C" d="M779.6,948.3c-29.7,0-53.7,36.6-53.7,81.7s24.1,81.7,53.7,81.7c29.7,0,53.7-36.6,53.7-81.7      S809.3,948.3,779.6,948.3z M805.7,1079.9c-4.3,6.5-13.4,17.5-26.1,17.5c-1.5,0-3-0.2-4.4-0.5c-10.4-2.1-17.9-11.3-21.7-17.1      c-8.5-12.9-13.4-31.1-13.4-49.9c0-18.8,4.9-37,13.4-49.9c3.8-5.8,11.3-14.9,21.7-17.1c1.4-0.3,2.9-0.5,4.4-0.5      c12.7,0,21.8,11,26.1,17.5c8.5,12.9,13.4,31.1,13.4,49.9C819.1,1048.8,814.3,1067,805.7,1079.9z"/>
				<path fill="#396664" d="M805.7,980c-4.3-6.5-13.4-17.5-26.1-17.5c-1.5,0-3,0.2-4.4,0.5c10.4,2.1,17.9,11.3,21.7,17.1      c8.5,12.9,13.4,31.1,13.4,49.9c0,18.8-4.9,37-13.4,49.9c-3.8,5.8-11.3,14.9-21.7,17.1c1.4,0.3,2.9,0.5,4.4,0.5      c12.7,0,21.8-11,26.1-17.5c8.5-12.9,13.4-31.1,13.4-49.9C819.1,1011.2,814.3,993,805.7,980z"/>
				<path fill="#3A898A" d="M796.9,1079.9c8.5-12.9,13.4-31.1,13.4-49.9c0-18.8-4.9-37-13.4-49.9c-3.8-5.8-11.3-14.9-21.7-17.1      c-10.4,2.1-17.9,11.3-21.7,17.1c-8.5,12.9-13.4,31.1-13.4,49.9c0,18.8,4.9,37,13.4,49.9c3.8,5.8,11.3,14.9,21.7,17.1      C785.6,1094.8,793.1,1085.7,796.9,1079.9z"/>
				<g>
					<path fill="#396664" d="M725.9,1030c0-45.1,24.1-81.7,53.7-81.7H754c-29.7,0-53.7,36.6-53.7,81.7c0,0,0,0,0,0L725.9,1030       C725.9,1030,725.9,1030,725.9,1030z"/>
					<path fill="#3A898A" d="M725.9,1030h-25.6c0,45.1,24.1,81.7,53.7,81.7h25.6C750,1111.7,725.9,1075.1,725.9,1030z"/>
				</g>
				<g>
					<ellipse fill="#17DB9C" cx="781.7" cy="991.9" rx="7.2" ry="11"/>
					<g>
						<path fill="#396664" d="M774.4,991.9c0-6.1,3.2-11,7.2-11h-3.5c-4,0-7.2,4.9-7.2,11c0,0,0,0,0,0L774.4,991.9        C774.4,991.9,774.4,991.9,774.4,991.9z"/>
						<path fill="#396664" d="M774.4,991.9H771c0,6.1,3.2,11,7.2,11h3.5C777.7,1002.9,774.4,998,774.4,991.9z"/>
					</g>
				</g>
				<g>
					<ellipse fill="#17DB9C" cx="756" cy="1030" rx="7.2" ry="11"/>
					<g>
						<path fill="#396664" d="M748.8,1030c0-6.1,3.2-11,7.2-11h-3.5c-4,0-7.2,4.9-7.2,11c0,0,0,0,0,0H748.8        C748.8,1030,748.8,1030,748.8,1030z"/>
						<path fill="#396664" d="M748.8,1030h-3.5c0,6.1,3.2,11,7.2,11h3.5C752,1041,748.8,1036,748.8,1030z"/>
					</g>
				</g>
				<g>
					<ellipse fill="#17DB9C" cx="804.2" cy="1030" rx="7.2" ry="11"/>
					<g>
						<path fill="#396664" d="M796.9,1030c0-6.1,3.2-11,7.2-11h-3.5c-4,0-7.2,4.9-7.2,11c0,0,0,0,0,0H796.9        C796.9,1030,796.9,1030,796.9,1030z"/>
						<path fill="#396664" d="M796.9,1030h-3.5c0,6.1,3.2,11,7.2,11h3.5C800.2,1041,796.9,1036,796.9,1030z"/>
					</g>
				</g>
				<g>
					<ellipse fill="#17DB9C" cx="781.7" cy="1066.8" rx="7.2" ry="11"/>
					<g>
						<path fill="#396664" d="M774.4,1066.8c0-6.1,3.2-11,7.2-11h-3.5c-4,0-7.2,4.9-7.2,11c0,0,0,0,0,0H774.4        C774.4,1066.8,774.4,1066.8,774.4,1066.8z"/>
						<path fill="#396664" d="M774.4,1066.8H771c0,6.1,3.2,11,7.2,11h3.5C777.7,1077.8,774.4,1072.9,774.4,1066.8z"/>
					</g>
				</g>
				<g>
					<polygon fill="#396664" points="919.6,1041.9 783.3,1041.9 783.3,1018.1 918.3,1018.1 1108.2,998.2 1275,998.2 1275,1022        1109.4,1022      "/>
				</g>
				<g>
					<ellipse fill="#17DB9C" cx="1275" cy="1010.1" rx="14.8" ry="22.6"/>
					<g>
						<path fill="#396664" d="M1260.2,1010.1c0-12.5,6.6-22.6,14.8-22.6h-7.1c-8.2,0-14.8,10.1-14.8,22.6c0,0,0,0,0,0L1260.2,1010.1        C1260.2,1010.1,1260.2,1010.1,1260.2,1010.1z"/>
						<path fill="#396664" d="M1260.2,1010.1h-7.1c0,12.5,6.6,22.6,14.8,22.6h7.1C1266.8,1032.6,1260.2,1022.5,1260.2,1010.1z"/>
					</g>
				</g>
				<g>
					<ellipse fill="#17DB9C" cx="1108.8" cy="1010.1" rx="14.8" ry="22.6"/>
					<g>
						<path fill="#396664" d="M1094,1010.1c0-12.5,6.6-22.6,14.8-22.6h-7.1c-8.2,0-14.8,10.1-14.8,22.6c0,0,0,0,0,0L1094,1010.1        C1094,1010.1,1094,1010.1,1094,1010.1z"/>
						<path fill="#396664" d="M1094,1010.1h-7.1c0,12.5,6.6,22.6,14.8,22.6h7.1C1100.6,1032.6,1094,1022.5,1094,1010.1z"/>
					</g>
				</g>
				<g>
					<ellipse fill="#17DB9C" cx="918.9" cy="1030" rx="11.9" ry="18.1"/>
					<g>
						<path fill="#396664" d="M907,1030c0-10,5.3-18.1,11.9-18.1h-5.7c-6.6,0-11.9,8.1-11.9,18.1c0,0,0,0,0,0L907,1030        C907,1030,907,1030,907,1030z"/>
						<path fill="#396664" d="M907,1030h-5.7c0,10,5.3,18.1,11.9,18.1h5.7C912.3,1048.1,907,1040,907,1030z"/>
					</g>
				</g>
				<g>
					<ellipse fill="#17DB9C" cx="783.3" cy="1030" rx="11.9" ry="18.1"/>
					<g>
						<path fill="#396664" d="M771.3,1030c0-10,5.3-18.1,11.9-18.1h-5.7c-6.6,0-11.9,8.1-11.9,18.1c0,0,0,0,0,0L771.3,1030        C771.3,1030,771.3,1030,771.3,1030z"/>
						<path fill="#396664" d="M771.3,1030h-5.7c0,10,5.3,18.1,11.9,18.1h5.7C776.7,1048.1,771.3,1040,771.3,1030z"/>
					</g>
				</g>
			</g>
			<g>
				<path fill="#FE9702" d="M1012.4,880.6H879.5c22,0,39.9,17.9,39.9,39.9V941c0,22-17.9,39.9-39.9,39.9h132.9      c22,0,39.9-17.9,39.9-39.9v-20.5C1052.3,898.5,1034.4,880.6,1012.4,880.6z"/>
				<path fill="#FED834" d="M919.4,941v-20.5c0-22-17.9-39.9-39.9-39.9c-22,0-39.9,17.9-39.9,39.9V941c0,22,17.9,39.9,39.9,39.9      C901.5,980.9,919.4,963,919.4,941z"/>
			</g>
			<g>
				<rect x="542.9" y="482.9" fill="#44AAA8" width="40.6" height="84.9"/>
				<rect x="635.4" y="482.9" fill="#396664" width="24.5" height="84.9"/>
				<rect x="583.5" y="482.9" fill="#3A898A" width="51.8" height="84.9"/>
			</g>
			<g>
				<rect x="705.4" y="578.8" fill="#70FFC9" width="32.4" height="18.4"/>
				<rect x="779.2" y="578.8" fill="#3A898A" width="19.5" height="18.4"/>
				<rect x="737.8" y="578.8" fill="#17DB9C" width="41.4" height="18.4"/>
			</g>
			<g>
				<rect x="715.5" y="498" fill="#44AAA8" width="25.4" height="80.8"/>
				<rect x="773.3" y="498" fill="#396664" width="15.3" height="80.8"/>
				<rect x="740.9" y="498" fill="#3A898A" width="32.4" height="80.8"/>
			</g>
			<g>
				<path fill="#17DB9C" d="M702.2,585h-20.2c63.4,0,115.1,51.6,115.1,115.1v59c0,63.4-51.6,115.1-115.1,115.1h20.2      c63.4,0,115.1-51.6,115.1-115.1v-59C817.2,636.7,765.6,585,702.2,585z"/>
				<path fill="#70FFC9" d="M797,759.1v-59c0-63.4-51.6-115.1-115.1-115.1c-6.9,0-13.7,0.6-20.2,1.8c-11.1,2-21.6,5.5-31.3,10.4      h50.7h0c56.8,0,102.9,46,102.9,102.9v59c0,56.8-46,102.9-102.9,102.9h0h-50.7c9.7,4.9,20.2,8.5,31.3,10.4      c6.6,1.2,13.3,1.8,20.2,1.8C745.4,874.2,797,822.6,797,759.1z"/>
			</g>
			<g>
				<rect x="526.7" y="567.8" fill="#70FFC9" width="51.9" height="29.5"/>
				<rect x="644.8" y="567.8" fill="#3A898A" width="31.3" height="29.5"/>
				<rect x="578.6" y="567.8" fill="#17DB9C" width="66.2" height="29.5"/>
			</g>
			<g>
				<path fill="#17DB9C" d="M547.7,585h-40.5v7.4c-43.5,16.4-74.6,58.5-74.6,107.7v59c0,49.2,31.1,91.3,74.6,107.7v7.4h40.5      c63.4,0,115.1-51.6,115.1-115.1v-59C662.8,636.7,611.2,585,547.7,585z"/>
				<path fill="#70FFC9" d="M507.3,874.2c-63.4,0-115.1-51.6-115.1-115.1v-59c0-63.4,51.6-115.1,115.1-115.1s115.1,51.6,115.1,115.1      v59C622.3,822.6,570.7,874.2,507.3,874.2z"/>
				<path fill="#3A898A" d="M507.3,597.3L507.3,597.3c-56.8,0-102.9,46-102.9,102.9v59c0,56.8,46,102.9,102.9,102.9h0      c56.8,0,102.9-46,102.9-102.9v-59C610.1,643.3,564.1,597.3,507.3,597.3z"/>
				<g>
					<path fill="#396664" d="M509.9,665.6h-17.9v3.3c-19.3,7.3-33,25.9-33,47.7v26.2c0,21.8,13.8,40.5,33,47.7v3.3h17.9       c28.1,0,51-22.9,51-51v-26.2C560.9,688.4,538,665.6,509.9,665.6z"/>
					<path fill="#17DB9C" d="M491.9,793.7c-28.1,0-51-22.9-51-51v-26.2c0-28.1,22.9-51,51-51c28.1,0,51,22.9,51,51v26.2       C542.9,770.8,520.1,793.7,491.9,793.7z"/>
				</g>
			</g>
			<g>
				<rect x="535.4" y="478" fill="#70FFC9" width="45.9" height="11.7"/>
				<rect x="639.7" y="478" fill="#44AAA8" width="27.6" height="11.7"/>
				<rect x="581.2" y="478" fill="#17DB9C" width="58.5" height="11.7"/>
			</g>
			<g>
				<polygon fill="#44AAA8" points="516.9,422.3 542.9,478 583.5,478 575.6,422.3     "/>
				<polygon fill="#396664" points="685.9,422.3 650.5,422.3 635.4,478 659.8,478     "/>
				<polygon fill="#3A898A" points="575.6,422.3 583.5,478 635.4,478 650.5,422.3     "/>
			</g>
		</g>
	</g>
</g>
</svg>
