<?xml version="1.0" encoding="utf-8"?>
<svg viewBox="368.6991882324219 52.247798919677734 278.3000183105469 289.6999816894531" width="278.3000183105469" height="289.6999816894531" xmlns="http://www.w3.org/2000/svg"><g transform="matrix(1, 0, 0, 1, 0, 1.4210854715202004e-14)"><path class="st0" d="M1001.3,629.2c-1,3.3-2,6.5-3,9.4c9.4,3.6,14.7,7.7,14.7,12.1c0,14-54.5,25.3-121.6,25.3&#10;&#9;&#9;&#9;s-121.6-11.3-121.6-25.3c0-4.4,5.5-8.6,15-12.2c-1.3-2.8-2.7-5.9-4.1-9.1c-17.9,5.9-28.5,13.3-28.5,21.2&#10;&#9;&#9;&#9;c0,19.4,62.3,35.1,139.1,35.1s139.1-15.7,139.1-35.1C1030.5,642.6,1019.6,635.1,1001.3,629.2z" style="fill: rgb(207, 237, 252);" transform="matrix(1, 0, 0, 1, -383.5008850097656, -343.7522277832031)"/><path class="st2" d="M989.5,657.7c-8.3,7.3-180.9,3.3-192-0.4c-3.2-1.1-7.9-8.6-12.7-18.7c-9.6,3.6-15,7.8-15,12.2&#10;&#9;&#9;&#9;c0,14,54.5,25.3,121.6,25.3s121.6-11.3,121.6-25.3c0-4.4-5.3-8.5-14.7-12.1C994.8,648.5,991.6,655.8,989.5,657.7z" style="fill: rgb(255, 255, 255);" transform="matrix(1, 0, 0, 1, -383.5008850097656, -343.7522277832031)"/><path class="st4" d="M900,449.7c0.1-10-0.2-21.4-1.4-22.5c-2.1-1.8-12.5-4.2-16.1-1.2c-1.8,1.5-1.6,14.6-0.9,25.2&#10;&#9;&#9;&#9;c3.1-0.3,6.3-0.6,9.7-0.9C894.3,450,897.2,449.8,900,449.7z" style="fill: rgb(244, 127, 113);" transform="matrix(1, 0, 0, 1, -383.5008850097656, -343.7522277832031)"/><path class="st5" d="M890.3,420.7c10.4-0.6,11.3-6.8,6.3-15.8c-5.1-8.9-10.1-6.5-10.1-6.5c3.9,1.8,1.5,10.1-2.4,14&#10;&#9;&#9;&#9;C880.1,416.2,882.2,421.1,890.3,420.7z" style="fill: rgb(247, 161, 145);" transform="matrix(1, 0, 0, 1, -383.5008850097656, -343.7522277832031)"/><path class="st6" d="M961.7,539.6c3.4-9.2,7.9-23.1,9.9-36.8c-1.4-2.1,1.4-9.7-3.1-9.7c-5.8,0-3.2,27.9-12.3,25.3&#10;&#9;&#9;&#9;c-9.1-2.6,10.4-20.8,2.6-30.5c-7.8-9.7-5.8-6.5-25.9,2.6c-20.1,9.1-19.5-14.9-33.1-14.3c-13.6,0.6-7.1,37-20.1,35.7&#10;&#9;&#9;&#9;c-13-1.3-5.2-31.1-18.8-31.1c-13.6,0-16.2,22.1-25.3,23.3c-9.1,1.3-3.9-16.9-14.3-15.6c-10.4,1.3-3.9,25.9-11,27.9&#10;&#9;&#9;&#9;c-1.3,0.4-2.7-0.4-4.1-1.9c2.4,12.3,6.3,24.1,9,31.7c21-4.2,47.3-7.5,76.9-8.4C911.9,537.2,938.5,538.1,961.7,539.6z M956.2,529.4&#10;&#9;&#9;&#9;c1.8,0,3.2,1.5,3.2,3.2c0,1.8-1.5,3.2-3.2,3.2c-1.8,0-3.2-1.5-3.2-3.2C953,530.9,954.4,529.4,956.2,529.4z M953,491.1&#10;&#9;&#9;&#9;c2.5,0,4.5,2,4.5,4.5c0,2.5-2,4.5-4.5,4.5c-2.5,0-4.5-2-4.5-4.5C948.4,493.2,950.5,491.1,953,491.1z M941.3,517.1&#10;&#9;&#9;&#9;c3.2,0,5.8,2.6,5.8,5.8c0,3.2-2.6,5.8-5.8,5.8s-5.8-2.6-5.8-5.8C935.4,519.7,938.1,517.1,941.3,517.1z M929.6,501.5&#10;&#9;&#9;&#9;c3.2,0,5.8,2.6,5.8,5.8c0,3.2-2.6,5.8-5.8,5.8c-3.2,0-5.8-2.6-5.8-5.8C923.8,504.1,926.4,501.5,929.6,501.5z M924.4,524.2&#10;&#9;&#9;&#9;c2.9,0,5.2,2.3,5.2,5.2c0,2.9-2.3,5.2-5.2,5.2s-5.2-2.3-5.2-5.2C919.2,526.5,921.6,524.2,924.4,524.2z M822.6,517.1&#10;&#9;&#9;&#9;c-2.1,0-3.9-1.7-3.9-3.9c0-2.1,1.7-3.9,3.9-3.9s3.9,1.7,3.9,3.9C826.5,515.3,824.7,517.1,822.6,517.1z M836.9,534.6&#10;&#9;&#9;&#9;c-4.3,0-7.8-3.5-7.8-7.8c0-4.3,3.5-7.8,7.8-7.8c4.3,0,7.8,3.5,7.8,7.8C844.6,531.1,841.2,534.6,836.9,534.6z M853.7,512.5&#10;&#9;&#9;&#9;c-3.9,0-7.1-3.2-7.1-7.1c0-3.9,3.2-7.1,7.1-7.1c3.9,0,7.1,3.2,7.1,7.1C860.9,509.3,857.7,512.5,853.7,512.5z M871.9,530.7&#10;&#9;&#9;&#9;c-2.9,0-5.2-2.3-5.2-5.2c0-2.9,2.3-5.2,5.2-5.2c2.9,0,5.2,2.3,5.2,5.2C877.1,528.4,874.8,530.7,871.9,530.7z M904.3,491.8&#10;&#9;&#9;&#9;c3.9,0,7.1,3.2,7.1,7.1c0,3.9-3.2,7.1-7.1,7.1c-3.9,0-7.1-3.2-7.1-7.1C897.2,495,900.4,491.8,904.3,491.8z M897.2,518.4&#10;&#9;&#9;&#9;c3.9,0,7.1,3.2,7.1,7.1c0,3.9-3.2,7.1-7.1,7.1c-3.9,0-7.1-3.2-7.1-7.1C890,521.6,893.2,518.4,897.2,518.4z" style="fill: rgb(166, 217, 198);" transform="matrix(1, 0, 0, 1, -383.5008850097656, -343.7522277832031)"/><path class="st5" d="M797.5,657.2c11.1,3.7,183.7,7.7,192,0.4c2.2-1.9,5.4-9.1,8.8-19.1c1-2.9,2-6.1,3-9.4&#10;&#9;&#9;&#9;c4.7-15.4,9.4-34.3,11.7-49.7c-1.4-2.8-3.4-7-8.2-8.5c-9.7-3.2-3.9,28.5-16.9,24c-13-4.5-5.8-38.3-18.8-40.9&#10;&#9;&#9;&#9;c-13-2.6-11.7,35-22.7,34.4c-11-0.6,6.5-33.1-8.4-34.4c-14.9-1.3-4.5,54.5-20.1,52.5s-3.9-49.9-18.8-51.2&#10;&#9;&#9;&#9;c-14.9-1.3-15.6,29.2-37.6,31.1c-22.1,1.9-17.5-22.1-38.3-22.7c-20.8-0.6-7.1,50.6-24.6,51.2c-17.5,0.6-7.8-39.6-16.9-39.6&#10;&#9;&#9;&#9;c-8.6,0-7.9,15.1-13.9,17.8c3.2,11.2,7.9,24.6,12.8,36.2c1.3,3.2,2.7,6.2,4.1,9.1C789.6,648.7,794.3,656.1,797.5,657.2z&#10;&#9;&#9;&#9; M864.1,649.4c-5,0-9.1-4.1-9.1-9.1s4.1-9.1,9.1-9.1c5,0,9.1,4.1,9.1,9.1S869.1,649.4,864.1,649.4z M931.6,655.2&#10;&#9;&#9;&#9;c-5,0-9.1-4.1-9.1-9.1c0-5,4.1-9.1,9.1-9.1c5,0,9.1,4.1,9.1,9.1C940.6,651.2,936.6,655.2,931.6,655.2z M989.3,641&#10;&#9;&#9;&#9;c0,5-4.1,9.1-9.1,9.1c-5,0-9.1-4.1-9.1-9.1c0-5,4.1-9.1,9.1-9.1C985.2,631.9,989.3,635.9,989.3,641z M962.7,604&#10;&#9;&#9;&#9;c5,0,9.1,4.1,9.1,9.1s-4.1,9.1-9.1,9.1s-9.1-4.1-9.1-9.1S957.7,604,962.7,604z M896.5,598.8c5,0,9.1,4.1,9.1,9.1&#10;&#9;&#9;&#9;c0,5-4.1,9.1-9.1,9.1c-5,0-9.1-4.1-9.1-9.1C887.5,602.9,891.5,598.8,896.5,598.8z M831,596.2c5,0,9.1,4.1,9.1,9.1&#10;&#9;&#9;&#9;c0,5-4.1,9.1-9.1,9.1c-5,0-9.1-4.1-9.1-9.1C821.9,600.3,826,596.2,831,596.2z M802.5,621.5c5,0,9.1,4.1,9.1,9.1&#10;&#9;&#9;&#9;c0,5-4.1,9.1-9.1,9.1s-9.1-4.1-9.1-9.1C793.4,625.6,797.5,621.5,802.5,621.5z" style="fill: rgb(247, 161, 145);" transform="matrix(1, 0, 0, 1, -383.5008850097656, -343.7522277832031)"/><path class="st9" d="M781.7,575.4c9.1,0-0.6,40.2,16.9,39.6c17.5-0.6,3.9-51.9,24.6-51.2c20.8,0.6,16.2,24.6,38.3,22.7&#10;&#9;&#9;&#9;c22.1-1.9,22.7-32.4,37.6-31.1c14.9,1.3,3.2,49.3,18.8,51.2s5.2-53.8,20.1-52.5c14.9,1.3-2.6,33.7,8.4,34.4&#10;&#9;&#9;&#9;c11,0.6,9.7-37,22.7-34.4c13,2.6,5.8,36.3,18.8,40.9c13,4.5,7.1-27.2,16.9-24c4.7,1.6,6.7,5.8,8.2,8.5c1.5,2.9,2.5,4.2,5.5-0.8&#10;&#9;&#9;&#9;c5.8-9.7,3.2-30.5-6.5-33.7c-5-1.7-25.7-3.8-50.3-5.4c-23.2-1.5-49.9-2.4-69.7-1.7c-29.6,0.9-55.9,4.2-76.9,8.4&#10;&#9;&#9;&#9;c-23.2,4.7-39.8,10.5-47,15.6c-13.6,9.7-8.4,33.1-1.3,31.8c0.4-0.1,0.7-0.2,1.1-0.3C773.8,590.6,773.1,575.4,781.7,575.4z" style="fill: rgb(255, 249, 178);" transform="matrix(1, 0, 0, 1, -383.5008850097656, -343.7522277832031)"/><path d="M 811.6 630.599976 A 9.1 9.1 0 0 1 802.5 639.699976 A 9.1 9.1 0 0 1 793.4 630.599976 A 9.1 9.1 0 0 1 802.5 621.499975 A 9.1 9.1 0 0 1 811.6 630.599976 Z" class="st4" style="fill: rgb(244, 127, 113);" transform="matrix(1, 0, 0, 1, -383.5008850097656, -343.7522277832031)"/><path d="M 840.1 605.299988 A 9.1 9.1 0 0 1 831 614.399988 A 9.1 9.1 0 0 1 821.9 605.299988 A 9.1 9.1 0 0 1 831 596.199987 A 9.1 9.1 0 0 1 840.1 605.299988 Z" class="st4" style="fill: rgb(244, 127, 113);" transform="matrix(1, 0, 0, 1, -383.5008850097656, -343.7522277832031)"/><path d="M 873.199976 640.299988 A 9.1 9.1 0 0 1 864.099976 649.399988 A 9.1 9.1 0 0 1 854.999975 640.299988 A 9.1 9.1 0 0 1 864.099976 631.199987 A 9.1 9.1 0 0 1 873.199976 640.299988 Z" class="st4" style="fill: rgb(244, 127, 113);" transform="matrix(1, 0, 0, 1, -383.5008850097656, -343.7522277832031)"/><path d="M 905.6 607.900024 A 9.1 9.1 0 0 1 896.5 617.000025 A 9.1 9.1 0 0 1 887.4 607.900024 A 9.1 9.1 0 0 1 896.5 598.800024 A 9.1 9.1 0 0 1 905.6 607.900024 Z" class="st4" style="fill: rgb(244, 127, 113);" transform="matrix(1, 0, 0, 1, -383.5008850097656, -343.7522277832031)"/><path d="M 940.699976 646.099976 A 9.1 9.1 0 0 1 931.599976 655.199976 A 9.1 9.1 0 0 1 922.499975 646.099976 A 9.1 9.1 0 0 1 931.599976 636.999975 A 9.1 9.1 0 0 1 940.699976 646.099976 Z" class="st4" style="fill: rgb(244, 127, 113);" transform="matrix(1, 0, 0, 1, -383.5008850097656, -343.7522277832031)"/><path d="M 971.800013 613.099976 A 9.1 9.1 0 0 1 962.700012 622.199976 A 9.1 9.1 0 0 1 953.600012 613.099976 A 9.1 9.1 0 0 1 962.700012 603.999975 A 9.1 9.1 0 0 1 971.800013 613.099976 Z" class="st4" style="fill: rgb(244, 127, 113);" transform="matrix(1, 0, 0, 1, -383.5008850097656, -343.7522277832031)"/><path d="M 989.300013 641 A 9.1 9.1 0 0 1 980.200012 650.1 A 9.1 9.1 0 0 1 971.100012 641 A 9.1 9.1 0 0 1 980.200012 631.9 A 9.1 9.1 0 0 1 989.300013 641 Z" class="st4" style="fill: rgb(244, 127, 113);" transform="matrix(1, 0, 0, 1, -383.5008850097656, -343.7522277832031)"/><path class="st9" d="M810.3,516.4c7.1-1.9,0.6-26.6,11-27.9c10.4-1.3,5.2,16.9,14.3,15.6c9.1-1.3,11.7-23.3,25.3-23.3&#10;&#9;&#9;&#9;c13.6,0,5.8,29.8,18.8,31.1c13,1.3,6.5-35,20.1-35.7c13.6-0.6,13,23.3,33.1,14.3c20.1-9.1,18.2-12.3,25.9-2.6&#10;&#9;&#9;&#9;c7.8,9.7-11.7,27.9-2.6,30.5c9.1,2.6,6.5-25.3,12.3-25.3c4.5,0,1.7,7.6,3.1,9.7c0.4,0.7,1.2,0.8,2.7,0&#10;&#9;&#9;&#9;c6.3-3.2,20.5-58.3-74.4-53.1c-2.8,0.2-5.7,0.3-8.6,0.6c-3.4,0.3-6.6,0.6-9.7,0.9c-54.5,5.3-65.5,11.5-77.2,23.8&#10;&#9;&#9;&#9;c-10.1,10.6-4.6,32.9,1.7,39.6C807.5,516,809,516.8,810.3,516.4z" style="fill: rgb(255, 249, 178);" transform="matrix(1, 0, 0, 1, -383.5008850097656, -343.7522277832031)"/><path d="M 826.499976 513.200012 A 3.9 3.9 0 0 1 822.599976 517.100012 A 3.9 3.9 0 0 1 818.699975 513.200012 A 3.9 3.9 0 0 1 822.599976 509.300012 A 3.9 3.9 0 0 1 826.499976 513.200012 Z" class="st8" style="fill: rgb(125, 203, 184);" transform="matrix(1, 0, 0, 1, -383.5008850097656, -343.7522277832031)"/><path d="M 844.700025 526.799988 A 7.8 7.8 0 0 1 836.900024 534.599988 A 7.8 7.8 0 0 1 829.100024 526.799988 A 7.8 7.8 0 0 1 836.900024 518.999988 A 7.8 7.8 0 0 1 844.700025 526.799988 Z" class="st8" style="fill: rgb(125, 203, 184);" transform="matrix(1, 0, 0, 1, -383.5008850097656, -343.7522277832031)"/><path d="M 860.800012 505.399994 A 7.1 7.1 0 0 1 853.700012 512.499994 A 7.1 7.1 0 0 1 846.600012 505.399994 A 7.1 7.1 0 0 1 853.700012 498.299994 A 7.1 7.1 0 0 1 860.800012 505.399994 Z" class="st8" style="fill: rgb(125, 203, 184);" transform="matrix(1, 0, 0, 1, -383.5008850097656, -343.7522277832031)"/><path d="M 877.100024 525.5 A 5.2 5.2 0 0 1 871.900024 530.7 A 5.2 5.2 0 0 1 866.700025 525.5 A 5.2 5.2 0 0 1 871.900024 520.3 A 5.2 5.2 0 0 1 877.100024 525.5 Z" class="st8" style="fill: rgb(125, 203, 184);" transform="matrix(1, 0, 0, 1, -383.5008850097656, -343.7522277832031)"/><path d="M 911.399988 498.899994 A 7.1 7.1 0 0 1 904.299988 505.999994 A 7.1 7.1 0 0 1 897.199988 498.899994 A 7.1 7.1 0 0 1 904.299988 491.799994 A 7.1 7.1 0 0 1 911.399988 498.899994 Z" class="st8" style="fill: rgb(125, 203, 184);" transform="matrix(1, 0, 0, 1, -383.5008850097656, -343.7522277832031)"/><path d="M 904.300012 525.5 A 7.1 7.1 0 0 1 897.200012 532.6 A 7.1 7.1 0 0 1 890.100012 525.5 A 7.1 7.1 0 0 1 897.200012 518.4 A 7.1 7.1 0 0 1 904.300012 525.5 Z" class="st8" style="fill: rgb(125, 203, 184);" transform="matrix(1, 0, 0, 1, -383.5008850097656, -343.7522277832031)"/><path d="M 935.399976 507.299988 A 5.8 5.8 0 0 1 929.599976 513.099988 A 5.8 5.8 0 0 1 923.799975 507.299988 A 5.8 5.8 0 0 1 929.599976 501.499988 A 5.8 5.8 0 0 1 935.399976 507.299988 Z" class="st8" style="fill: rgb(125, 203, 184);" transform="matrix(1, 0, 0, 1, -383.5008850097656, -343.7522277832031)"/><path d="M 947.099988 522.900024 A 5.8 5.8 0 0 1 941.299988 528.700025 A 5.8 5.8 0 0 1 935.499988 522.900024 A 5.8 5.8 0 0 1 941.299988 517.100024 A 5.8 5.8 0 0 1 947.099988 522.900024 Z" class="st8" style="fill: rgb(125, 203, 184);" transform="matrix(1, 0, 0, 1, -383.5008850097656, -343.7522277832031)"/><path d="M 957.5 495.700012 A 4.5 4.5 0 0 1 953 500.200012 A 4.5 4.5 0 0 1 948.5 495.700012 A 4.5 4.5 0 0 1 953 491.200012 A 4.5 4.5 0 0 1 957.5 495.700012 Z" class="st8" style="fill: rgb(125, 203, 184);" transform="matrix(1, 0, 0, 1, -383.5008850097656, -343.7522277832031)"/><path d="M 929.600024 529.400024 A 5.2 5.2 0 0 1 924.400024 534.600024 A 5.2 5.2 0 0 1 919.200025 529.400024 A 5.2 5.2 0 0 1 924.400024 524.200025 A 5.2 5.2 0 0 1 929.600024 529.400024 Z" class="st8" style="fill: rgb(125, 203, 184);" transform="matrix(1, 0, 0, 1, -383.5008850097656, -343.7522277832031)"/><path d="M 959.400012 532.599976 A 3.2 3.2 0 0 1 956.200012 535.799976 A 3.2 3.2 0 0 1 953.000012 532.599976 A 3.2 3.2 0 0 1 956.200012 529.399976 A 3.2 3.2 0 0 1 959.400012 532.599976 Z" class="st8" style="fill: rgb(125, 203, 184);" transform="matrix(1, 0, 0, 1, -383.5008850097656, -343.7522277832031)"/></g></svg>