<?xml version="1.0" encoding="UTF-8"?>
<svg xmlns="http://www.w3.org/2000/svg" xmlns:xlink="http://www.w3.org/1999/xlink" width="4800" height="3300" viewBox="0 0 4800 3300">
<defs>
<radialGradient id="radial-pattern-0" gradientUnits="userSpaceOnUse" cx="0" cy="0" fx="0" fy="0" r="4856.46" gradientTransform="matrix(1, 0, 0, 1, 2400, 1650)">
<stop offset="0" stop-color="rgb(100%, 100%, 100%)" stop-opacity="1"/>
<stop offset="0.0625" stop-color="rgb(100%, 100%, 100%)" stop-opacity="1"/>
<stop offset="0.0898438" stop-color="rgb(99.92218%, 99.97406%, 99.993896%)" stop-opacity="1"/>
<stop offset="0.101562" stop-color="rgb(99.699402%, 99.879456%, 99.94812%)" stop-opacity="1"/>
<stop offset="0.128906" stop-color="rgb(99.401855%, 99.612427%, 99.687195%)" stop-opacity="1"/>
<stop offset="0.140625" stop-color="rgb(99.092102%, 99.215698%, 99.250793%)" stop-opacity="1"/>
<stop offset="0.152344" stop-color="rgb(98.7854%, 98.88916%, 98.910522%)" stop-opacity="1"/>
<stop offset="0.164062" stop-color="rgb(98.48938%, 98.699951%, 98.75946%)" stop-opacity="1"/>
<stop offset="0.175781" stop-color="rgb(98.191833%, 98.443604%, 98.51532%)" stop-opacity="1"/>
<stop offset="0.1875" stop-color="rgb(97.990417%, 98.086548%, 98.0896%)" stop-opacity="1"/>
<stop offset="0.199219" stop-color="rgb(97.879028%, 97.814941%, 97.75238%)" stop-opacity="1"/>
<stop offset="0.210938" stop-color="rgb(97.668457%, 97.653198%, 97.607422%)" stop-opacity="1"/>
<stop offset="0.222656" stop-color="rgb(97.418213%, 97.520447%, 97.518921%)" stop-opacity="1"/>
<stop offset="0.226562" stop-color="rgb(97.219849%, 97.361755%, 97.370911%)" stop-opacity="1"/>
<stop offset="0.230469" stop-color="rgb(97.019958%, 97.201538%, 97.224426%)" stop-opacity="1"/>
<stop offset="0.234375" stop-color="rgb(96.722412%, 96.913147%, 96.934509%)" stop-opacity="1"/>
<stop offset="0.246094" stop-color="rgb(96.369934%, 96.511841%, 96.507263%)" stop-opacity="1"/>
<stop offset="0.257812" stop-color="rgb(96.113586%, 96.18988%, 96.156311%)" stop-opacity="1"/>
<stop offset="0.265625" stop-color="rgb(95.910645%, 95.935059%, 95.877075%)" stop-opacity="1"/>
<stop offset="0.273438" stop-color="rgb(95.706177%, 95.677185%, 95.596313%)" stop-opacity="1"/>
<stop offset="0.28125" stop-color="rgb(95.462036%, 95.410156%, 95.315552%)" stop-opacity="1"/>
<stop offset="0.289062" stop-color="rgb(95.121765%, 95.11261%, 95.030212%)" stop-opacity="1"/>
<stop offset="0.296875" stop-color="rgb(94.725037%, 94.761658%, 94.691467%)" stop-opacity="1"/>
<stop offset="0.304688" stop-color="rgb(94.322205%, 94.313049%, 94.219971%)" stop-opacity="1"/>
<stop offset="0.3125" stop-color="rgb(93.919373%, 93.843079%, 93.685913%)" stop-opacity="1"/>
<stop offset="0.320312" stop-color="rgb(93.522644%, 93.466187%, 93.19458%)" stop-opacity="1"/>
<stop offset="0.328125" stop-color="rgb(93.162537%, 93.161011%, 92.762756%)" stop-opacity="1"/>
<stop offset="0.335938" stop-color="rgb(92.895508%, 92.887878%, 92.428589%)" stop-opacity="1"/>
<stop offset="0.34375" stop-color="rgb(92.6651%, 92.602539%, 92.118835%)" stop-opacity="1"/>
<stop offset="0.351562" stop-color="rgb(92.332458%, 92.190552%, 91.674805%)" stop-opacity="1"/>
<stop offset="0.359375" stop-color="rgb(91.932678%, 91.720581%, 91.174316%)" stop-opacity="1"/>
<stop offset="0.367188" stop-color="rgb(91.539001%, 91.346741%, 90.805054%)" stop-opacity="1"/>
<stop offset="0.375" stop-color="rgb(91.146851%, 91.023254%, 90.50293%)" stop-opacity="1"/>
<stop offset="0.382812" stop-color="rgb(90.751648%, 90.603638%, 90.072632%)" stop-opacity="1"/>
<stop offset="0.390625" stop-color="rgb(90.45105%, 90.237427%, 89.677429%)" stop-opacity="1"/>
<stop offset="0.394531" stop-color="rgb(90.234375%, 90.007019%, 89.424133%)" stop-opacity="1"/>
<stop offset="0.398438" stop-color="rgb(89.970398%, 89.807129%, 89.186096%)" stop-opacity="1"/>
<stop offset="0.402344" stop-color="rgb(89.683533%, 89.628601%, 88.963318%)" stop-opacity="1"/>
<stop offset="0.40625" stop-color="rgb(89.395142%, 89.448547%, 88.737488%)" stop-opacity="1"/>
<stop offset="0.410156" stop-color="rgb(89.086914%, 89.155579%, 88.380432%)" stop-opacity="1"/>
<stop offset="0.417969" stop-color="rgb(88.819885%, 88.739014%, 87.879944%)" stop-opacity="1"/>
<stop offset="0.425781" stop-color="rgb(88.63678%, 88.41095%, 87.510681%)" stop-opacity="1"/>
<stop offset="0.429688" stop-color="rgb(88.412476%, 88.165283%, 87.309265%)" stop-opacity="1"/>
<stop offset="0.433594" stop-color="rgb(88.121033%, 87.902832%, 87.139893%)" stop-opacity="1"/>
<stop offset="0.4375" stop-color="rgb(87.82959%, 87.640381%, 86.97052%)" stop-opacity="1"/>
<stop offset="0.441406" stop-color="rgb(87.547302%, 87.380981%, 86.781311%)" stop-opacity="1"/>
<stop offset="0.445312" stop-color="rgb(87.315369%, 87.132263%, 86.506653%)" stop-opacity="1"/>
<stop offset="0.449219" stop-color="rgb(87.11853%, 86.8927%, 86.167908%)" stop-opacity="1"/>
<stop offset="0.453125" stop-color="rgb(86.921692%, 86.651611%, 85.829163%)" stop-opacity="1"/>
<stop offset="0.457031" stop-color="rgb(86.720276%, 86.410522%, 85.50415%)" stop-opacity="1"/>
<stop offset="0.460938" stop-color="rgb(86.470032%, 86.160278%, 85.267639%)" stop-opacity="1"/>
<stop offset="0.464844" stop-color="rgb(86.180115%, 85.902405%, 85.102844%)" stop-opacity="1"/>
<stop offset="0.46875" stop-color="rgb(85.890198%, 85.644531%, 84.939575%)" stop-opacity="1"/>
<stop offset="0.472656" stop-color="rgb(85.604858%, 85.389709%, 84.770203%)" stop-opacity="1"/>
<stop offset="0.476562" stop-color="rgb(85.270691%, 85.029602%, 84.437561%)" stop-opacity="1"/>
<stop offset="0.484375" stop-color="rgb(84.880066%, 84.564209%, 83.944702%)" stop-opacity="1"/>
<stop offset="0.492188" stop-color="rgb(84.541321%, 84.202576%, 83.575439%)" stop-opacity="1"/>
<stop offset="0.496094" stop-color="rgb(84.25293%, 83.947754%, 83.331299%)" stop-opacity="1"/>
<stop offset="0.5" stop-color="rgb(83.966064%, 83.691406%, 83.085632%)" stop-opacity="1"/>
<stop offset="0.503906" stop-color="rgb(83.679199%, 83.43811%, 82.843018%)" stop-opacity="1"/>
<stop offset="0.507812" stop-color="rgb(83.39386%, 83.183289%, 82.600403%)" stop-opacity="1"/>
<stop offset="0.511719" stop-color="rgb(83.106995%, 82.929993%, 82.359314%)" stop-opacity="1"/>
<stop offset="0.515625" stop-color="rgb(82.820129%, 82.676697%, 82.116699%)" stop-opacity="1"/>
<stop offset="0.519531" stop-color="rgb(82.53479%, 82.424927%, 81.877136%)" stop-opacity="1"/>
<stop offset="0.523438" stop-color="rgb(82.290649%, 82.144165%, 81.584167%)" stop-opacity="1"/>
<stop offset="0.527344" stop-color="rgb(82.092285%, 81.832886%, 81.233215%)" stop-opacity="1"/>
<stop offset="0.53125" stop-color="rgb(81.896973%, 81.518555%, 80.877686%)" stop-opacity="1"/>
<stop offset="0.535156" stop-color="rgb(81.704712%, 81.204224%, 80.523682%)" stop-opacity="1"/>
<stop offset="0.539062" stop-color="rgb(81.43158%, 80.873108%, 80.172729%)" stop-opacity="1"/>
<stop offset="0.542969" stop-color="rgb(81.06842%, 80.517578%, 79.821777%)" stop-opacity="1"/>
<stop offset="0.546875" stop-color="rgb(80.690002%, 80.158997%, 79.472351%)" stop-opacity="1"/>
<stop offset="0.550781" stop-color="rgb(80.31311%, 79.803467%, 79.125977%)" stop-opacity="1"/>
<stop offset="0.554688" stop-color="rgb(79.971313%, 79.457092%, 78.779602%)" stop-opacity="1"/>
<stop offset="0.558594" stop-color="rgb(79.676819%, 79.122925%, 78.433228%)" stop-opacity="1"/>
<stop offset="0.5625" stop-color="rgb(79.393005%, 78.793335%, 78.089905%)" stop-opacity="1"/>
<stop offset="0.566406" stop-color="rgb(79.110718%, 78.466797%, 77.749634%)" stop-opacity="1"/>
<stop offset="0.570312" stop-color="rgb(78.82843%, 78.16925%, 77.42157%)" stop-opacity="1"/>
<stop offset="0.574219" stop-color="rgb(78.547668%, 77.912903%, 77.110291%)" stop-opacity="1"/>
<stop offset="0.578125" stop-color="rgb(78.266907%, 77.670288%, 76.805115%)" stop-opacity="1"/>
<stop offset="0.582031" stop-color="rgb(77.989197%, 77.430725%, 76.502991%)" stop-opacity="1"/>
<stop offset="0.585938" stop-color="rgb(77.679443%, 77.156067%, 76.217651%)" stop-opacity="1"/>
<stop offset="0.589844" stop-color="rgb(77.322388%, 76.831055%, 75.9552%)" stop-opacity="1"/>
<stop offset="0.59375" stop-color="rgb(76.950073%, 76.489258%, 75.70343%)" stop-opacity="1"/>
<stop offset="0.597656" stop-color="rgb(76.579285%, 76.150513%, 75.453186%)" stop-opacity="1"/>
<stop offset="0.601562" stop-color="rgb(76.234436%, 75.816345%, 75.180054%)" stop-opacity="1"/>
<stop offset="0.605469" stop-color="rgb(75.935364%, 75.492859%, 74.868774%)" stop-opacity="1"/>
<stop offset="0.609375" stop-color="rgb(75.657654%, 75.175476%, 74.54071%)" stop-opacity="1"/>
<stop offset="0.613281" stop-color="rgb(75.38147%, 74.861145%, 74.217224%)" stop-opacity="1"/>
<stop offset="0.617188" stop-color="rgb(75.080872%, 74.562073%, 73.901367%)" stop-opacity="1"/>
<stop offset="0.621094" stop-color="rgb(74.734497%, 74.293518%, 73.603821%)" stop-opacity="1"/>
<stop offset="0.625" stop-color="rgb(74.368286%, 74.041748%, 73.31543%)" stop-opacity="1"/>
<stop offset="0.628906" stop-color="rgb(74.002075%, 73.788452%, 73.03009%)" stop-opacity="1"/>
<stop offset="0.632812" stop-color="rgb(73.655701%, 73.524475%, 72.755432%)" stop-opacity="1"/>
<stop offset="0.636719" stop-color="rgb(73.356628%, 73.231506%, 72.502136%)" stop-opacity="1"/>
<stop offset="0.640625" stop-color="rgb(73.080444%, 72.923279%, 72.262573%)" stop-opacity="1"/>
<stop offset="0.644531" stop-color="rgb(72.807312%, 72.618103%, 72.024536%)" stop-opacity="1"/>
<stop offset="0.648438" stop-color="rgb(72.517395%, 72.30835%, 71.757507%)" stop-opacity="1"/>
<stop offset="0.652344" stop-color="rgb(72.180176%, 71.987915%, 71.417236%)" stop-opacity="1"/>
<stop offset="0.65625" stop-color="rgb(71.817017%, 71.662903%, 71.034241%)" stop-opacity="1"/>
<stop offset="0.660156" stop-color="rgb(71.455383%, 71.336365%, 70.651245%)" stop-opacity="1"/>
<stop offset="0.664062" stop-color="rgb(71.092224%, 71.012878%, 70.297241%)" stop-opacity="1"/>
<stop offset="0.667969" stop-color="rgb(70.732117%, 70.692444%, 70.018005%)" stop-opacity="1"/>
<stop offset="0.671875" stop-color="rgb(70.370483%, 70.375061%, 69.792175%)" stop-opacity="1"/>
<stop offset="0.675781" stop-color="rgb(70.010376%, 70.057678%, 69.566345%)" stop-opacity="1"/>
<stop offset="0.679688" stop-color="rgb(69.66095%, 69.734192%, 69.317627%)" stop-opacity="1"/>
<stop offset="0.683594" stop-color="rgb(69.360352%, 69.380188%, 68.978882%)" stop-opacity="1"/>
<stop offset="0.6875" stop-color="rgb(69.094849%, 69.006348%, 68.577576%)" stop-opacity="1"/>
<stop offset="0.691406" stop-color="rgb(68.82782%, 68.632507%, 68.177795%)" stop-opacity="1"/>
<stop offset="0.695312" stop-color="rgb(68.553162%, 68.266296%, 67.790222%)" stop-opacity="1"/>
<stop offset="0.699219" stop-color="rgb(68.232727%, 67.932129%, 67.459106%)" stop-opacity="1"/>
<stop offset="0.703125" stop-color="rgb(67.877197%, 67.623901%, 67.170715%)" stop-opacity="1"/>
<stop offset="0.707031" stop-color="rgb(67.521667%, 67.315674%, 66.882324%)" stop-opacity="1"/>
<stop offset="0.710938" stop-color="rgb(67.167664%, 67.008972%, 66.592407%)" stop-opacity="1"/>
<stop offset="0.714844" stop-color="rgb(66.81366%, 66.703796%, 66.265869%)" stop-opacity="1"/>
<stop offset="0.71875" stop-color="rgb(66.461182%, 66.400146%, 65.911865%)" stop-opacity="1"/>
<stop offset="0.722656" stop-color="rgb(66.108704%, 66.096497%, 65.559387%)" stop-opacity="1"/>
<stop offset="0.726562" stop-color="rgb(65.753174%, 65.786743%, 65.203857%)" stop-opacity="1"/>
<stop offset="0.730469" stop-color="rgb(65.356445%, 65.394592%, 64.790344%)" stop-opacity="1"/>
<stop offset="0.734375" stop-color="rgb(64.92157%, 64.926147%, 64.324951%)" stop-opacity="1"/>
<stop offset="0.738281" stop-color="rgb(64.486694%, 64.46228%, 63.86261%)" stop-opacity="1"/>
<stop offset="0.742188" stop-color="rgb(64.054871%, 63.999939%, 63.40332%)" stop-opacity="1"/>
<stop offset="0.746094" stop-color="rgb(63.641357%, 63.55896%, 63.002014%)" stop-opacity="1"/>
<stop offset="0.75" stop-color="rgb(63.243103%, 63.139343%, 62.65564%)" stop-opacity="1"/>
<stop offset="0.753906" stop-color="rgb(62.8479%, 62.722778%, 62.309265%)" stop-opacity="1"/>
<stop offset="0.757812" stop-color="rgb(62.452698%, 62.307739%, 61.965942%)" stop-opacity="1"/>
<stop offset="0.761719" stop-color="rgb(62.04071%, 61.946106%, 61.631775%)" stop-opacity="1"/>
<stop offset="0.765625" stop-color="rgb(61.610413%, 61.642456%, 61.308289%)" stop-opacity="1"/>
<stop offset="0.769531" stop-color="rgb(61.181641%, 61.343384%, 60.987854%)" stop-opacity="1"/>
<stop offset="0.773438" stop-color="rgb(60.751343%, 61.045837%, 60.668945%)" stop-opacity="1"/>
<stop offset="0.777344" stop-color="rgb(60.379028%, 60.708618%, 60.342407%)" stop-opacity="1"/>
<stop offset="0.78125" stop-color="rgb(60.073853%, 60.327148%, 60.006714%)" stop-opacity="1"/>
<stop offset="0.785156" stop-color="rgb(59.776306%, 59.939575%, 59.672546%)" stop-opacity="1"/>
<stop offset="0.789062" stop-color="rgb(59.47876%, 59.555054%, 59.339905%)" stop-opacity="1"/>
<stop offset="0.792969" stop-color="rgb(59.143066%, 59.194946%, 58.99353%)" stop-opacity="1"/>
<stop offset="0.796875" stop-color="rgb(58.766174%, 58.866882%, 58.633423%)" stop-opacity="1"/>
<stop offset="0.800781" stop-color="rgb(58.383179%, 58.544922%, 58.270264%)" stop-opacity="1"/>
<stop offset="0.804688" stop-color="rgb(58.000183%, 58.222961%, 57.910156%)" stop-opacity="1"/>
<stop offset="0.808594" stop-color="rgb(57.649231%, 57.910156%, 57.598877%)" stop-opacity="1"/>
<stop offset="0.8125" stop-color="rgb(57.344055%, 57.60498%, 57.35321%)" stop-opacity="1"/>
<stop offset="0.816406" stop-color="rgb(57.049561%, 57.302856%, 57.119751%)" stop-opacity="1"/>
<stop offset="0.820312" stop-color="rgb(56.756592%, 57.002258%, 56.889343%)" stop-opacity="1"/>
<stop offset="0.824219" stop-color="rgb(56.417847%, 56.654358%, 56.590271%)" stop-opacity="1"/>
<stop offset="0.828125" stop-color="rgb(56.018066%, 56.245422%, 56.19812%)" stop-opacity="1"/>
<stop offset="0.832031" stop-color="rgb(55.599976%, 55.818176%, 55.778503%)" stop-opacity="1"/>
<stop offset="0.835938" stop-color="rgb(55.183411%, 55.392456%, 55.361938%)" stop-opacity="1"/>
<stop offset="0.839844" stop-color="rgb(54.753113%, 54.977417%, 54.959106%)" stop-opacity="1"/>
<stop offset="0.84375" stop-color="rgb(54.296875%, 54.573059%, 54.577637%)" stop-opacity="1"/>
<stop offset="0.847656" stop-color="rgb(53.834534%, 54.176331%, 54.205322%)" stop-opacity="1"/>
<stop offset="0.851562" stop-color="rgb(53.373718%, 53.781128%, 53.833008%)" stop-opacity="1"/>
<stop offset="0.855469" stop-color="rgb(52.91748%, 53.369141%, 53.459167%)" stop-opacity="1"/>
<stop offset="0.859375" stop-color="rgb(52.46582%, 52.926636%, 53.076172%)" stop-opacity="1"/>
<stop offset="0.863281" stop-color="rgb(52.018738%, 52.47345%, 52.690125%)" stop-opacity="1"/>
<stop offset="0.867188" stop-color="rgb(51.571655%, 52.023315%, 52.307129%)" stop-opacity="1"/>
<stop offset="0.871094" stop-color="rgb(51.115417%, 51.580811%, 51.919556%)" stop-opacity="1"/>
<stop offset="0.875" stop-color="rgb(50.637817%, 51.148987%, 51.521301%)" stop-opacity="1"/>
<stop offset="0.878906" stop-color="rgb(50.149536%, 50.726318%, 51.119995%)" stop-opacity="1"/>
<stop offset="0.882812" stop-color="rgb(49.664307%, 50.305176%, 50.720215%)" stop-opacity="1"/>
<stop offset="0.886719" stop-color="rgb(49.208069%, 49.900818%, 50.332642%)" stop-opacity="1"/>
<stop offset="0.890625" stop-color="rgb(48.817444%, 49.525452%, 49.966431%)" stop-opacity="1"/>
<stop offset="0.894531" stop-color="rgb(48.46344%, 49.168396%, 49.613953%)" stop-opacity="1"/>
<stop offset="0.898438" stop-color="rgb(48.109436%, 48.814392%, 49.264526%)" stop-opacity="1"/>
<stop offset="0.902344" stop-color="rgb(47.750854%, 48.452759%, 48.905945%)" stop-opacity="1"/>
<stop offset="0.90625" stop-color="rgb(47.372437%, 48.071289%, 48.529053%)" stop-opacity="1"/>
<stop offset="0.910156" stop-color="rgb(46.981812%, 47.677612%, 48.138428%)" stop-opacity="1"/>
<stop offset="0.914062" stop-color="rgb(46.592712%, 47.286987%, 47.750854%)" stop-opacity="1"/>
<stop offset="0.917969" stop-color="rgb(46.188354%, 46.879578%, 47.355652%)" stop-opacity="1"/>
<stop offset="0.921875" stop-color="rgb(45.729065%, 46.418762%, 46.934509%)" stop-opacity="1"/>
<stop offset="0.925781" stop-color="rgb(45.233154%, 45.922852%, 46.495056%)" stop-opacity="1"/>
<stop offset="0.929688" stop-color="rgb(44.741821%, 45.429993%, 46.060181%)" stop-opacity="1"/>
<stop offset="0.933594" stop-color="rgb(44.252014%, 44.940186%, 45.620728%)" stop-opacity="1"/>
<stop offset="0.9375" stop-color="rgb(43.766785%, 44.454956%, 45.159912%)" stop-opacity="1"/>
<stop offset="0.941406" stop-color="rgb(43.284607%, 43.974304%, 44.680786%)" stop-opacity="1"/>
<stop offset="0.945312" stop-color="rgb(42.805481%, 43.49823%, 44.206238%)" stop-opacity="1"/>
<stop offset="0.949219" stop-color="rgb(42.332458%, 43.026733%, 43.737793%)" stop-opacity="1"/>
<stop offset="0.953125" stop-color="rgb(41.876221%, 42.56897%, 43.281555%)" stop-opacity="1"/>
<stop offset="0.957031" stop-color="rgb(41.433716%, 42.124939%, 42.834473%)" stop-opacity="1"/>
<stop offset="0.960938" stop-color="rgb(40.994263%, 41.68396%, 42.390442%)" stop-opacity="1"/>
<stop offset="0.964844" stop-color="rgb(40.557861%, 41.239929%, 41.947937%)" stop-opacity="1"/>
<stop offset="0.96875" stop-color="rgb(40.126038%, 40.774536%, 41.500854%)" stop-opacity="1"/>
<stop offset="0.972656" stop-color="rgb(39.700317%, 40.286255%, 41.047668%)" stop-opacity="1"/>
<stop offset="0.976562" stop-color="rgb(39.279175%, 39.802551%, 40.59906%)" stop-opacity="1"/>
<stop offset="0.980469" stop-color="rgb(38.858032%, 39.324951%, 40.151978%)" stop-opacity="1"/>
<stop offset="0.984375" stop-color="rgb(38.43689%, 38.876343%, 39.717102%)" stop-opacity="1"/>
<stop offset="0.988281" stop-color="rgb(38.015747%, 38.4552%, 39.292908%)" stop-opacity="1"/>
<stop offset="0.992188" stop-color="rgb(37.597656%, 38.040161%, 38.871765%)" stop-opacity="1"/>
<stop offset="0.996094" stop-color="rgb(37.179565%, 37.623596%, 38.452148%)" stop-opacity="1"/>
<stop offset="1" stop-color="rgb(36.972046%, 37.417603%, 38.244629%)" stop-opacity="1"/>
</radialGradient>
</defs>

<path fill-rule="nonzero" fill="rgb(84.257507%, 55.401611%, 26.853943%)" fill-opacity="1" d="M 1879.839844 865.96875 C 1873.171875 885.109375 1845.480469 892.929688 1818.070312 883.289062 C 1790.671875 873.71875 1773.851562 850.378906 1780.589844 831.238281 C 1787.261719 812.109375 1814.960938 804.28125 1842.359375 813.921875 C 1869.761719 823.488281 1886.578125 846.828125 1879.839844 865.96875 Z M 1958.449219 810.980469 C 1919.289062 763.589844 1842.5 739.898438 1842.5 739.898438 C 1865.808594 725.5 1859.21875 688.039062 1846.199219 669.179688 L 1623.761719 824.21875 C 1620.648438 829.941406 1618.53125 835.761719 1617.121094 841.210938 L 1636.300781 854.359375 C 1646.789062 851.851562 1658.589844 850.648438 1666.710938 850.160156 C 1682.140625 849.320312 1680.808594 859.519531 1664.070312 873.410156 L 1970.03125 1083.199219 L 1958.449219 810.980469 "/>
<path fill-rule="nonzero" fill="rgb(84.257507%, 55.401611%, 26.853943%)" fill-opacity="1" d="M 1837.210938 828.628906 C 1821.410156 823.121094 1805.53125 827.621094 1801.691406 838.640625 C 1797.78125 849.660156 1807.488281 863.070312 1823.21875 868.578125 C 1839.019531 874.089844 1854.898438 869.589844 1858.808594 858.570312 C 1862.660156 847.558594 1853.019531 834.140625 1837.210938 828.628906 "/>
<path fill-rule="nonzero" fill="rgb(87.22229%, 63.09967%, 37.602234%)" fill-opacity="1" d="M 1832.570312 658.128906 C 1813.140625 654.511719 1811.769531 673.5 1806.328125 668.058594 C 1800.960938 662.621094 1804.078125 621.960938 1793.71875 620.578125 C 1783.351562 619.269531 1787.410156 661.25 1783.351562 676.179688 C 1779.21875 691.109375 1774.71875 671.691406 1769.289062 647.261719 C 1763.851562 622.828125 1749.859375 660.378906 1747.179688 679.371094 C 1744.421875 698.359375 1738.109375 671.691406 1731.808594 649.941406 C 1725.429688 628.261719 1719.191406 669.371094 1714.191406 689.738281 C 1709.191406 710.109375 1702.878906 676.179688 1698.308594 675.75 C 1693.820312 675.308594 1688.378906 686.109375 1688.820312 698.359375 C 1689.328125 710.539062 1687.511719 709.160156 1683.890625 705.539062 C 1680.261719 701.921875 1676.199219 710.539062 1672.140625 720.039062 C 1668.078125 729.539062 1668.519531 736.78125 1659.96875 753.460938 C 1651.339844 770.199219 1654.671875 796.808594 1654.671875 796.808594 C 1639.179688 802.898438 1629.671875 813.320312 1623.761719 824.21875 L 1846.199219 669.179688 C 1842.050781 663.171875 1837.269531 659.011719 1832.570312 658.128906 "/>
<path fill-rule="nonzero" fill="rgb(82.173157%, 48.657227%, 17.799377%)" fill-opacity="1" d="M 2038.390625 960.429688 C 2027.929688 908.53125 1972.589844 842.628906 1968.789062 838.199219 L 1977.628906 845.671875 C 1973.878906 832.960938 1967.058594 821.410156 1958.449219 810.980469 L 1970.03125 1083.199219 L 2038.390625 960.429688 "/>
<path fill-rule="nonzero" fill="rgb(83.427429%, 49.330139%, 18.399048%)" fill-opacity="1" d="M 1614.300781 865.53125 C 1617.609375 860.28125 1626.371094 856.730469 1636.300781 854.359375 L 1617.121094 841.210938 C 1613.648438 854.628906 1614.300781 865.53125 1614.300781 865.53125 "/>
<path fill-rule="nonzero" fill="rgb(83.427429%, 49.330139%, 18.399048%)" fill-opacity="1" d="M 1664.070312 873.410156 C 1663.601562 873.800781 1663.148438 874.191406 1662.648438 874.589844 C 1644.519531 889.019531 1643.21875 932.878906 1660.398438 978.980469 C 1677.578125 1025.089844 1728.621094 1016.460938 1728.621094 1016.460938 C 1716.460938 1031.488281 1687.609375 1113.238281 1662.691406 1180.308594 L 1970.03125 1083.199219 L 1664.070312 873.410156 "/>
<path fill-rule="nonzero" fill="rgb(75.62561%, 40.753174%, 11.360168%)" fill-opacity="1" d="M 2521.578125 1363.960938 C 2511.589844 1366.128906 2500.289062 1369.101562 2487.449219 1372.328125 L 2503.820312 1426.648438 L 2521.578125 1363.960938 "/>
<path fill-rule="nonzero" fill="rgb(77.461243%, 44.178772%, 12.664795%)" fill-opacity="1" d="M 2107.730469 1171.800781 C 2107.609375 1171.378906 2107.511719 1171.011719 2107.390625 1170.578125 C 2084.988281 1090.039062 2035.550781 980.578125 2032.511719 973.839844 L 2039.539062 984.421875 C 2040.648438 977.019531 2040.089844 968.898438 2038.390625 960.429688 L 1970.03125 1083.199219 L 2107.730469 1171.800781 "/>
<path fill-rule="nonzero" fill="rgb(77.461243%, 44.178772%, 12.664795%)" fill-opacity="1" d="M 2487.449219 1372.328125 C 2472.648438 1376.039062 2455.789062 1380.019531 2436.589844 1383.398438 L 2503.820312 1426.648438 L 2487.449219 1372.328125 "/>
<path fill-rule="nonzero" fill="rgb(80.683899%, 46.705627%, 15.611267%)" fill-opacity="1" d="M 1970.03125 1083.199219 L 1662.691406 1180.308594 C 1656.121094 1198.019531 1649.808594 1214.710938 1644.160156 1228.871094 C 1616.980469 1296.71875 1608.859375 1417.351562 1594 1519.488281 C 1584.339844 1585.519531 1593.808594 1649.539062 1609.011719 1700.058594 L 1694.769531 1784.03125 L 1970.03125 1083.199219 "/>
<path fill-rule="nonzero" fill="rgb(73.405457%, 38.208008%, 11.572266%)" fill-opacity="1" d="M 1694.769531 1784.03125 L 2503.820312 1426.648438 L 2436.589844 1383.398438 C 2414.488281 1387.28125 2389.328125 1390.339844 2360.46875 1391.109375 C 2275.941406 1393.429688 2195.46875 1324.269531 2166.109375 1305.28125 C 2136.898438 1286.378906 2130.429688 1254.019531 2107.730469 1171.800781 L 1970.03125 1083.199219 L 1694.769531 1784.03125 "/>
<path fill-rule="nonzero" fill="rgb(76.525879%, 40.539551%, 11.341858%)" fill-opacity="1" d="M 1609.011719 1700.058594 C 1617.320312 1727.699219 1627.328125 1751.359375 1636.910156 1768.941406 C 1642.878906 1779.910156 1654.078125 1793.691406 1668.269531 1808.808594 L 1694.769531 1784.03125 L 1609.011719 1700.058594 "/>
<path fill-rule="nonzero" fill="rgb(68.469238%, 30.096436%, 11.930847%)" fill-opacity="1" d="M 1668.269531 1808.808594 C 1718.441406 1862.269531 1805.988281 1932.519531 1831.699219 1954.671875 C 1864.691406 1983.160156 1905.351562 2034.699219 1925.648438 2057.25 C 1946.019531 2079.871094 1953.199219 2104.300781 1953.199219 2104.300781 C 1968.359375 2171.890625 2046.691406 2259.800781 2067.789062 2291.121094 L 2215.390625 2304.441406 L 2222.21875 2302.421875 C 2227.789062 2297.289062 2233.550781 2290.949219 2239.140625 2284.648438 L 1694.769531 1784.03125 L 1668.269531 1808.808594 "/>
<path fill-rule="nonzero" fill="rgb(53.514099%, 26.571655%, 10.775757%)" fill-opacity="1" d="M 2071.578125 2297.269531 C 2080.210938 2313.511719 2099.199219 2327.859375 2110.511719 2335.398438 L 2215.390625 2304.441406 L 2067.789062 2291.121094 C 2069.390625 2293.5 2070.691406 2295.578125 2071.578125 2297.269531 "/>
<path fill-rule="nonzero" fill="rgb(53.514099%, 26.571655%, 10.775757%)" fill-opacity="1" d="M 1916.519531 2598.550781 C 1915.789062 2598.410156 1915.070312 2598.261719 1914.421875 2598.121094 C 1914.921875 2598.050781 1915.289062 2598.050781 1915.5 2598.050781 C 1915.871094 2598.121094 1916.230469 2598.121094 1916.589844 2598.191406 C 1916.519531 2598.339844 1916.519531 2598.410156 1916.519531 2598.550781 Z M 2176.910156 2423.339844 C 2176.910156 2392.671875 2197.070312 2340.191406 2205.191406 2320.179688 L 2119.859375 2345.480469 C 2120.078125 2352.949219 2120.21875 2370.488281 2117.328125 2401.160156 C 2113.269531 2444.140625 2092.898438 2539.46875 2073.03125 2565.640625 C 2053.101562 2591.878906 1989.878906 2589.640625 1949.140625 2589.640625 C 1931.671875 2589.640625 1922.25 2592.03125 1918.480469 2595.511719 C 1913.550781 2594.710938 1908.621094 2595.148438 1903.46875 2596.808594 C 1902.601562 2597.101562 1902.171875 2597.761719 1902.019531 2598.699219 L 1902.019531 2599.128906 C 1901.949219 2600.289062 1902.960938 2601.019531 1903.980469 2601.089844 C 1908.621094 2601.449219 1913.761719 2602.46875 1918.328125 2604.210938 C 1920.140625 2606.460938 1922.96875 2608.558594 1926.601562 2610.441406 C 1941.460938 2618.128906 2053.101562 2618.128906 2063.96875 2614.941406 C 2066.671875 2614.160156 2068.640625 2614.421875 2069.949219 2615.460938 L 2177.339844 2447.199219 C 2177.089844 2441.511719 2176.910156 2433.851562 2176.910156 2423.339844 "/>
<path fill-rule="nonzero" fill="rgb(38.090515%, 22.413635%, 9.017944%)" fill-opacity="1" d="M 2329.21875 2437.328125 C 2327.410156 2450.890625 2329.21875 2501.988281 2323.789062 2515.550781 C 2318.421875 2529.109375 2265.941406 2547.160156 2243.390625 2553.03125 C 2239.839844 2553.96875 2237.738281 2555.058594 2236.648438 2556.21875 C 2230.988281 2554.328125 2224.46875 2554.410156 2221.570312 2560.210938 C 2221.351562 2560.640625 2221.28125 2561.070312 2221.28125 2561.578125 C 2207.800781 2556.21875 2190.910156 2552.378906 2184.160156 2552.160156 C 2171.109375 2551.71875 2167.929688 2547.589844 2169.738281 2534.980469 C 2171.550781 2522.289062 2181.050781 2503.371094 2181.050781 2503.371094 C 2210.410156 2493.800781 2247.019531 2449.578125 2233.460938 2456.320312 C 2219.898438 2463.140625 2179.230469 2463.140625 2179.230469 2463.140625 C 2179.230469 2463.140625 2178.011719 2462.328125 2177.339844 2447.199219 L 2069.949219 2615.460938 C 2073.910156 2618.589844 2071.980469 2628.761719 2066.21875 2638.929688 C 2060.929688 2648.28125 2054.179688 2657.78125 2055.269531 2663.578125 C 2050.699219 2666.550781 2047.949219 2671.339844 2048.820312 2677.5 C 2048.960938 2678.371094 2049.828125 2679.171875 2050.628906 2679.308594 C 2050.78125 2679.378906 2050.921875 2679.378906 2051.070312 2679.378906 C 2052.371094 2679.601562 2053.238281 2679.308594 2054.039062 2678.148438 C 2056.289062 2674.960938 2058.390625 2671.628906 2061.21875 2668.800781 C 2061.289062 2668.730469 2061.359375 2668.578125 2061.511719 2668.511719 C 2061.871094 2668.578125 2062.160156 2668.660156 2062.589844 2668.730469 C 2077.53125 2670.96875 2133.128906 2603.699219 2133.128906 2603.699219 C 2149.800781 2599.570312 2164.300781 2581.519531 2167.421875 2581.949219 C 2170.609375 2582.390625 2188.660156 2581.519531 2199.53125 2581.949219 C 2209.101562 2582.390625 2223.238281 2588.699219 2234.179688 2582.101562 L 2234.328125 2582.101562 C 2240.421875 2584.421875 2245.78125 2587.75 2250.929688 2591.589844 C 2253.828125 2593.699219 2257.238281 2590.21875 2256.578125 2587.25 C 2254.480469 2578.910156 2246.511719 2571.800781 2237.949219 2571.148438 C 2235.628906 2568.609375 2231.5 2566.078125 2226.570312 2563.828125 C 2229.910156 2562.890625 2233.390625 2562.378906 2236.871094 2562.738281 C 2239.109375 2562.960938 2241.511719 2564.191406 2243.828125 2564.839844 C 2251.730469 2568.320312 2263.910156 2570.640625 2272.320312 2569.339844 C 2289.929688 2566.578125 2340.101562 2536.28125 2339.589844 2543.53125 C 2339.148438 2550.78125 2320.160156 2564.769531 2304 2580.140625 C 2295.660156 2588.039062 2287.179688 2597.03125 2285.871094 2602.179688 C 2279.351562 2604.210938 2273.550781 2607.398438 2275 2615.589844 C 2275.21875 2617.109375 2277.320312 2617.839844 2278.480469 2617.039062 C 2282.75 2614.210938 2285.871094 2609.71875 2290.441406 2607.25 C 2291.089844 2606.960938 2292.109375 2606.671875 2293.191406 2606.378906 C 2296.820312 2605.949219 2301.96875 2604.640625 2308.921875 2602.320312 C 2347.351562 2589.199219 2383.878906 2565.210938 2390.261719 2543.53125 C 2396.570312 2521.859375 2400.628906 2492.5 2411.070312 2501.558594 C 2421.429688 2510.550781 2447.601562 2516.851562 2463.921875 2531.789062 C 2474.71875 2541.71875 2480.730469 2541.070312 2483.558594 2539.46875 C 2487.109375 2541.648438 2490.230469 2544.398438 2493.488281 2547.011719 C 2495.449219 2548.609375 2499.730469 2547.160156 2498.421875 2544.109375 C 2497.21875 2541.21875 2495.75 2538.21875 2493.890625 2535.699219 L 2489.710938 2531.539062 C 2488.738281 2530.878906 2487.71875 2530.308594 2486.609375 2529.980469 C 2486.5 2529.308594 2486.199219 2528.570312 2486.019531 2527.878906 L 2409.539062 2451.929688 C 2403.328125 2448.558594 2392.011719 2439.210938 2389.390625 2431.910156 L 2318.820312 2361.839844 C 2324.898438 2397.800781 2330.019531 2431.390625 2329.21875 2437.328125 "/>
<path fill-rule="nonzero" fill="rgb(47.12677%, 23.448181%, 9.983826%)" fill-opacity="1" d="M 2412.371094 2453.128906 C 2411.660156 2452.96875 2410.691406 2452.550781 2409.539062 2451.929688 L 2486.019531 2527.878906 C 2479.191406 2501.480469 2419.078125 2454.761719 2412.371094 2453.128906 "/>
<path fill-rule="nonzero" fill="rgb(47.12677%, 23.448181%, 9.983826%)" fill-opacity="1" d="M 2489.710938 2531.539062 L 2493.890625 2535.699219 C 2492.679688 2534.039062 2491.28125 2532.621094 2489.710938 2531.539062 "/>
<path fill-rule="nonzero" fill="rgb(47.12677%, 23.448181%, 9.983826%)" fill-opacity="1" d="M 2304.578125 2281.910156 C 2308.089844 2300.570312 2313.78125 2332.011719 2318.820312 2361.839844 L 2389.390625 2431.910156 C 2387.28125 2426.058594 2390.769531 2421.53125 2407.011719 2422.46875 C 2447.171875 2424.71875 2481.53125 2389.921875 2469.351562 2390.351562 C 2457.101562 2390.789062 2423.25 2389.921875 2398.378906 2388.109375 C 2373.519531 2386.21875 2369.460938 2353.308594 2361.769531 2309.019531 C 2358.058594 2287.671875 2359.828125 2262.261719 2362.640625 2241.640625 L 2304.578125 2281.910156 "/>
<path fill-rule="nonzero" fill="rgb(66.539001%, 29.666138%, 11.811829%)" fill-opacity="1" d="M 1694.769531 1784.03125 L 2239.140625 2284.648438 C 2250.070312 2272.351562 2260.359375 2260.261719 2267.308594 2257.910156 C 2271.140625 2256.660156 2275.390625 2256.578125 2279.578125 2257.089844 L 2503.820312 1426.648438 L 1694.769531 1784.03125 "/>
<path fill-rule="nonzero" fill="rgb(61.645508%, 29.138184%, 11.503601%)" fill-opacity="1" d="M 2365.898438 2221.371094 L 2301.53125 2266.320312 C 2302.03125 2268.621094 2303.121094 2274.171875 2304.578125 2281.910156 L 2362.640625 2241.640625 C 2363.671875 2234.109375 2364.820312 2227.171875 2365.898438 2221.371094 "/>
<path fill-rule="nonzero" fill="rgb(61.645508%, 29.138184%, 11.503601%)" fill-opacity="1" d="M 2279.578125 2257.089844 C 2283.171875 2257.53125 2286.710938 2258.398438 2289.859375 2259.5 L 2369.671875 2203.761719 C 2369.820312 2203.101562 2369.960938 2202.808594 2369.960938 2202.808594 C 2370.539062 2202.671875 2371.121094 2202.449219 2371.78125 2202.230469 C 2393.601562 2194.980469 2412.878906 2145.398438 2412.878906 2145.398438 C 2458.988281 2165.699219 2489.648438 2107.921875 2489.648438 2107.921875 C 2535.761719 2107.488281 2529.960938 2004.839844 2529.960938 2004.839844 C 2557.070312 2017.519531 2573.738281 1948.359375 2573.738281 1948.359375 C 2599.910156 1972.789062 2627.53125 1949.230469 2627.53125 1949.230469 C 2629.78125 1954.238281 2644.210938 1963.730469 2644.210938 1963.730469 C 2677.699219 1984.539062 2721.988281 1921.691406 2721.988281 1921.691406 C 2767.589844 1970.980469 2802.890625 1887.761719 2802.890625 1887.761719 C 2810.578125 1895.949219 2824.128906 1896.820312 2824.128906 1896.820312 C 2824.578125 1896.960938 2825.03125 1897.03125 2825.480469 1897.140625 L 2503.820312 1426.648438 L 2279.578125 2257.089844 "/>
<path fill-rule="nonzero" fill="rgb(65.000916%, 29.772949%, 11.720276%)" fill-opacity="1" d="M 3099.851562 1224.121094 C 3067.671875 1199.121094 3032.289062 1180.910156 3001.089844 1170.371094 L 3072.121094 1285.191406 L 3099.851562 1224.121094 "/>
<path fill-rule="nonzero" fill="rgb(67.730713%, 30.441284%, 11.86676%)" fill-opacity="1" d="M 3072.121094 1285.191406 L 3001.089844 1170.371094 C 2984.351562 1164.71875 2968.800781 1161.238281 2955.640625 1160.140625 C 2890.101562 1154.78125 2800.648438 1193.199219 2759.03125 1216.25 C 2736.128906 1228.941406 2692.269531 1269.171875 2657.539062 1302.738281 C 2625.070312 1334.058594 2583.53125 1354.28125 2538.871094 1360.878906 C 2536.988281 1361.171875 2534.960938 1361.460938 2533.070312 1361.75 C 2529.460938 1362.308594 2525.601562 1363.078125 2521.578125 1363.960938 L 2503.820312 1426.648438 L 3072.121094 1285.191406 "/>
<path fill-rule="nonzero" fill="rgb(64.491272%, 29.878235%, 11.671448%)" fill-opacity="1" d="M 2503.820312 1426.648438 L 2825.480469 1897.140625 C 2831.550781 1898.660156 2837.441406 1897.828125 2843.03125 1895.339844 L 3072.121094 1285.191406 L 2503.820312 1426.648438 "/>
<path fill-rule="nonzero" fill="rgb(51.878357%, 25.860596%, 10.60791%)" fill-opacity="1" d="M 2843.03125 1895.339844 C 2869.398438 1883.640625 2889.160156 1836.289062 2889.160156 1836.289062 C 2920.839844 1855.71875 2941.140625 1825.921875 2941.140625 1825.921875 C 2951.070312 1837.230469 2972.820312 1838.96875 2972.820312 1838.96875 C 3024.71875 1838.539062 2999.488281 1730.089844 2999.488281 1730.089844 C 3044.148438 1738.640625 3031.539062 1683.109375 3031.539062 1683.109375 C 3038.351562 1687.601562 3053.28125 1688.039062 3053.28125 1688.039062 C 3125.988281 1696.160156 3157.601562 1574.148438 3157.601562 1574.148438 C 3158.109375 1584.589844 3171.671875 1585.460938 3171.671875 1585.460938 C 3210.960938 1591.839844 3226.761719 1439.03125 3186.089844 1334.199219 C 3183.761719 1328.179688 3181.121094 1322.320312 3178.269531 1316.578125 L 3072.121094 1285.191406 L 2843.03125 1895.339844 "/>
<path fill-rule="nonzero" fill="rgb(60.021973%, 28.857422%, 11.37085%)" fill-opacity="1" d="M 3099.851562 1224.121094 L 3072.121094 1285.191406 L 3178.269531 1316.578125 C 3159.960938 1279.769531 3131.480469 1248.679688 3099.851562 1224.121094 "/>
</svg>
