<?xml version="1.0" encoding="UTF-8"?>
<svg xmlns="http://www.w3.org/2000/svg" xmlns:xlink="http://www.w3.org/1999/xlink" width="3000" height="3000" viewBox="0 0 3000 3000">

<path fill-rule="nonzero" fill="rgb(61.131287%, 61.131287%, 61.131287%)" fill-opacity="1" d="M 772.878906 616.050781 L 754.808594 634.269531 C 754.808594 634.269531 699.375 690.121094 672.722656 719.390625 C 662.226562 730.910156 653.304688 745.148438 646.050781 758.75 L 643.1875 730.210938 L 622.648438 765.609375 C 622.648438 765.609375 557.457031 876.878906 520.964844 917.421875 C 499.128906 941.691406 489.773438 970.550781 480.765625 999.03125 C 471.804688 1027.351562 463.160156 1055.601562 444.847656 1082.078125 C 443.277344 1083.710938 435.476562 1091.941406 427.71875 1104.308594 C 419.148438 1117.960938 409.832031 1136.621094 416.386719 1156.570312 C 419.382812 1165.679688 420.691406 1169.570312 421.902344 1172.691406 C 421.550781 1177.121094 421.5625 1184.449219 424.539062 1192.800781 C 428.257812 1203.210938 438.8125 1214.480469 455.058594 1217.960938 C 461 1224.128906 475.117188 1235.75 494.378906 1231.710938 C 514.082031 1227.589844 530.203125 1209.910156 535.40625 1183.101562 C 542.816406 1179.941406 557.8125 1173.398438 577.53125 1162.890625 C 590.335938 1156.070312 603.757812 1148.21875 615.441406 1139.71875 C 624.976562 1132.789062 633.347656 1125.609375 639.414062 1117.070312 C 646.542969 1115.800781 658.609375 1113.058594 671.664062 1106.859375 C 689.640625 1098.339844 709.894531 1081.980469 716.25 1055.390625 C 723.710938 1053.359375 738.113281 1050.890625 760.128906 1054.808594 C 791.878906 1060.46875 837.191406 1080.378906 889.683594 1139.351562 C 886.582031 1156.871094 880.554688 1207.089844 904.621094 1248.199219 C 894.53125 1249.359375 882.714844 1251.011719 870.023438 1253.820312 C 854.753906 1257.210938 838.847656 1261.96875 825.054688 1269.390625 C 813.546875 1275.578125 802.980469 1284.03125 797.167969 1295.820312 C 793.632812 1296.839844 789.101562 1298.199219 784.375 1299.828125 C 779.449219 1301.519531 774.414062 1303.410156 769.859375 1305.679688 C 767.582031 1306.820312 765.429688 1308.011719 763.171875 1309.769531 C 760.910156 1311.539062 757.730469 1313.710938 756.355469 1319.898438 C 755.621094 1323.199219 755.152344 1327.03125 754.464844 1332.988281 C 753.773438 1338.949219 753.054688 1346.300781 752.535156 1353.851562 C 752.023438 1361.398438 751.703125 1369.101562 751.863281 1375.988281 C 752.027344 1382.871094 751.597656 1388.050781 755.265625 1395.378906 C 756.785156 1398.421875 758.273438 1400.488281 760.691406 1404.109375 C 763.109375 1407.738281 766.210938 1412.289062 769.824219 1417.671875 C 777.054688 1428.410156 786.316406 1442.371094 795.855469 1457.980469 C 814.9375 1489.179688 834.984375 1527.300781 841.917969 1557.011719 L 843.34375 1563.109375 L 848.96875 1565.878906 C 848.96875 1565.878906 940.851562 1610.988281 1053.160156 1574.570312 L 1062.308594 1571.601562 L 1062.308594 1561.96875 C 1062.308594 1561.96875 1062.109375 1545.050781 1053.421875 1524.199219 C 1080.089844 1527.640625 1120.808594 1527.878906 1162.109375 1507.929688 L 1175.949219 1501.25 L 1170.371094 1493.058594 C 1261.980469 1548.699219 1402.410156 1601.558594 1590.730469 1581.519531 C 1593.621094 1583.851562 1598.53125 1588.320312 1607.460938 1600.160156 C 1620.261719 1617.160156 1637.578125 1646.140625 1654.101562 1693.191406 L 1655.320312 1696.671875 L 1658.160156 1699.011719 C 1658.160156 1699.011719 1795.96875 1814.070312 1851.578125 1911.390625 C 1907.871094 2009.910156 1935.359375 2149.28125 1935.359375 2209.257812 L 1935.359375 2208.925781 C 1935.359375 2208.925781 1935.261719 2212.933594 1935.460938 2217.660156 C 1935.671875 2222.390625 1935.019531 2226.710938 1938.390625 2234.011719 C 1940.148438 2237.824219 1943.078125 2243.167969 1945.488281 2253.761719 C 1947.910156 2264.355469 1949.191406 2278.765625 1945.300781 2296.390625 C 1941.058594 2315.570312 1936.269531 2331.214844 1933.5 2343.972656 C 1932.109375 2350.351562 1931.089844 2355.957031 1931.460938 2362.027344 C 1931.828125 2368.101562 1934.890625 2376.378906 1941.851562 2380.410156 C 1949.640625 2384.921875 1955.648438 2384.113281 1963.101562 2383.378906 C 1970.558594 2382.644531 1979.019531 2380.75 1988.128906 2377.640625 C 2006.351562 2371.425781 2027.128906 2360.347656 2044.109375 2342.792969 L 2046.820312 2339.996094 L 2047.578125 2336.183594 C 2047.578125 2336.183594 2048.148438 2333.171875 2048.628906 2330.601562 C 2049.789062 2335.027344 2051.148438 2339.230469 2052.910156 2342.992188 C 2055.859375 2349.277344 2059.890625 2355.152344 2066.789062 2358.71875 C 2073.691406 2362.28125 2082.890625 2361.617188 2089.519531 2358.082031 C 2096.578125 2354.316406 2101.710938 2348.882812 2107.71875 2342.066406 C 2113.738281 2335.25 2119.960938 2327.109375 2125.738281 2318.644531 C 2131.519531 2310.179688 2136.839844 2301.4375 2140.960938 2293.300781 C 2145.070312 2285.167969 2148.300781 2278.34375 2148.828125 2269.882812 C 2149.550781 2258.332031 2146.128906 2249.652344 2144.179688 2243.636719 C 2142.230469 2237.621094 2141.101562 2233.914062 2142.511719 2225.605469 C 2144.359375 2214.683594 2145.410156 2207.253906 2145.410156 2200.695312 C 2145.410156 2194.140625 2143.640625 2187.113281 2139.621094 2182.300781 C 2137.640625 2179.921875 2136.820312 2179.476562 2135.53125 2178.34375 C 2134.238281 2177.210938 2132.769531 2175.898438 2131.039062 2174.234375 C 2127.589844 2170.902344 2123.179688 2166.1875 2118.371094 2159.410156 C 2108.738281 2145.855469 2097.488281 2124.085938 2090.640625 2089.121094 C 2083.539062 2052.851562 2075.730469 2004.605469 2069.261719 1964.070312 C 2066.03125 1943.808594 2063.128906 1925.460938 2060.800781 1911.410156 C 2059.640625 1904.378906 2058.621094 1898.421875 2057.761719 1893.769531 C 2056.890625 1889.121094 2056.441406 1886.359375 2055.421875 1883.148438 C 2053.449219 1876.960938 2051.628906 1875.558594 2048.609375 1871.101562 C 2045.578125 1866.640625 2041.640625 1861.121094 2037.03125 1854.75 C 2027.820312 1842.011719 2015.988281 1825.890625 2004.320312 1809.171875 C 1992.648438 1792.460938 1981.128906 1775.121094 1972.71875 1760.320312 C 1964.300781 1745.53125 1959.710938 1731.941406 1959.679688 1729.609375 C 1959.460938 1715.578125 1963.699219 1675.691406 1968.109375 1637.609375 C 1971.089844 1611.960938 1974.019531 1587.851562 1975.691406 1569.511719 C 2004.449219 1587.558594 2062.871094 1630.640625 2106.160156 1705.679688 C 2137.421875 1759.871094 2168.339844 1798.980469 2207.839844 1824.421875 C 2247.339844 1849.871094 2294.621094 1860.800781 2355.96875 1860.800781 C 2483.960938 1860.800781 2603.511719 1739.761719 2583.648438 1588.519531 L 2578.609375 1550.101562 L 2559.078125 1583.570312 C 2559.078125 1583.570312 2554.539062 1591.871094 2537.949219 1605.191406 C 2525.960938 1614.820312 2507.921875 1626.429688 2481.96875 1637.289062 C 2485.46875 1629.71875 2488.929688 1621.109375 2491.859375 1611.488281 L 2501.421875 1580.070312 L 2472.738281 1596.070312 C 2472.738281 1596.070312 2450.011719 1608.878906 2412.859375 1609.871094 C 2375.710938 1610.871094 2325.230469 1600.070312 2270.148438 1548.921875 C 2212.71875 1495.589844 2165.589844 1452.050781 2114.160156 1423.070312 C 2064.050781 1394.828125 2009.601562 1381.269531 1941.039062 1386.828125 C 1935.578125 1382.660156 1901.929688 1357.070312 1855.191406 1325.621094 C 1804.511719 1291.519531 1742.800781 1253.359375 1694.519531 1236.539062 C 1648.371094 1220.46875 1575.730469 1198.378906 1508.929688 1162.789062 C 1448.199219 1130.421875 1393.300781 1087.238281 1366.539062 1028.921875 C 1396.910156 1028.121094 1455.351562 1020.390625 1512.660156 976.648438 L 1542.441406 953.921875 L 1504.988281 952.890625 C 1504.988281 952.890625 1473.359375 952 1435.929688 945.308594 C 1398.488281 938.621094 1355.839844 925.121094 1336.039062 905.320312 C 1306.878906 876.160156 1273.289062 859.078125 1249.578125 849.558594 C 1315.339844 808.21875 1332.21875 748.53125 1332.21875 748.53125 L 1340.109375 719.390625 L 1313.320312 733.328125 C 1219.941406 781.921875 1130.148438 775.359375 1082.449219 766.28125 L 1140.648438 740.089844 L 1103.769531 730.78125 C 1024.640625 710.820312 963.726562 710.980469 922.363281 716.359375 C 908.203125 718.191406 897.085938 720.691406 887.425781 723.191406 L 916.804688 653.761719 L 878.855469 680.589844 C 828.714844 716.039062 793.828125 734.421875 771.910156 743.859375 C 770.570312 744.429688 769.761719 744.691406 768.527344 745.210938 C 777.035156 721.890625 784.996094 686.078125 777.253906 641.339844 Z M 753.917969 672.960938 C 755.683594 727.300781 733.046875 759.238281 733.046875 759.238281 L 716.824219 782.519531 L 745.085938 780 C 745.085938 780 758.378906 778.511719 782.386719 768.179688 C 800.105469 760.550781 824.703125 747.898438 856.953125 727.261719 L 837.878906 772.351562 L 869.816406 756.578125 C 869.816406 756.578125 887.628906 747.570312 925.78125 742.609375 C 957.0625 738.550781 1001.488281 737.761719 1058.289062 748.109375 L 1007.460938 770.980469 L 1038 782.148438 C 1038 782.148438 1157.671875 825.808594 1291.949219 772.160156 C 1278.640625 793.28125 1254.519531 820.800781 1211.101562 840.261719 L 1175.230469 856.339844 L 1213.511719 865.238281 C 1213.511719 865.238281 1272.601562 879.328125 1317.320312 924.039062 C 1345.371094 952.089844 1391.691406 964.308594 1431.269531 971.378906 C 1443.351562 973.539062 1454.339844 974.980469 1464.5 976.140625 C 1402.671875 1009.171875 1348.449219 1002.191406 1348.449219 1002.191406 L 1327.390625 999.488281 L 1334.230469 1019.589844 C 1360.449219 1096.609375 1426.691406 1148.96875 1496.480469 1186.160156 C 1566.28125 1223.351562 1640.738281 1245.851562 1685.820312 1261.550781 C 1728.769531 1276.511719 1790.480469 1313.988281 1840.410156 1347.589844 C 1890.339844 1381.191406 1928.941406 1410.828125 1928.941406 1410.828125 L 1933.070312 1414 L 1938.261719 1413.511719 C 2004.859375 1407.199219 2053.648438 1419.359375 2101.171875 1446.140625 C 2148.679688 1472.921875 2194.761719 1515.050781 2252.128906 1568.328125 C 2311.859375 1623.789062 2370.398438 1637.5 2413.578125 1636.339844 C 2430.03125 1635.898438 2444.371094 1633.300781 2455.871094 1630.261719 C 2448.679688 1644.828125 2442 1653.769531 2442 1653.769531 L 2415.609375 1687.039062 L 2456.230469 1674.660156 C 2504.109375 1660.078125 2535.238281 1641.328125 2554.53125 1625.839844 C 2556.371094 1624.371094 2557.621094 1623.058594 2559.261719 1621.640625 C 2559.101562 1742.960938 2458.921875 1834.320312 2355.96875 1834.320312 C 2297.71875 1834.320312 2256.578125 1824.308594 2222.191406 1802.160156 C 2187.789062 1780 2159.339844 1744.859375 2129.101562 1692.441406 C 2065.539062 1582.269531 1969.691406 1535.449219 1969.691406 1535.449219 L 1950.628906 1526.128906 L 1950.628906 1547.351562 C 1950.628906 1557.699219 1946.238281 1596.398438 1941.808594 1634.558594 C 1937.390625 1672.710938 1932.910156 1710.730469 1933.199219 1730.011719 C 1933.421875 1744.339844 1940.558594 1757.339844 1949.699219 1773.410156 C 1958.839844 1789.480469 1970.710938 1807.28125 1982.609375 1824.328125 C 1994.519531 1841.378906 2006.460938 1857.648438 2015.570312 1870.261719 C 2020.128906 1876.570312 2023.980469 1881.96875 2026.691406 1885.960938 C 2028.648438 1888.851562 2030.109375 1891.941406 2030.398438 1892.230469 C 2030.511719 1892.78125 2031.03125 1894.859375 2031.71875 1898.589844 C 2032.53125 1902.941406 2033.53125 1908.78125 2034.679688 1915.730469 C 2036.980469 1929.621094 2039.878906 1947.960938 2043.121094 1968.238281 C 2049.589844 2008.820312 2057.410156 2057.191406 2064.660156 2094.210938 C 2072.160156 2132.542969 2085 2158.152344 2096.78125 2174.742188 C 2102.671875 2183.035156 2108.289062 2189.078125 2112.648438 2193.289062 C 2114.828125 2195.390625 2116.710938 2197.046875 2118.019531 2198.203125 C 2118.988281 2199.0625 2119.03125 2199.113281 2118.949219 2198.980469 C 2118.941406 2199.15625 2118.929688 2199.367188 2118.929688 2200.695312 C 2118.929688 2204.011719 2118.171875 2210.71875 2116.398438 2221.179688 C 2114.179688 2234.253906 2116.679688 2244.679688 2118.988281 2251.804688 C 2121.289062 2258.925781 2122.761719 2262.382812 2122.398438 2268.230469 C 2122.378906 2268.464844 2120.71875 2274.636719 2117.328125 2281.351562 C 2113.929688 2288.066406 2109.121094 2296.035156 2103.878906 2303.707031 C 2098.640625 2311.378906 2092.941406 2318.800781 2087.871094 2324.535156 C 2083.550781 2329.433594 2079.730469 2332.628906 2078.160156 2333.820312 C 2077.761719 2333.261719 2077.390625 2332.8125 2076.890625 2331.742188 C 2073.949219 2325.476562 2071.140625 2311.535156 2070.898438 2293.9375 C 2070.351562 2253.492188 2056.890625 2218.597656 2048.199219 2203.082031 C 2048.898438 2204.335938 2046.941406 2199.90625 2045.289062 2194.632812 C 2043.640625 2189.359375 2041.601562 2182.28125 2039.339844 2174.109375 C 2034.820312 2157.765625 2029.421875 2137.015625 2024.238281 2116.65625 C 2013.890625 2075.941406 2004.421875 2036.789062 2004.421875 2036.789062 L 1978.378906 2041.351562 C 1978.378906 2041.351562 1981.589844 2070.445312 1984.988281 2100.765625 C 1986.679688 2115.925781 1988.429688 2131.390625 1989.851562 2143.695312 C 1991.269531 2156 1992.238281 2164.402344 1992.820312 2168.050781 C 1994.589844 2179.308594 2000.390625 2185.703125 2005.308594 2193.105469 C 2007.769531 2196.808594 2010.109375 2200.269531 2011.71875 2202.867188 C 2012.421875 2203.996094 2012.828125 2205.054688 2013.128906 2205.78125 C 2012.960938 2206.625 2012.738281 2209.027344 2011.78125 2212.484375 C 2010.480469 2217.183594 2008.488281 2222.929688 2006.660156 2228.429688 C 2004.238281 2235.695312 2006.371094 2242.609375 2008.808594 2247.3125 C 2011.25 2252.015625 2014.238281 2255.652344 2017.078125 2259.101562 C 2022.75 2265.996094 2027.488281 2272.648438 2027.929688 2274.378906 C 2027.988281 2274.605469 2028.460938 2279.886719 2028.089844 2285.835938 C 2027.71875 2291.78125 2026.871094 2298.902344 2025.910156 2305.640625 C 2024.519531 2315.386719 2023.199219 2322.585938 2022.410156 2326.773438 C 2009.519531 2339.109375 1993.480469 2347.835938 1979.578125 2352.574219 C 1972.171875 2355.105469 1965.378906 2356.542969 1960.5 2357.023438 C 1959.480469 2357.125 1958.988281 2356.972656 1958.140625 2356.929688 C 1958.359375 2354.992188 1958.730469 2352.578125 1959.378906 2349.597656 C 1961.730469 2338.777344 1966.679688 2322.390625 1971.160156 2302.101562 C 1975.980469 2280.261719 1974.449219 2261.636719 1971.320312 2247.882812 C 1968.191406 2234.132812 1962.859375 2223.816406 1962.441406 2222.914062 C 1963.640625 2225.503906 1962.078125 2220.222656 1961.929688 2216.523438 C 1961.769531 2212.824219 1961.839844 2209.585938 1961.839844 2209.585938 L 1961.839844 2209.257812 C 1961.839844 2141.65625 1934.238281 2002.691406 1874.570312 1898.25 C 1816.058594 1795.859375 1685.898438 1687.671875 1677.820312 1680.988281 C 1660.871094 1633.71875 1642.859375 1603.148438 1628.601562 1584.230469 C 1613.988281 1564.828125 1602.039062 1556.738281 1602.039062 1556.738281 L 1598.058594 1554.160156 L 1593.339844 1554.691406 C 1238.511719 1595.011719 1063.078125 1371.101562 1063.078125 1371.101562 L 1057.769531 1364.371094 L 1049.460938 1366.46875 C 970.152344 1386.46875 904.9375 1363.21875 904.9375 1363.21875 L 890.859375 1384.789062 C 890.859375 1384.789062 900.773438 1395.269531 913.78125 1407.058594 C 926.785156 1418.851562 942.179688 1432.058594 957.636719 1438.609375 C 975.78125 1446.308594 999.628906 1444.378906 1021.710938 1442.710938 C 1041.601562 1441.199219 1057.039062 1438.890625 1060.289062 1438.390625 C 1081.199219 1441.851562 1102.851562 1457.210938 1118.859375 1472.71875 C 1125.53125 1479.171875 1130.820312 1485.191406 1135.160156 1490.378906 C 1081.421875 1509.289062 1031.550781 1492.878906 1031.550781 1492.878906 L 989.300781 1478.640625 L 1016.929688 1513.640625 C 1028.789062 1528.660156 1032.878906 1543.121094 1034.519531 1552.351562 C 951.601562 1575.558594 884.128906 1551.949219 865.890625 1544.371094 C 856.664062 1510.648438 836.9375 1474.398438 818.445312 1444.160156 C 808.597656 1428.050781 799.105469 1413.75 791.789062 1402.878906 C 788.136719 1397.449219 785.019531 1392.871094 782.71875 1389.421875 C 780.417969 1385.96875 778.691406 1383.03125 778.945312 1383.539062 C 780.074219 1385.789062 778.464844 1380.910156 778.335938 1375.359375 C 778.203125 1369.808594 778.472656 1362.699219 778.953125 1355.660156 C 779.433594 1348.621094 780.121094 1341.609375 780.765625 1336.039062 C 781.179688 1332.46875 781.398438 1331.261719 781.6875 1329.378906 C 781.695312 1329.378906 781.695312 1329.378906 781.699219 1329.371094 C 784.347656 1328.039062 788.648438 1326.351562 792.964844 1324.871094 C 801.597656 1321.910156 810.300781 1319.640625 810.300781 1319.640625 L 817.640625 1317.730469 L 819.710938 1310.429688 C 821.394531 1304.488281 827.253906 1298.269531 837.597656 1292.710938 C 847.941406 1287.140625 861.914062 1282.738281 875.746094 1279.679688 C 903.414062 1273.550781 930.039062 1272.519531 930.039062 1272.519531 L 959.921875 1271.429688 L 939.027344 1250.039062 C 902.8125 1212.960938 916.863281 1138.078125 916.863281 1138.078125 L 918.273438 1131.601562 L 913.941406 1126.589844 C 856.523438 1060.21875 803.804688 1035.691406 764.769531 1028.730469 C 725.734375 1021.78125 699.367188 1033.058594 699.367188 1033.058594 L 692.433594 1036.160156 L 691.605469 1043.710938 C 689.304688 1064.699219 675.566406 1075.691406 660.3125 1082.929688 C 645.058594 1090.160156 630.210938 1091.78125 630.210938 1091.78125 L 623.160156 1092.5 L 619.851562 1098.761719 C 617.511719 1103.179688 609.988281 1110.941406 599.859375 1118.300781 C 589.730469 1125.671875 577.191406 1133.058594 565.078125 1139.519531 C 540.851562 1152.421875 518.546875 1161.550781 518.546875 1161.550781 L 511.21875 1164.550781 L 510.386719 1172.421875 C 507.882812 1196.210938 498.519531 1203.789062 488.949219 1205.789062 C 483.601562 1206.910156 471.949219 1197.03125 471.949219 1197.03125 L 468.449219 1192.988281 L 463.128906 1192.519531 C 451.988281 1191.511719 451.054688 1188.300781 449.480469 1183.890625 C 447.90625 1179.480469 448.433594 1173.28125 448.503906 1172.808594 L 449.121094 1168.679688 L 447.257812 1164.941406 C 448.140625 1166.710938 445.761719 1161.121094 441.542969 1148.289062 C 439.402344 1141.78125 443.3125 1129.269531 450.148438 1118.371094 C 456.980469 1107.480469 464.878906 1099.359375 464.878906 1099.359375 L 465.652344 1098.570312 L 466.285156 1097.660156 C 487.628906 1067 497.078125 1035.25 506.007812 1007.011719 C 514.941406 978.769531 523.339844 954.359375 540.644531 935.128906 C 568.335938 904.371094 603.996094 847.789062 625.847656 811.761719 L 650.429688 814.628906 C 650.429688 814.628906 669.5625 762.179688 692.296875 737.210938 C 709.796875 718 735.6875 691.5 753.914062 672.949219 Z M 802.742188 1365.128906 L 821.734375 1405.378906 C 821.734375 1405.378906 830.496094 1423.960938 842.421875 1445.121094 C 854.347656 1466.289062 868.238281 1489.730469 884.304688 1502.78125 C 912.625 1525.789062 949.808594 1531.691406 949.808594 1531.691406 L 984.234375 1537.761719 L 962.472656 1510.398438 C 962.472656 1510.398438 944.285156 1487.539062 920.199219 1461.039062 C 896.109375 1434.550781 866.664062 1404.460938 840.652344 1388.460938 Z M 1047.910156 1393.929688 C 1051.578125 1398.140625 1056.441406 1403.390625 1065.71875 1412.511719 C 1064.628906 1412.320312 1063.589844 1412.011719 1062.488281 1411.859375 L 1060.550781 1411.589844 L 1058.621094 1411.890625 C 1058.621094 1411.890625 1040.570312 1414.71875 1019.710938 1416.300781 C 998.847656 1417.878906 973.761719 1416.679688 967.988281 1414.230469 C 962.390625 1411.859375 953.574219 1405.628906 944.734375 1398.558594 C 971.84375 1401.929688 1008.070312 1402.75 1047.910156 1393.929688 Z M 882.976562 1460.121094 C 889.058594 1466.390625 895.027344 1472.730469 900.605469 1478.859375 C 903.257812 1481.78125 905.5 1484.378906 907.988281 1487.179688 C 905.582031 1485.621094 903.203125 1484.011719 901.003906 1482.230469 C 896.4375 1478.519531 889.851562 1470.121094 882.976562 1460.121094 Z M 2032.640625 2234.136719 C 2032.949219 2234.988281 2033.238281 2235.917969 2033.550781 2236.8125 C 2033.261719 2236.355469 2032.488281 2235.441406 2032.320312 2235.121094 C 2032.429688 2234.8125 2032.539062 2234.449219 2032.640625 2234.136719 "/>
<path fill-rule="nonzero" fill="rgb(0%, 0%, 0%)" fill-opacity="1" d="M 764.207031 643.589844 C 764.207031 643.589844 708.652344 699.601562 682.511719 728.300781 C 656.371094 757.011719 637.921875 810.308594 637.921875 810.308594 L 634.097656 772.25 C 634.097656 772.25 569.949219 882.789062 530.808594 926.28125 C 491.664062 969.769531 495.289062 1032.828125 455.425781 1090.101562 C 455.425781 1090.101562 420.269531 1125.96875 428.96875 1152.429688 C 433.222656 1165.378906 434.832031 1169.691406 435.410156 1170.851562 C 434.96875 1173.789062 431.277344 1202.949219 461.949219 1205.710938 C 461.949219 1205.710938 476.082031 1222.019531 491.667969 1218.761719 C 507.25 1215.488281 520.660156 1201.359375 523.558594 1173.808594 C 523.558594 1173.808594 614.890625 1136.488281 631.558594 1104.960938 C 631.558594 1104.960938 698.972656 1098.070312 704.769531 1045.160156 C 704.769531 1045.160156 792.195312 1006.101562 903.929688 1135.261719 C 903.929688 1135.261719 886.503906 1215.21875 929.558594 1259.300781 C 929.558594 1259.300781 819.296875 1263.328125 806.972656 1306.820312 C 806.972656 1306.820312 770.730469 1316.25 769.28125 1322.769531 C 767.832031 1329.289062 762.03125 1379.308594 767.105469 1389.460938 C 772.179688 1399.609375 839.589844 1488.761719 854.8125 1554 C 854.8125 1554 941.796875 1596.761719 1049.070312 1561.96875 C 1049.070312 1561.96875 1049.070312 1532.980469 1027.328125 1505.429688 C 1027.328125 1505.429688 1091.839844 1527.179688 1156.351562 1496.011719 C 1156.351562 1496.011719 1112.859375 1432.21875 1060.671875 1424.96875 C 1060.671875 1424.96875 986.734375 1436.570312 962.816406 1426.421875 C 938.894531 1416.28125 900.480469 1375.679688 900.480469 1375.679688 C 900.480469 1375.679688 969.339844 1400.328125 1052.699219 1379.308594 C 1052.699219 1379.308594 1234.011719 1608.851562 1594.839844 1567.851562 C 1594.839844 1567.851562 1632.769531 1592.449219 1666.589844 1688.808594 C 1666.589844 1688.808594 1805.089844 1803.339844 1863.070312 1904.820312 C 1921.058594 2006.300781 1948.609375 2145.46875 1948.609375 2209.257812 C 1948.609375 2209.257812 1948.238281 2223.753906 1950.421875 2228.464844 C 1952.589844 2233.175781 1966.941406 2259.78125 1958.230469 2299.246094 C 1949.519531 2338.710938 1938.761719 2363.3125 1948.488281 2368.953125 C 1958.230469 2374.589844 2004.359375 2364.851562 2034.601562 2333.585938 C 2034.601562 2333.585938 2044.339844 2284.894531 2040.75 2271.054688 C 2037.160156 2257.21875 2015.640625 2243.378906 2019.21875 2232.617188 C 2022.808594 2221.855469 2027.429688 2209.039062 2026.398438 2202.886719 C 2025.378906 2196.738281 2007.441406 2175.722656 2005.898438 2165.984375 C 2004.359375 2156.246094 1991.550781 2039.902344 1991.550781 2039.902344 C 1991.550781 2039.902344 2029.480469 2196.738281 2036.648438 2209.550781 C 2043.828125 2222.367188 2057.148438 2256.707031 2057.671875 2294.121094 C 2058.179688 2331.535156 2067.921875 2354.601562 2083.289062 2346.398438 C 2098.671875 2338.199219 2134.53125 2286.453125 2135.621094 2269.054688 C 2136.699219 2251.660156 2125.828125 2244.773438 2129.449219 2223.390625 C 2133.078125 2202.007812 2133.078125 2195.121094 2129.449219 2190.773438 C 2125.828125 2186.425781 2092 2164.960938 2077.648438 2091.664062 C 2063.300781 2018.371094 2046.390625 1898.441406 2042.800781 1887.160156 C 2039.210938 1875.890625 1946.960938 1763.128906 1946.441406 1729.808594 C 1945.929688 1696.5 1963.871094 1574 1963.871094 1547.351562 C 1963.871094 1547.351562 2056.128906 1592.449219 2117.628906 1699.058594 C 2179.140625 1805.671875 2236.371094 1847.558594 2355.96875 1847.558594 C 2475.570312 1847.558594 2589.371094 1733.761719 2570.519531 1590.238281 C 2570.519531 1590.238281 2545.148438 1633.730469 2452.371094 1662 C 2452.371094 1662 2469.039062 1640.980469 2479.191406 1607.628906 C 2479.191406 1607.628906 2375.949219 1665.230469 2261.140625 1558.621094 C 2146.328125 1452.011719 2074.730469 1387.28125 1937.011719 1400.328125 C 1937.011719 1400.328125 1781.410156 1280.820312 1690.171875 1249.050781 C 1598.941406 1217.269531 1395.96875 1159.859375 1346.769531 1015.328125 C 1346.769531 1015.328125 1426.71875 1025.578125 1504.628906 966.121094 C 1504.628906 966.121094 1374.53125 962.519531 1326.691406 914.679688 C 1278.851562 866.839844 1216.511719 852.351562 1216.511719 852.351562 C 1300.589844 814.660156 1319.441406 745.070312 1319.441406 745.070312 C 1177.371094 819 1042.550781 769.710938 1042.550781 769.710938 L 1100.539062 743.621094 C 945.417969 704.480469 863.949219 744.699219 863.949219 744.699219 L 886.503906 691.398438 C 785.019531 763.160156 743.910156 766.808594 743.910156 766.808594 C 743.910156 766.808594 777.257812 718.980469 764.207031 643.589844 Z M 833.710938 1399.730469 C 880.351562 1428.441406 952.109375 1518.640625 952.109375 1518.640625 C 952.109375 1518.640625 917.257812 1512.488281 892.652344 1492.511719 C 868.050781 1472.519531 833.710938 1399.730469 833.710938 1399.730469 "/>
<path fill-rule="nonzero" fill="rgb(92.96875%, 65.039062%, 34.104919%)" fill-opacity="1" d="M 746.085938 689.980469 C 746.085938 689.980469 708.652344 730.859375 691.226562 745.730469 C 673.800781 760.589844 637.921875 850.800781 637.921875 850.800781 L 623.570312 826.199219 C 623.570312 826.199219 571.804688 898.980469 546.175781 937.929688 C 520.550781 976.890625 516.960938 991.75 508.761719 1024.550781 C 500.558594 1057.359375 463.144531 1113.730469 463.144531 1113.730469 C 463.144531 1113.730469 441.105469 1126.550781 448.28125 1155.25 C 448.28125 1155.25 445.71875 1189.078125 461.09375 1184.46875 C 461.09375 1184.46875 500.558594 1208.558594 502.097656 1150.640625 C 502.097656 1150.640625 582.566406 1126.550781 591.28125 1079.398438 C 591.28125 1079.398438 693.175781 1110.390625 685.199219 948.75 C 685.199219 948.75 713.46875 958.898438 733.039062 1014.710938 C 733.039062 1014.710938 736.664062 979.191406 733.039062 934.980469 C 733.039062 934.980469 894.679688 977.019531 959.914062 1146.628906 C 959.914062 1146.628906 962.09375 1099.519531 959.191406 1051.679688 C 959.191406 1051.679688 976.585938 1145.910156 1111.410156 1128.511719 C 1111.410156 1128.511719 1038.199219 1166.929688 1030.230469 1227.820312 C 1030.230469 1227.820312 991.085938 1258.261719 952.667969 1271.308594 L 988.910156 1290.878906 C 988.910156 1290.878906 873.660156 1272.761719 827.269531 1310.449219 C 827.269531 1310.449219 817.121094 1343.070312 826.542969 1359.738281 C 835.96875 1376.410156 888.15625 1411.929688 888.15625 1411.929688 L 864.960938 1335.820312 C 864.960938 1335.820312 945.417969 1395.980469 1046.171875 1321.320312 L 1025.148438 1351.039062 C 1025.148438 1351.039062 1146.199219 1343.789062 1155.628906 1320.601562 C 1165.050781 1297.398438 1202.738281 1182.148438 1202.738281 1182.148438 C 1202.738281 1182.148438 1204.910156 1290.878906 1299.871094 1341.621094 C 1299.871094 1341.621094 1246.960938 1333.640625 1208.539062 1312.621094 C 1208.539062 1312.621094 1324.210938 1588.351562 1682.988281 1465.339844 L 1643.019531 1402.808594 C 1643.019531 1402.808594 1707.601562 1437.660156 1716.820312 1474.558594 C 1726.050781 1511.46875 1702.46875 1605.78125 1713.75 1626.28125 C 1725.019531 1646.78125 1803.960938 1794.390625 1898.261719 1838.46875 L 1849.058594 1841.550781 C 1849.058594 1841.550781 1992.570312 1965.578125 2040.75 2047.589844 C 2040.75 2047.589844 2027.429688 1915.351562 2015.128906 1899.980469 C 2002.820312 1884.601562 1936.191406 1830.269531 1918.769531 1746.210938 C 1901.339844 1662.160156 1931.070312 1538.121094 1916.71875 1477.640625 C 1902.371094 1417.160156 1815.230469 1349.5 1754.75 1313.628906 L 1773.199219 1361.808594 C 1773.199219 1361.808594 1724 1300.300781 1604.058594 1266.46875 C 1484.128906 1232.640625 1398.019531 1143.460938 1398.019531 1143.460938 L 1400.070312 1212.140625 C 1400.070312 1212.140625 1339.730469 1032.109375 1226.660156 968.320312 C 1113.578125 904.539062 933.824219 824.800781 742.464844 807.410156 C 739.5625 832.78125 701.144531 855.238281 701.144531 855.238281 C 710.570312 836.398438 711.292969 803.058594 711.292969 803.058594 C 704.046875 821.179688 669.253906 842.199219 669.253906 842.199219 C 669.253906 842.199219 673.601562 812.480469 704.769531 786.390625 C 735.9375 760.289062 746.085938 689.980469 746.085938 689.980469 Z M 587.710938 938.96875 C 587.710938 980.28125 554.003906 1023.769531 554.003906 1023.769531 L 553.277344 1009.640625 L 540.230469 998.769531 L 525.914062 998.039062 L 539.507812 990.070312 C 539.507812 990.070312 554.726562 959.988281 587.710938 938.96875 Z M 651.246094 950.230469 C 651.246094 950.230469 702.5 1006.101562 598.453125 1051.71875 C 669.1875 1001.488281 651.246094 950.230469 651.246094 950.230469 Z M 532.980469 1076.691406 C 532.980469 1076.691406 533.34375 1095.53125 532.621094 1100.609375 C 531.894531 1105.679688 500.363281 1128.148438 500.363281 1128.148438 Z M 470.414062 1128.871094 C 473.386719 1128.898438 476.0625 1129.929688 477.171875 1132.859375 C 480.25 1141.019531 466.660156 1166.378906 466.660156 1166.378906 C 466.660156 1166.378906 458.867188 1135.578125 458.867188 1133.410156 C 458.867188 1132.011719 465.113281 1128.828125 470.414062 1128.871094 "/>
<path fill-rule="nonzero" fill="rgb(26.708984%, 26.708984%, 26.708984%)" fill-opacity="1" d="M 1244.78125 797.980469 C 1171.570312 887.140625 1009.929688 843.648438 1009.929688 843.648438 L 1051.96875 824.800781 C 1051.96875 824.800781 986.734375 839.300781 928.023438 819.730469 C 869.3125 800.160156 755.035156 791.601562 755.035156 791.601562 C 755.035156 791.601562 818.933594 765.730469 834.15625 751.960938 C 834.15625 751.960938 830.53125 769.710938 826.183594 779.5 C 826.183594 779.5 902.394531 743.171875 1021.300781 753.421875 L 984.910156 787.761719 C 984.910156 787.761719 1117.171875 824.101562 1244.78125 797.980469 "/>
<path fill-rule="nonzero" fill="rgb(26.708984%, 26.708984%, 26.708984%)" fill-opacity="1" d="M 1424.539062 977.738281 C 1325.238281 1006.011719 1291.890625 975.570312 1236.808594 944.398438 C 1181.71875 913.230469 1110.679688 876.988281 1110.679688 876.988281 C 1110.679688 876.988281 1198.390625 865.390625 1254.199219 901.640625 C 1310.019531 937.878906 1360.761719 976.289062 1424.539062 977.738281 "/>
<path fill-rule="nonzero" fill="rgb(26.708984%, 26.708984%, 26.708984%)" fill-opacity="1" d="M 2544.070312 1666.261719 C 2471.289062 1728.789062 2379.03125 1691.878906 2379.03125 1691.878906 C 2420.03125 1673.429688 2432.328125 1643.699219 2432.328125 1643.699219 C 2432.328125 1643.699219 2361.769531 1691.71875 2211 1554 C 2060.230469 1416.28125 1950.058594 1440.921875 1950.058594 1440.921875 C 1950.058594 1440.921875 2064.578125 1455.421875 2151.558594 1565.589844 L 2071.828125 1540.949219 C 2071.828125 1540.949219 2177.660156 1636.628906 2224.050781 1696.070312 C 2270.441406 1755.5 2462.53125 1869.851562 2544.070312 1666.261719 "/>
<path fill-rule="nonzero" fill="rgb(26.708984%, 26.708984%, 26.708984%)" fill-opacity="1" d="M 2411.78125 1814.941406 C 2234.921875 1814.21875 2128.371094 1662 2128.371094 1662 C 2128.371094 1662 2198.679688 1863.511719 2411.78125 1814.941406 "/>
<path fill-rule="nonzero" fill="rgb(26.708984%, 26.708984%, 26.708984%)" fill-opacity="1" d="M 1981.039062 2350.5 C 1981.039062 2350.5 2000 2343.582031 2024.609375 2326.15625 C 2024.609375 2326.15625 2026.660156 2292.070312 2025.121094 2277.464844 C 2025.121094 2277.464844 1999.488281 2290.277344 1998.980469 2293.863281 C 1998.46875 2297.453125 1981.039062 2350.5 1981.039062 2350.5 "/>
<path fill-rule="nonzero" fill="rgb(26.708984%, 26.708984%, 26.708984%)" fill-opacity="1" d="M 2082.699219 2258.546875 C 2082.699219 2258.546875 2087.050781 2303.125 2088.140625 2320.882812 C 2088.140625 2320.882812 2118.941406 2282.464844 2119.308594 2273.769531 C 2119.671875 2265.070312 2113.511719 2237.886719 2113.511719 2237.886719 L 2082.699219 2258.546875 "/>
<path fill-rule="nonzero" fill="rgb(72.459412%, 47.509766%, 17.601013%)" fill-opacity="1" d="M 849.601562 1493.019531 C 836.785156 1469.441406 783.996094 1394.609375 782.96875 1386.410156 C 781.945312 1378.210938 787.070312 1334.128906 787.070312 1334.128906 C 787.070312 1334.128906 800.398438 1342.328125 801.933594 1388.96875 C 801.933594 1388.96875 834.226562 1465.339844 849.601562 1493.019531 "/>
<path fill-rule="nonzero" fill="rgb(26.708984%, 26.708984%, 26.708984%)" fill-opacity="1" d="M 991.0625 1525.308594 L 1000.539062 1551.960938 L 1036.171875 1552.21875 C 1036.171875 1552.21875 1029.761719 1531.199219 1023.871094 1527.359375 C 1017.96875 1523.511719 991.0625 1525.308594 991.0625 1525.308594 "/>
<path fill-rule="nonzero" fill="rgb(26.708984%, 26.708984%, 26.708984%)" fill-opacity="1" d="M 1023.871094 1443.558594 C 1024.628906 1444.578125 1062.558594 1481.480469 1062.558594 1481.480469 L 1116.890625 1476.609375 C 1116.890625 1476.609375 1085.109375 1446.371094 1072.808594 1442.53125 C 1060.511719 1438.691406 1023.871094 1443.558594 1023.871094 1443.558594 "/>
<path fill-rule="nonzero" fill="rgb(72.459412%, 47.509766%, 17.601013%)" fill-opacity="1" d="M 1202.738281 1182.148438 C 1202.738281 1182.148438 1204.910156 1290.878906 1299.871094 1341.621094 C 1299.871094 1341.621094 1246.960938 1333.640625 1208.539062 1312.621094 C 1208.539062 1312.621094 1324.210938 1588.351562 1682.988281 1465.339844 L 1657.300781 1425.148438 C 1453.828125 1473.089844 1336.519531 1373.078125 1336.519531 1373.078125 C 1366.238281 1368.980469 1412.371094 1351.550781 1412.371094 1351.550781 C 1258.609375 1320.800781 1202.738281 1182.148438 1202.738281 1182.148438 "/>
<path fill-rule="nonzero" fill="rgb(72.459412%, 47.509766%, 17.601013%)" fill-opacity="1" d="M 1754.75 1313.628906 C 1754.75 1313.628906 1857.269531 1427.871094 1865.96875 1487.308594 C 1874.671875 1546.75 1830.78125 1660.941406 1864.519531 1749.710938 C 1864.519531 1749.710938 1867.421875 1684.46875 1883.371094 1638.800781 C 1883.371094 1638.800781 1872.640625 1775.941406 1932.089844 1842.570312 C 1991.550781 1909.199219 1982.320312 1904.078125 2001.800781 1935.851562 C 2021.28125 1967.628906 2040.75 2047.589844 2040.75 2047.589844 C 2040.75 2047.589844 2027.429688 1915.351562 2015.128906 1899.980469 C 2002.820312 1884.601562 1936.191406 1830.269531 1918.769531 1746.210938 C 1901.339844 1662.160156 1931.070312 1538.121094 1916.71875 1477.640625 C 1902.371094 1417.160156 1815.230469 1349.5 1754.75 1313.628906 "/>
<path fill-rule="nonzero" fill="rgb(72.459412%, 47.509766%, 17.601013%)" fill-opacity="1" d="M 1202.738281 1182.148438 C 1202.738281 1182.148438 1141.851562 1289.429688 1133.878906 1295.949219 C 1125.910156 1302.480469 1067.921875 1316.96875 1067.921875 1316.96875 L 1078.058594 1274.929688 C 996.882812 1364.808594 864.960938 1335.820312 864.960938 1335.820312 C 864.960938 1335.820312 945.417969 1395.980469 1046.171875 1321.320312 L 1025.148438 1351.039062 C 1025.148438 1351.039062 1146.199219 1343.789062 1155.628906 1320.601562 C 1165.050781 1297.398438 1202.738281 1182.148438 1202.738281 1182.148438 "/>
<path fill-rule="nonzero" fill="rgb(72.459412%, 47.509766%, 17.601013%)" fill-opacity="1" d="M 827.269531 1310.449219 C 827.269531 1310.449219 817.121094 1343.070312 826.542969 1359.738281 C 835.96875 1376.410156 888.15625 1411.929688 888.15625 1411.929688 L 876.558594 1373.871094 C 862.140625 1366.628906 846.167969 1359.960938 842.128906 1354.300781 C 834.878906 1344.148438 827.269531 1310.449219 827.269531 1310.449219 "/>
<path fill-rule="nonzero" fill="rgb(72.459412%, 47.509766%, 17.601013%)" fill-opacity="1" d="M 742.464844 807.410156 C 742.464844 807.410156 1033.089844 909.738281 1152 981.5 C 1270.910156 1053.25 1311.921875 1161.910156 1311.921875 1161.910156 L 1293.460938 1081.960938 L 1400.070312 1212.140625 C 1400.070312 1212.140625 1339.730469 1032.109375 1226.660156 968.320312 C 1113.578125 904.539062 933.824219 824.800781 742.464844 807.410156 "/>
<path fill-rule="nonzero" fill="rgb(72.459412%, 47.509766%, 17.601013%)" fill-opacity="1" d="M 711.292969 803.058594 C 692.449219 859.601562 658.378906 884.238281 658.378906 884.238281 L 692.449219 919.761719 C 659.828125 917.578125 634.847656 921.53125 634.847656 921.53125 L 651.246094 950.230469 C 651.246094 950.230469 702.5 1006.101562 598.453125 1051.71875 C 605.023438 1047.050781 610.597656 1042.390625 615.722656 1037.738281 C 588.96875 1049.101562 564.875 1050.230469 564.875 1050.230469 C 556.164062 1069.828125 537.925781 1090.550781 532.683594 1096.308594 C 532.617188 1097.921875 532.75 1099.699219 532.621094 1100.609375 C 531.894531 1105.679688 500.363281 1128.148438 500.363281 1128.148438 C 490.398438 1135.039062 477.894531 1132.859375 477.894531 1132.859375 C 477.894531 1132.859375 477.617188 1134.351562 477.445312 1135.289062 C 477.652344 1138.910156 476.167969 1143.988281 474.269531 1149.121094 C 472.359375 1156.050781 469.789062 1163.261719 466.660156 1166.378906 C 459.773438 1173.269531 448.28125 1155.25 448.28125 1155.25 C 448.28125 1155.25 445.71875 1189.078125 461.09375 1184.46875 C 461.09375 1184.46875 500.558594 1208.558594 502.097656 1150.640625 C 502.097656 1150.640625 582.566406 1126.550781 591.28125 1079.398438 C 591.28125 1079.398438 693.175781 1110.390625 685.199219 948.75 C 685.199219 948.75 713.46875 958.898438 733.039062 1014.710938 C 733.039062 1014.710938 736.664062 979.191406 733.039062 934.980469 C 733.039062 934.980469 894.679688 977.019531 959.914062 1146.628906 C 894.679688 942.21875 721.441406 882.789062 721.441406 882.789062 L 748.261719 845.101562 L 701.144531 855.238281 L 711.292969 803.058594 "/>
<path fill-rule="nonzero" fill="rgb(72.459412%, 47.509766%, 17.601013%)" fill-opacity="1" d="M 746.085938 689.980469 C 746.085938 689.980469 708.652344 730.859375 691.226562 745.730469 C 673.800781 760.589844 637.921875 850.800781 637.921875 850.800781 C 637.921875 850.800781 681.574219 784.941406 691.722656 774.789062 C 701.75 764.761719 732.757812 739.371094 733.511719 738.75 C 742.488281 713.75 746.085938 689.980469 746.085938 689.980469 "/>
</svg>
