<?xml version="1.0" encoding="UTF-8"?>
<svg xmlns="http://www.w3.org/2000/svg" xmlns:xlink="http://www.w3.org/1999/xlink" width="2400" height="2400" viewBox="0 0 2400 2400">
<path fill-rule="evenodd" fill="rgb(100%, 31.10199%, 71.09375%)" fill-opacity="1" d="M 1009.660156 816.21875 C 1009.660156 816.21875 821.542969 867.820312 885.191406 676.878906 C 916.773438 582.128906 1167.578125 518.96875 1214.019531 496.671875 C 1260.46875 474.378906 1355.210938 448.371094 1384.941406 307.179688 C 1384.941406 307.179688 1494.550781 544.980469 1416.519531 676.878906 C 1338.488281 808.78125 1009.660156 816.21875 1009.660156 816.21875 "/>
<path fill-rule="evenodd" fill="rgb(97.264099%, 57.421875%, 80.46875%)" fill-opacity="1" d="M 1397.609375 374.269531 C 1397.609375 374.269531 1463.828125 514.960938 948.476562 623.179688 C 948.476562 623.179688 1121.429688 508.460938 1241.558594 492.230469 C 1241.558594 492.230469 1382.25 380.761719 1389.820312 343.960938 C 1397.398438 307.171875 1397.609375 374.269531 1397.609375 374.269531 "/>
<path fill-rule="evenodd" fill="rgb(58.789062%, 14.697266%, 40.087891%)" fill-opacity="1" d="M 1429.851562 518.011719 C 1429.851562 518.011719 1431.191406 594.671875 1322.050781 608.058594 C 1174.96875 626.101562 918.746094 755.171875 909.867188 788.148438 C 900.988281 821.121094 926.355469 812.25 972.011719 781.808594 C 1017.671875 751.371094 1351.21875 629.621094 1414.628906 652.449219 C 1414.628906 652.449219 1451.410156 580.160156 1429.851562 518.011719 "/>
<path fill-rule="evenodd" fill="rgb(22.192383%, 9.008789%, 0%)" fill-opacity="1" d="M 1013.429688 843.769531 L 1013.378906 843.769531 C 1003.5 846.121094 974.683594 852.058594 944.542969 849.761719 C 916.65625 847.640625 888.273438 838.261719 868.878906 816.941406 C 845.890625 791.671875 832.527344 746.738281 858.71875 668.058594 C 870.519531 633.589844 905.332031 600.871094 952.097656 574.539062 C 1041.25 524.351562 1172.398438 492.738281 1205.050781 477.980469 C 1232.140625 465.640625 1276.859375 453.191406 1313.921875 414.238281 C 1337.179688 389.789062 1357.039062 354.78125 1368.171875 303.648438 C 1369.691406 296.421875 1375.679688 290.980469 1383.019531 290.148438 C 1390.359375 289.320312 1397.410156 293.289062 1400.5 300.011719 C 1400.5 300.011719 1453.671875 412.078125 1464.300781 526.890625 C 1469.628906 584.460938 1463.929688 642.511719 1437.71875 689.421875 C 1422.160156 717.191406 1397.21875 740.710938 1366.390625 760.050781 C 1341 775.988281 1311.460938 789.039062 1280.421875 799.558594 C 1167.890625 837.691406 1035.339844 843.121094 1013.429688 843.769531 Z M 1009.039062 788.578125 C 1009.039062 788.578125 1146.78125 784.769531 1262.898438 746.871094 C 1290.101562 738 1316.148438 727.421875 1338.789062 714.300781 C 1362.460938 700.578125 1382.660156 684.640625 1395.320312 664.339844 C 1419.050781 626.378906 1425.148438 577.988281 1422.671875 529.890625 C 1419.371094 465.921875 1401.429688 402.449219 1387.261719 361.140625 C 1374.75 393.941406 1358.21875 418.96875 1340.378906 438.75 C 1300.378906 483.121094 1252.519531 500.460938 1222.988281 515.371094 C 1195.328125 529.460938 1093.839844 560.390625 1011.089844 603.269531 C 988.585938 614.941406 967.621094 627.589844 950.109375 640.960938 C 931.699219 655.011719 917.039062 669.359375 911.664062 685.710938 C 895.152344 735.160156 895.691406 763.589844 910.109375 779.511719 C 919.851562 790.261719 934.8125 793.320312 948.84375 794.441406 C 976.324219 796.621094 1002.351562 789.558594 1002.351562 789.558594 C 1004.53125 788.960938 1006.78125 788.628906 1009.039062 788.578125 "/>
<path fill-rule="evenodd" fill="rgb(100%, 31.10199%, 71.09375%)" fill-opacity="1" d="M 1446.238281 882.171875 C 1308.769531 995.488281 914.914062 1123.679688 914.914062 1123.679688 C 914.914062 1123.679688 732.851562 1127.398438 786.726562 963.910156 C 840.601562 800.421875 1212.160156 670.378906 1342.210938 649.941406 C 1472.261719 629.511719 1583.71875 768.839844 1446.238281 882.171875 "/>
<path fill-rule="evenodd" fill="rgb(97.264099%, 57.617188%, 80.46875%)" fill-opacity="1" d="M 1447.71875 689.320312 C 1447.71875 689.320312 1277.449219 667.679688 980.191406 823.519531 C 843.128906 895.378906 781.058594 949.058594 781.058594 949.058594 L 930.785156 810.820312 C 930.785156 810.820312 1216.351562 653.710938 1366.429688 646.488281 C 1516.5 639.28125 1447.71875 689.320312 1447.71875 689.320312 "/>
<path fill-rule="evenodd" fill="rgb(58.789062%, 14.697266%, 40.087891%)" fill-opacity="1" d="M 1481.679688 728.941406 C 1481.679688 728.941406 1481.679688 778.398438 1373.878906 791.078125 C 1266.078125 803.761719 923.648438 968.640625 880.527344 1019.371094 C 837.40625 1070.101562 817.113281 1043.46875 799.359375 1009.21875 C 781.601562 974.980469 771.457031 1082.78125 810.773438 1098 C 850.089844 1113.21875 904.625 1081.511719 971.84375 1028.25 C 971.84375 1028.25 1270.230469 818.980469 1452.511719 831.671875 C 1452.511719 831.671875 1542.898438 812.640625 1481.679688 728.941406 "/>
<path fill-rule="evenodd" fill="rgb(22.192383%, 9.008789%, 0%)" fill-opacity="1" d="M 1463.828125 903.5 C 1415.761719 943.371094 1337.359375 985.511719 1254.449219 1023.101562 C 1096.949219 1094.488281 923.632812 1150.46875 923.632812 1150.46875 C 921.003906 1151.328125 918.257812 1151.789062 915.488281 1151.851562 C 915.488281 1151.851562 881.226562 1152.640625 844.796875 1140.570312 C 821.6875 1132.910156 797.769531 1120.378906 780.351562 1100.421875 C 754.914062 1071.261719 740.074219 1026.351562 765.582031 956.941406 C 784.539062 904.898438 833.363281 856.75 896.746094 814.058594 C 918.285156 799.550781 941.363281 785.460938 965.390625 771.890625 C 1097.710938 697.179688 1260.800781 642.609375 1338.96875 629.308594 C 1417.050781 615.621094 1489.308594 653.988281 1519.339844 711.039062 C 1547.75 765.011719 1540.898438 837.429688 1463.828125 903.5 Z M 1428.660156 860.839844 C 1482.941406 817.820312 1494.25 770.238281 1476.230469 732.71875 C 1455.828125 690.21875 1402.859375 662.589844 1345.449219 670.570312 C 1269.570312 681.519531 1109.25 727.980469 980.976562 799.640625 C 957.867188 812.550781 935.878906 826.429688 915.769531 841.140625 C 862.121094 880.410156 821.527344 924.671875 807.871094 970.878906 C 794.296875 1017.308594 801.757812 1046.351562 819.378906 1064.519531 C 831.066406 1076.578125 846.742188 1083.320312 861.515625 1087.78125 C 882.472656 1094.109375 902.277344 1095.28125 910.445312 1095.480469 C 937.628906 1086.421875 1090.550781 1034.671875 1231.089844 971.390625 C 1309.019531 936.300781 1383.300781 898 1428.660156 860.839844 "/>
<path fill-rule="evenodd" fill="rgb(100%, 31.10199%, 71.09375%)" fill-opacity="1" d="M 1554.960938 1115.769531 C 1554.960938 1115.769531 1696.789062 1007.890625 1583 877.839844 C 1469.210938 747.800781 1125.28125 920.328125 987.355469 1009.75 C 849.429688 1099.160156 869.523438 1105.699219 840.988281 1115.210938 C 840.988281 1115.210938 1109.121094 1297.359375 1554.960938 1115.769531 "/>
<path fill-rule="evenodd" fill="rgb(97.264099%, 57.617188%, 80.46875%)" fill-opacity="1" d="M 1608.039062 933.300781 C 1608.039062 933.300781 1514.421875 780.101562 1051.03125 993.820312 C 1051.03125 993.820312 1227.460938 844.761719 1463.878906 831.460938 C 1463.878906 831.460938 1577.839844 831.21875 1608.039062 933.300781 "/>
<path fill-rule="evenodd" fill="rgb(58.789062%, 14.697266%, 40.087891%)" fill-opacity="1" d="M 1617.808594 963.140625 C 1617.808594 963.140625 1546.78125 1110.261719 1264.390625 1105.191406 C 981.988281 1100.109375 909.273438 1089.96875 909.273438 1089.96875 L 868.6875 1106.878906 L 938.019531 1133.929688 C 938.019531 1133.929688 1365.851562 1203.269531 1534.949219 1117.019531 C 1534.949219 1117.019531 1633.03125 1110.261719 1617.808594 963.140625 "/>
<path fill-rule="evenodd" fill="rgb(22.192383%, 9.008789%, 0%)" fill-opacity="1" d="M 1565.390625 1141.371094 C 1424.570312 1199.039062 1300.941406 1221.289062 1197.300781 1224.320312 C 1105.171875 1227.011719 1028.628906 1214.761719 969.730469 1198.570312 C 875.949219 1172.789062 825.929688 1137.378906 825.929688 1137.378906 C 817.5 1131.648438 813.046875 1121.628906 814.445312 1111.539062 C 815.84375 1101.441406 822.84375 1093.011719 832.515625 1089.789062 C 838.890625 1087.75 841.0625 1085.769531 845.882812 1081.480469 C 854.519531 1073.800781 867.734375 1061.679688 897.679688 1040.460938 C 915.960938 1027.511719 940.613281 1011.078125 974.566406 990.019531 C 1054.570312 940.460938 1201.601562 866.03125 1334.730469 833.410156 C 1381.570312 821.929688 1426.648438 815.820312 1466.839844 817.011719 C 1519.71875 818.578125 1564.449219 833.238281 1595.128906 867.230469 C 1641.730469 916.609375 1651.308594 964.738281 1646.578125 1005.851562 C 1637.691406 1083.269531 1571.691406 1137.769531 1571.691406 1137.769531 C 1569.761719 1139.25 1567.640625 1140.460938 1565.390625 1141.371094 Z M 891.128906 1111.359375 C 912.769531 1121.25 944.128906 1133.589844 984.382812 1144.21875 C 1039.199219 1158.699219 1110.148438 1170.058594 1195.671875 1167.648438 C 1293.121094 1164.898438 1409.230469 1144.589844 1541.578125 1091.371094 L 1541.609375 1091.351562 C 1553.710938 1082.320312 1594.628906 1048.621094 1604.578125 999.21875 C 1610.980469 967.449219 1604.339844 929.761719 1570.871094 888.460938 C 1551.230469 865.128906 1523.328125 851.96875 1490.238281 847.269531 C 1447.03125 841.128906 1395.769531 848.710938 1342.601562 863.46875 C 1214.621094 899 1075.628906 978.308594 1000.140625 1029.46875 C 935.734375 1072.960938 906.851562 1097.019531 891.128906 1111.359375 "/>
<path fill-rule="evenodd" fill="rgb(84.568787%, 57.421875%, 12.010193%)" fill-opacity="1" d="M 936.484375 1518.503906 C 936.484375 1518.503906 979.585938 1989.640625 1061.328125 2046.117188 C 1143.070312 2102.597656 1246.46875 2112.308594 1334.800781 2056.523438 C 1391.269531 2020.851562 1453.691406 1524.449219 1453.691406 1524.449219 L 936.484375 1518.503906 "/>
<path fill-rule="evenodd" fill="rgb(53.318787%, 35.205078%, 4.699707%)" fill-opacity="1" d="M 1450.890625 1545.933594 C 1448.589844 1563.171875 1445.96875 1606.003906 1441.269531 1638.210938 C 1095.589844 1720.15625 943.484375 1578.210938 943.484375 1578.210938 L 943.019531 1477.382812 L 1109.480469 1462.164062 L 1407.199219 1514.480469 L 1450.890625 1545.933594 "/>
<path fill-rule="evenodd" fill="rgb(22.192383%, 9.008789%, 0%)" fill-opacity="1" d="M 936.800781 1490.863281 C 936.800781 1490.863281 1146.511719 1492.28125 1298.851562 1494.6875 C 1385.769531 1496.058594 1454 1497.949219 1454 1497.949219 C 1461.550781 1498.035156 1468.710938 1501.339844 1473.671875 1507.03125 C 1478.628906 1512.722656 1480.929688 1520.261719 1479.988281 1527.757812 C 1479.988281 1527.757812 1445.941406 1749.371094 1407.609375 1907.335938 C 1394.519531 1961.25 1381.089844 2007.902344 1367.800781 2036.359375 C 1359.75 2053.582031 1351.058594 2064.921875 1343.210938 2069.839844 C 1296.53125 2099.554688 1245.820312 2111.808594 1195.890625 2109.734375 C 1145.289062 2107.632812 1095.390625 2090.640625 1051.191406 2060.800781 C 1023.199219 2042.066406 996.863281 1980.03125 976.214844 1902.554688 C 934.019531 1744.261719 908.957031 1521.023438 908.957031 1521.023438 C 908.246094 1513.230469 910.867188 1505.503906 916.175781 1499.753906 C 921.484375 1494.003906 928.976562 1490.773438 936.800781 1490.863281 Z M 966.457031 1546.617188 C 972.09375 1612.519531 987.679688 1771.589844 1015.558594 1892.777344 C 1025.191406 1934.605469 1036.199219 1971.816406 1048.878906 1998.660156 C 1056.039062 2013.839844 1063.160156 2025.535156 1071.46875 2031.4375 C 1109.691406 2058.457031 1153.101562 2074.730469 1197.480469 2077.21875 C 1241.058594 2079.65625 1285.429688 2068.867188 1326.390625 2043.207031 C 1330.828125 2040.371094 1334.488281 2033.023438 1338.910156 2023.148438 C 1351.089844 1995.929688 1362.890625 1951.296875 1373.488281 1899.695312 C 1398.609375 1777.3125 1417.230469 1616.65625 1424.289062 1551.023438 C 1396.328125 1551.058594 1350.671875 1551.023438 1298.210938 1550.644531 C 1181.058594 1549.800781 1030.011719 1547.59375 966.457031 1546.617188 "/>
<path fill-rule="evenodd" fill="rgb(84.568787%, 57.421875%, 12.010193%)" fill-opacity="1" d="M 1360.679688 1585.171875 C 1360.679688 1585.171875 1463.25 1575.609375 1496.800781 1540.796875 C 1575.421875 1459.199219 1547.328125 1179.640625 1547.328125 1179.640625 L 871.089844 1198.960938 C 871.089844 1198.960938 808.222656 1457.46875 929.054688 1527.421875 C 1013.769531 1576.46875 1120.941406 1562.859375 1149.019531 1582.414062 C 1184.761719 1607.304688 1361.820312 1602.371094 1360.679688 1585.171875 "/>
<path fill-rule="evenodd" fill="rgb(53.318787%, 35.301208%, 4.699707%)" fill-opacity="1" d="M 874.28125 1244.710938 C 915.625 1326.011719 1407.878906 1371.589844 1564.210938 1256.121094 L 1528.199219 1218.070312 C 1528.199219 1218.070312 1151.53125 1320.800781 889 1211.730469 L 874.28125 1244.710938 "/>
<path fill-rule="evenodd" fill="rgb(22.192383%, 9.008789%, 0%)" fill-opacity="1" d="M 1357.808594 1607.003906 C 1350.800781 1608.21875 1344.121094 1603.515625 1342.898438 1596.507812 C 1341.691406 1589.5 1346.390625 1582.820312 1353.398438 1581.601562 C 1353.398438 1581.601562 1398.71875 1572.546875 1438.699219 1556.460938 C 1457.429688 1548.929688 1475.019531 1539.976562 1484.839844 1529.273438 C 1509.738281 1502.273438 1520.710938 1452.671875 1526.230469 1400.128906 C 1534.121094 1325.019531 1528.910156 1243.46875 1525.511719 1204.839844 C 1474.058594 1207.070312 1342.058594 1212.628906 1209.988281 1216.839844 C 1163.761719 1218.308594 1117.519531 1219.371094 1074.738281 1220.261719 C 992.324219 1221.960938 922.746094 1222.910156 890.703125 1223.300781 C 883.363281 1258.160156 870.089844 1336.25 880.617188 1405.914062 C 887.210938 1449.5625 902.554688 1490.320312 938.058594 1511.863281 C 970.824219 1531.777344 1006.339844 1544.585938 1039.121094 1552.957031 C 1087.441406 1565.296875 1129.871094 1568.222656 1149.578125 1569.535156 C 1156.679688 1569.84375 1162.199219 1575.863281 1161.890625 1582.972656 C 1161.578125 1590.078125 1155.558594 1595.597656 1148.460938 1595.289062 C 1127.769531 1594.871094 1083.230469 1593.898438 1032.101562 1583.234375 C 995.953125 1575.695312 956.699219 1563.171875 920.046875 1542.980469 C 873.882812 1517.511719 849.894531 1467.996094 839.421875 1412.941406 C 820.246094 1312.109375 847.21875 1193.160156 847.21875 1193.160156 C 849.832031 1182.398438 859.320312 1174.71875 870.386719 1174.410156 C 870.386719 1174.410156 959.5625 1170.21875 1073.191406 1166.078125 C 1115.949219 1164.519531 1162.179688 1162.929688 1208.421875 1161.761719 C 1377.511719 1157.488281 1546.640625 1155.441406 1546.640625 1155.441406 C 1559.328125 1155.078125 1570.148438 1164.578125 1571.421875 1177.21875 C 1571.421875 1177.21875 1581.410156 1298.011719 1565.660156 1405.101562 C 1556.710938 1465.929688 1539.078125 1522.195312 1508.75 1552.320312 C 1495.691406 1565.238281 1473.429688 1576.417969 1449.300781 1584.785156 C 1406.191406 1599.734375 1357.808594 1607.003906 1357.808594 1607.003906 "/>
<path fill-rule="evenodd" fill="rgb(84.568787%, 57.421875%, 12.010193%)" fill-opacity="1" d="M 805.757812 1132.429688 C 803.269531 1125.199219 805.117188 1117.179688 810.519531 1111.761719 C 815.917969 1106.351562 823.933594 1104.480469 831.171875 1106.949219 C 930.5 1138.519531 1260.261719 1226.078125 1570.378906 1101.800781 C 1579.96875 1097.871094 1590.949219 1099.519531 1598.960938 1106.089844 C 1606.980469 1112.671875 1610.738281 1123.109375 1608.761719 1133.289062 C 1598.488281 1186.410156 1531.898438 1266.160156 1225.171875 1266.160156 C 901.902344 1266.160156 823.695312 1182.261719 805.757812 1132.429688 "/>
<path fill-rule="evenodd" fill="rgb(87.889099%, 72.459412%, 46.702576%)" fill-opacity="1" d="M 889.339844 1196.929688 C 889.339844 1196.929688 878.242188 1170.699219 917.582031 1170.699219 C 956.921875 1170.699219 1263.691406 1253.421875 1533.910156 1163.640625 C 1560.75 1154.71875 1568.089844 1162.628906 1560.019531 1187.851562 C 1560.019531 1187.851562 1670.980469 1145.480469 1599.359375 1100.089844 C 1599.359375 1100.089844 1299.058594 1231.660156 859.964844 1122.28125 C 859.964844 1122.28125 790.058594 1131.929688 841.503906 1172.28125 C 892.949219 1212.628906 889.339844 1196.929688 889.339844 1196.929688 "/>
<path fill-rule="evenodd" fill="rgb(22.192383%, 9.008789%, 0%)" fill-opacity="1" d="M 779.617188 1141.421875 C 776.796875 1132.78125 776.320312 1123.730469 778.414062 1115.25 C 780.496094 1106.789062 784.699219 1098.800781 791.1875 1092.488281 C 797.652344 1086.191406 805.515625 1081.820312 813.996094 1079.96875 C 822.445312 1078.140625 831.410156 1078.398438 839.339844 1081.25 C 897.199219 1100.5 1035.140625 1141.339844 1202 1144.429688 C 1237.738281 1145.089844 1274.828125 1144.160156 1312.628906 1140.289062 C 1393.578125 1132.011719 1477.660156 1111.421875 1559.929688 1076.308594 C 1569.398438 1072.359375 1579.589844 1071.191406 1589.371094 1072.671875 C 1599.148438 1074.160156 1608.539062 1078.261719 1616.410156 1084.828125 C 1624.25 1091.398438 1630.089844 1099.761719 1633.339844 1109.070312 C 1636.589844 1118.359375 1637.511719 1128.5 1635.46875 1138.449219 C 1628.511719 1171.179688 1605.539062 1214.25 1532.039062 1245.121094 C 1472.921875 1269.949219 1377.738281 1288.019531 1225.171875 1285.019531 C 1176.269531 1285.179688 1132.929688 1283.03125 1094.441406 1280.140625 C 1006.480469 1273.550781 943.480469 1259.988281 898.242188 1242.628906 C 820.015625 1212.621094 791.304688 1171.261719 779.75 1141.789062 C 779.707031 1141.671875 779.660156 1141.539062 779.617188 1141.421875 Z M 838.003906 1137.058594 C 852.023438 1161.859375 884.871094 1191.289062 957.144531 1214.148438 C 997.65625 1226.960938 1049.488281 1237.941406 1115.910156 1243.511719 C 1148.71875 1246.261719 1185.050781 1247.261719 1225.171875 1247.289062 C 1339.261719 1245.089844 1419.039062 1232.371094 1474.628906 1214.421875 C 1552.140625 1189.390625 1577.261719 1155.789062 1582.050781 1128.128906 L 1582.050781 1128.089844 L 1581.519531 1127.351562 L 1580.820312 1127.289062 C 1580.761719 1127.308594 1580.691406 1127.339844 1580.621094 1127.371094 C 1492 1160.628906 1402.238281 1176.488281 1316.609375 1183.511719 C 1277.210938 1186.75 1238.71875 1188.421875 1201.53125 1188.300781 C 1041.058594 1187.808594 905.429688 1156.339844 838.003906 1137.058594 "/>
<path fill-rule="evenodd" fill="rgb(66.992188%, 41.893005%, 0%)" fill-opacity="1" d="M 1011.089844 1623.15625 C 1009.679688 1619.6875 1011.359375 1615.734375 1014.820312 1614.328125 C 1018.289062 1612.925781 1022.238281 1614.597656 1023.648438 1618.0625 C 1023.648438 1618.0625 1044.789062 1662.765625 1098.519531 1713.105469 C 1116.109375 1729.582031 1137.25 1746.5 1162.089844 1763.246094 C 1182.808594 1777.210938 1205.988281 1791.171875 1232.410156 1803.863281 C 1265.839844 1819.921875 1304 1834.535156 1348.140625 1845.1875 C 1351.808594 1845.929688 1354.179688 1849.511719 1353.429688 1853.175781 C 1352.691406 1856.84375 1349.109375 1859.214844 1345.441406 1858.46875 C 1299.191406 1850.808594 1258.558594 1839.183594 1223.179688 1824.535156 C 1194.699219 1812.75 1169.511719 1799.285156 1147.691406 1784.664062 C 1121.398438 1767.042969 1099.890625 1747.917969 1082.28125 1729.523438 C 1028.421875 1673.257812 1011.089844 1623.15625 1011.089844 1623.15625 "/>
<path fill-rule="evenodd" fill="rgb(66.992188%, 41.893005%, 0%)" fill-opacity="1" d="M 1028.390625 1801.5 C 1026.328125 1798.371094 1027.199219 1794.167969 1030.328125 1792.113281 C 1033.460938 1790.058594 1037.660156 1790.929688 1039.710938 1794.058594 C 1039.710938 1794.058594 1062.890625 1824.28125 1110.390625 1857.554688 C 1125.910156 1868.425781 1144.058594 1879.457031 1164.699219 1890.445312 C 1182.089844 1899.707031 1201.128906 1909.0625 1222.359375 1917.382812 C 1249.75 1928.125 1280.308594 1937.789062 1314.878906 1944.125 C 1318.589844 1944.628906 1321.191406 1948.046875 1320.691406 1951.753906 C 1320.179688 1955.460938 1316.761719 1958.058594 1313.058594 1957.554688 C 1276.710938 1954.316406 1243.988281 1947.863281 1214.839844 1938.738281 C 1191.851562 1931.546875 1171.019531 1922.96875 1152.609375 1913.246094 C 1130.679688 1901.664062 1112.109375 1888.644531 1096.488281 1876 C 1048.589844 1837.246094 1028.378906 1801.5 1028.378906 1801.5 "/>
<path fill-rule="evenodd" fill="rgb(66.992188%, 41.893005%, 0%)" fill-opacity="1" d="M 1083.570312 1959.203125 C 1081.410156 1956.148438 1082.140625 1951.914062 1085.191406 1949.757812 C 1088.238281 1947.597656 1092.480469 1948.324219 1094.640625 1951.378906 C 1094.640625 1951.378906 1106.910156 1965.089844 1132.578125 1979.785156 C 1140.78125 1984.480469 1150.328125 1989.132812 1161.269531 1993.734375 C 1168.171875 1996.640625 1175.640625 1999.429688 1183.640625 2002.234375 C 1190.828125 2004.757812 1198.421875 2007.320312 1206.539062 2009.691406 C 1227.28125 2015.75 1251.03125 2020.988281 1278.890625 2022.835938 C 1282.628906 2022.828125 1285.671875 2025.855469 1285.679688 2029.597656 C 1285.691406 2033.335938 1282.660156 2036.382812 1278.921875 2036.390625 C 1254.910156 2038.183594 1233.371094 2037.742188 1213.988281 2035.136719 C 1198.179688 2033.003906 1183.851562 2029.679688 1171.179688 2025.171875 C 1155.609375 2019.640625 1142.511719 2012.554688 1131.578125 2005.40625 C 1096.871094 1982.730469 1083.570312 1959.203125 1083.570312 1959.203125 "/>
<path fill-rule="evenodd" fill="rgb(66.992188%, 41.893005%, 0%)" fill-opacity="1" d="M 1363.410156 1648.460938 C 1364.191406 1644.804688 1367.800781 1642.472656 1371.460938 1643.261719 C 1375.109375 1644.046875 1377.441406 1647.652344 1376.660156 1651.308594 C 1376.660156 1651.308594 1366.460938 1712.160156 1332.339844 1786.074219 C 1320.019531 1812.765625 1304.628906 1841.195312 1285.199219 1868.679688 C 1267.421875 1893.828125 1246.191406 1918.117188 1221.78125 1940.109375 C 1187.730469 1970.789062 1147.199219 1996.675781 1099.800781 2013.804688 C 1096.328125 2015.1875 1092.378906 2013.492188 1091 2010.015625 C 1089.609375 2006.542969 1091.308594 2002.597656 1094.789062 2001.210938 C 1123.679688 1988.523438 1149.308594 1972.230469 1172.390625 1953.917969 C 1196.738281 1934.585938 1217.960938 1912.785156 1236.679688 1890.039062 C 1246.078125 1878.621094 1254.800781 1866.945312 1263.058594 1855.296875 C 1276.21875 1836.746094 1288.019531 1818.136719 1298.398438 1799.96875 C 1310.148438 1779.414062 1320.230469 1759.574219 1328.609375 1741.292969 C 1353.039062 1687.992188 1363.410156 1648.460938 1363.410156 1648.460938 "/>
<path fill-rule="evenodd" fill="rgb(66.992188%, 41.893005%, 0%)" fill-opacity="1" d="M 1241.441406 1645.441406 C 1241.988281 1641.742188 1245.449219 1639.191406 1249.148438 1639.746094 C 1252.851562 1640.304688 1255.398438 1643.757812 1254.839844 1647.457031 C 1254.839844 1647.457031 1251.761719 1686.359375 1226.019531 1738.152344 C 1217.578125 1755.15625 1206.710938 1773.601562 1192.308594 1792.007812 C 1180.210938 1807.492188 1165.511719 1822.847656 1148.359375 1837.753906 C 1126.640625 1856.640625 1100.738281 1874.4375 1070.359375 1890.660156 C 1067.148438 1892.585938 1062.988281 1891.539062 1061.058594 1888.328125 C 1059.140625 1885.121094 1060.191406 1880.957031 1063.390625 1879.03125 C 1090.859375 1860.691406 1113.460938 1840.855469 1132.878906 1821.234375 C 1147.910156 1806.050781 1160.621094 1790.75 1171.960938 1776.148438 C 1185.378906 1758.851562 1196.671875 1742.429688 1205.730469 1727.121094 C 1233.339844 1680.507812 1241.441406 1645.441406 1241.441406 1645.441406 "/>
<path fill-rule="evenodd" fill="rgb(66.992188%, 41.893005%, 0%)" fill-opacity="1" d="M 1112.25 1626.476562 C 1112.148438 1622.738281 1115.101562 1619.617188 1118.839844 1619.515625 C 1122.578125 1619.414062 1125.699219 1622.367188 1125.800781 1626.105469 C 1125.800781 1626.105469 1129.078125 1645.785156 1113.328125 1673.628906 C 1108.78125 1681.671875 1102.539062 1690.425781 1093.679688 1698.90625 C 1086.890625 1705.410156 1078.449219 1711.609375 1068.460938 1717.527344 C 1056.78125 1724.4375 1043 1730.613281 1026.691406 1736.5 C 1023.320312 1738.121094 1019.269531 1736.703125 1017.640625 1733.332031 C 1016.019531 1729.964844 1017.441406 1725.910156 1020.808594 1724.285156 C 1037.820312 1713.929688 1050.789062 1703.28125 1061.769531 1693.507812 C 1066.160156 1689.601562 1070.089844 1685.800781 1073.820312 1682.230469 C 1078.03125 1678.203125 1081.898438 1674.453125 1085.320312 1670.800781 C 1090.878906 1664.871094 1095.460938 1659.5 1099 1654.386719 C 1110.339844 1637.996094 1112.25 1626.476562 1112.25 1626.476562 "/>
<path fill-rule="evenodd" fill="rgb(66.992188%, 41.893005%, 0%)" fill-opacity="1" d="M 1029.480469 1319.160156 C 1026.601562 1316.78125 1026.191406 1312.5 1028.558594 1309.621094 C 1030.941406 1306.730469 1035.21875 1306.320312 1038.109375 1308.699219 C 1038.109375 1308.699219 1079.070312 1338.890625 1150.660156 1367.410156 C 1174.261719 1376.808594 1201.191406 1385.878906 1231.039062 1394.210938 C 1256.511719 1401.308594 1284.03125 1408.011719 1313.71875 1412.9375 C 1352.710938 1419.40625 1395.179688 1423.511719 1441.109375 1422.449219 C 1444.851562 1422.230469 1448.058594 1425.089844 1448.269531 1428.820312 C 1448.488281 1432.554688 1445.640625 1435.765625 1441.898438 1435.980469 C 1394.890625 1440.375 1350.980469 1439.867188 1310.609375 1435.363281 C 1279.558594 1431.902344 1250.589844 1426.378906 1224.140625 1419.074219 C 1193.109375 1410.503906 1165.519531 1399.671875 1141.558594 1388.628906 C 1068.851562 1355.160156 1029.480469 1319.160156 1029.480469 1319.160156 "/>
<path fill-rule="evenodd" fill="rgb(66.992188%, 41.893005%, 0%)" fill-opacity="1" d="M 954.808594 1384.929688 C 952.183594 1382.261719 952.21875 1377.96875 954.882812 1375.339844 C 957.546875 1372.71875 961.84375 1372.75 964.464844 1375.421875 C 964.464844 1375.421875 1005.089844 1412.699219 1086.011719 1442.414062 C 1111.820312 1451.890625 1141.730469 1460.433594 1175.730469 1467.402344 C 1203.761719 1473.148438 1234.5 1477.980469 1268.28125 1480.472656 C 1310.671875 1483.601562 1357.621094 1483.730469 1409.46875 1478.171875 C 1413.179688 1477.65625 1416.601562 1480.242188 1417.121094 1483.949219 C 1417.640625 1487.652344 1415.050781 1491.078125 1411.339844 1491.597656 C 1358.699219 1500.648438 1310.679688 1504.1875 1267.160156 1503.085938 C 1231.96875 1502.191406 1199.71875 1498.59375 1170.578125 1492.691406 C 1135 1485.488281 1104.03125 1475.082031 1077.539062 1463.898438 C 994.027344 1428.644531 954.808594 1384.929688 954.808594 1384.929688 "/>
<path fill-rule="evenodd" fill="rgb(66.992188%, 41.893005%, 0%)" fill-opacity="1" d="M 1398.359375 1360.199219 C 1398.308594 1360.109375 1398.261719 1360.019531 1398.191406 1359.921875 C 1397.75 1359.289062 1397.070312 1359.589844 1396.179688 1360.480469 C 1395.738281 1360.46875 1395.289062 1360.410156 1394.851562 1360.308594 C 1395.230469 1360.441406 1395.621094 1360.570312 1395.988281 1360.671875 C 1393.960938 1362.828125 1390.890625 1367.800781 1387.078125 1372.019531 C 1372.871094 1387.71875 1347.210938 1414.984375 1302.339844 1442.9375 C 1283.890625 1454.429688 1262.230469 1466.125 1236.679688 1476.628906 C 1213.910156 1485.984375 1188.03125 1494.308594 1158.949219 1501.464844 C 1123.859375 1510.101562 1084.050781 1516.570312 1039.011719 1520.816406 C 1035.300781 1521.308594 1031.890625 1518.695312 1031.398438 1514.988281 C 1030.898438 1511.277344 1033.519531 1507.867188 1037.21875 1507.378906 C 1080.890625 1499.902344 1119.089844 1490.0625 1152.910156 1479.644531 C 1180.488281 1471.148438 1204.910156 1461.882812 1226.820312 1452.777344 C 1251.148438 1442.664062 1272.289062 1432.652344 1290.441406 1422.652344 C 1334.609375 1398.308594 1361.378906 1375.058594 1376.121094 1361.25 C 1383.480469 1354.359375 1388.261719 1349.78125 1390.890625 1348.289062 C 1395.058594 1345.929688 1398.171875 1346.628906 1400.109375 1348.039062 C 1403.238281 1350.078125 1404.128906 1354.289062 1402.078125 1357.421875 C 1401.171875 1358.808594 1399.828125 1359.75 1398.359375 1360.199219 Z M 1398.359375 1360.199219 C 1398.890625 1361.230469 1397.539062 1361.109375 1395.988281 1360.671875 C 1396.058594 1360.609375 1396.121094 1360.539062 1396.179688 1360.480469 C 1396.921875 1360.5 1397.648438 1360.410156 1398.359375 1360.199219 "/>
<path fill-rule="evenodd" fill="rgb(66.992188%, 41.893005%, 0%)" fill-opacity="1" d="M 1271.261719 1330.660156 C 1273.628906 1327.769531 1277.898438 1327.339844 1280.800781 1329.710938 C 1283.691406 1332.078125 1284.121094 1336.359375 1281.75 1339.25 C 1281.75 1339.25 1258.621094 1371.761719 1203.671875 1402.925781 C 1186.488281 1412.664062 1166.191406 1422.335938 1142.410156 1430.148438 C 1123.011719 1436.527344 1101.261719 1441.519531 1077.320312 1445.015625 C 1047.699219 1449.34375 1014.730469 1450.917969 978.183594 1449.5 C 974.445312 1449.527344 971.386719 1446.515625 971.355469 1442.773438 C 971.328125 1439.03125 974.339844 1435.972656 978.082031 1435.945312 C 1021.410156 1433.679688 1059 1426.769531 1091.808594 1418.28125 C 1104.730469 1414.9375 1116.859375 1411.304688 1128.308594 1407.625 C 1141.089844 1403.523438 1153 1399.339844 1164.03125 1394.988281 C 1181.511719 1388.089844 1196.78125 1380.980469 1209.898438 1373.921875 C 1251.460938 1351.570312 1271.261719 1330.660156 1271.261719 1330.660156 "/>
</svg>
