<?xml version="1.0" encoding="UTF-8"?>
<svg xmlns="http://www.w3.org/2000/svg" xmlns:xlink="http://www.w3.org/1999/xlink" width="4000" height="4000" viewBox="0 0 4000 4000">
<defs>
<clipPath id="clip-0">

</clipPath>
<clipPath id="clip-1">
<path clip-rule="nonzero" d="M 3445.121094 1601.28125 C 3443.269531 1606.851562 3441.101562 1612.421875 3438.929688 1617.988281 C 3378.308594 1768.941406 3244.050781 1880.921875 3096.808594 1950.210938 C 2949.570312 2019.808594 2788.398438 2052.601562 2629.410156 2088.171875 C 2032.078125 2221.5 1429.808594 2400.601562 819.800781 2349.25 C 789.796875 2346.78125 759.480469 2343.371094 730.09375 2336.878906 C 799.695312 2104.878906 1341.960938 1809.460938 2038.890625 1639.328125 C 2654.460938 1489.300781 3207.550781 1481.570312 3445.121094 1601.28125 Z M 3445.121094 1601.28125 "/>
</clipPath>
<clipPath id="clip-2">
<path clip-rule="nonzero" d="M 3445.121094 1601.28125 C 3443.269531 1606.851562 3441.101562 1612.421875 3438.929688 1617.988281 C 3378.308594 1768.941406 3244.050781 1880.921875 3096.808594 1950.210938 C 2949.570312 2019.808594 2788.398438 2052.601562 2629.410156 2088.171875 C 2032.078125 2221.5 1429.808594 2400.601562 819.800781 2349.25 C 789.796875 2346.78125 759.480469 2343.371094 730.09375 2336.878906 C 799.695312 2104.878906 1341.960938 1809.460938 2038.890625 1639.328125 C 2654.460938 1489.300781 3207.550781 1481.570312 3445.121094 1601.28125 "/>
</clipPath>
<radialGradient id="radial-pattern-0" gradientUnits="userSpaceOnUse" cx="0" cy="0" fx="0" fy="0" r="1935.31" gradientTransform="matrix(1, 0, 0, -1, 1723.53, 429.78)">
<stop offset="0" stop-color="rgb(17.111206%, 11.126709%, 13.301086%)" stop-opacity="1"/>
<stop offset="0.25" stop-color="rgb(17.111206%, 11.126709%, 13.301086%)" stop-opacity="1"/>
<stop offset="0.34375" stop-color="rgb(17.111206%, 11.126709%, 13.301086%)" stop-opacity="1"/>
<stop offset="0.382812" stop-color="rgb(17.13562%, 11.135864%, 13.305664%)" stop-opacity="1"/>
<stop offset="0.417969" stop-color="rgb(17.279053%, 11.193848%, 13.339233%)" stop-opacity="1"/>
<stop offset="0.425781" stop-color="rgb(17.457581%, 11.242676%, 13.362122%)" stop-opacity="1"/>
<stop offset="0.433594" stop-color="rgb(17.62085%, 11.317444%, 13.391113%)" stop-opacity="1"/>
<stop offset="0.441406" stop-color="rgb(17.807007%, 11.425781%, 13.43689%)" stop-opacity="1"/>
<stop offset="0.449219" stop-color="rgb(17.973328%, 11.480713%, 13.471985%)" stop-opacity="1"/>
<stop offset="0.457031" stop-color="rgb(18.167114%, 11.53717%, 13.526917%)" stop-opacity="1"/>
<stop offset="0.464844" stop-color="rgb(18.336487%, 11.578369%, 13.531494%)" stop-opacity="1"/>
<stop offset="0.472656" stop-color="rgb(18.525696%, 11.631775%, 13.55896%)" stop-opacity="1"/>
<stop offset="0.480469" stop-color="rgb(18.777466%, 11.727905%, 13.644409%)" stop-opacity="1"/>
<stop offset="0.488281" stop-color="rgb(18.981934%, 11.791992%, 13.676453%)" stop-opacity="1"/>
<stop offset="0.496094" stop-color="rgb(19.155884%, 11.831665%, 13.690186%)" stop-opacity="1"/>
<stop offset="0.503906" stop-color="rgb(19.314575%, 11.882019%, 13.713074%)" stop-opacity="1"/>
<stop offset="0.507812" stop-color="rgb(19.462585%, 11.930847%, 13.745117%)" stop-opacity="1"/>
<stop offset="0.511719" stop-color="rgb(19.639587%, 11.978149%, 13.789368%)" stop-opacity="1"/>
<stop offset="0.515625" stop-color="rgb(19.819641%, 12.026978%, 13.83667%)" stop-opacity="1"/>
<stop offset="0.519531" stop-color="rgb(19.969177%, 12.075806%, 13.868713%)" stop-opacity="1"/>
<stop offset="0.523438" stop-color="rgb(20.100403%, 12.124634%, 13.891602%)" stop-opacity="1"/>
<stop offset="0.527344" stop-color="rgb(20.198059%, 12.150574%, 13.902283%)" stop-opacity="1"/>
<stop offset="0.53125" stop-color="rgb(20.329285%, 12.191772%, 13.917542%)" stop-opacity="1"/>
<stop offset="0.542969" stop-color="rgb(20.474243%, 12.254333%, 13.951111%)" stop-opacity="1"/>
<stop offset="0.546875" stop-color="rgb(20.61615%, 12.303162%, 13.990784%)" stop-opacity="1"/>
<stop offset="0.550781" stop-color="rgb(20.808411%, 12.350464%, 14.039612%)" stop-opacity="1"/>
<stop offset="0.554688" stop-color="rgb(20.976257%, 12.397766%, 14.089966%)" stop-opacity="1"/>
<stop offset="0.558594" stop-color="rgb(21.115112%, 12.445068%, 14.143372%)" stop-opacity="1"/>
<stop offset="0.5625" stop-color="rgb(21.232605%, 12.483215%, 14.176941%)" stop-opacity="1"/>
<stop offset="0.566406" stop-color="rgb(21.313477%, 12.496948%, 14.164734%)" stop-opacity="1"/>
<stop offset="0.570312" stop-color="rgb(21.377563%, 12.5%, 14.129639%)" stop-opacity="1"/>
<stop offset="0.574219" stop-color="rgb(21.478271%, 12.52594%, 14.14032%)" stop-opacity="1"/>
<stop offset="0.578125" stop-color="rgb(21.611023%, 12.573242%, 14.193726%)" stop-opacity="1"/>
<stop offset="0.582031" stop-color="rgb(21.743774%, 12.637329%, 14.251709%)" stop-opacity="1"/>
<stop offset="0.585938" stop-color="rgb(21.873474%, 12.72583%, 14.315796%)" stop-opacity="1"/>
<stop offset="0.589844" stop-color="rgb(22.0047%, 12.814331%, 14.375305%)" stop-opacity="1"/>
<stop offset="0.59375" stop-color="rgb(22.138977%, 12.879944%, 14.411926%)" stop-opacity="1"/>
<stop offset="0.597656" stop-color="rgb(22.27478%, 12.930298%, 14.430237%)" stop-opacity="1"/>
<stop offset="0.601562" stop-color="rgb(22.375488%, 12.956238%, 14.437866%)" stop-opacity="1"/>
<stop offset="0.605469" stop-color="rgb(22.439575%, 12.957764%, 14.433289%)" stop-opacity="1"/>
<stop offset="0.609375" stop-color="rgb(22.523499%, 12.971497%, 14.44397%)" stop-opacity="1"/>
<stop offset="0.613281" stop-color="rgb(22.645569%, 13.009644%, 14.485168%)" stop-opacity="1"/>
<stop offset="0.617188" stop-color="rgb(22.782898%, 13.056946%, 14.533997%)" stop-opacity="1"/>
<stop offset="0.621094" stop-color="rgb(22.920227%, 13.105774%, 14.564514%)" stop-opacity="1"/>
<stop offset="0.625" stop-color="rgb(23.059082%, 13.156128%, 14.582825%)" stop-opacity="1"/>
<stop offset="0.628906" stop-color="rgb(23.197937%, 13.186646%, 14.556885%)" stop-opacity="1"/>
<stop offset="0.636719" stop-color="rgb(23.382568%, 13.265991%, 14.558411%)" stop-opacity="1"/>
<stop offset="0.644531" stop-color="rgb(23.634338%, 13.41095%, 14.634705%)" stop-opacity="1"/>
<stop offset="0.652344" stop-color="rgb(23.884583%, 13.514709%, 14.668274%)" stop-opacity="1"/>
<stop offset="0.660156" stop-color="rgb(24.076843%, 13.55896%, 14.639282%)" stop-opacity="1"/>
<stop offset="0.667969" stop-color="rgb(24.29657%, 13.616943%, 14.665222%)" stop-opacity="1"/>
<stop offset="0.675781" stop-color="rgb(24.578857%, 13.716125%, 14.730835%)" stop-opacity="1"/>
<stop offset="0.683594" stop-color="rgb(24.865723%, 13.815308%, 14.788818%)" stop-opacity="1"/>
<stop offset="0.691406" stop-color="rgb(25.111389%, 13.91449%, 14.865112%)" stop-opacity="1"/>
<stop offset="0.699219" stop-color="rgb(25.32196%, 14.013672%, 14.929199%)" stop-opacity="1"/>
<stop offset="0.707031" stop-color="rgb(25.57373%, 14.111328%, 15.002441%)" stop-opacity="1"/>
<stop offset="0.714844" stop-color="rgb(25.854492%, 14.207458%, 15.05127%)" stop-opacity="1"/>
<stop offset="0.722656" stop-color="rgb(26.119995%, 14.300537%, 15.063477%)" stop-opacity="1"/>
<stop offset="0.738281" stop-color="rgb(26.348877%, 14.395142%, 15.090942%)" stop-opacity="1"/>
<stop offset="0.746094" stop-color="rgb(26.5625%, 14.494324%, 15.151978%)" stop-opacity="1"/>
<stop offset="0.753906" stop-color="rgb(26.751709%, 14.569092%, 15.208435%)" stop-opacity="1"/>
<stop offset="0.757812" stop-color="rgb(26.896667%, 14.634705%, 15.249634%)" stop-opacity="1"/>
<stop offset="0.761719" stop-color="rgb(27.041626%, 14.730835%, 15.275574%)" stop-opacity="1"/>
<stop offset="0.765625" stop-color="rgb(27.185059%, 14.830017%, 15.301514%)" stop-opacity="1"/>
<stop offset="0.769531" stop-color="rgb(27.331543%, 14.900208%, 15.341187%)" stop-opacity="1"/>
<stop offset="0.773438" stop-color="rgb(27.482605%, 14.949036%, 15.388489%)" stop-opacity="1"/>
<stop offset="0.777344" stop-color="rgb(27.632141%, 14.997864%, 15.41748%)" stop-opacity="1"/>
<stop offset="0.78125" stop-color="rgb(27.781677%, 15.049744%, 15.428162%)" stop-opacity="1"/>
<stop offset="0.785156" stop-color="rgb(27.893066%, 15.087891%, 15.423584%)" stop-opacity="1"/>
<stop offset="0.789062" stop-color="rgb(28.015137%, 15.130615%, 15.406799%)" stop-opacity="1"/>
<stop offset="0.800781" stop-color="rgb(28.178406%, 15.185547%, 15.422058%)" stop-opacity="1"/>
<stop offset="0.804688" stop-color="rgb(28.330994%, 15.235901%, 15.452576%)" stop-opacity="1"/>
<stop offset="0.808594" stop-color="rgb(28.482056%, 15.287781%, 15.464783%)" stop-opacity="1"/>
<stop offset="0.8125" stop-color="rgb(28.636169%, 15.338135%, 15.480042%)" stop-opacity="1"/>
<stop offset="0.816406" stop-color="rgb(28.862%, 15.411377%, 15.536499%)" stop-opacity="1"/>
<stop offset="0.824219" stop-color="rgb(29.095459%, 15.509033%, 15.637207%)" stop-opacity="1"/>
<stop offset="0.832031" stop-color="rgb(29.321289%, 15.606689%, 15.737915%)" stop-opacity="1"/>
<stop offset="0.839844" stop-color="rgb(29.563904%, 15.673828%, 15.769958%)" stop-opacity="1"/>
<stop offset="0.847656" stop-color="rgb(29.742432%, 15.716553%, 15.753174%)" stop-opacity="1"/>
<stop offset="0.855469" stop-color="rgb(29.922485%, 15.789795%, 15.803528%)" stop-opacity="1"/>
<stop offset="0.863281" stop-color="rgb(30.174255%, 15.887451%, 15.896606%)" stop-opacity="1"/>
<stop offset="0.871094" stop-color="rgb(30.407715%, 15.988159%, 15.950012%)" stop-opacity="1"/>
<stop offset="0.878906" stop-color="rgb(30.56488%, 16.062927%, 15.98053%)" stop-opacity="1"/>
<stop offset="0.882812" stop-color="rgb(30.715942%, 16.111755%, 16.021729%)" stop-opacity="1"/>
<stop offset="0.886719" stop-color="rgb(30.873108%, 16.162109%, 16.056824%)" stop-opacity="1"/>
<stop offset="0.890625" stop-color="rgb(31.030273%, 16.212463%, 16.072083%)" stop-opacity="1"/>
<stop offset="0.894531" stop-color="rgb(31.185913%, 16.264343%, 16.07666%)" stop-opacity="1"/>
<stop offset="0.898438" stop-color="rgb(31.303406%, 16.313171%, 16.105652%)" stop-opacity="1"/>
<stop offset="0.902344" stop-color="rgb(31.388855%, 16.362%, 16.157532%)" stop-opacity="1"/>
<stop offset="0.90625" stop-color="rgb(31.500244%, 16.412354%, 16.191101%)" stop-opacity="1"/>
<stop offset="0.910156" stop-color="rgb(31.716919%, 16.488647%, 16.209412%)" stop-opacity="1"/>
<stop offset="0.917969" stop-color="rgb(31.948853%, 16.589355%, 16.271973%)" stop-opacity="1"/>
<stop offset="0.925781" stop-color="rgb(32.192993%, 16.688538%, 16.323853%)" stop-opacity="1"/>
<stop offset="0.933594" stop-color="rgb(32.513428%, 16.789246%, 16.358948%)" stop-opacity="1"/>
<stop offset="0.941406" stop-color="rgb(32.748413%, 16.864014%, 16.412354%)" stop-opacity="1"/>
<stop offset="0.945312" stop-color="rgb(32.862854%, 16.914368%, 16.43219%)" stop-opacity="1"/>
<stop offset="0.949219" stop-color="rgb(32.949829%, 16.966248%, 16.439819%)" stop-opacity="1"/>
<stop offset="0.953125" stop-color="rgb(33.032227%, 16.996765%, 16.421509%)" stop-opacity="1"/>
<stop offset="0.957031" stop-color="rgb(33.149719%, 17.015076%, 16.371155%)" stop-opacity="1"/>
<stop offset="0.964844" stop-color="rgb(33.319092%, 17.079163%, 16.392517%)" stop-opacity="1"/>
<stop offset="0.972656" stop-color="rgb(33.493042%, 17.153931%, 16.438293%)" stop-opacity="1"/>
<stop offset="0.976562" stop-color="rgb(33.656311%, 17.205811%, 16.435242%)" stop-opacity="1"/>
<stop offset="0.980469" stop-color="rgb(33.836365%, 17.280579%, 16.477966%)" stop-opacity="1"/>
<stop offset="0.988281" stop-color="rgb(33.990479%, 17.355347%, 16.537476%)" stop-opacity="1"/>
<stop offset="0.992188" stop-color="rgb(34.213257%, 17.431641%, 16.548157%)" stop-opacity="1"/>
<stop offset="1" stop-color="rgb(34.379578%, 17.483521%, 16.543579%)" stop-opacity="1"/>
</radialGradient>
<clipPath id="clip-3">
<path clip-rule="nonzero" d="M 1600 1570 L 3028 1570 L 3028 3504 L 1600 3504 Z M 1600 1570 "/>
</clipPath>
<clipPath id="clip-4">
<path clip-rule="nonzero" d="M 3022.878906 3377.789062 C 3019.480469 3432.539062 2975.859375 3476.78125 2921.109375 3481.109375 C 2731.488281 3496.878906 2524.539062 3505.851562 2302.441406 3503.070312 C 2086.828125 3500.589844 1885.460938 3487.601562 1700.171875 3468.109375 C 1618.808594 3459.761719 1574.269531 3369.441406 1616.648438 3299.21875 C 1668.609375 3213.53125 1718.109375 3112.378906 1756.160156 2995.761719 C 1832.25 2762.828125 1839.679688 2539.800781 1816.480469 2346.78125 C 1782.449219 2061.878906 1681.921875 1842.871094 1638.300781 1755.328125 L 2365.539062 1570.96875 C 2409.78125 1682.019531 2481.550781 1850.300781 2586.410156 2047.03125 C 2615.179688 2100.859375 2641.46875 2147.878906 2665.910156 2189.949219 C 2749.121094 2332.859375 2809.441406 2416.378906 2857.390625 2501.75 C 2955.140625 2677.148438 3050.410156 2950.601562 3022.878906 3377.789062 Z M 3022.878906 3377.789062 "/>
</clipPath>
<clipPath id="clip-5">
<path clip-rule="nonzero" d="M 3022.878906 3377.789062 C 3019.480469 3432.539062 2975.859375 3476.78125 2921.109375 3481.109375 C 2731.488281 3496.878906 2524.539062 3505.851562 2302.441406 3503.070312 C 2086.828125 3500.589844 1885.460938 3487.601562 1700.171875 3468.109375 C 1618.808594 3459.761719 1574.269531 3369.441406 1616.648438 3299.21875 C 1668.609375 3213.53125 1718.109375 3112.378906 1756.160156 2995.761719 C 1832.25 2762.828125 1839.679688 2539.800781 1816.480469 2346.78125 C 1782.449219 2061.878906 1681.921875 1842.871094 1638.300781 1755.328125 L 2365.539062 1570.96875 C 2409.78125 1682.019531 2481.550781 1850.300781 2586.410156 2047.03125 C 2615.179688 2100.859375 2641.46875 2147.878906 2665.910156 2189.949219 C 2749.121094 2332.859375 2809.441406 2416.378906 2857.390625 2501.75 C 2955.140625 2677.148438 3050.410156 2950.601562 3022.878906 3377.789062 "/>
</clipPath>
<radialGradient id="radial-pattern-1" gradientUnits="userSpaceOnUse" cx="0" cy="0" fx="0" fy="0" r="1950.63" gradientTransform="matrix(1, 0, 0, -1, 3082.69, 3619.27)">
<stop offset="0" stop-color="rgb(95.472717%, 62.014771%, 38.227844%)" stop-opacity="1"/>
<stop offset="0.0078125" stop-color="rgb(95.481873%, 62.141418%, 38.465881%)" stop-opacity="1"/>
<stop offset="0.0117188" stop-color="rgb(95.487976%, 62.226868%, 38.626099%)" stop-opacity="1"/>
<stop offset="0.015625" stop-color="rgb(95.500183%, 62.39624%, 38.835144%)" stop-opacity="1"/>
<stop offset="0.0273438" stop-color="rgb(95.439148%, 62.641907%, 39.105225%)" stop-opacity="1"/>
<stop offset="0.0390625" stop-color="rgb(95.285034%, 62.908936%, 39.389038%)" stop-opacity="1"/>
<stop offset="0.0507812" stop-color="rgb(95.207214%, 63.142395%, 39.585876%)" stop-opacity="1"/>
<stop offset="0.0546875" stop-color="rgb(95.219421%, 63.316345%, 39.683533%)" stop-opacity="1"/>
<stop offset="0.0585938" stop-color="rgb(95.231628%, 63.48877%, 39.782715%)" stop-opacity="1"/>
<stop offset="0.0625" stop-color="rgb(95.24231%, 63.62915%, 39.903259%)" stop-opacity="1"/>
<stop offset="0.0664062" stop-color="rgb(95.248413%, 63.725281%, 40.057373%)" stop-opacity="1"/>
<stop offset="0.0703125" stop-color="rgb(95.254517%, 63.812256%, 40.219116%)" stop-opacity="1"/>
<stop offset="0.0742188" stop-color="rgb(95.26062%, 63.896179%, 40.382385%)" stop-opacity="1"/>
<stop offset="0.078125" stop-color="rgb(95.266724%, 63.981628%, 40.544128%)" stop-opacity="1"/>
<stop offset="0.0820312" stop-color="rgb(95.272827%, 64.067078%, 40.707397%)" stop-opacity="1"/>
<stop offset="0.0859375" stop-color="rgb(95.278931%, 64.154053%, 40.870667%)" stop-opacity="1"/>
<stop offset="0.0898438" stop-color="rgb(95.285034%, 64.239502%, 41.033936%)" stop-opacity="1"/>
<stop offset="0.09375" stop-color="rgb(95.411682%, 64.430237%, 41.247559%)" stop-opacity="1"/>
<stop offset="0.105469" stop-color="rgb(95.582581%, 64.630127%, 41.419983%)" stop-opacity="1"/>
<stop offset="0.109375" stop-color="rgb(95.651245%, 64.726257%, 41.520691%)" stop-opacity="1"/>
<stop offset="0.113281" stop-color="rgb(95.677185%, 64.816284%, 41.667175%)" stop-opacity="1"/>
<stop offset="0.117188" stop-color="rgb(95.683289%, 64.903259%, 41.83197%)" stop-opacity="1"/>
<stop offset="0.121094" stop-color="rgb(95.689392%, 64.988708%, 41.996765%)" stop-opacity="1"/>
<stop offset="0.125" stop-color="rgb(95.701599%, 65.161133%, 42.233276%)" stop-opacity="1"/>
<stop offset="0.136719" stop-color="rgb(95.713806%, 65.336609%, 42.431641%)" stop-opacity="1"/>
<stop offset="0.140625" stop-color="rgb(95.721436%, 65.440369%, 42.539978%)" stop-opacity="1"/>
<stop offset="0.144531" stop-color="rgb(95.733643%, 65.591431%, 42.694092%)" stop-opacity="1"/>
<stop offset="0.148438" stop-color="rgb(95.74585%, 65.763855%, 42.874146%)" stop-opacity="1"/>
<stop offset="0.152344" stop-color="rgb(95.758057%, 65.939331%, 43.054199%)" stop-opacity="1"/>
<stop offset="0.15625" stop-color="rgb(95.770264%, 66.113281%, 43.222046%)" stop-opacity="1"/>
<stop offset="0.160156" stop-color="rgb(95.783997%, 66.288757%, 43.35022%)" stop-opacity="1"/>
<stop offset="0.164062" stop-color="rgb(95.796204%, 66.462708%, 43.453979%)" stop-opacity="1"/>
<stop offset="0.167969" stop-color="rgb(95.809937%, 66.638184%, 43.560791%)" stop-opacity="1"/>
<stop offset="0.171875" stop-color="rgb(95.820618%, 66.799927%, 43.673706%)" stop-opacity="1"/>
<stop offset="0.175781" stop-color="rgb(95.829773%, 66.917419%, 43.821716%)" stop-opacity="1"/>
<stop offset="0.179688" stop-color="rgb(95.835876%, 67.004395%, 43.989563%)" stop-opacity="1"/>
<stop offset="0.183594" stop-color="rgb(95.84198%, 67.092896%, 44.158936%)" stop-opacity="1"/>
<stop offset="0.1875" stop-color="rgb(95.854187%, 67.268372%, 44.410706%)" stop-opacity="1"/>
<stop offset="0.199219" stop-color="rgb(95.874023%, 67.530823%, 44.717407%)" stop-opacity="1"/>
<stop offset="0.210938" stop-color="rgb(95.892334%, 67.793274%, 44.998169%)" stop-opacity="1"/>
<stop offset="0.222656" stop-color="rgb(95.906067%, 67.970276%, 45.227051%)" stop-opacity="1"/>
<stop offset="0.226562" stop-color="rgb(95.91217%, 68.057251%, 45.397949%)" stop-opacity="1"/>
<stop offset="0.230469" stop-color="rgb(95.918274%, 68.147278%, 45.570374%)" stop-opacity="1"/>
<stop offset="0.234375" stop-color="rgb(95.930481%, 68.322754%, 45.832825%)" stop-opacity="1"/>
<stop offset="0.246094" stop-color="rgb(95.948792%, 68.586731%, 46.150208%)" stop-opacity="1"/>
<stop offset="0.257812" stop-color="rgb(95.965576%, 68.807983%, 46.385193%)" stop-opacity="1"/>
<stop offset="0.265625" stop-color="rgb(95.977783%, 68.983459%, 46.572876%)" stop-opacity="1"/>
<stop offset="0.273438" stop-color="rgb(95.991516%, 69.160461%, 46.763611%)" stop-opacity="1"/>
<stop offset="0.28125" stop-color="rgb(96.006775%, 69.37561%, 46.958923%)" stop-opacity="1"/>
<stop offset="0.289062" stop-color="rgb(96.028137%, 69.67926%, 47.172546%)" stop-opacity="1"/>
<stop offset="0.296875" stop-color="rgb(96.051025%, 69.995117%, 47.387695%)" stop-opacity="1"/>
<stop offset="0.304688" stop-color="rgb(96.06781%, 70.227051%, 47.589111%)" stop-opacity="1"/>
<stop offset="0.3125" stop-color="rgb(96.081543%, 70.404053%, 47.779846%)" stop-opacity="1"/>
<stop offset="0.320312" stop-color="rgb(96.09375%, 70.581055%, 47.973633%)" stop-opacity="1"/>
<stop offset="0.328125" stop-color="rgb(96.109009%, 70.788574%, 48.170471%)" stop-opacity="1"/>
<stop offset="0.335938" stop-color="rgb(96.130371%, 71.084595%, 48.387146%)" stop-opacity="1"/>
<stop offset="0.34375" stop-color="rgb(96.153259%, 71.412659%, 48.632812%)" stop-opacity="1"/>
<stop offset="0.351562" stop-color="rgb(96.17157%, 71.653748%, 48.942566%)" stop-opacity="1"/>
<stop offset="0.359375" stop-color="rgb(96.183777%, 71.832275%, 49.276733%)" stop-opacity="1"/>
<stop offset="0.367188" stop-color="rgb(96.195984%, 72.010803%, 49.531555%)" stop-opacity="1"/>
<stop offset="0.375" stop-color="rgb(96.232605%, 72.215271%, 49.746704%)" stop-opacity="1"/>
<stop offset="0.382812" stop-color="rgb(96.363831%, 72.52655%, 50.054932%)" stop-opacity="1"/>
<stop offset="0.390625" stop-color="rgb(96.549988%, 72.917175%, 50.418091%)" stop-opacity="1"/>
<stop offset="0.398438" stop-color="rgb(96.647644%, 73.28949%, 50.709534%)" stop-opacity="1"/>
<stop offset="0.40625" stop-color="rgb(96.673584%, 73.631287%, 50.941467%)" stop-opacity="1"/>
<stop offset="0.414062" stop-color="rgb(96.691895%, 73.884583%, 51.156616%)" stop-opacity="1"/>
<stop offset="0.421875" stop-color="rgb(96.705627%, 74.076843%, 51.358032%)" stop-opacity="1"/>
<stop offset="0.429688" stop-color="rgb(96.725464%, 74.359131%, 51.580811%)" stop-opacity="1"/>
<stop offset="0.4375" stop-color="rgb(96.751404%, 74.708557%, 51.826477%)" stop-opacity="1"/>
<stop offset="0.445312" stop-color="rgb(96.769714%, 74.969482%, 52.13623%)" stop-opacity="1"/>
<stop offset="0.453125" stop-color="rgb(96.783447%, 75.151062%, 52.496338%)" stop-opacity="1"/>
<stop offset="0.460938" stop-color="rgb(96.795654%, 75.334167%, 52.775574%)" stop-opacity="1"/>
<stop offset="0.46875" stop-color="rgb(96.815491%, 75.515747%, 52.981567%)" stop-opacity="1"/>
<stop offset="0.476562" stop-color="rgb(96.922302%, 75.718689%, 53.265381%)" stop-opacity="1"/>
<stop offset="0.484375" stop-color="rgb(97.114563%, 75.941467%, 53.617859%)" stop-opacity="1"/>
<stop offset="0.492188" stop-color="rgb(97.2229%, 76.234436%, 53.999329%)" stop-opacity="1"/>
<stop offset="0.507812" stop-color="rgb(97.239685%, 76.461792%, 54.298401%)" stop-opacity="1"/>
<stop offset="0.511719" stop-color="rgb(97.245789%, 76.556396%, 54.483032%)" stop-opacity="1"/>
<stop offset="0.515625" stop-color="rgb(97.251892%, 76.647949%, 54.670715%)" stop-opacity="1"/>
<stop offset="0.519531" stop-color="rgb(97.259521%, 76.739502%, 54.856873%)" stop-opacity="1"/>
<stop offset="0.523438" stop-color="rgb(97.271729%, 76.922607%, 55.110168%)" stop-opacity="1"/>
<stop offset="0.535156" stop-color="rgb(97.291565%, 77.197266%, 55.426025%)" stop-opacity="1"/>
<stop offset="0.546875" stop-color="rgb(97.314453%, 77.507019%, 55.749512%)" stop-opacity="1"/>
<stop offset="0.558594" stop-color="rgb(97.33429%, 77.767944%, 55.976868%)" stop-opacity="1"/>
<stop offset="0.5625" stop-color="rgb(97.348022%, 77.95105%, 56.103516%)" stop-opacity="1"/>
<stop offset="0.566406" stop-color="rgb(97.360229%, 78.131104%, 56.230164%)" stop-opacity="1"/>
<stop offset="0.570312" stop-color="rgb(97.37854%, 78.372192%, 56.452942%)" stop-opacity="1"/>
<stop offset="0.582031" stop-color="rgb(97.399902%, 78.660583%, 56.773376%)" stop-opacity="1"/>
<stop offset="0.59375" stop-color="rgb(97.419739%, 78.935242%, 57.092285%)" stop-opacity="1"/>
<stop offset="0.605469" stop-color="rgb(97.439575%, 79.2099%, 57.409668%)" stop-opacity="1"/>
<stop offset="0.617188" stop-color="rgb(97.454834%, 79.418945%, 57.63092%)" stop-opacity="1"/>
<stop offset="0.621094" stop-color="rgb(97.465515%, 79.579163%, 57.752991%)" stop-opacity="1"/>
<stop offset="0.625" stop-color="rgb(97.479248%, 79.762268%, 57.88269%)" stop-opacity="1"/>
<stop offset="0.628906" stop-color="rgb(97.497559%, 80.014038%, 58.070374%)" stop-opacity="1"/>
<stop offset="0.636719" stop-color="rgb(97.517395%, 80.267334%, 58.303833%)" stop-opacity="1"/>
<stop offset="0.644531" stop-color="rgb(97.529602%, 80.450439%, 58.517456%)" stop-opacity="1"/>
<stop offset="0.652344" stop-color="rgb(97.543335%, 80.636597%, 58.735657%)" stop-opacity="1"/>
<stop offset="0.660156" stop-color="rgb(97.557068%, 80.819702%, 58.950806%)" stop-opacity="1"/>
<stop offset="0.667969" stop-color="rgb(97.569275%, 81.005859%, 59.16748%)" stop-opacity="1"/>
<stop offset="0.675781" stop-color="rgb(97.583008%, 81.190491%, 59.384155%)" stop-opacity="1"/>
<stop offset="0.683594" stop-color="rgb(97.596741%, 81.375122%, 59.602356%)" stop-opacity="1"/>
<stop offset="0.691406" stop-color="rgb(97.616577%, 81.654358%, 59.93042%)" stop-opacity="1"/>
<stop offset="0.707031" stop-color="rgb(97.637939%, 81.938171%, 60.266113%)" stop-opacity="1"/>
<stop offset="0.714844" stop-color="rgb(97.657776%, 82.221985%, 60.603333%)" stop-opacity="1"/>
<stop offset="0.722656" stop-color="rgb(97.683716%, 82.589722%, 61.038208%)" stop-opacity="1"/>
<stop offset="0.730469" stop-color="rgb(97.711182%, 82.958984%, 61.476135%)" stop-opacity="1"/>
<stop offset="0.746094" stop-color="rgb(97.737122%, 83.331299%, 61.920166%)" stop-opacity="1"/>
<stop offset="0.761719" stop-color="rgb(97.761536%, 83.656311%, 62.310791%)" stop-opacity="1"/>
<stop offset="0.773438" stop-color="rgb(97.773743%, 83.843994%, 62.535095%)" stop-opacity="1"/>
<stop offset="0.777344" stop-color="rgb(97.784424%, 83.976746%, 62.657166%)" stop-opacity="1"/>
<stop offset="0.78125" stop-color="rgb(97.796631%, 84.156799%, 62.791443%)" stop-opacity="1"/>
<stop offset="0.785156" stop-color="rgb(97.810364%, 84.341431%, 62.928772%)" stop-opacity="1"/>
<stop offset="0.789062" stop-color="rgb(97.824097%, 84.524536%, 63.066101%)" stop-opacity="1"/>
<stop offset="0.792969" stop-color="rgb(97.840881%, 84.765625%, 63.304138%)" stop-opacity="1"/>
<stop offset="0.804688" stop-color="rgb(97.944641%, 85.075378%, 63.639832%)" stop-opacity="1"/>
<stop offset="0.816406" stop-color="rgb(98.136902%, 85.354614%, 63.912964%)" stop-opacity="1"/>
<stop offset="0.824219" stop-color="rgb(98.257446%, 85.571289%, 64.134216%)" stop-opacity="1"/>
<stop offset="0.832031" stop-color="rgb(98.284912%, 85.762024%, 64.360046%)" stop-opacity="1"/>
<stop offset="0.839844" stop-color="rgb(98.298645%, 85.951233%, 64.588928%)" stop-opacity="1"/>
<stop offset="0.847656" stop-color="rgb(98.318481%, 86.233521%, 64.932251%)" stop-opacity="1"/>
<stop offset="0.863281" stop-color="rgb(98.339844%, 86.514282%, 65.274048%)" stop-opacity="1"/>
<stop offset="0.871094" stop-color="rgb(98.358154%, 86.772156%, 65.524292%)" stop-opacity="1"/>
<stop offset="0.878906" stop-color="rgb(98.376465%, 87.030029%, 65.730286%)" stop-opacity="1"/>
<stop offset="0.882812" stop-color="rgb(98.390198%, 87.214661%, 65.870667%)" stop-opacity="1"/>
<stop offset="0.886719" stop-color="rgb(98.410034%, 87.47406%, 66.120911%)" stop-opacity="1"/>
<stop offset="0.898438" stop-color="rgb(98.425293%, 87.689209%, 66.360474%)" stop-opacity="1"/>
<stop offset="0.902344" stop-color="rgb(98.431396%, 87.783813%, 66.493225%)" stop-opacity="1"/>
<stop offset="0.90625" stop-color="rgb(98.439026%, 87.879944%, 66.671753%)" stop-opacity="1"/>
<stop offset="0.910156" stop-color="rgb(98.448181%, 88.027954%, 66.981506%)" stop-opacity="1"/>
<stop offset="0.917969" stop-color="rgb(98.461914%, 88.221741%, 67.33551%)" stop-opacity="1"/>
<stop offset="0.925781" stop-color="rgb(98.475647%, 88.412476%, 67.599487%)" stop-opacity="1"/>
<stop offset="0.933594" stop-color="rgb(98.553467%, 88.674927%, 67.848206%)" stop-opacity="1"/>
<stop offset="0.941406" stop-color="rgb(98.678589%, 88.951111%, 68.049622%)" stop-opacity="1"/>
<stop offset="0.945312" stop-color="rgb(98.786926%, 89.163208%, 68.188477%)" stop-opacity="1"/>
<stop offset="0.949219" stop-color="rgb(98.890686%, 89.460754%, 68.443298%)" stop-opacity="1"/>
<stop offset="0.960938" stop-color="rgb(98.948669%, 89.746094%, 68.748474%)" stop-opacity="1"/>
<stop offset="0.96875" stop-color="rgb(98.962402%, 89.936829%, 68.986511%)" stop-opacity="1"/>
<stop offset="0.976562" stop-color="rgb(98.973083%, 90.080261%, 69.163513%)" stop-opacity="1"/>
<stop offset="0.980469" stop-color="rgb(98.986816%, 90.272522%, 69.355774%)" stop-opacity="1"/>
<stop offset="0.988281" stop-color="rgb(99.005127%, 90.510559%, 69.561768%)" stop-opacity="1"/>
<stop offset="0.992188" stop-color="rgb(99.024963%, 90.791321%, 69.78302%)" stop-opacity="1"/>
<stop offset="1" stop-color="rgb(99.038696%, 90.979004%, 69.929504%)" stop-opacity="1"/>
</radialGradient>
</defs>

<path fill-rule="nonzero" fill="rgb(93.830872%, 21.84906%, 14.588928%)" fill-opacity="1" d="M 3445.121094 1601.28125 C 3443.269531 1606.851562 3441.101562 1612.421875 3438.929688 1617.988281 C 3378.300781 1768.941406 3244.050781 1880.921875 3096.808594 1950.210938 C 2949.570312 2019.808594 2788.398438 2052.601562 2629.410156 2088.171875 C 2032.078125 2221.5 1429.808594 2400.601562 819.800781 2349.25 C 789.796875 2346.78125 759.480469 2343.371094 730.09375 2336.878906 C 698.234375 2329.761719 667.609375 2318.941406 640.078125 2301 C 544.804688 2238.511719 536.140625 2110.140625 532.121094 2073.019531 C 518.820312 1946.191406 563.675781 1845.039062 609.765625 1752.238281 C 637.914062 1695.320312 665.753906 1642.730469 692.976562 1593.859375 C 773.710938 1449.089844 847.640625 1339.890625 898.371094 1265.039062 C 915.695312 1239.359375 932.398438 1214.609375 948.484375 1191.101562 C 1200.28125 819.28125 1265.238281 728.03125 1411.558594 640.488281 C 1500.03125 587.589844 1580.148438 559.140625 1626.238281 544.601562 C 1806.578125 487.679688 2002.078125 479.328125 2184.890625 529.128906 C 2237.171875 543.359375 2287.898438 561.609375 2337.699219 582.640625 C 2461.128906 634.921875 2578.679688 703.289062 2698.078125 765.460938 C 2755.308594 795.160156 2814.078125 823.921875 2872.230469 853.308594 C 3047.011719 941.78125 3219 1035.820312 3347.058594 1181.820312 C 3402.429688 1244.929688 3448.828125 1318.550781 3464.300781 1401.140625 C 3476.671875 1468.269531 3468.011719 1537.558594 3445.121094 1601.28125 "/>
<path fill-rule="nonzero" fill="rgb(99.809265%, 97.125244%, 92.210388%)" fill-opacity="1" d="M 3469.871094 1474.761719 C 3469.839844 1474.660156 3469.820312 1474.558594 3469.789062 1474.449219 C 3470.5 1449.980469 3468.769531 1425.421875 3464.300781 1401.140625 C 3461.429688 1385.800781 3457.488281 1370.769531 3452.621094 1356.058594 C 3457.628906 1371.070312 3461.679688 1386.410156 3464.609375 1402.070312 C 3468.941406 1425.890625 3470.488281 1450.328125 3469.871094 1474.761719 "/>
<path fill-rule="nonzero" fill="rgb(95.358276%, 38.919067%, 31.32019%)" fill-opacity="1" d="M 539.234375 2126.839844 C 535.214844 2103.949219 533.667969 2084.769531 532.429688 2073.941406 C 519.128906 1947.121094 563.980469 1845.960938 610.074219 1753.160156 C 638.222656 1696.25 666.0625 1643.660156 693.285156 1594.789062 C 774.019531 1450.019531 847.949219 1340.820312 898.683594 1265.960938 C 916.003906 1240.289062 932.710938 1215.539062 948.792969 1192.03125 C 1200.589844 820.210938 1265.550781 728.960938 1411.871094 641.421875 C 1500.339844 588.519531 1580.449219 560.058594 1626.550781 545.519531 C 1726.71875 513.910156 1831.601562 497.269531 1936.359375 497.269531 C 2020.191406 497.269531 2103.941406 507.921875 2185.199219 530.058594 C 2237.480469 544.289062 2288.210938 562.539062 2338.011719 583.570312 C 2461.441406 635.851562 2578.988281 704.210938 2698.390625 766.390625 C 2755.621094 796.078125 2814.390625 824.851562 2872.539062 854.238281 C 3047.320312 942.710938 3219.308594 1036.75 3347.371094 1182.75 C 3392.238281 1233.890625 3431.21875 1291.929688 3452.621094 1356.058594 C 3457.488281 1370.769531 3461.429688 1385.800781 3464.300781 1401.140625 C 3468.769531 1425.421875 3470.5 1449.980469 3469.789062 1474.449219 C 3451.5 1399.101562 3407.621094 1331.460938 3356.339844 1273.078125 C 3228.28125 1127.070312 3056.289062 1033.039062 2881.511719 944.558594 C 2823.359375 915.179688 2764.898438 886.410156 2707.359375 856.710938 C 2587.960938 794.539062 2470.71875 726.171875 2346.988281 673.898438 C 2297.179688 652.859375 2246.449219 634.609375 2194.171875 620.378906 C 2112.820312 598.359375 2028.890625 587.730469 1944.921875 587.730469 C 1840.199219 587.730469 1735.429688 604.261719 1635.519531 635.851562 C 1589.429688 650.390625 1509.308594 678.851562 1420.839844 731.738281 C 1274.210938 819.28125 1209.558594 910.539062 957.765625 1282.359375 C 941.988281 1305.871094 925.285156 1330.308594 907.652344 1356.289062 C 856.921875 1430.839844 782.992188 1540.339844 702.253906 1685.109375 C 675.035156 1733.988281 647.195312 1786.570312 619.042969 1843.488281 C 577.902344 1927.011719 537.070312 2017.339844 539.234375 2126.839844 "/>
<path fill-rule="nonzero" fill="rgb(82.66449%, 20.869446%, 13.522339%)" fill-opacity="1" d="M 1075.398438 2279.628906 C 1006.160156 2279.628906 936.882812 2276.898438 867.441406 2270.988281 C 839.289062 2268.519531 810.210938 2265.421875 782.371094 2259.238281 C 752.058594 2252.429688 722.980469 2241.910156 697.304688 2224.898438 C 673.484375 2209.121094 655.234375 2188.710938 641.316406 2166.441406 C 722.050781 2050.738281 867.128906 1936.289062 1074.378906 1825.238281 C 1324.941406 1690.679688 1654.390625 1570.039062 2001.460938 1485.28125 C 2338.011719 1403.308594 2664.359375 1359.691406 2944.929688 1359.691406 C 3115.988281 1359.691406 3260.761719 1375.78125 3377.070312 1407.640625 C 3379.230469 1457.128906 3370.570312 1507.238281 3353.871094 1554.570312 C 3352.011719 1559.828125 3350.160156 1565.398438 3347.988281 1570.660156 C 3290.449219 1715.121094 3163.320312 1822.148438 3024.121094 1888.960938 C 2884.609375 1955.46875 2731.800781 1987.019531 2581.460938 2021.050781 C 2083.679688 2133.449219 1582.261719 2279.628906 1075.398438 2279.628906 "/>
<g clip-path="url(#clip-0)">
<g clip-path="url(#clip-1)">
<g clip-path="url(#clip-2)">
<path fill-rule="nonzero" fill="url(#radial-pattern-0)" d="M 730.09375 2400.601562 L 730.09375 1481.570312 L 3445.121094 1481.570312 L 3445.121094 2400.601562 Z M 730.09375 2400.601562 "/>
</g>
</g>
</g>
<path fill-rule="nonzero" fill="rgb(99.34845%, 92.530823%, 81.660461%)" fill-opacity="1" d="M 2872.230469 853.929688 C 2841.609375 879.910156 2808.511719 901.570312 2781.601562 915.800781 C 2765.820312 924.148438 2696.21875 959.71875 2594.449219 960.03125 C 2436.378906 960.648438 2229.128906 876.199219 2220.160156 757.421875 C 2213.660156 671.421875 2312.960938 599.96875 2337.710938 583.261719 C 2461.128906 635.539062 2578.679688 703.898438 2698.078125 766.078125 C 2755.308594 795.78125 2814.078125 824.539062 2872.230469 853.929688 "/>
<g clip-path="url(#clip-3)">
<g clip-path="url(#clip-4)">
<g clip-path="url(#clip-5)">
<path fill-rule="nonzero" fill="url(#radial-pattern-1)" d="M 1574.269531 3505.851562 L 1574.269531 1570.96875 L 3050.410156 1570.96875 L 3050.410156 3505.851562 Z M 1574.269531 3505.851562 "/>
</g>
</g>
</g>
<path fill-rule="nonzero" fill="rgb(96.266174%, 66.47644%, 41.534424%)" fill-opacity="1" d="M 2666.21875 2190.558594 C 2544.339844 2173.238281 2394 2168.289062 2226.339844 2199.53125 C 2050.328125 2232.320312 1911.75 2294.5 1816.480469 2347.398438 C 1782.449219 2062.5 1681.921875 1843.488281 1638.300781 1755.949219 L 2365.539062 1571.589844 C 2409.78125 1682.640625 2481.550781 1850.910156 2586.410156 2047.648438 C 2615.488281 2101.480469 2641.78125 2148.800781 2666.21875 2190.558594 "/>
<path fill-rule="nonzero" fill="rgb(79.507446%, 32.499695%, 19.628906%)" fill-opacity="1" d="M 2042.601562 3185.070312 C 2046 3185.378906 2041.050781 3263.328125 2037.03125 3315.300781 C 2030.851562 3390.46875 2023.109375 3451.71875 2017.230469 3493.789062 C 2009.808594 3493.480469 2002.078125 3492.859375 1994.648438 3492.550781 C 1999.601562 3459.761719 2007.339844 3409.648438 2016.308594 3348.398438 C 2034.558594 3226.519531 2040.128906 3184.761719 2042.601562 3185.070312 "/>
<path fill-rule="nonzero" fill="rgb(79.507446%, 32.499695%, 19.628906%)" fill-opacity="1" d="M 2757.160156 3492.859375 C 2767.679688 3448.628906 2780.359375 3383.050781 2783.148438 3302.929688 C 2789.640625 3128.460938 2746.640625 2999.46875 2751.589844 2998.238281 C 2755.921875 2997.308594 2791.808594 3095.679688 2805.421875 3222.808594 C 2817.171875 3333.550781 2807.578125 3426.660156 2797.070312 3490.078125 C 2783.761719 3491.308594 2770.460938 3491.929688 2757.160156 3492.859375 "/>
<path fill-rule="nonzero" fill="rgb(79.507446%, 32.499695%, 19.628906%)" fill-opacity="1" d="M 2875.640625 3484.820312 C 2885.851562 3432.539062 2896.359375 3356.75 2894.820312 3265.808594 C 2891.71875 3071.550781 2835.421875 2937.609375 2839.75 2936.371094 C 2844.390625 2935.128906 2910.898438 3076.808594 2919.558594 3267.050781 C 2923.578125 3355.828125 2913.988281 3430.070312 2904.101562 3482.339844 C 2894.820312 3483.269531 2885.230469 3484.199219 2875.640625 3484.820312 "/>
<path fill-rule="nonzero" fill="rgb(99.34845%, 92.530823%, 81.660461%)" fill-opacity="1" d="M 1063.558594 1381.039062 C 1056.441406 1432.390625 1030.460938 1465.789062 1009.109375 1492.710938 C 977.5625 1532.300781 904.25 1624.171875 790.722656 1620.148438 C 787.320312 1620.148438 739.375 1617.679688 692.976562 1594.480469 C 773.710938 1449.710938 847.640625 1340.511719 898.371094 1265.648438 C 915.695312 1239.980469 932.398438 1215.230469 948.484375 1191.71875 C 981.585938 1201 1011.28125 1218.640625 1032.308594 1245.859375 C 1073.769531 1299.371094 1065.410156 1368.96875 1063.558594 1381.039062 "/>
<path fill-rule="nonzero" fill="rgb(32.461548%, 11.222839%, 9.95636%)" fill-opacity="1" d="M 3438.941406 1617.988281 L 3438.96875 1617.988281 Z M 1935.941406 526.148438 C 1836.148438 526.148438 1734.921875 541.871094 1635.578125 573.21875 C 1561.550781 596.570312 1491.460938 627.871094 1427.269531 666.25 C 1286.710938 750.351562 1222.589844 840.328125 973.648438 1207.941406 C 957.007812 1232.261719 939.238281 1258.589844 923.566406 1281.820312 C 874.3125 1354.5 799.929688 1464.261719 719.5 1608.480469 C 690.828125 1659.960938 663.0625 1712.808594 636.980469 1765.539062 C 590.578125 1858.960938 549.972656 1952.5 562.285156 2069.878906 C 562.472656 2071.660156 562.679688 2073.710938 562.902344 2075.949219 C 566.0625 2107.488281 573.457031 2181.339844 615.148438 2236.5 C 626.859375 2252.109375 640.765625 2265.230469 656.546875 2275.589844 C 678.195312 2289.699219 704.417969 2300.078125 736.640625 2307.269531 C 766.613281 2313.898438 798.152344 2317.039062 822.269531 2319.03125 C 1101.300781 2342.488281 1395.148438 2320.980469 1771.671875 2249.261719 C 1741.898438 2085.859375 1686.851562 1920.421875 1611.71875 1768.980469 C 1607.878906 1761.238281 1607.558594 1752.21875 1610.851562 1744.230469 C 1614.128906 1736.238281 1620.699219 1730.050781 1628.871094 1727.25 C 1756.539062 1683.429688 1892.101562 1643.929688 2031.769531 1609.859375 C 2142.460938 1582.878906 2253.171875 1559.941406 2360.828125 1541.679688 C 2374.789062 1539.328125 2388.5 1547.019531 2393.738281 1560.171875 C 2457.871094 1721.171875 2531.710938 1880.328125 2613.210938 2033.21875 C 2616.761719 2039.789062 2620.320312 2046.441406 2623.828125 2052.988281 C 2624.738281 2054.679688 2625.640625 2056.371094 2626.539062 2058.050781 C 2637.359375 2055.640625 2648.191406 2053.230469 2659.019531 2050.828125 C 2802.53125 2018.941406 2950.921875 1985.96875 3083.980469 1923.070312 C 3243.019531 1848.230469 3359.128906 1735.988281 3411.011719 1606.96875 C 3412.988281 1601.890625 3415.019531 1596.648438 3416.648438 1591.78125 C 3416.710938 1591.578125 3416.78125 1591.378906 3416.851562 1591.191406 C 3434.800781 1540.941406 3442.558594 1488.539062 3439.300781 1439.640625 C 3438.449219 1428.578125 3437.011719 1417.308594 3435.070312 1406.449219 C 3422.570312 1339.730469 3385.460938 1270.75 3324.808594 1201.621094 C 3199.910156 1059.21875 3033.199219 968.28125 2858.988281 880.089844 C 2838.511719 869.75 2817.949219 859.46875 2797.390625 849.199219 C 2760.21875 830.628906 2721.789062 811.421875 2684.558594 792.109375 C 2651.898438 775.089844 2618.941406 757.390625 2587.070312 740.269531 C 2502.429688 694.820312 2414.898438 647.808594 2326.308594 610.289062 C 2274.148438 588.261719 2225.410156 571.179688 2177.320312 558.089844 C 2099.078125 536.78125 2018 526.148438 1935.941406 526.148438 Z M 1041.609375 2388.171875 C 965.089844 2388.171875 890.722656 2385.03125 817.285156 2378.859375 C 791.328125 2376.710938 757.175781 2373.300781 723.617188 2365.878906 C 684.203125 2357.078125 651.535156 2343.980469 623.691406 2325.828125 C 601.996094 2311.601562 583.015625 2293.710938 567.191406 2272.609375 C 515.402344 2204.089844 506.828125 2118.488281 503.167969 2081.929688 C 502.957031 2079.828125 502.765625 2077.910156 502.582031 2076.191406 C 488.59375 1942.851562 534.734375 1836.441406 583.191406 1738.878906 C 609.679688 1685.320312 637.90625 1631.601562 667.0625 1579.25 C 748.769531 1432.738281 824.03125 1321.691406 873.832031 1248.199219 C 889.523438 1224.941406 907.347656 1198.519531 924.023438 1174.148438 C 1178.921875 797.75 1244.878906 705.421875 1396.449219 614.730469 C 1464.660156 573.949219 1539.03125 540.71875 1617.519531 515.96875 C 1809.539062 455.359375 2008.570312 449.898438 2193.089844 500.171875 C 2243.789062 513.96875 2295.019531 531.898438 2349.691406 554.988281 C 2440.871094 593.609375 2529.628906 641.28125 2615.46875 687.390625 C 2647.179688 704.410156 2679.96875 722.019531 2712.25 738.839844 C 2749.03125 757.921875 2787.261719 777.019531 2824.230469 795.5 C 2844.859375 805.808594 2865.511719 816.121094 2886.078125 826.519531 C 3058.609375 913.859375 3238.070312 1011.691406 3369.941406 1162.03125 C 3437.789062 1239.359375 3479.570312 1317.949219 3494.109375 1395.621094 C 3496.460938 1408.679688 3498.148438 1421.96875 3499.179688 1435.339844 C 3503 1492.589844 3494.109375 1553.238281 3473.5 1611.078125 C 3471.421875 1617.28125 3469.128906 1623.171875 3466.910156 1628.871094 C 3466.871094 1628.96875 3466.828125 1629.070312 3466.789062 1629.171875 C 3409.269531 1772.378906 3282.410156 1896.039062 3109.589844 1977.371094 C 2970.5 2043.121094 2818.769531 2076.828125 2672.039062 2109.429688 C 2660.011719 2112.101562 2647.980469 2114.78125 2635.960938 2117.46875 C 2635.738281 2117.511719 2635.519531 2117.558594 2635.300781 2117.601562 C 2632.441406 2118.179688 2629.578125 2118.828125 2626.71875 2119.46875 C 2623.390625 2120.21875 2620.070312 2120.960938 2616.738281 2121.628906 C 2603.839844 2124.21875 2590.761719 2118.089844 2584.46875 2106.53125 C 2580.050781 2098.398438 2575.53125 2089.960938 2570.910156 2081.351562 C 2567.441406 2074.859375 2563.898438 2068.261719 2560.308594 2061.601562 C 2481.511719 1913.78125 2409.851562 1760.328125 2347.039062 1604.980469 C 2248.289062 1622.300781 2147.140625 1643.53125 2046 1668.179688 C 1919.761719 1698.980469 1796.949219 1734.25 1680.449219 1773.160156 C 1754.828125 1930.371094 1808.398438 2100.828125 1835.890625 2268.289062 C 1838.519531 2284.308594 1827.941406 2299.511719 1812.019531 2302.621094 C 1515.578125 2360.441406 1269.160156 2388.160156 1041.609375 2388.171875 "/>
<path fill-rule="nonzero" fill="rgb(79.507446%, 32.499695%, 19.628906%)" fill-opacity="1" d="M 1785.539062 1707.378906 C 1842.460938 1850.300781 1890.101562 1996.921875 1927.53125 2145.710938 C 1928.460938 2149.109375 1926.289062 2152.820312 1922.890625 2153.441406 C 1919.488281 2154.371094 1916.078125 2152.210938 1915.148438 2148.800781 C 1874.011719 2001.25 1823.28125 1856.789062 1763.269531 1716.351562 C 1757.699219 1701.820312 1779.050781 1692.539062 1785.539062 1707.378906 "/>
<path fill-rule="nonzero" fill="rgb(32.461548%, 11.222839%, 9.95636%)" fill-opacity="1" d="M 771.574219 2313.839844 C 789.898438 2316.46875 807.480469 2318.121094 822.269531 2319.339844 C 1101.300781 2342.800781 1395.148438 2321.289062 1771.671875 2249.570312 C 1743.449219 2094.671875 1692.511719 1937.929688 1623.28125 1793.03125 C 1391.589844 1874.128906 1188.71875 1968.328125 1035.308594 2066.160156 C 901.023438 2151.78125 809.078125 2238.410156 771.574219 2313.839844 Z M 1041.609375 2388.46875 C 965.089844 2388.46875 890.722656 2385.339844 817.285156 2379.160156 C 791.347656 2377.03125 757.214844 2373.609375 723.617188 2366.191406 C 715.460938 2364.390625 708.429688 2359.269531 704.203125 2352.058594 C 699.976562 2344.859375 698.945312 2336.21875 701.351562 2328.230469 C 759.863281 2133.828125 1115.269531 1903.671875 1628.871094 1727.558594 C 1643.121094 1722.671875 1658.800781 1729.109375 1665.5 1742.609375 C 1747.671875 1908.230469 1806.589844 2090.109375 1835.890625 2268.601562 C 1838.519531 2284.609375 1827.941406 2299.820312 1812.019531 2302.929688 C 1515.578125 2360.75 1269.160156 2388.46875 1041.609375 2388.46875 "/>
<path fill-rule="nonzero" fill="rgb(32.461548%, 11.222839%, 9.95636%)" fill-opacity="1" d="M 2407.710938 1594.828125 C 2468.519531 1744 2537.570312 1891.320312 2613.210938 2033.21875 C 2616.761719 2039.789062 2620.320312 2046.441406 2623.828125 2052.988281 C 2624.738281 2054.679688 2625.640625 2056.371094 2626.539062 2058.050781 C 2637.359375 2055.640625 2648.191406 2053.230469 2659.019531 2050.828125 C 2802.53125 2018.941406 2950.921875 1985.96875 3083.980469 1923.070312 C 3239.011719 1850.121094 3353.261719 1741.609375 3406.980469 1616.671875 C 3214.28125 1534.46875 2838.378906 1526.089844 2407.710938 1594.828125 Z M 2610.839844 2122.210938 C 2600 2122.210938 2589.800781 2116.320312 2584.46875 2106.53125 C 2580.050781 2098.398438 2575.53125 2089.960938 2570.910156 2081.351562 C 2567.441406 2074.859375 2563.898438 2068.261719 2560.308594 2061.601562 C 2477.699219 1906.621094 2402.921875 1745.441406 2337.96875 1582.378906 C 2334.609375 1573.960938 2335.25 1564.46875 2339.691406 1556.558594 C 2344.140625 1548.660156 2351.921875 1543.191406 2360.859375 1541.679688 C 2845.390625 1459.980469 3255.78125 1472.238281 3458.628906 1574.480469 C 3471.941406 1581.179688 3478.308594 1596.648438 3473.601562 1610.78125 C 3471.488281 1617.089844 3469.160156 1623.078125 3466.910156 1628.871094 C 3466.871094 1628.96875 3466.828125 1629.070312 3466.789062 1629.171875 C 3409.269531 1772.378906 3282.410156 1896.039062 3109.589844 1977.371094 C 2970.5 2043.121094 2818.769531 2076.828125 2672.039062 2109.429688 C 2660.011719 2112.101562 2647.980469 2114.78125 2635.960938 2117.46875 C 2635.738281 2117.511719 2635.519531 2117.558594 2635.300781 2117.601562 C 2632.441406 2118.179688 2629.578125 2118.828125 2626.71875 2119.46875 C 2623.390625 2120.21875 2620.070312 2120.960938 2616.738281 2121.628906 C 2614.769531 2122.019531 2612.789062 2122.210938 2610.839844 2122.210938 "/>
<path fill-rule="nonzero" fill="rgb(99.34845%, 92.530823%, 81.660461%)" fill-opacity="1" d="M 1476.828125 876.820312 C 1458.890625 890.121094 1411.25 925.699219 1393.621094 991.269531 C 1388.980469 1008.910156 1370.421875 1077.269531 1409.078125 1128.929688 C 1449.300781 1182.441406 1524.160156 1181.519531 1562.511719 1180.898438 C 1584.171875 1180.589844 1734.5 1175.949219 1788.640625 1063.96875 C 1791.730469 1057.46875 1832.871094 969 1786.160156 900.328125 C 1755.851562 856.101562 1706.351562 844.960938 1674.488281 837.839844 C 1659.03125 834.441406 1562.511719 814.339844 1476.828125 876.820312 "/>
<path fill-rule="nonzero" fill="rgb(99.34845%, 92.530823%, 81.660461%)" fill-opacity="1" d="M 2004.550781 895.070312 C 2002.078125 897.238281 1977.328125 917.339844 1981.039062 944.558594 C 1985.058594 973.328125 2018.46875 989.421875 2043.53125 991.269531 C 2065.488281 993.128906 2100.449219 985.398438 2110.960938 957.558594 C 2119.011719 936.519531 2110.03125 913.628906 2097.96875 900.328125 C 2074.769531 874.351562 2030.539062 874.351562 2004.550781 895.070312 "/>
<path fill-rule="nonzero" fill="rgb(99.34845%, 92.530823%, 81.660461%)" fill-opacity="1" d="M 2430.808594 1139.449219 C 2424.941406 1144.699219 2385.339844 1180.898438 2394.308594 1214.921875 C 2397.101562 1225.75 2407 1244 2505.980469 1272.148438 C 2608.988281 1301.230469 2662.199219 1316.390625 2687.871094 1287.621094 C 2710.761719 1262.25 2698.078125 1217.710938 2695.601562 1209.660156 C 2677.660156 1147.488281 2609.921875 1124.910156 2591.671875 1118.71875 C 2582.078125 1115.320312 2490.828125 1086.238281 2430.808594 1139.449219 "/>
<path fill-rule="nonzero" fill="rgb(99.34845%, 92.530823%, 81.660461%)" fill-opacity="1" d="M 1289.679688 1440.738281 C 1261.21875 1467.339844 1254.421875 1511.269531 1274.210938 1544.671875 C 1293.699219 1577.460938 1332.058594 1588.289062 1362.679688 1583.648438 C 1392.070312 1579.320312 1426.71875 1558.898438 1435.378906 1521.160156 C 1444.039062 1484.351562 1422.691406 1449.710938 1396.398438 1432.691406 C 1365.46875 1413.210938 1320.300781 1412.28125 1289.679688 1440.738281 "/>
<path fill-rule="nonzero" fill="rgb(68.305969%, 16.229248%, 13.209534%)" fill-opacity="1" d="M 772.78125 1856.171875 C 783.917969 1904.429688 799.695312 1950.828125 817.019531 1997.230469 C 820.109375 2006.511719 807.738281 2013.011719 801.859375 2005.269531 C 786.394531 1984.238281 775.875 1960.109375 768.144531 1935.050781 C 760.410156 1910.308594 755.769531 1884.320312 755.769531 1858.339844 C 755.769531 1853.699219 759.789062 1849.679688 764.429688 1849.679688 C 768.453125 1849.679688 771.855469 1852.460938 772.78125 1856.171875 "/>
<path fill-rule="nonzero" fill="rgb(68.305969%, 16.229248%, 13.209534%)" fill-opacity="1" d="M 846.714844 1860.191406 C 855.066406 1870.398438 859.398438 1881.851562 864.65625 1893.910156 C 866.203125 1897.929688 867.75 1902.261719 868.984375 1906.898438 C 870.222656 1911.851562 867.128906 1916.800781 862.179688 1918.039062 C 851.972656 1920.210938 839.910156 1901.949219 835.886719 1893.910156 C 830.9375 1884.628906 822.585938 1855.859375 840.835938 1856.789062 C 843.3125 1857.101562 845.476562 1858.339844 846.714844 1860.191406 "/>
<path fill-rule="nonzero" fill="rgb(68.305969%, 16.229248%, 13.209534%)" fill-opacity="1" d="M 726.691406 1961.660156 C 738.136719 2008.058594 759.789062 2051.671875 791.34375 2087.558594 C 801.550781 2099.621094 812.996094 2110.761719 824.75 2122.199219 C 830.011719 2127.148438 823.824219 2135.808594 817.328125 2132.71875 C 770.925781 2109.210938 737.828125 2063.429688 722.671875 2014.238281 C 717.722656 1997.851562 714.628906 1980.839844 714.011719 1963.511719 C 714.011719 1959.800781 716.792969 1957.019531 720.195312 1956.710938 C 723.289062 1956.398438 726.074219 1958.558594 726.691406 1961.660156 "/>
<path fill-rule="nonzero" fill="rgb(68.305969%, 16.229248%, 13.209534%)" fill-opacity="1" d="M 735.355469 2127.148438 C 749.273438 2145.398438 768.761719 2158.699219 789.796875 2165.511719 C 800.933594 2169.53125 794.746094 2185.921875 783.609375 2181.589844 C 760.101562 2171.390625 739.992188 2154.058594 726.691406 2133.03125 C 723.597656 2127.460938 731.332031 2122.199219 735.355469 2127.148438 "/>
<path fill-rule="nonzero" fill="rgb(68.305969%, 16.229248%, 13.209534%)" fill-opacity="1" d="M 3324.480469 1334.640625 C 3334.691406 1350.410156 3341.488281 1368.351562 3344.28125 1387.21875 C 3347.371094 1406.398438 3345.828125 1426.199219 3340.570312 1444.761719 C 3338.710938 1451.558594 3331.601562 1455.890625 3324.480469 1453.730469 C 3317.058594 1451.558594 3313.039062 1443.210938 3316.128906 1436.101562 C 3326.03125 1413.519531 3328.191406 1387.839844 3322.621094 1364.019531 C 3320.769531 1355.671875 3317.980469 1347.628906 3314.269531 1339.890625 C 3311.800781 1333.710938 3320.769531 1328.761719 3324.480469 1334.640625 "/>
<path fill-rule="nonzero" fill="rgb(68.305969%, 16.229248%, 13.209534%)" fill-opacity="1" d="M 3231.988281 1285.449219 C 3248.691406 1300.921875 3257.359375 1323.191406 3259.828125 1345.148438 C 3260.449219 1352.578125 3260.449219 1360 3258.898438 1367.429688 C 3258.28125 1371.140625 3254.570312 1373.300781 3251.171875 1372.679688 C 3248.691406 1372.070312 3247.148438 1370.519531 3246.21875 1368.351562 C 3243.75 1361.859375 3241.890625 1355.359375 3239.71875 1349.171875 L 3233.539062 1330.308594 C 3229.820312 1318.859375 3224.261719 1304.011719 3221.160156 1292.261719 C 3219.308594 1286.070312 3227.039062 1281.121094 3231.988281 1285.449219 "/>
<path fill-rule="nonzero" fill="rgb(68.305969%, 16.229248%, 13.209534%)" fill-opacity="1" d="M 3183.730469 1389.570312 C 3176.828125 1389.570312 3171.128906 1384.109375 3170.878906 1377.160156 C 3170.21875 1358.808594 3166.171875 1330.511719 3150.621094 1299.949219 C 3139.171875 1277.699219 3123.179688 1257.921875 3103.109375 1241.199219 C 3097.660156 1236.648438 3096.921875 1228.539062 3101.46875 1223.078125 C 3106.011719 1217.628906 3114.128906 1216.878906 3119.578125 1221.441406 C 3142.308594 1240.378906 3160.460938 1262.851562 3173.519531 1288.230469 C 3191.238281 1323.03125 3195.839844 1355.300781 3196.589844 1376.25 C 3196.839844 1383.351562 3191.289062 1389.308594 3184.191406 1389.558594 C 3184.039062 1389.570312 3183.878906 1389.570312 3183.730469 1389.570312 "/>
<path fill-rule="nonzero" fill="rgb(68.305969%, 16.229248%, 13.209534%)" fill-opacity="1" d="M 3079.179688 1295.660156 C 3093.71875 1313.289062 3102.691406 1336.488281 3103.621094 1360.929688 C 3103.308594 1380.421875 3074.539062 1377.628906 3077.941406 1358.449219 C 3082.269531 1339.890625 3080.421875 1319.171875 3071.761719 1300.300781 C 3069.589844 1295.96875 3076.089844 1291.949219 3079.179688 1295.660156 "/>
<path fill-rule="nonzero" fill="rgb(93.830872%, 21.84906%, 14.588928%)" fill-opacity="1" d="M 1260.910156 2294.191406 C 1287.210938 2199.53125 1338.558594 2112.300781 1408.160156 2043.628906 C 1410.320312 2041.769531 1413.410156 2041.769531 1415.269531 2043.628906 C 1417.128906 2045.488281 1417.128906 2048.890625 1415.269531 2050.738281 C 1382.480469 2085.699219 1354.328125 2124.679688 1331.441406 2166.441406 C 1308.859375 2208.199219 1291.539062 2253.050781 1280.398438 2299.140625 C 1277 2312.75 1257.511719 2307.800781 1260.910156 2294.191406 "/>
<path fill-rule="nonzero" fill="rgb(93.830872%, 21.84906%, 14.588928%)" fill-opacity="1" d="M 1004.46875 2311.46875 C 1003.671875 2311.46875 1002.851562 2311.25 1002.128906 2310.769531 C 1000.148438 2309.480469 999.589844 2306.820312 1000.878906 2304.839844 C 1023.75 2269.851562 1049.679688 2235.761719 1077.96875 2203.511719 C 1116.871094 2159.359375 1159.441406 2119.621094 1204.488281 2085.378906 C 1206.378906 2083.949219 1209.070312 2084.308594 1210.5 2086.199219 C 1211.941406 2088.078125 1211.570312 2090.769531 1209.679688 2092.210938 C 1165.078125 2126.101562 1122.929688 2165.460938 1084.410156 2209.179688 C 1056.390625 2241.109375 1030.710938 2274.878906 1008.070312 2309.53125 C 1007.238281 2310.789062 1005.871094 2311.46875 1004.46875 2311.46875 "/>
<path fill-rule="nonzero" fill="rgb(93.830872%, 21.84906%, 14.588928%)" fill-opacity="1" d="M 791.960938 2291.101562 C 847.640625 2229.230469 914.457031 2177.570312 987.769531 2138.601562 C 989.9375 2137.359375 992.410156 2138.289062 993.648438 2140.449219 C 994.886719 2142.621094 993.957031 2145.089844 992.101562 2146.328125 C 920.644531 2186.539062 856.613281 2239.128906 803.40625 2301 C 796.601562 2308.109375 785.464844 2298.519531 791.960938 2291.101562 "/>
<path fill-rule="nonzero" fill="rgb(93.830872%, 21.84906%, 14.588928%)" fill-opacity="1" d="M 1213.28125 2029.089844 C 1217.921875 2018.878906 1226.269531 2012.078125 1235.859375 2006.820312 C 1238.328125 2005.578125 1250.398438 1999.089844 1249.160156 2006.199219 C 1244.519531 2016.410156 1236.480469 2023.828125 1226.578125 2029.089844 C 1223.789062 2030.019531 1211.730469 2036.210938 1213.28125 2029.089844 "/>
<path fill-rule="nonzero" fill="rgb(93.830872%, 21.84906%, 14.588928%)" fill-opacity="1" d="M 1443.730469 1974.960938 C 1447.128906 1959.800781 1457.648438 1946.191406 1471.570312 1939.691406 C 1476.519531 1937.839844 1482.089844 1940 1484.25 1944.949219 C 1487.351562 1952.691406 1479.921875 1957.941406 1474.660156 1961.660156 C 1466 1967.839844 1457.03125 1973.101562 1447.128906 1977.429688 C 1445.28125 1978.359375 1443.109375 1976.808594 1443.730469 1974.960938 "/>
<path fill-rule="nonzero" fill="rgb(93.830872%, 21.84906%, 14.588928%)" fill-opacity="1" d="M 1472.808594 2097.140625 C 1472.5 2088.171875 1479.300781 2080.75 1488.578125 2081.679688 C 1490.128906 2081.988281 1491.371094 2083.21875 1491.679688 2084.769531 C 1492.289062 2091.578125 1488.578125 2096.53125 1482.710938 2099 C 1480.230469 2100.238281 1473.121094 2101.78125 1472.808594 2097.140625 "/>
<path fill-rule="nonzero" fill="rgb(93.830872%, 21.84906%, 14.588928%)" fill-opacity="1" d="M 2655.390625 1761.519531 C 2668.691406 1766.160156 2681.679688 1771.71875 2693.75 1778.53125 C 2697.148438 1780.390625 2698.078125 1784.71875 2696.21875 1787.808594 C 2694.679688 1790.589844 2691.578125 1791.828125 2688.800781 1791.210938 C 2676.121094 1788.429688 2663.429688 1787.191406 2650.75 1786.878906 C 2643.328125 1786.878906 2637.140625 1780.390625 2637.761719 1772.960938 C 2638.070312 1764.300781 2647.351562 1758.421875 2655.390625 1761.519531 "/>
<path fill-rule="nonzero" fill="rgb(93.830872%, 21.84906%, 14.588928%)" fill-opacity="1" d="M 2616.421875 1915.871094 C 2627.859375 1911.539062 2639.621094 1917.730469 2641.78125 1929.789062 C 2642.089844 1931.339844 2641.160156 1932.890625 2639.621094 1933.511719 C 2628.171875 1938.148438 2616.71875 1931.339844 2614.25 1919.589844 C 2613.941406 1918.039062 2614.871094 1916.488281 2616.421875 1915.871094 "/>
<path fill-rule="nonzero" fill="rgb(93.830872%, 21.84906%, 14.588928%)" fill-opacity="1" d="M 2707.980469 1692.539062 C 2722.519531 1682.019531 2742.308594 1684.800781 2753.449219 1698.71875 C 2754.378906 1699.960938 2754.070312 1701.820312 2752.828125 1703.050781 C 2738.289062 1713.570312 2718.5 1710.789062 2707.359375 1696.871094 C 2706.121094 1695.320312 2706.429688 1693.460938 2707.980469 1692.539062 "/>
<path fill-rule="nonzero" fill="rgb(93.830872%, 21.84906%, 14.588928%)" fill-opacity="1" d="M 2630.03125 1614.269531 C 2654.460938 1616.75 2678.589844 1621.078125 2701.789062 1627.269531 C 2707.980469 1629.121094 2706.429688 1638.398438 2699.941406 1638.089844 C 2676.429688 1636.859375 2653.230469 1637.46875 2630.03125 1639.949219 C 2611.160156 1641.191406 2610.851562 1613.351562 2630.03125 1614.269531 "/>
<path fill-rule="nonzero" fill="rgb(93.830872%, 21.84906%, 14.588928%)" fill-opacity="1" d="M 2780.359375 1617.371094 C 2961.628906 1596.019531 3147.230469 1617.058594 3319.21875 1678.308594 C 3324.789062 1680.160156 3327.570312 1686.351562 3325.71875 1691.921875 C 3323.859375 1697.480469 3317.679688 1700.269531 3312.109375 1698.410156 C 3186.210938 1649.851562 3051.648438 1622.941406 2916.46875 1619.53125 C 2871.308594 1618.300781 2826.140625 1619.839844 2780.980469 1623.859375 C 2779.121094 1624.171875 2777.578125 1622.628906 2777.269531 1620.769531 C 2777.269531 1619.21875 2778.511719 1617.679688 2780.359375 1617.371094 "/>
<path fill-rule="nonzero" fill="rgb(93.830872%, 21.84906%, 14.588928%)" fill-opacity="1" d="M 2916.46875 1727.800781 C 2996.589844 1730.890625 3075.78125 1760.898438 3137.949219 1812.25 C 3141.660156 1815.339844 3142.28125 1820.601562 3139.191406 1824.308594 C 3136.101562 1828.019531 3130.839844 1828.640625 3127.128906 1825.550781 C 3069.589844 1772.960938 2994.421875 1740.171875 2916.46875 1733.058594 C 2912.761719 1733.058594 2912.761719 1727.800781 2916.46875 1727.800781 "/>
<path fill-rule="nonzero" fill="rgb(79.507446%, 32.499695%, 19.628906%)" fill-opacity="1" d="M 1732.648438 1724.710938 C 1742.859375 1732.75 1744.710938 1744.5 1749.039062 1755.640625 C 1753.058594 1766.46875 1756.78125 1777.289062 1760.488281 1788.429688 C 1775.339844 1832.050781 1788.328125 1876.589844 1799.148438 1921.441406 C 1804.410156 1944.019531 1809.359375 1966.609375 1813.691406 1989.191406 C 1814.929688 1997.230469 1803.480469 2000.011719 1801.011719 1991.96875 C 1779.671875 1914.949219 1755.851562 1838.230469 1728.011719 1763.058594 C 1724.601562 1753.160156 1717.800781 1740.480469 1720.269531 1729.351562 C 1721.199219 1723.78125 1728.320312 1720.988281 1732.648438 1724.710938 "/>
<path fill-rule="nonzero" fill="rgb(79.507446%, 32.499695%, 19.628906%)" fill-opacity="1" d="M 1883.898438 1810.300781 C 1878.339844 1810.300781 1873.351562 1806.390625 1872.191406 1800.730469 C 1869.320312 1786.738281 1865.488281 1774.101562 1860.488281 1762.101562 C 1857.300781 1753.871094 1853.488281 1745.871094 1848.71875 1737.359375 C 1845.5 1731.589844 1847.550781 1724.300781 1853.320312 1721.070312 C 1859.089844 1717.839844 1866.378906 1719.898438 1869.601562 1725.660156 C 1874.929688 1735.171875 1879.210938 1744.171875 1882.699219 1753.179688 C 1888.179688 1766.328125 1892.449219 1780.398438 1895.628906 1795.921875 C 1896.960938 1802.398438 1892.789062 1808.71875 1886.320312 1810.050781 C 1885.511719 1810.21875 1884.699219 1810.300781 1883.898438 1810.300781 "/>
<path fill-rule="nonzero" fill="rgb(79.507446%, 32.499695%, 19.628906%)" fill-opacity="1" d="M 2118.398438 1745.339844 C 2113.949219 1745.339844 2109.679688 1742.851562 2107.621094 1738.578125 C 2102.699219 1728.421875 2097.960938 1717 2093.511719 1704.621094 C 2089.679688 1693.761719 2086.828125 1683.371094 2084.238281 1673.660156 C 2082.539062 1667.269531 2086.339844 1660.710938 2092.71875 1659.011719 C 2099.109375 1657.308594 2105.660156 1661.101562 2107.371094 1667.488281 C 2109.839844 1676.75 2112.539062 1686.621094 2116.058594 1696.601562 C 2120.199219 1708.121094 2124.609375 1718.761719 2129.160156 1728.148438 C 2132.039062 1734.101562 2129.550781 1741.261719 2123.601562 1744.140625 C 2121.921875 1744.949219 2120.140625 1745.339844 2118.398438 1745.339844 "/>
<path fill-rule="nonzero" fill="rgb(79.507446%, 32.499695%, 19.628906%)" fill-opacity="1" d="M 2154.269531 1619.53125 C 2160.460938 1681.398438 2177.78125 1742.648438 2205.929688 1799.261719 C 2208.710938 1804.820312 2200.671875 1809.460938 2197.269531 1803.898438 C 2164.480469 1748.53125 2141.898438 1686.96875 2130.761719 1622.628906 C 2128.289062 1606.539062 2151.800781 1603.449219 2154.269531 1619.53125 "/>
<path fill-rule="nonzero" fill="rgb(79.507446%, 32.499695%, 19.628906%)" fill-opacity="1" d="M 2250.789062 1776.890625 C 2246.300781 1776.890625 2242 1774.351562 2239.960938 1770.03125 C 2231.050781 1751.140625 2223.351562 1731.140625 2217.070312 1710.570312 C 2210.660156 1689.390625 2205.878906 1667.988281 2202.449219 1645.128906 C 2201.46875 1638.589844 2205.96875 1632.5 2212.5 1631.519531 C 2219.039062 1630.550781 2225.128906 1635.039062 2226.109375 1641.570312 C 2229.371094 1663.289062 2233.898438 1683.578125 2239.960938 1703.609375 C 2245.898438 1723.050781 2253.191406 1741.96875 2261.601562 1759.808594 C 2264.421875 1765.789062 2261.859375 1772.921875 2255.890625 1775.738281 C 2254.238281 1776.519531 2252.5 1776.890625 2250.789062 1776.890625 "/>
<path fill-rule="nonzero" fill="rgb(32.461548%, 11.222839%, 9.95636%)" fill-opacity="1" d="M 1680.148438 1773.160156 C 1754.519531 1930.371094 1808.089844 2100.828125 1835.578125 2268.289062 C 1877.75 2524.730469 1860.628906 2772.621094 1784.691406 3005.078125 C 1749.570312 3112.710938 1701.671875 3216.921875 1642.308594 3314.78125 C 1627.691406 3339.019531 1626.460938 3368.601562 1639.058594 3393.859375 C 1651.691406 3419.179688 1675.089844 3435.371094 1703.230469 3438.25 C 1900.980469 3459.050781 2102.671875 3470.761719 2302.78125 3473.050781 C 2506.378906 3475.601562 2713.570312 3468.25 2918.621094 3451.191406 C 2958.558594 3448.03125 2990.449219 3415.679688 2992.921875 3375.929688 L 2992.929688 3375.859375 C 3014.761719 3037.101562 2960.339844 2748.039062 2831.179688 2516.699219 C 2808.621094 2476.410156 2782.988281 2436.160156 2753.300781 2389.550781 C 2708.488281 2319.191406 2652.730469 2231.640625 2584.210938 2106.621094 C 2584.148438 2106.511719 2584.089844 2106.398438 2584.039062 2106.289062 C 2577.539062 2094.070312 2570.820312 2081.640625 2563.878906 2068.789062 L 2560 2061.601562 C 2481.199219 1913.78125 2409.539062 1760.328125 2346.730469 1604.980469 C 2247.980469 1622.300781 2146.839844 1643.53125 2045.691406 1668.179688 C 1918.820312 1699.199219 1796.019531 1734.46875 1680.148438 1773.160156 Z M 2381.761719 3533.578125 C 2355.140625 3533.578125 2328.570312 3533.421875 2302.058594 3533.078125 C 2100.121094 3530.769531 1896.550781 3518.949219 1697.03125 3497.96875 C 1648.800781 3493.019531 1607.019531 3464.109375 1585.339844 3420.660156 C 1563.511719 3376.890625 1565.609375 3325.699219 1590.949219 3283.710938 C 1647.960938 3189.710938 1693.929688 3089.71875 1727.621094 2986.449219 C 1800.539062 2763.21875 1816.929688 2524.878906 1776.339844 2278.03125 C 1747.988281 2105.339844 1690.960938 1929.320312 1611.410156 1768.980469 C 1607.570312 1761.238281 1607.25 1752.21875 1610.539062 1744.230469 C 1613.820312 1736.238281 1620.390625 1730.050781 1628.558594 1727.25 C 1755.46875 1683.691406 1891.03125 1644.199219 2031.449219 1609.859375 C 2142.148438 1582.878906 2252.859375 1559.941406 2360.519531 1541.679688 C 2374.480469 1539.328125 2388.191406 1547.019531 2393.429688 1560.171875 C 2457.558594 1721.171875 2531.398438 1880.328125 2612.898438 2033.21875 L 2616.699219 2040.261719 C 2623.671875 2053.160156 2630.410156 2065.648438 2636.941406 2077.921875 C 2704.46875 2201.121094 2759.621094 2287.710938 2803.929688 2357.300781 C 2834.109375 2404.679688 2860.179688 2445.601562 2883.578125 2487.398438 C 2942.929688 2593.699219 2987.601562 2711.898438 3016.390625 2838.738281 C 3053.238281 3001.140625 3065.5 3183.148438 3052.839844 3379.699219 C 3048.5 3449.078125 2992.898438 3505.539062 2923.480469 3511.03125 C 2743.339844 3526.019531 2561.449219 3533.578125 2381.761719 3533.578125 "/>
<path fill-rule="nonzero" fill="rgb(79.507446%, 32.499695%, 19.628906%)" fill-opacity="1" d="M 2850.578125 2781.699219 C 2895.738281 2851.609375 2925.75 2931.421875 2941.828125 3013.078125 C 2942.449219 3015.871094 2938.121094 3017.410156 2936.890625 3014.320312 C 2930.078125 2994.828125 2923.269531 2975.339844 2916.160156 2955.859375 C 2902.550781 2918.121094 2886.148438 2877.589844 2870.378906 2841.089844 C 2862.339844 2822.21875 2853.980469 2803.351562 2845.941406 2784.179688 C 2845.011719 2781.390625 2848.730469 2778.921875 2850.578125 2781.699219 "/>
<path fill-rule="nonzero" fill="rgb(79.507446%, 32.499695%, 19.628906%)" fill-opacity="1" d="M 2722.519531 2907.539062 C 2719.761719 2907.539062 2717.210938 2905.761719 2716.359375 2902.980469 C 2704.480469 2864.101562 2691.710938 2828.691406 2677.308594 2794.730469 C 2661.589844 2757.679688 2643.691406 2721.261719 2624.109375 2686.488281 C 2622.371094 2683.390625 2623.46875 2679.46875 2626.558594 2677.730469 C 2629.660156 2675.988281 2633.578125 2677.089844 2635.320312 2680.179688 C 2655.140625 2715.371094 2673.25 2752.21875 2689.148438 2789.710938 C 2703.730469 2824.078125 2716.648438 2859.898438 2728.671875 2899.230469 C 2729.710938 2902.621094 2727.789062 2906.21875 2724.398438 2907.261719 C 2723.769531 2907.449219 2723.140625 2907.539062 2722.519531 2907.539062 "/>
<path fill-rule="nonzero" fill="rgb(79.507446%, 32.499695%, 19.628906%)" fill-opacity="1" d="M 2680.128906 2977.449219 C 2677.238281 2977.449219 2674.609375 2975.480469 2673.890625 2972.539062 C 2670.378906 2958.199219 2665.25 2942 2658.648438 2924.398438 C 2651.140625 2904.921875 2642.5 2885.898438 2633 2867.921875 C 2631.339844 2864.78125 2632.539062 2860.890625 2635.679688 2859.21875 C 2638.820312 2857.558594 2642.710938 2858.769531 2644.371094 2861.910156 C 2654.109375 2880.339844 2662.960938 2899.820312 2670.671875 2919.828125 C 2677.46875 2937.960938 2682.75 2954.648438 2686.378906 2969.488281 C 2687.230469 2972.941406 2685.121094 2976.421875 2681.671875 2977.261719 C 2681.148438 2977.390625 2680.640625 2977.449219 2680.128906 2977.449219 "/>
<path fill-rule="nonzero" fill="rgb(79.507446%, 32.499695%, 19.628906%)" fill-opacity="1" d="M 2761.488281 2789.058594 C 2758.761719 2789.058594 2756.21875 2787.300781 2755.359375 2784.558594 C 2740.570312 2737.5 2722.449219 2690.398438 2701.511719 2644.550781 C 2674.769531 2585.570312 2643.300781 2528.519531 2607.949219 2474.980469 C 2606 2472.019531 2606.808594 2468.03125 2609.78125 2466.070312 C 2612.738281 2464.121094 2616.730469 2464.941406 2618.691406 2467.898438 C 2654.410156 2522 2686.210938 2579.648438 2713.21875 2639.230469 C 2734.371094 2685.539062 2752.679688 2733.140625 2767.628906 2780.699219 C 2768.699219 2784.089844 2766.808594 2787.699219 2763.421875 2788.761719 C 2762.78125 2788.96875 2762.128906 2789.058594 2761.488281 2789.058594 "/>
<path fill-rule="nonzero" fill="rgb(79.507446%, 32.499695%, 19.628906%)" fill-opacity="1" d="M 2365.539062 2969.398438 C 2362.191406 2969.398438 2359.371094 2966.808594 2359.128906 2963.421875 C 2358.199219 2950.140625 2356.660156 2936.050781 2354.539062 2921.519531 C 2352.300781 2904.539062 2349.101562 2889.25 2346.269531 2876.519531 C 2345.5 2873.050781 2347.691406 2869.609375 2351.160156 2868.839844 C 2354.621094 2868.070312 2358.058594 2870.261719 2358.828125 2873.71875 C 2361.71875 2886.730469 2364.988281 2902.371094 2367.28125 2919.75 C 2369.429688 2934.511719 2371.011719 2948.929688 2371.960938 2962.53125 C 2372.210938 2966.070312 2369.539062 2969.140625 2365.988281 2969.390625 C 2365.839844 2969.398438 2365.691406 2969.398438 2365.539062 2969.398438 "/>
<path fill-rule="nonzero" fill="rgb(79.507446%, 32.499695%, 19.628906%)" fill-opacity="1" d="M 2171.289062 3151.601562 C 2171.03125 3151.601562 2170.761719 3151.578125 2170.5 3151.550781 C 2166.96875 3151.121094 2164.460938 3147.910156 2164.898438 3144.378906 C 2167.039062 3126.929688 2168.910156 3108.28125 2170.441406 3088.980469 C 2171.660156 3071.878906 2172.589844 3055.089844 2173.210938 3039.128906 C 2173.339844 3035.578125 2176.351562 3032.890625 2179.878906 3032.949219 C 2183.429688 3033.089844 2186.199219 3036.070312 2186.058594 3039.621094 C 2185.441406 3055.71875 2184.5 3072.648438 2183.269531 3089.949219 C 2181.71875 3109.488281 2179.828125 3128.308594 2177.671875 3145.949219 C 2177.269531 3149.210938 2174.488281 3151.601562 2171.289062 3151.601562 "/>
<path fill-rule="nonzero" fill="rgb(79.507446%, 32.499695%, 19.628906%)" fill-opacity="1" d="M 2123.949219 3092.519531 C 2120.578125 3092.519531 2117.738281 3089.890625 2117.53125 3086.480469 C 2116.078125 3062.878906 2115.78125 3041.019531 2116.601562 3019.640625 C 2117.53125 2996.460938 2119.421875 2974.898438 2122.230469 2955.550781 C 2122.738281 2952.03125 2125.988281 2949.609375 2129.519531 2950.109375 C 2133.03125 2950.621094 2135.46875 2953.878906 2134.960938 2957.398438 C 2132.21875 2976.308594 2130.359375 2997.421875 2129.449219 3020.140625 C 2128.648438 3041.078125 2128.949219 3062.53125 2130.378906 3085.691406 C 2130.589844 3089.238281 2127.898438 3092.289062 2124.351562 3092.511719 C 2124.21875 3092.519531 2124.078125 3092.519531 2123.949219 3092.519531 "/>
<path fill-rule="nonzero" fill="rgb(79.507446%, 32.499695%, 19.628906%)" fill-opacity="1" d="M 1941.761719 3061.28125 C 1941.039062 3061.28125 1940.320312 3061.160156 1939.601562 3060.898438 C 1936.261719 3059.710938 1934.511719 3056.039062 1935.699219 3052.691406 C 1941.058594 3037.589844 1945.460938 3022.238281 1948.769531 3007.070312 C 1951.070312 2996.761719 1952.558594 2987.191406 1954 2977.929688 L 1954.269531 2976.210938 C 1954.820312 2972.699219 1958.121094 2970.308594 1961.621094 2970.839844 C 1965.128906 2971.390625 1967.53125 2974.679688 1966.980469 2978.191406 L 1966.710938 2979.910156 C 1965.238281 2989.371094 1963.710938 2999.148438 1961.339844 3009.839844 C 1957.921875 3025.519531 1953.371094 3041.390625 1947.820312 3057 C 1946.878906 3059.628906 1944.398438 3061.28125 1941.761719 3061.28125 "/>
<path fill-rule="nonzero" fill="rgb(79.507446%, 32.499695%, 19.628906%)" fill-opacity="1" d="M 1918.871094 2820.371094 C 1917.628906 2914.101562 1898.761719 3007.820312 1863.800781 3094.75 C 1861.949219 3099.078125 1855.449219 3096.601562 1857 3091.960938 C 1889.789062 3005.351562 1906.488281 2912.859375 1905.871094 2820.371094 C 1905.871094 2811.710938 1918.558594 2811.710938 1918.871094 2820.371094 "/>
<path fill-rule="nonzero" fill="rgb(79.507446%, 32.499695%, 19.628906%)" fill-opacity="1" d="M 1975.160156 2397.140625 C 1971.941406 2397.140625 1969.171875 2394.730469 1968.78125 2391.46875 C 1964.601562 2356.460938 1957.878906 2319.550781 1948.800781 2281.78125 C 1941.261719 2250.519531 1931.808594 2218.851562 1919.910156 2184.960938 C 1918.738281 2181.609375 1920.5 2177.941406 1923.851562 2176.761719 C 1927.199219 2175.578125 1930.871094 2177.339844 1932.050781 2180.699219 C 1944.089844 2215.011719 1953.671875 2247.078125 1961.308594 2278.761719 C 1970.511719 2317.03125 1977.320312 2354.441406 1981.550781 2389.941406 C 1981.96875 2393.46875 1979.449219 2396.671875 1975.929688 2397.089844 C 1975.671875 2397.121094 1975.410156 2397.140625 1975.160156 2397.140625 "/>
<path fill-rule="nonzero" fill="rgb(79.507446%, 32.499695%, 19.628906%)" fill-opacity="1" d="M 1901.839844 2319.800781 C 1898.828125 2319.800781 1896.140625 2317.679688 1895.539062 2314.609375 C 1887.101562 2271.730469 1876.839844 2229.339844 1865.050781 2188.640625 C 1854.328125 2151.800781 1841.730469 2114.320312 1826.539062 2074.050781 C 1825.289062 2070.71875 1826.96875 2067.011719 1830.289062 2065.761719 C 1833.621094 2064.5 1837.328125 2066.191406 1838.578125 2069.511719 C 1853.890625 2110.089844 1866.589844 2147.890625 1877.398438 2185.050781 C 1889.300781 2226.128906 1899.648438 2268.878906 1908.160156 2312.128906 C 1908.851562 2315.609375 1906.578125 2319 1903.101562 2319.679688 C 1902.679688 2319.769531 1902.261719 2319.800781 1901.839844 2319.800781 "/>
<path fill-rule="nonzero" fill="rgb(79.507446%, 32.499695%, 19.628906%)" fill-opacity="1" d="M 2078.480469 2206.890625 C 2075.238281 2206.890625 2072.449219 2204.460938 2072.089844 2201.171875 C 2071.171875 2192.890625 2069.011719 2183.03125 2065.828125 2172.640625 C 2062.460938 2162.53125 2058.261719 2152.921875 2053.378906 2144.210938 C 2051.648438 2141.109375 2052.75 2137.199219 2055.851562 2135.460938 C 2058.960938 2133.730469 2062.871094 2134.828125 2064.609375 2137.929688 C 2069.878906 2147.339844 2074.410156 2157.699219 2078.089844 2168.730469 C 2081.539062 2180.019531 2083.871094 2190.691406 2084.878906 2199.75 C 2085.269531 2203.28125 2082.71875 2206.46875 2079.191406 2206.859375 C 2078.949219 2206.878906 2078.710938 2206.890625 2078.480469 2206.890625 "/>
<path fill-rule="nonzero" fill="rgb(79.507446%, 32.499695%, 19.628906%)" fill-opacity="1" d="M 2329.351562 1732.75 C 2344.511719 1798.640625 2371.730469 1861.121094 2409.46875 1916.179688 C 2413.179688 1921.75 2411.949219 1929.179688 2406.378906 1932.890625 C 2400.808594 1936.910156 2392.769531 1935.050781 2389.359375 1928.871094 C 2354.410156 1868.550781 2331.210938 1802.351562 2320.691406 1734.300781 C 2320.070312 1729.039062 2328.121094 1727.488281 2329.351562 1732.75 "/>
<path fill-rule="nonzero" fill="rgb(79.507446%, 32.499695%, 19.628906%)" fill-opacity="1" d="M 2299.039062 1856.789062 C 2310.789062 1871.019531 2321 1885.871094 2331.210938 1901.03125 C 2341.421875 1916.179688 2351.320312 1930.71875 2357.808594 1948.351562 C 2359.050781 1951.761719 2357.191406 1955.78125 2353.789062 1957.019531 C 2351.929688 1957.628906 2349.769531 1957.328125 2347.910156 1956.398438 C 2339.558594 1951.140625 2332.761719 1944.328125 2326.570312 1937.21875 C 2314.5 1922.679688 2305.53125 1905.671875 2298.421875 1888.03125 C 2295.019531 1879.058594 2292.230469 1870.089844 2291 1860.5 C 2290.378906 1855.859375 2296.25 1853.390625 2299.039062 1856.789062 "/>
</svg>
