<?xml version="1.0" encoding="UTF-8"?>
<svg xmlns="http://www.w3.org/2000/svg" xmlns:xlink="http://www.w3.org/1999/xlink" width="3000" height="3000" viewBox="0 0 3000 3000">
<rect x="-300" y="-300" width="3600" height="3600" fill="rgb(100%, 100%, 100%)" fill-opacity="1"/>
<path fill-rule="nonzero" fill="rgb(0%, 0%, 0%)" fill-opacity="1" d="M 575.734375 2577.773438 C 571.730469 2577.773438 568.480469 2574.507812 568.480469 2570.480469 C 568.480469 2566.449219 571.730469 2563.1875 575.734375 2563.1875 L 3000 2563.1875 L 3000 2577.773438 L 575.734375 2577.773438 "/>
<path fill-rule="nonzero" fill="rgb(70.117188%, 70.117188%, 70.117188%)" fill-opacity="1" d="M 2500.128906 712.75 L 2431.558594 644.199219 L 2589.960938 485.789062 C 2597.210938 478.550781 2607.25 474.039062 2618.320312 474.039062 C 2629.398438 474.039062 2639.429688 478.550781 2646.691406 485.808594 L 2658.5 497.621094 C 2665.78125 504.898438 2670.261719 514.921875 2670.25 525.980469 C 2670.261719 537.058594 2665.78125 547.101562 2658.511719 554.359375 L 2500.128906 712.75 "/>
<path fill-rule="nonzero" fill="rgb(0%, 0%, 0%)" fill-opacity="1" d="M 578.632812 2574.964844 C 575.761719 2577.824219 571.351562 2578.070312 568.789062 2575.488281 C 566.214844 2572.925781 566.460938 2568.511719 569.328125 2565.648438 L 639.367188 2495.613281 L 648.683594 2504.925781 L 578.632812 2574.964844 "/>
<path fill-rule="nonzero" fill="rgb(70.117188%, 70.117188%, 70.117188%)" fill-opacity="1" d="M 649.863281 2526.808594 C 639.066406 2516.023438 628.300781 2505.226562 617.527344 2494.460938 C 630.535156 2426.832031 667.566406 2379.285156 701.324219 2332.367188 C 750.4375 2381.476562 762.800781 2393.871094 811.953125 2442.996094 C 764.992188 2476.710938 717.492188 2513.785156 649.863281 2526.808594 "/>
<path fill-rule="nonzero" fill="rgb(0%, 0%, 0%)" fill-opacity="1" d="M 1503.980469 1834.730469 C 1508.058594 1838.800781 1510.761719 1843.648438 1512.308594 1848.570312 C 1886.640625 1503.289062 2236.058594 1131.53125 2553.269531 733.359375 C 2560.820312 723.921875 2570.160156 697.699219 2546.25 673.75 C 2512.628906 640.148438 2504.148438 631.679688 2470.550781 598.078125 C 2446.351562 573.871094 2420.601562 583.179688 2410.851562 590.949219 C 2012.921875 908.039062 1641.070312 1257.609375 1295.71875 1632.019531 C 1300.679688 1633.570312 1305.511719 1636.261719 1309.570312 1640.300781 L 1503.980469 1834.730469 "/>
<path fill-rule="nonzero" fill="rgb(0%, 0%, 0%)" fill-opacity="1" d="M 1194.789062 1763.820312 C 1191.160156 1760.160156 1188.738281 1755.859375 1187.269531 1751.371094 C 1018.078125 1940.398438 855.453125 2135.367188 699.542969 2335.34375 C 736.019531 2371.808594 772.488281 2408.285156 808.964844 2444.78125 C 1009.03125 2288.765625 1203.949219 2126.179688 1392.921875 1957.039062 C 1388.449219 1955.570312 1384.140625 1953.160156 1380.5 1949.519531 L 1194.789062 1763.820312 "/>
<path fill-rule="nonzero" fill="rgb(70.117188%, 70.117188%, 70.117188%)" fill-opacity="1" d="M 1269.328125 1675.421875 L 1266.160156 1679.058594 C 1263.21875 1677.070312 1260.050781 1675.640625 1256.820312 1674.730469 C 1247.550781 1672.171875 1237.660156 1674.078125 1230.929688 1680.808594 C 1223.621094 1688.121094 1222 1699.101562 1225.699219 1709.03125 C 1226.960938 1712.519531 1228.820312 1715.910156 1231.398438 1718.960938 L 1228.371094 1722.441406 C 1225.078125 1720.128906 1221.46875 1718.539062 1217.808594 1717.671875 C 1208.929688 1715.609375 1199.578125 1717.761719 1193.070312 1724.269531 C 1185.960938 1731.378906 1184.191406 1741.820312 1187.269531 1751.371094 C 1188.738281 1755.859375 1191.160156 1760.160156 1194.789062 1763.820312 L 1380.5 1949.519531 C 1384.140625 1953.160156 1388.449219 1955.570312 1392.921875 1957.039062 C 1402.480469 1960.109375 1412.910156 1958.320312 1420.03125 1951.210938 C 1426.519531 1944.699219 1428.699219 1935.371094 1426.601562 1926.5 C 1425.75 1922.839844 1424.191406 1919.261719 1421.921875 1915.988281 L 1425.429688 1912.921875 C 1428.5 1915.449219 1431.921875 1917.28125 1435.449219 1918.519531 C 1445.25 1921.929688 1455.988281 1920.28125 1463.210938 1913.078125 C 1469.851562 1906.429688 1471.828125 1896.769531 1469.410156 1887.609375 C 1468.558594 1884.371094 1467.148438 1881.160156 1465.179688 1878.179688 L 1468.859375 1874.96875 C 1471.621094 1877.171875 1474.628906 1878.839844 1477.71875 1880.070312 C 1487.941406 1884.070312 1499.230469 1882.640625 1506.648438 1875.21875 C 1513.550781 1868.328125 1515.25 1858.140625 1512.308594 1848.570312 C 1510.761719 1843.648438 1508.058594 1838.800781 1503.980469 1834.730469 L 1309.570312 1640.300781 C 1305.511719 1636.261719 1300.679688 1633.570312 1295.71875 1632.019531 C 1286.148438 1629.039062 1275.941406 1630.78125 1269.089844 1637.640625 C 1261.648438 1645.078125 1260.230469 1656.371094 1264.261719 1666.601562 C 1265.480469 1669.671875 1267.140625 1672.671875 1269.328125 1675.421875 "/>
<path fill-rule="nonzero" fill="rgb(0%, 0%, 0%)" fill-opacity="1" d="M 1902.558594 1510.621094 C 1975.980469 1371.898438 2129.21875 1314.730469 2213.960938 1203.171875 C 2261.628906 1149.269531 2295.46875 1092.980469 2324 1025.128906 C 2353.839844 950.558594 2415.320312 892.039062 2475.960938 848.351562 C 2539.46875 805.289062 2588.328125 811.21875 2587.878906 823.640625 C 2589.019531 838.621094 2568.089844 857.851562 2513.570312 898.390625 C 2458.769531 943.25 2410.140625 990 2384.28125 1053.121094 C 2355.449219 1120.488281 2310.308594 1190.109375 2256.449219 1242.699219 C 2152.421875 1359.050781 1996.859375 1398.730469 1915.980469 1518.691406 C 1901.808594 1535.460938 1892.5 1530.769531 1902.558594 1510.621094 "/>
</svg>
