<?xml version="1.0" encoding="UTF-8"?>
<svg xmlns="http://www.w3.org/2000/svg" xmlns:xlink="http://www.w3.org/1999/xlink" width="5000" height="2799.42" viewBox="0 0 5000 2799.42">
<path fill-rule="nonzero" fill="rgb(3.500366%, 2.700806%, 8.203125%)" fill-opacity="1" d="M 3209.929688 2240.703125 C 3205.359375 2372.59375 3048.199219 2424.492188 2943.769531 2449.175781 C 2726.921875 2500.441406 2493.089844 2503.511719 2272.058594 2483.597656 C 2156.179688 2473.128906 2030.328125 2452.488281 1920.398438 2406.578125 C 1866.550781 2384.050781 1823.96875 2350.71875 1792.648438 2306.578125 C 1783.328125 2286.90625 1778.53125 2269.023438 1778.238281 2252.925781 C 1773.210938 1972.398438 1764.871094 1414.589844 1753.210938 579.511719 C 1752.820312 553.28125 1753.980469 535.460938 1756.671875 526.050781 C 1789.289062 410.761719 2066.410156 371.808594 2163.730469 360.328125 C 2375.21875 335.429688 2587.128906 333.710938 2799.460938 355.160156 C 2897.570312 365.101562 3199.21875 402.390625 3227.898438 522.011719 C 3229.941406 530.578125 3230.75 553.671875 3230.328125 591.289062 C 3223.78125 1141.140625 3216.980469 1690.949219 3209.929688 2240.703125 Z M 2115.140625 488.171875 C 2109.621094 492.941406 2103.640625 496.25 2097.179688 498.109375 C 2052.78125 510.929688 2008.621094 524.429688 1964.699219 538.609375 C 1931.601562 549.320312 1936.808594 576.539062 1937.148438 610.371094 C 1937.171875 612.5 1938.589844 614.378906 1940.648438 615 C 2032.988281 641.421875 2130.878906 658.859375 2234.320312 667.339844 C 2408.839844 681.648438 2578.660156 681.699219 2743.769531 667.480469 C 2858.601562 657.578125 2964.351562 638.25 3061 609.5 C 3063.058594 608.878906 3064.488281 607 3064.511719 604.871094 L 3064.648438 553.21875 C 3064.691406 551.710938 3064 550.28125 3062.800781 549.371094 C 3050.019531 539.441406 3034.839844 532.328125 3017.28125 528.050781 C 2926.628906 505.988281 2828.238281 493.71875 2739.390625 475.320312 C 2710.859375 469.378906 2681.480469 460.078125 2651.269531 447.421875 C 2650.050781 446.890625 2649.089844 445.921875 2648.589844 444.699219 C 2647.128906 440.871094 2649.941406 438.949219 2657.011719 438.949219 C 2785.308594 438.980469 2911.828125 454.011719 3036.558594 484.03125 C 3058.761719 489.359375 3074.179688 495.28125 3082.808594 501.808594 C 3108.359375 521.121094 3118.96875 546.480469 3114.648438 577.898438 C 3113.839844 583.710938 3116.121094 585.410156 3121.46875 583.011719 C 3139.609375 574.929688 3155.488281 563.46875 3169.089844 548.640625 C 3226.679688 485.878906 2964.121094 428.679688 2937.390625 423.859375 C 2716.210938 384.128906 2478.628906 379.308594 2253.800781 398.488281 C 2127.898438 409.210938 1989.578125 430.191406 1869.769531 480.820312 C 1846.980469 490.460938 1795.078125 521.230469 1824.390625 552.828125 C 1839.191406 568.761719 1857.980469 581.160156 1880.769531 590.019531 C 1881.078125 590.140625 1881.410156 590.230469 1881.730469 590.289062 C 1884.398438 590.730469 1886.941406 588.921875 1887.378906 586.28125 C 1887.441406 585.941406 1887.460938 585.601562 1887.441406 585.25 C 1885.140625 535.980469 1908.28125 504.320312 1956.871094 490.269531 C 2003.511719 476.800781 2048.75 471.929688 2092.601562 475.660156 C 2101.070312 476.378906 2108.101562 477.800781 2113.679688 479.949219 C 2115.570312 480.660156 2116.820312 482.480469 2116.820312 484.5 C 2116.820312 485.910156 2116.210938 487.25 2115.140625 488.171875 Z M 1947.421875 1294.019531 L 1982.71875 1303.359375 C 2038.089844 1317.21875 2094.269531 1326.460938 2151.269531 1331.070312 C 2159.511719 1331.75 2160.441406 1329.460938 2154.039062 1324.199219 C 2145.148438 1316.898438 2137 1308.558594 2129.601562 1299.179688 C 2099.871094 1261.621094 2093.851562 1220.941406 2111.539062 1177.121094 C 2113.808594 1171.441406 2111.960938 1169.25 2105.988281 1170.550781 L 1989.480469 1195.328125 L 1991.820312 1146.941406 L 2164.171875 1109.550781 C 2165.058594 1109.359375 2165.871094 1108.921875 2166.5 1108.28125 C 2200.390625 1075.371094 2234.371094 1042.511719 2268.449219 1009.691406 C 2338.171875 942.511719 2413.96875 921.671875 2493.089844 996.398438 C 2524.640625 1026.230469 2556.480469 1055.988281 2588.609375 1085.691406 C 2589.601562 1086.589844 2590.921875 1087.050781 2592.261719 1086.960938 C 2731.890625 1076.289062 2874.539062 1075.660156 3009.980469 1115.101562 L 3049.511719 1129.308594 C 3049.769531 1129.410156 3050.039062 1129.480469 3050.308594 1129.53125 C 3052.910156 1129.988281 3055.441406 1128.21875 3055.910156 1125.589844 C 3055.960938 1125.320312 3055.988281 1125.050781 3055.988281 1124.78125 L 3060.910156 708.378906 L 3061.339844 667.679688 C 3061.339844 667.671875 3061.339844 667.671875 3061.339844 667.671875 C 3061.339844 664.96875 3059.121094 662.75 3056.429688 662.75 C 3056.019531 662.75 3055.609375 662.800781 3055.210938 662.910156 C 3045.539062 665.46875 3035.878906 668.148438 3026.238281 670.941406 C 3013.75 674.570312 3002.808594 677.378906 2993.429688 679.359375 C 2750.488281 730.71875 2487 736.710938 2241.578125 717.191406 C 2142.96875 709.371094 2047.859375 693.398438 1956.230469 669.28125 C 1915.191406 658.480469 1856.089844 639.238281 1820.300781 613.050781 C 1816.539062 610.289062 1812.789062 607.550781 1809.058594 604.820312 C 1804.839844 601.710938 1802.78125 602.761719 1802.871094 607.988281 L 1812.371094 1224.300781 C 1812.398438 1225.800781 1813.109375 1227.21875 1814.308594 1228.140625 C 1855.308594 1258.949219 1899.679688 1280.898438 1947.421875 1294.019531 Z M 3104.089844 1209.789062 C 3007.890625 1155.019531 2901.511719 1132.039062 2791.769531 1130.140625 C 2744.351562 1129.300781 2696.929688 1129.621094 2649.511719 1131.109375 C 2643.21875 1131.308594 2642.371094 1133.550781 2646.980469 1137.828125 L 2874 1349.960938 C 2875.019531 1350.910156 2876.410156 1351.390625 2877.800781 1351.269531 C 2953.070312 1343.289062 3041.429688 1320.890625 3103.890625 1278 C 3132.550781 1261.609375 3155.578125 1240.269531 3172.980469 1213.980469 C 3173.519531 1213.179688 3173.808594 1212.261719 3173.808594 1211.351562 C 3175.199219 1032.308594 3177.171875 856.429688 3179.699219 683.691406 C 3180.148438 651.589844 3180.269531 628.269531 3180.039062 613.730469 C 3179.96875 607.601562 3177.429688 606.28125 3172.390625 609.789062 C 3154.28125 622.511719 3134.910156 632.921875 3114.261719 641 C 3112.441406 641.738281 3111.230469 643.511719 3111.199219 645.480469 Z M 2154.578125 1226.101562 C 2153.410156 1240.871094 2156.089844 1251.769531 2162.609375 1258.820312 C 2184.910156 1282.960938 2207.21875 1307.371094 2229.550781 1332.039062 C 2238.019531 1341.390625 2251.089844 1345.21875 2268.738281 1343.53125 C 2406.75 1355.410156 2546.269531 1359.769531 2687.289062 1356.628906 C 2695.308594 1356.460938 2696.019531 1354.089844 2689.441406 1349.519531 C 2656.101562 1326.5 2623.691406 1301.578125 2592.210938 1274.738281 C 2551.351562 1239.941406 2521.808594 1209.011719 2503.601562 1181.941406 C 2486.109375 1156.039062 2479.621094 1128.03125 2484.128906 1097.910156 C 2485.039062 1091.910156 2487.730469 1090.929688 2492.210938 1094.988281 C 2497.269531 1099.570312 2502.21875 1104.289062 2507.058594 1109.160156 C 2511.730469 1113.898438 2516.910156 1120.050781 2522.589844 1127.609375 C 2555.730469 1171.75 2592.859375 1212.089844 2633.980469 1248.640625 C 2674.730469 1284.859375 2730.769531 1318.460938 2777.851562 1355.359375 C 2778.761719 1356.050781 2779.878906 1356.410156 2781.011719 1356.378906 L 2794.601562 1355.890625 C 2800.789062 1355.699219 2801.640625 1353.460938 2797.128906 1349.179688 C 2732.121094 1288.03125 2667.140625 1228 2602.191406 1169.089844 C 2547.910156 1119.921875 2495.570312 1068.988281 2442.210938 1018.941406 C 2405.699219 984.671875 2355.058594 996.988281 2322.011719 1029.410156 C 2247.96875 1101.921875 2198.589844 1150.648438 2173.859375 1175.609375 C 2158.71875 1190.898438 2150.78125 1205.648438 2154.578125 1226.101562 Z M 1817.378906 1596.890625 C 1818.738281 1742.171875 1825.171875 1888.417969 1823.171875 2033.550781 C 1823.03125 2044.988281 1828.53125 2052.777344 1836.171875 2059.839844 C 1879.460938 2107.597656 1947.570312 2137.636719 2007.25 2154.96875 C 2088.820312 2178.664062 2171.929688 2194.40625 2256.570312 2202.195312 C 2458.128906 2220.792969 2670.640625 2219.574219 2866.359375 2182.136719 C 2954.628906 2167.578125 3068.839844 2133.257812 3134.320312 2071.570312 C 3150.238281 2060.226562 3162.851562 2046.207031 3163.289062 2025.222656 C 3166.179688 1879.621094 3168.160156 1734 3169.230469 1588.371094 L 3171.808594 1301.660156 C 3171.878906 1295.171875 3169.300781 1293.839844 3164.070312 1297.671875 L 3138.511719 1316.460938 C 3137.25 1317.378906 3136.511719 1318.828125 3136.511719 1320.359375 L 3135.539062 1585.929688 C 3133.921875 1678.660156 3133.351562 1745.101562 3133.839844 1785.25 C 3134.960938 1874.980469 3075.019531 1896.546875 3001.851562 1916.753906 C 2999.429688 1917.433594 2997.898438 1919.871094 2998.339844 1922.351562 C 3010.078125 1984.960938 2964.511719 2018.457031 2910.21875 2032.914062 C 2861.988281 2045.769531 2807.550781 2056.367188 2746.878906 2064.707031 C 2602.839844 2078.371094 2458.5 2080.109375 2313.878906 2069.917969 C 2255.910156 2065.4375 2187.199219 2056.039062 2107.738281 2041.726562 C 2050.828125 2031.453125 1980.378906 2001.902344 1980.28125 1934.035156 C 1980.28125 1931.699219 1978.609375 1929.683594 1976.339844 1929.265625 C 1910.660156 1917.191406 1854.378906 1885.15625 1853.550781 1809.886719 C 1852.78125 1740.878906 1852.371094 1671.929688 1852.339844 1603.019531 L 1848.640625 1310.230469 C 1848.609375 1308.539062 1847.710938 1306.96875 1846.25 1306.089844 L 1820.300781 1290.710938 C 1815.339844 1287.71875 1812.890625 1289.128906 1812.949219 1294.941406 Z M 1973.171875 1576.199219 L 2024.101562 1521.621094 C 2050.101562 1495.140625 2076.230469 1468.78125 2102.480469 1442.550781 C 2119.851562 1425.21875 2133.140625 1413.640625 2142.359375 1407.789062 C 2153.328125 1400.78125 2165.058594 1395.269531 2177.558594 1391.238281 C 2189.109375 1387.539062 2188.871094 1385.03125 2176.828125 1383.691406 C 2118.179688 1377.199219 2058.828125 1368.589844 1998.78125 1357.839844 L 1940.699219 1344.941406 L 1904.921875 1331.839844 C 1904.390625 1331.648438 1903.828125 1331.550781 1903.261719 1331.550781 C 1900.589844 1331.550781 1898.390625 1333.75 1898.390625 1336.421875 C 1898.390625 1336.441406 1898.390625 1336.449219 1898.390625 1336.46875 C 1900.28125 1493.980469 1901.621094 1649.359375 1902.429688 1802.585938 C 1902.601562 1838.027344 1917.980469 1861.21875 1948.589844 1872.15625 C 1975.761719 1881.828125 2013.75 1890.851562 2062.558594 1899.226562 C 2075.410156 1901.464844 2113.628906 1910.8125 2086.269531 1929.460938 C 2080.660156 1933.289062 2073.601562 1935.917969 2065.089844 1937.347656 C 2055.421875 1938.96875 2045.679688 1939.960938 2035.878906 1940.316406 C 2035.589844 1940.324219 2035.289062 1940.363281 2035 1940.425781 C 2032.390625 1940.996094 2030.710938 1943.589844 2031.269531 1946.171875 C 2031.339844 1946.46875 2031.429688 1946.757812 2031.550781 1947.035156 C 2033.109375 1950.734375 2035.070312 1954.257812 2037.441406 1957.597656 C 2049.421875 1974.445312 2082.519531 1986.761719 2102 1991.339844 C 2148.089844 2002.144531 2193.800781 2009.953125 2239.140625 2014.757812 C 2248.488281 2015.730469 2249.808594 2012.9375 2243.089844 2006.382812 C 2153.761719 1919.722656 2064.828125 1832.6875 1976.289062 1745.28125 C 1927.261719 1696.839844 1931.550781 1627.269531 1973.171875 1576.199219 Z M 2771.128906 1725.609375 C 2744.941406 1751.851562 2715 1782.871094 2680.230469 1792.070312 C 2664.039062 1796.351562 2647.238281 1797.570312 2629.839844 1795.71875 C 2627.339844 1795.46875 2625.019531 1797.160156 2624.539062 1799.613281 C 2619.019531 1827.363281 2609.070312 1848.980469 2594.691406 1864.464844 C 2560.191406 1901.628906 2505.941406 1953.460938 2431.941406 2019.964844 C 2427.171875 2024.25 2427.988281 2026.503906 2434.421875 2026.734375 C 2533.871094 2030.335938 2633.070312 2027.023438 2732.039062 2016.800781 C 2793.671875 2010.421875 2861.929688 2000.929688 2919.519531 1977.363281 C 2942.308594 1968.050781 2952.339844 1951.464844 2949.609375 1927.609375 C 2949.480469 1926.503906 2948.988281 1925.472656 2948.199219 1924.6875 C 2935.488281 1912.371094 2917.578125 1893.433594 2945.859375 1883.597656 C 2975.171875 1873.40625 3004.628906 1863.796875 3034.230469 1854.773438 C 3084.910156 1839.34375 3084.910156 1802.777344 3085.25 1757.449219 C 3086.25 1622.398438 3087.078125 1487.128906 3087.730469 1351.660156 C 3087.730469 1351.648438 3087.730469 1351.648438 3087.730469 1351.640625 C 3087.730469 1348.96875 3085.53125 1346.769531 3082.859375 1346.769531 C 3082.191406 1346.769531 3081.53125 1346.910156 3080.921875 1347.179688 C 3029.601562 1369.351562 2976.289062 1384.671875 2920.980469 1393.140625 C 2920.730469 1393.179688 2920.480469 1393.230469 2920.230469 1393.308594 C 2917.710938 1394.109375 2916.300781 1396.859375 2917.101562 1399.398438 C 2917.179688 1399.640625 2917.269531 1399.878906 2917.378906 1400.101562 C 2949.078125 1464.21875 2956.910156 1545.820312 2900.828125 1599.761719 C 2833.449219 1664.511719 2790.210938 1706.460938 2771.128906 1725.609375 Z M 2449.898438 1557.941406 C 2509.058594 1620.109375 2572.390625 1670.011719 2619.46875 1733.890625 C 2635.21875 1746.421875 2651.488281 1750.121094 2668.308594 1744.988281 C 2677.820312 1742.101562 2690.171875 1733.238281 2705.359375 1718.410156 C 2761.539062 1663.589844 2817.578125 1608.621094 2873.46875 1553.511719 C 2878.109375 1548.929688 2881.628906 1544.109375 2884.03125 1539.050781 C 2884.78125 1537.460938 2885.480469 1535.921875 2886.128906 1534.429688 C 2893.039062 1518.359375 2890.378906 1516.589844 2878.140625 1529.121094 C 2831.820312 1576.539062 2782.851562 1621.039062 2731.210938 1662.609375 C 2727.378906 1665.699219 2720.980469 1669.359375 2712.03125 1673.621094 C 2711.378906 1673.921875 2710.679688 1674.070312 2709.96875 1674.070312 C 2707.421875 1674.070312 2705.28125 1672.070312 2705.109375 1669.53125 L 2704.328125 1658.769531 C 2716.210938 1630.890625 2731.371094 1607.921875 2749.808594 1589.878906 C 2807.769531 1533.109375 2850.050781 1490.199219 2876.628906 1461.148438 C 2882.25 1436.160156 2876.730469 1416.171875 2860.078125 1401.171875 C 2859.109375 1400.300781 2857.808594 1399.859375 2856.480469 1399.960938 L 2820.109375 1402.339844 L 2607.109375 1405.988281 C 2499.578125 1405.441406 2385.980469 1400.488281 2266.308594 1391.140625 C 2265.039062 1391.050781 2264.609375 1391.550781 2265 1392.648438 C 2265.148438 1393.140625 2265.519531 1393.550781 2266.019531 1393.769531 C 2286.109375 1403.019531 2303.171875 1414.820312 2317.191406 1429.171875 C 2365.550781 1478.441406 2409.789062 1521.359375 2449.898438 1557.941406 Z M 2200.730469 1436.46875 C 2181.351562 1443.929688 2166.628906 1452.730469 2156.570312 1462.859375 C 2113.308594 1506.539062 2070.078125 1550.25 2026.871094 1593.96875 C 2012.109375 1608.929688 2002.558594 1621.429688 1998.25 1631.460938 C 1991.429688 1647.359375 1989.871094 1663.671875 1993.570312 1680.378906 C 1995.230469 1689.601562 1999.371094 1697.421875 2005.988281 1703.851562 C 2059.871094 1755.910156 2163.679688 1856.980469 2317.429688 2007.0625 C 2343.378906 2032.378906 2385.351562 1994.503906 2404.429688 1976.292969 C 2449.289062 1933.582031 2493.800781 1890.65625 2537.980469 1847.519531 C 2573.078125 1813.296875 2593.179688 1780.53125 2557.398438 1738.078125 L 2400.199219 1584.519531 C 2354.691406 1540.410156 2309.558594 1495.949219 2264.800781 1451.121094 C 2248.539062 1434.859375 2227.179688 1429.980469 2200.730469 1436.46875 Z M 2775.070312 2246.644531 C 2593.738281 2265.179688 2412.378906 2265.308594 2231.011719 2247.035156 C 2141.039062 2237.003906 2052.691406 2219.300781 1965.96875 2193.917969 C 1965.53125 2193.789062 1965.058594 2193.722656 1964.601562 2193.722656 C 1962 2193.722656 1959.839844 2195.800781 1959.738281 2198.398438 C 1958.960938 2217.289062 1959.300781 2236.160156 1960.761719 2255.019531 C 1964.21875 2300.539062 2068.789062 2321.570312 2106.871094 2355.3125 C 2111.378906 2359.335938 2110.710938 2362.128906 2104.871094 2363.683594 C 2058.421875 2376.003906 2000.339844 2356.480469 1959.980469 2332.914062 C 1932 2316.621094 1915.5 2293.253906 1910.46875 2262.808594 L 1910.371094 2171.914062 C 1910.371094 2169.921875 1909.148438 2168.121094 1907.300781 2167.386719 C 1880.488281 2156.773438 1855.828125 2142.589844 1833.300781 2124.835938 C 1827.820312 2120.515625 1825.191406 2121.863281 1825.410156 2128.875 C 1826.550781 2161.167969 1827.050781 2193.335938 1826.921875 2225.367188 C 1826.78125 2257.890625 1832.179688 2277.753906 1852.480469 2300.589844 C 1894.839844 2347.519531 1957.011719 2372.839844 2018.011719 2390.558594 C 2089.449219 2411.332031 2160.449219 2425.027344 2231.011719 2431.648438 C 2412.769531 2452.292969 2594.53125 2452.292969 2776.289062 2431.648438 C 2875.21875 2419.039062 3152.53125 2376.925781 3159.980469 2240.023438 C 3162.121094 2200.78125 3162.71875 2161.398438 3161.78125 2121.863281 C 3161.648438 2116.410156 3159.511719 2115.453125 3155.359375 2118.992188 C 3134.191406 2137.101562 3110.761719 2151.675781 3085.050781 2162.710938 C 3083.28125 2163.476562 3082.121094 2165.214844 3082.078125 2167.140625 C 3081.890625 2193.269531 3081.761719 2219.445312 3081.691406 2245.671875 C 3081.550781 2338.027344 2962.121094 2367.140625 2889.289062 2358.574219 C 2835.980469 2352.292969 2950.628906 2311.835938 2956.089844 2309.742188 C 2973.128906 2303.265625 3017.671875 2284.667969 3028.039062 2265.875 C 3031.449219 2259.710938 3033.171875 2250.054688 3033.199219 2236.90625 C 3033.199219 2222.984375 3033.089844 2209.042969 3032.859375 2195.085938 C 3032.808594 2192.453125 3030.628906 2190.320312 3028 2190.320312 C 3027.480469 2190.320312 3026.96875 2190.398438 3026.488281 2190.558594 C 2944.46875 2217.042969 2860.660156 2235.738281 2775.070312 2246.644531 "/>
<path fill-rule="nonzero" fill="rgb(100%, 100%, 100%)" fill-opacity="1" d="M 2113.679688 479.949219 C 2108.101562 477.800781 2101.070312 476.378906 2092.601562 475.660156 C 2048.75 471.929688 2003.511719 476.800781 1956.871094 490.269531 C 1908.28125 504.320312 1885.140625 535.980469 1887.441406 585.25 C 1887.460938 585.601562 1887.441406 585.941406 1887.378906 586.28125 C 1886.941406 588.921875 1884.398438 590.730469 1881.730469 590.289062 C 1881.410156 590.230469 1881.078125 590.140625 1880.769531 590.019531 C 1857.980469 581.160156 1839.191406 568.761719 1824.390625 552.828125 C 1795.078125 521.230469 1846.980469 490.460938 1869.769531 480.820312 C 1989.578125 430.191406 2127.898438 409.210938 2253.800781 398.488281 C 2478.628906 379.308594 2716.210938 384.128906 2937.390625 423.859375 C 2964.121094 428.679688 3226.679688 485.878906 3169.089844 548.640625 C 3155.488281 563.46875 3139.609375 574.929688 3121.46875 583.011719 C 3116.121094 585.410156 3113.839844 583.710938 3114.648438 577.898438 C 3118.96875 546.480469 3108.359375 521.121094 3082.808594 501.808594 C 3074.179688 495.28125 3058.761719 489.359375 3036.558594 484.03125 C 2911.828125 454.011719 2785.308594 438.980469 2657.011719 438.949219 C 2649.941406 438.949219 2647.128906 440.871094 2648.589844 444.699219 C 2649.089844 445.921875 2650.050781 446.890625 2651.269531 447.421875 C 2681.480469 460.078125 2710.859375 469.378906 2739.390625 475.320312 C 2828.238281 493.71875 2926.628906 505.988281 3017.28125 528.050781 C 3034.839844 532.328125 3050.019531 539.441406 3062.800781 549.371094 C 3064 550.28125 3064.691406 551.710938 3064.648438 553.21875 L 3064.511719 604.871094 C 3064.488281 607 3063.058594 608.878906 3061 609.5 C 2964.351562 638.25 2858.601562 657.578125 2743.769531 667.480469 C 2578.660156 681.699219 2408.839844 681.648438 2234.320312 667.339844 C 2130.878906 658.859375 2032.988281 641.421875 1940.648438 615 C 1938.589844 614.378906 1937.171875 612.5 1937.148438 610.371094 C 1936.808594 576.539062 1931.601562 549.320312 1964.699219 538.609375 C 2008.621094 524.429688 2052.78125 510.929688 2097.179688 498.109375 C 2103.640625 496.25 2109.621094 492.941406 2115.140625 488.171875 C 2116.210938 487.25 2116.820312 485.910156 2116.820312 484.5 C 2116.820312 482.480469 2115.570312 480.660156 2113.679688 479.949219 Z M 2957.011719 595.28125 C 2927.769531 590.351562 2897.960938 587.828125 2867.578125 587.730469 C 2822.230469 587.609375 2776.890625 587.949219 2731.550781 588.761719 C 2716.390625 589.050781 2714.929688 593.058594 2727.171875 600.78125 C 2741.609375 609.898438 2761.171875 616.101562 2785.828125 619.378906 C 2844.449219 627.171875 2901.71875 622.289062 2957.640625 604.730469 C 2970.5 600.699219 2970.289062 597.550781 2957.011719 595.28125 "/>
<path fill-rule="nonzero" fill="rgb(41.601562%, 36.108398%, 30.589294%)" fill-opacity="1" d="M 2957.011719 595.28125 C 2970.289062 597.550781 2970.5 600.699219 2957.640625 604.730469 C 2901.71875 622.289062 2844.449219 627.171875 2785.828125 619.378906 C 2761.171875 616.101562 2741.609375 609.898438 2727.171875 600.78125 C 2714.929688 593.058594 2716.390625 589.050781 2731.550781 588.761719 C 2776.890625 587.949219 2822.230469 587.609375 2867.578125 587.730469 C 2897.960938 587.828125 2927.769531 590.351562 2957.011719 595.28125 "/>
<path fill-rule="nonzero" fill="rgb(100%, 100%, 100%)" fill-opacity="1" d="M 3060.910156 708.378906 C 3046.691406 705.699219 3035.539062 703.460938 3020.691406 706.53125 C 2964.699219 718.070312 2908.71875 731.359375 2852.039062 738.710938 C 2836.789062 740.71875 2821.679688 743.53125 2806.71875 747.128906 C 2614.539062 756.738281 2422.230469 761.199219 2229.800781 760.519531 C 2148.199219 742.75 2065.871094 734.960938 1980.480469 717.769531 C 1942.839844 710.230469 1939.730469 734.03125 1940.121094 763.980469 C 1942.550781 940.699219 1944.988281 1117.378906 1947.421875 1294.019531 C 1899.679688 1280.898438 1855.308594 1258.949219 1814.308594 1228.140625 C 1813.109375 1227.21875 1812.398438 1225.800781 1812.371094 1224.300781 L 1802.871094 607.988281 C 1802.78125 602.761719 1804.839844 601.710938 1809.058594 604.820312 C 1812.789062 607.550781 1816.539062 610.289062 1820.300781 613.050781 C 1856.089844 639.238281 1915.191406 658.480469 1956.230469 669.28125 C 2047.859375 693.398438 2142.96875 709.371094 2241.578125 717.191406 C 2487 736.710938 2750.488281 730.71875 2993.429688 679.359375 C 3002.808594 677.378906 3013.75 674.570312 3026.238281 670.941406 C 3035.878906 668.148438 3045.539062 665.46875 3055.210938 662.910156 C 3055.609375 662.800781 3056.019531 662.75 3056.429688 662.75 C 3059.121094 662.75 3061.339844 664.96875 3061.339844 667.671875 C 3061.339844 667.671875 3061.339844 667.671875 3061.339844 667.679688 L 3060.910156 708.378906 "/>
<path fill-rule="nonzero" fill="rgb(100%, 100%, 100%)" fill-opacity="1" d="M 3103.890625 1278 L 3104.089844 1209.789062 L 3111.199219 645.480469 C 3111.230469 643.511719 3112.441406 641.738281 3114.261719 641 C 3134.910156 632.921875 3154.28125 622.511719 3172.390625 609.789062 C 3177.429688 606.28125 3179.96875 607.601562 3180.039062 613.730469 C 3180.269531 628.269531 3180.148438 651.589844 3179.699219 683.691406 C 3177.171875 856.429688 3175.199219 1032.308594 3173.808594 1211.351562 C 3173.808594 1212.261719 3173.519531 1213.179688 3172.980469 1213.980469 C 3155.578125 1240.269531 3132.550781 1261.609375 3103.890625 1278 "/>
<path fill-rule="nonzero" fill="rgb(72.264099%, 63.867188%, 50.584412%)" fill-opacity="1" d="M 3060.910156 708.378906 L 3055.988281 1124.78125 C 3055.988281 1125.050781 3055.960938 1125.320312 3055.910156 1125.589844 C 3055.441406 1128.21875 3052.910156 1129.988281 3050.308594 1129.53125 C 3050.039062 1129.480469 3049.769531 1129.410156 3049.511719 1129.308594 L 3009.980469 1115.101562 C 3008.808594 956.378906 3008.339844 846.871094 3008.570312 786.570312 C 3008.621094 761.929688 2993.28125 760.28125 2973.128906 764.371094 C 2945.050781 770.078125 2916.800781 774.828125 2888.359375 778.628906 C 2899.761719 772.558594 2909.621094 765.449219 2917.96875 757.308594 C 2922.441406 752.929688 2921.601562 750.171875 2915.429688 749.03125 C 2907.640625 747.570312 2899.808594 746.839844 2891.921875 746.839844 C 2881.941406 746.789062 2809.351562 749.519531 2806.71875 747.128906 C 2821.679688 743.53125 2836.789062 740.71875 2852.039062 738.710938 C 2908.71875 731.359375 2964.699219 718.070312 3020.691406 706.53125 C 3035.539062 703.460938 3046.691406 705.699219 3060.910156 708.378906 "/>
<path fill-rule="nonzero" fill="rgb(72.264099%, 63.867188%, 50.584412%)" fill-opacity="1" d="M 2229.800781 760.519531 C 2216.519531 761.109375 2203.640625 763.46875 2191.140625 767.628906 C 2185.101562 769.640625 2184.660156 772.5 2189.828125 776.199219 L 2204.191406 786.519531 C 2142.101562 785.539062 2080.480469 779.378906 2019.328125 768.019531 C 1990.171875 762.609375 1986.609375 779.21875 1986.808594 803.308594 C 1987.839844 917.820312 1989.519531 1032.359375 1991.820312 1146.941406 L 1989.480469 1195.328125 C 1986.949219 1227.359375 1986.558594 1259.550781 1988.308594 1291.871094 C 1988.410156 1293.449219 1987.699219 1295 1986.421875 1296.011719 C 1984.140625 1297.800781 1982.910156 1300.25 1982.71875 1303.359375 L 1947.421875 1294.019531 C 1944.988281 1117.378906 1942.550781 940.699219 1940.121094 763.980469 C 1939.730469 734.03125 1942.839844 710.230469 1980.480469 717.769531 C 2065.871094 734.960938 2148.199219 742.75 2229.800781 760.519531 "/>
<path fill-rule="nonzero" fill="rgb(3.500366%, 2.700806%, 8.203125%)" fill-opacity="1" d="M 2888.359375 778.628906 C 2861.199219 784.179688 2831.140625 788.351562 2798.199219 791.140625 C 2660.550781 802.859375 2525.351562 807.050781 2392.601562 803.699219 C 2329.238281 802.109375 2266.441406 796.378906 2204.191406 786.519531 L 2189.828125 776.199219 C 2184.660156 772.5 2185.101562 769.640625 2191.140625 767.628906 C 2203.640625 763.46875 2216.519531 761.109375 2229.800781 760.519531 C 2422.230469 761.199219 2614.539062 756.738281 2806.71875 747.128906 C 2809.351562 749.519531 2881.941406 746.789062 2891.921875 746.839844 C 2899.808594 746.839844 2907.640625 747.570312 2915.429688 749.03125 C 2921.601562 750.171875 2922.441406 752.929688 2917.96875 757.308594 C 2909.621094 765.449219 2899.761719 772.558594 2888.359375 778.628906 "/>
<path fill-rule="nonzero" fill="rgb(100%, 100%, 100%)" fill-opacity="1" d="M 3009.980469 1115.101562 C 2874.539062 1075.660156 2731.890625 1076.289062 2592.261719 1086.960938 C 2590.921875 1087.050781 2589.601562 1086.589844 2588.609375 1085.691406 C 2556.480469 1055.988281 2524.640625 1026.230469 2493.089844 996.398438 C 2413.96875 921.671875 2338.171875 942.511719 2268.449219 1009.691406 C 2234.371094 1042.511719 2200.390625 1075.371094 2166.5 1108.28125 C 2165.871094 1108.921875 2165.058594 1109.359375 2164.171875 1109.550781 L 1991.820312 1146.941406 C 1989.519531 1032.359375 1987.839844 917.820312 1986.808594 803.308594 C 1986.609375 779.21875 1990.171875 762.609375 2019.328125 768.019531 C 2080.480469 779.378906 2142.101562 785.539062 2204.191406 786.519531 C 2266.441406 796.378906 2329.238281 802.109375 2392.601562 803.699219 C 2525.351562 807.050781 2660.550781 802.859375 2798.199219 791.140625 C 2831.140625 788.351562 2861.199219 784.179688 2888.359375 778.628906 C 2916.800781 774.828125 2945.050781 770.078125 2973.128906 764.371094 C 2993.28125 760.28125 3008.621094 761.929688 3008.570312 786.570312 C 3008.339844 846.871094 3008.808594 956.378906 3009.980469 1115.101562 Z M 2750.578125 889.339844 C 2749.738281 890.238281 2749.269531 891.429688 2749.269531 892.671875 C 2749.269531 894.441406 2750.238281 896.078125 2751.800781 896.941406 C 2762.460938 902.730469 2773.421875 906.769531 2786.03125 907.550781 C 2838.609375 910.890625 2891.011719 908.910156 2943.230469 901.609375 C 2955.660156 899.859375 2955.828125 897.328125 2943.71875 894.019531 C 2892.410156 879.859375 2840.171875 873.371094 2787 874.539062 C 2771.578125 874.871094 2759.449219 879.800781 2750.578125 889.339844 "/>
<path fill-rule="nonzero" fill="rgb(41.601562%, 36.108398%, 30.589294%)" fill-opacity="1" d="M 2750.578125 889.339844 C 2759.449219 879.800781 2771.578125 874.871094 2787 874.539062 C 2840.171875 873.371094 2892.410156 879.859375 2943.71875 894.019531 C 2955.828125 897.328125 2955.660156 899.859375 2943.230469 901.609375 C 2891.011719 908.910156 2838.609375 910.890625 2786.03125 907.550781 C 2773.421875 906.769531 2762.460938 902.730469 2751.800781 896.941406 C 2750.238281 896.078125 2749.269531 894.441406 2749.269531 892.671875 C 2749.269531 891.429688 2749.738281 890.238281 2750.578125 889.339844 "/>
<path fill-rule="nonzero" fill="rgb(100%, 50.584412%, 0%)" fill-opacity="1" d="M 2268.738281 1343.53125 C 2264.949219 1340.480469 2260.699219 1338.890625 2255.988281 1338.761719 C 2254.800781 1338.761719 2253.648438 1338.300781 2252.78125 1337.488281 C 2211.941406 1299.519531 2187.339844 1275.949219 2178.96875 1266.800781 C 2172.351562 1259.589844 2164.21875 1246.03125 2154.578125 1226.101562 C 2150.78125 1205.648438 2158.71875 1190.898438 2173.859375 1175.609375 C 2198.589844 1150.648438 2247.96875 1101.921875 2322.011719 1029.410156 C 2355.058594 996.988281 2405.699219 984.671875 2442.210938 1018.941406 C 2495.570312 1068.988281 2547.910156 1119.921875 2602.191406 1169.089844 C 2667.140625 1228 2732.121094 1288.03125 2797.128906 1349.179688 C 2801.640625 1353.460938 2800.789062 1355.699219 2794.601562 1355.890625 L 2781.011719 1356.378906 C 2779.878906 1356.410156 2778.761719 1356.050781 2777.851562 1355.359375 C 2730.769531 1318.460938 2674.730469 1284.859375 2633.980469 1248.640625 C 2592.859375 1212.089844 2555.730469 1171.75 2522.589844 1127.609375 C 2516.910156 1120.050781 2511.730469 1113.898438 2507.058594 1109.160156 C 2502.21875 1104.289062 2497.269531 1099.570312 2492.210938 1094.988281 C 2487.730469 1090.929688 2485.039062 1091.910156 2484.128906 1097.910156 C 2479.621094 1128.03125 2486.109375 1156.039062 2503.601562 1181.941406 C 2521.808594 1209.011719 2551.351562 1239.941406 2592.210938 1274.738281 C 2623.691406 1301.578125 2656.101562 1326.5 2689.441406 1349.519531 C 2696.019531 1354.089844 2695.308594 1356.460938 2687.289062 1356.628906 C 2546.269531 1359.769531 2406.75 1355.410156 2268.738281 1343.53125 "/>
<path fill-rule="nonzero" fill="rgb(100%, 71.875%, 0%)" fill-opacity="1" d="M 3104.089844 1209.789062 L 3103.890625 1278 C 3041.429688 1320.890625 2953.070312 1343.289062 2877.800781 1351.269531 C 2876.410156 1351.390625 2875.019531 1350.910156 2874 1349.960938 L 2646.980469 1137.828125 C 2642.371094 1133.550781 2643.21875 1131.308594 2649.511719 1131.109375 C 2696.929688 1129.621094 2744.351562 1129.300781 2791.769531 1130.140625 C 2901.511719 1132.039062 3007.890625 1155.019531 3104.089844 1209.789062 "/>
<path fill-rule="nonzero" fill="rgb(100%, 71.875%, 0%)" fill-opacity="1" d="M 1982.71875 1303.359375 C 1982.910156 1300.25 1984.140625 1297.800781 1986.421875 1296.011719 C 1987.699219 1295 1988.410156 1293.449219 1988.308594 1291.871094 C 1986.558594 1259.550781 1986.949219 1227.359375 1989.480469 1195.328125 L 2105.988281 1170.550781 C 2111.960938 1169.25 2113.808594 1171.441406 2111.539062 1177.121094 C 2093.851562 1220.941406 2099.871094 1261.621094 2129.601562 1299.179688 C 2137 1308.558594 2145.148438 1316.898438 2154.039062 1324.199219 C 2160.441406 1329.460938 2159.511719 1331.75 2151.269531 1331.070312 C 2094.269531 1326.460938 2038.089844 1317.21875 1982.71875 1303.359375 "/>
<path fill-rule="nonzero" fill="rgb(83.984375%, 39.988708%, 0.39978%)" fill-opacity="1" d="M 2154.578125 1226.101562 C 2164.21875 1246.03125 2172.351562 1259.589844 2178.96875 1266.800781 C 2187.339844 1275.949219 2211.941406 1299.519531 2252.78125 1337.488281 C 2253.648438 1338.300781 2254.800781 1338.761719 2255.988281 1338.761719 C 2260.699219 1338.890625 2264.949219 1340.480469 2268.738281 1343.53125 C 2251.089844 1345.21875 2238.019531 1341.390625 2229.550781 1332.039062 C 2207.21875 1307.371094 2184.910156 1282.960938 2162.609375 1258.820312 C 2156.089844 1251.769531 2153.410156 1240.871094 2154.578125 1226.101562 "/>
<path fill-rule="nonzero" fill="rgb(82.617188%, 54.881287%, 19.993591%)" fill-opacity="1" d="M 1852.339844 1603.019531 C 1840.878906 1599.320312 1829.230469 1597.28125 1817.378906 1596.890625 L 1812.949219 1294.941406 C 1812.890625 1289.128906 1815.339844 1287.71875 1820.300781 1290.710938 L 1846.25 1306.089844 C 1847.710938 1306.96875 1848.609375 1308.539062 1848.640625 1310.230469 L 1852.339844 1603.019531 "/>
<path fill-rule="nonzero" fill="rgb(82.617188%, 54.881287%, 19.993591%)" fill-opacity="1" d="M 3169.230469 1588.371094 C 3157.839844 1589.859375 3146.609375 1589.050781 3135.539062 1585.929688 L 3136.511719 1320.359375 C 3136.511719 1318.828125 3137.25 1317.378906 3138.511719 1316.460938 L 3164.070312 1297.671875 C 3169.300781 1293.839844 3171.878906 1295.171875 3171.808594 1301.660156 L 3169.230469 1588.371094 "/>
<path fill-rule="nonzero" fill="rgb(99.609375%, 57.617188%, 0%)" fill-opacity="1" d="M 1940.699219 1344.941406 C 1938.070312 1406.238281 1934.371094 1474.050781 1942.839844 1534.570312 C 1945.730469 1555.179688 1955.839844 1569.058594 1973.171875 1576.199219 C 1931.550781 1627.269531 1927.261719 1696.839844 1976.289062 1745.28125 C 2064.828125 1832.6875 2153.761719 1919.722656 2243.089844 2006.382812 C 2249.808594 2012.9375 2248.488281 2015.730469 2239.140625 2014.757812 C 2193.800781 2009.953125 2148.089844 2002.144531 2102 1991.339844 C 2082.519531 1986.761719 2049.421875 1974.445312 2037.441406 1957.597656 C 2035.070312 1954.257812 2033.109375 1950.734375 2031.550781 1947.035156 C 2031.429688 1946.757812 2031.339844 1946.46875 2031.269531 1946.171875 C 2030.710938 1943.589844 2032.390625 1940.996094 2035 1940.425781 C 2035.289062 1940.363281 2035.589844 1940.324219 2035.878906 1940.316406 C 2045.679688 1939.960938 2055.421875 1938.96875 2065.089844 1937.347656 C 2073.601562 1935.917969 2080.660156 1933.289062 2086.269531 1929.460938 C 2113.628906 1910.8125 2075.410156 1901.464844 2062.558594 1899.226562 C 2013.75 1890.851562 1975.761719 1881.828125 1948.589844 1872.15625 C 1917.980469 1861.21875 1902.601562 1838.027344 1902.429688 1802.585938 C 1901.621094 1649.359375 1900.28125 1493.980469 1898.390625 1336.46875 C 1898.390625 1336.449219 1898.390625 1336.441406 1898.390625 1336.421875 C 1898.390625 1333.75 1900.589844 1331.550781 1903.261719 1331.550781 C 1903.828125 1331.550781 1904.390625 1331.648438 1904.921875 1331.839844 L 1940.699219 1344.941406 "/>
<path fill-rule="nonzero" fill="rgb(60.742188%, 30.589294%, 2.397156%)" fill-opacity="1" d="M 1940.699219 1344.941406 L 1998.78125 1357.839844 C 1996.671875 1394.96875 1996.199219 1431.96875 1997.371094 1468.851562 C 1998.300781 1497.078125 1994.988281 1515.53125 2024.101562 1521.621094 L 1973.171875 1576.199219 C 1955.839844 1569.058594 1945.730469 1555.179688 1942.839844 1534.570312 C 1934.371094 1474.050781 1938.070312 1406.238281 1940.699219 1344.941406 "/>
<path fill-rule="nonzero" fill="rgb(99.609375%, 57.617188%, 0%)" fill-opacity="1" d="M 2771.128906 1725.609375 C 2790.210938 1706.460938 2833.449219 1664.511719 2900.828125 1599.761719 C 2956.910156 1545.820312 2949.078125 1464.21875 2917.378906 1400.101562 C 2917.269531 1399.878906 2917.179688 1399.640625 2917.101562 1399.398438 C 2916.300781 1396.859375 2917.710938 1394.109375 2920.230469 1393.308594 C 2920.480469 1393.230469 2920.730469 1393.179688 2920.980469 1393.140625 C 2976.289062 1384.671875 3029.601562 1369.351562 3080.921875 1347.179688 C 3081.53125 1346.910156 3082.191406 1346.769531 3082.859375 1346.769531 C 3085.53125 1346.769531 3087.730469 1348.96875 3087.730469 1351.640625 C 3087.730469 1351.648438 3087.730469 1351.648438 3087.730469 1351.660156 C 3087.078125 1487.128906 3086.25 1622.398438 3085.25 1757.449219 C 3084.910156 1802.777344 3084.910156 1839.34375 3034.230469 1854.773438 C 3004.628906 1863.796875 2975.171875 1873.40625 2945.859375 1883.597656 C 2917.578125 1893.433594 2935.488281 1912.371094 2948.199219 1924.6875 C 2948.988281 1925.472656 2949.480469 1926.503906 2949.609375 1927.609375 C 2952.339844 1951.464844 2942.308594 1968.050781 2919.519531 1977.363281 C 2861.929688 2000.929688 2793.671875 2010.421875 2732.039062 2016.800781 C 2633.070312 2027.023438 2533.871094 2030.335938 2434.421875 2026.734375 C 2427.988281 2026.503906 2427.171875 2024.25 2431.941406 2019.964844 C 2505.941406 1953.460938 2560.191406 1901.628906 2594.691406 1864.464844 C 2609.070312 1848.980469 2619.019531 1827.363281 2624.539062 1799.613281 C 2625.019531 1797.160156 2627.339844 1795.46875 2629.839844 1795.71875 C 2647.238281 1797.570312 2664.039062 1796.351562 2680.230469 1792.070312 C 2715 1782.871094 2744.941406 1751.851562 2771.128906 1725.609375 "/>
<path fill-rule="nonzero" fill="rgb(99.609375%, 57.617188%, 0%)" fill-opacity="1" d="M 1998.78125 1357.839844 C 2058.828125 1368.589844 2118.179688 1377.199219 2176.828125 1383.691406 C 2188.871094 1385.03125 2189.109375 1387.539062 2177.558594 1391.238281 C 2165.058594 1395.269531 2153.328125 1400.78125 2142.359375 1407.789062 C 2133.140625 1413.640625 2119.851562 1425.21875 2102.480469 1442.550781 C 2076.230469 1468.78125 2050.101562 1495.140625 2024.101562 1521.621094 C 1994.988281 1515.53125 1998.300781 1497.078125 1997.371094 1468.851562 C 1996.199219 1431.96875 1996.671875 1394.96875 1998.78125 1357.839844 "/>
<path fill-rule="nonzero" fill="rgb(100%, 50.584412%, 0%)" fill-opacity="1" d="M 2607.109375 1405.988281 C 2571.179688 1445.140625 2533.789062 1482.800781 2494.941406 1518.988281 C 2450.050781 1478.390625 2399.269531 1425.421875 2346.640625 1410.28125 C 2339.921875 1408.328125 2337.988281 1410.550781 2340.851562 1416.949219 C 2348.050781 1433.039062 2358.210938 1447.890625 2371.320312 1461.488281 C 2400.109375 1491.421875 2429.210938 1521.070312 2458.621094 1550.441406 L 2449.898438 1557.941406 C 2409.789062 1521.359375 2365.550781 1478.441406 2317.191406 1429.171875 C 2303.171875 1414.820312 2286.109375 1403.019531 2266.019531 1393.769531 C 2265.519531 1393.550781 2265.148438 1393.140625 2265 1392.648438 C 2264.609375 1391.550781 2265.039062 1391.050781 2266.308594 1391.140625 C 2385.980469 1400.488281 2499.578125 1405.441406 2607.109375 1405.988281 "/>
<path fill-rule="nonzero" fill="rgb(99.609375%, 57.617188%, 0%)" fill-opacity="1" d="M 2876.628906 1461.148438 C 2869.359375 1450.671875 2862.539062 1441.160156 2856.179688 1432.621094 C 2846.449219 1419.53125 2832.570312 1413.050781 2820.109375 1402.339844 L 2856.480469 1399.960938 C 2857.808594 1399.859375 2859.109375 1400.300781 2860.078125 1401.171875 C 2876.730469 1416.171875 2882.25 1436.160156 2876.628906 1461.148438 "/>
<path fill-rule="nonzero" fill="rgb(100%, 91.796875%, 5.899048%)" fill-opacity="1" d="M 2820.109375 1402.339844 C 2832.570312 1413.050781 2846.449219 1419.53125 2856.179688 1432.621094 C 2862.539062 1441.160156 2869.359375 1450.671875 2876.628906 1461.148438 C 2850.050781 1490.199219 2807.769531 1533.109375 2749.808594 1589.878906 C 2731.371094 1607.921875 2716.210938 1630.890625 2704.328125 1658.769531 L 2619.46875 1733.890625 C 2572.390625 1670.011719 2509.058594 1620.109375 2449.898438 1557.941406 L 2458.621094 1550.441406 C 2491.71875 1581.179688 2524.378906 1612.371094 2556.570312 1644.019531 C 2567.429688 1654.730469 2581.011719 1662.761719 2594.789062 1665 C 2641.238281 1672.691406 2673.921875 1655.640625 2692.839844 1613.828125 C 2693.128906 1613.199219 2693.28125 1612.519531 2693.28125 1611.828125 C 2693.28125 1609.160156 2691.078125 1606.960938 2688.410156 1606.960938 C 2688.308594 1606.960938 2688.21875 1606.960938 2688.121094 1606.96875 C 2683.160156 1607.261719 2678.078125 1607.660156 2672.878906 1608.179688 C 2649.851562 1610.421875 2628.53125 1619.820312 2605.398438 1621.621094 C 2604.039062 1621.710938 2602.691406 1621.21875 2601.699219 1620.261719 L 2494.941406 1518.988281 C 2533.789062 1482.800781 2571.179688 1445.140625 2607.109375 1405.988281 Z M 2707.449219 1619.039062 C 2707.519531 1619.109375 2707.589844 1619.171875 2707.671875 1619.230469 C 2709.710938 1620.910156 2712.789062 1620.589844 2714.480469 1618.53125 C 2714.539062 1618.460938 2714.601562 1618.378906 2714.648438 1618.308594 C 2748.539062 1571.671875 2783.398438 1526.5 2819.230469 1482.820312 C 2828.480469 1471.570312 2854.578125 1444.261719 2830.570312 1434.570312 C 2829.359375 1434.078125 2828.011719 1434.089844 2826.828125 1434.621094 C 2813.488281 1440.300781 2802.339844 1448.980469 2793.378906 1460.671875 C 2762.871094 1500.328125 2733.890625 1541.011719 2706.429688 1582.71875 C 2696.75 1597.421875 2697.089844 1609.53125 2707.449219 1619.039062 "/>
<path fill-rule="nonzero" fill="rgb(3.500366%, 2.700806%, 8.203125%)" fill-opacity="1" d="M 2494.941406 1518.988281 L 2601.699219 1620.261719 C 2602.691406 1621.21875 2604.039062 1621.710938 2605.398438 1621.621094 C 2628.53125 1619.820312 2649.851562 1610.421875 2672.878906 1608.179688 C 2678.078125 1607.660156 2683.160156 1607.261719 2688.121094 1606.96875 C 2688.21875 1606.960938 2688.308594 1606.960938 2688.410156 1606.960938 C 2691.078125 1606.960938 2693.28125 1609.160156 2693.28125 1611.828125 C 2693.28125 1612.519531 2693.128906 1613.199219 2692.839844 1613.828125 C 2673.921875 1655.640625 2641.238281 1672.691406 2594.789062 1665 C 2581.011719 1662.761719 2567.429688 1654.730469 2556.570312 1644.019531 C 2524.378906 1612.371094 2491.71875 1581.179688 2458.621094 1550.441406 C 2429.210938 1521.070312 2400.109375 1491.421875 2371.320312 1461.488281 C 2358.210938 1447.890625 2348.050781 1433.039062 2340.851562 1416.949219 C 2337.988281 1410.550781 2339.921875 1408.328125 2346.640625 1410.28125 C 2399.269531 1425.421875 2450.050781 1478.390625 2494.941406 1518.988281 "/>
<path fill-rule="nonzero" fill="rgb(99.609375%, 57.617188%, 0%)" fill-opacity="1" d="M 2400.199219 1584.519531 L 2386.609375 1598.109375 C 2366.910156 1580.941406 2348.488281 1562.46875 2331.351562 1542.699219 C 2326.289062 1536.859375 2320.640625 1531.671875 2314.410156 1527.121094 C 2314.121094 1526.910156 2313.808594 1526.738281 2313.480469 1526.589844 C 2311 1525.519531 2308.089844 1526.660156 2307.03125 1529.109375 C 2306.890625 1529.441406 2306.789062 1529.789062 2306.71875 1530.140625 C 2300.160156 1565.941406 2311.039062 1595.828125 2339.339844 1619.820312 C 2302.859375 1651.460938 2269.570312 1686.660156 2239.480469 1725.421875 C 2189.089844 1673.328125 2126.828125 1619.578125 2056.960938 1593.039062 C 2059.589844 1583.398438 2064.511719 1574.980469 2071.710938 1567.769531 C 2115.140625 1524.511719 2158.148438 1480.738281 2200.730469 1436.46875 C 2227.179688 1429.980469 2248.539062 1434.859375 2264.800781 1451.121094 C 2309.558594 1495.949219 2354.691406 1540.410156 2400.199219 1584.519531 "/>
<path fill-rule="nonzero" fill="rgb(83.984375%, 39.988708%, 0.39978%)" fill-opacity="1" d="M 2707.449219 1619.039062 C 2697.089844 1609.53125 2696.75 1597.421875 2706.429688 1582.71875 C 2733.890625 1541.011719 2762.871094 1500.328125 2793.378906 1460.671875 C 2802.339844 1448.980469 2813.488281 1440.300781 2826.828125 1434.621094 C 2828.011719 1434.089844 2829.359375 1434.078125 2830.570312 1434.570312 C 2854.578125 1444.261719 2828.480469 1471.570312 2819.230469 1482.820312 C 2783.398438 1526.5 2748.539062 1571.671875 2714.648438 1618.308594 C 2714.601562 1618.378906 2714.539062 1618.460938 2714.480469 1618.53125 C 2712.789062 1620.589844 2709.710938 1620.910156 2707.671875 1619.230469 C 2707.589844 1619.171875 2707.519531 1619.109375 2707.449219 1619.039062 "/>
<path fill-rule="nonzero" fill="rgb(83.984375%, 39.988708%, 0.39978%)" fill-opacity="1" d="M 2200.730469 1436.46875 C 2158.148438 1480.738281 2115.140625 1524.511719 2071.710938 1567.769531 C 2064.511719 1574.980469 2059.589844 1583.398438 2056.960938 1593.039062 C 2052.390625 1592.128906 2049.078125 1593.199219 2047.03125 1596.25 C 2046.339844 1597.261719 2046.058594 1598.488281 2046.25 1599.710938 C 2047.96875 1611.070312 2052.761719 1621.019531 2060.609375 1629.558594 C 2059.671875 1648.21875 2066.570312 1664.921875 2081.308594 1679.648438 C 2119.46875 1717.820312 2158.019531 1755.621094 2196.929688 1793.039062 C 2196.019531 1802.777344 2198.070312 1810.40625 2203.070312 1815.925781 C 2232.539062 1848.511719 2269.261719 1881.261719 2313.238281 1914.171875 C 2316.261719 1923.324219 2319.039062 1933.417969 2321.570312 1944.453125 C 2323.421875 1952.535156 2325.089844 1958.476562 2326.578125 1962.273438 C 2341.679688 2000.734375 2352.921875 1950.78125 2356.039062 1938.269531 C 2364.308594 1939.570312 2370.941406 1937.769531 2375.898438 1932.867188 C 2419.949219 1889.179688 2463.941406 1845.476562 2507.890625 1801.757812 C 2522.058594 1837.539062 2499.171875 1863.050781 2477.558594 1884.8125 C 2438.480469 1924.183594 2399.421875 1963.667969 2360.371094 2003.265625 C 2359.378906 2004.226562 2358.039062 2004.738281 2356.671875 2004.679688 C 2339.699219 2003.867188 2326.890625 1999.113281 2318.261719 1990.414062 C 2212.710938 1884.472656 2104.480469 1781.128906 1993.570312 1680.378906 C 1989.871094 1663.671875 1991.429688 1647.359375 1998.25 1631.460938 C 2002.558594 1621.429688 2012.109375 1608.929688 2026.871094 1593.96875 C 2070.078125 1550.25 2113.308594 1506.539062 2156.570312 1462.859375 C 2166.628906 1452.730469 2181.351562 1443.929688 2200.730469 1436.46875 "/>
<path fill-rule="nonzero" fill="rgb(99.609375%, 57.617188%, 0%)" fill-opacity="1" d="M 2619.46875 1733.890625 L 2704.328125 1658.769531 L 2705.109375 1669.53125 C 2705.28125 1672.070312 2707.421875 1674.070312 2709.96875 1674.070312 C 2710.679688 1674.070312 2711.378906 1673.921875 2712.03125 1673.621094 C 2720.980469 1669.359375 2727.378906 1665.699219 2731.210938 1662.609375 C 2782.851562 1621.039062 2831.820312 1576.539062 2878.140625 1529.121094 C 2890.378906 1516.589844 2893.039062 1518.359375 2886.128906 1534.429688 C 2885.480469 1535.921875 2884.78125 1537.460938 2884.03125 1539.050781 C 2881.628906 1544.109375 2878.109375 1548.929688 2873.46875 1553.511719 C 2817.578125 1608.621094 2761.539062 1663.589844 2705.359375 1718.410156 C 2690.171875 1733.238281 2677.820312 1742.101562 2668.308594 1744.988281 C 2651.488281 1750.121094 2635.21875 1746.421875 2619.46875 1733.890625 "/>
<path fill-rule="nonzero" fill="rgb(3.500366%, 2.700806%, 8.203125%)" fill-opacity="1" d="M 2386.609375 1598.109375 C 2407.300781 1617.96875 2439.53125 1642.851562 2453.308594 1666.988281 C 2458.601562 1676.308594 2462.289062 1686.339844 2464.359375 1697.078125 C 2464.421875 1697.378906 2464.449219 1697.679688 2464.449219 1697.988281 C 2464.449219 1700.660156 2462.25 1702.859375 2459.578125 1702.859375 C 2459.398438 1702.859375 2459.230469 1702.851562 2459.058594 1702.828125 C 2447.761719 1701.589844 2437.328125 1697.980469 2427.75 1691.96875 C 2395.328125 1671.589844 2365.859375 1647.539062 2339.339844 1619.820312 C 2311.039062 1595.828125 2300.160156 1565.941406 2306.71875 1530.140625 C 2306.789062 1529.789062 2306.890625 1529.441406 2307.03125 1529.109375 C 2308.089844 1526.660156 2311 1525.519531 2313.480469 1526.589844 C 2313.808594 1526.738281 2314.121094 1526.910156 2314.410156 1527.121094 C 2320.640625 1531.671875 2326.289062 1536.859375 2331.351562 1542.699219 C 2348.488281 1562.46875 2366.910156 1580.941406 2386.609375 1598.109375 "/>
<path fill-rule="nonzero" fill="rgb(100%, 91.796875%, 5.899048%)" fill-opacity="1" d="M 2400.199219 1584.519531 L 2557.398438 1738.078125 C 2556.101562 1742.199219 2553.621094 1745.050781 2549.949219 1746.640625 C 2547.730469 1747.601562 2546.558594 1750.089844 2547.230469 1752.441406 C 2548.300781 1756.199219 2547.390625 1759.769531 2544.5 1763.148438 C 2538.949219 1769.578125 2526.75 1782.441406 2507.890625 1801.757812 C 2463.941406 1845.476562 2419.949219 1889.179688 2375.898438 1932.867188 C 2370.941406 1937.769531 2364.308594 1939.570312 2356.039062 1938.269531 C 2357.789062 1882.476562 2361.25 1845.476562 2319.429688 1805.214844 C 2292.03125 1778.789062 2265.390625 1752.191406 2239.480469 1725.421875 C 2269.570312 1686.660156 2302.859375 1651.460938 2339.339844 1619.820312 C 2365.859375 1647.539062 2395.328125 1671.589844 2427.75 1691.96875 C 2437.328125 1697.980469 2447.761719 1701.589844 2459.058594 1702.828125 C 2459.230469 1702.851562 2459.398438 1702.859375 2459.578125 1702.859375 C 2462.25 1702.859375 2464.449219 1700.660156 2464.449219 1697.988281 C 2464.449219 1697.679688 2464.421875 1697.378906 2464.359375 1697.078125 C 2462.289062 1686.339844 2458.601562 1676.308594 2453.308594 1666.988281 C 2439.53125 1642.851562 2407.300781 1617.96875 2386.609375 1598.109375 L 2400.199219 1584.519531 "/>
<path fill-rule="nonzero" fill="rgb(72.264099%, 63.867188%, 50.584412%)" fill-opacity="1" d="M 3135.539062 1585.929688 C 3146.609375 1589.050781 3157.839844 1589.859375 3169.230469 1588.371094 C 3168.160156 1734 3166.179688 1879.621094 3163.289062 2025.222656 C 3162.851562 2046.207031 3150.238281 2060.226562 3134.320312 2071.570312 C 3133.449219 2058.769531 3120.738281 2066.3125 3115.039062 2068.894531 C 3114.058594 2069.335938 3112.96875 2069.457031 3111.929688 2069.234375 C 3093.53125 2064.984375 3076.238281 2066.605469 3060.078125 2074.105469 C 3054.039062 2076.894531 3050.671875 2075.238281 3049.949219 2069.136719 C 3063.621094 2059.238281 3073.421875 2050.28125 3079.359375 2042.261719 C 3099.898438 2014.511719 3067.871094 2022.546875 3057.789062 2027.363281 C 2982.359375 2063.621094 2903.148438 2088.578125 2820.160156 2102.242188 L 2820.109375 2098.933594 C 2820.050781 2096.683594 2818.460938 2094.75 2816.261719 2094.257812 C 2791.300781 2088.808594 2768.179688 2078.957031 2746.878906 2064.707031 C 2807.550781 2056.367188 2861.988281 2045.769531 2910.21875 2032.914062 C 2964.511719 2018.457031 3010.078125 1984.960938 2998.339844 1922.351562 C 2997.898438 1919.871094 2999.429688 1917.433594 3001.851562 1916.753906 C 3075.019531 1896.546875 3134.960938 1874.980469 3133.839844 1785.25 C 3133.351562 1745.101562 3133.921875 1678.660156 3135.539062 1585.929688 "/>
<path fill-rule="nonzero" fill="rgb(3.500366%, 2.700806%, 8.203125%)" fill-opacity="1" d="M 2056.960938 1593.039062 C 2126.828125 1619.578125 2189.089844 1673.328125 2239.480469 1725.421875 C 2265.390625 1752.191406 2292.03125 1778.789062 2319.429688 1805.214844 C 2361.25 1845.476562 2357.789062 1882.476562 2356.039062 1938.269531 C 2352.921875 1950.78125 2341.679688 2000.734375 2326.578125 1962.273438 C 2325.089844 1958.476562 2323.421875 1952.535156 2321.570312 1944.453125 C 2319.039062 1933.417969 2316.261719 1923.324219 2313.238281 1914.171875 C 2312.710938 1886.324219 2309.589844 1864.367188 2289.339844 1845.28125 C 2263.601562 1821.035156 2238.820312 1795.851562 2215 1769.71875 C 2179.679688 1730.351562 2146.789062 1698.800781 2116.308594 1675.078125 C 2090.46875 1654.988281 2071.910156 1639.808594 2060.609375 1629.558594 C 2052.761719 1621.019531 2047.96875 1611.070312 2046.25 1599.710938 C 2046.058594 1598.488281 2046.339844 1597.261719 2047.03125 1596.25 C 2049.078125 1593.199219 2052.390625 1592.128906 2056.960938 1593.039062 "/>
<path fill-rule="nonzero" fill="rgb(72.264099%, 63.867188%, 50.584412%)" fill-opacity="1" d="M 1852.339844 1603.019531 C 1852.371094 1671.929688 1852.78125 1740.878906 1853.550781 1809.886719 C 1854.378906 1885.15625 1910.660156 1917.191406 1976.339844 1929.265625 C 1978.609375 1929.683594 1980.28125 1931.699219 1980.28125 1934.035156 C 1980.378906 2001.902344 2050.828125 2031.453125 2107.738281 2041.726562 C 2187.199219 2056.039062 2255.910156 2065.4375 2313.878906 2069.917969 C 2277.328125 2079.167969 2250.160156 2083.90625 2232.378906 2084.132812 C 2221.628906 2084.261719 2216.308594 2088.9375 2216.410156 2098.152344 C 2108.71875 2081.359375 2018.058594 2062.078125 1919.230469 2026.488281 C 1916.800781 2025.613281 1912.199219 2025.710938 1905.449219 2026.78125 C 1905.359375 2026.796875 1905.269531 2026.8125 1905.179688 2026.832031 C 1902.570312 2027.390625 1900.878906 2029.980469 1901.429688 2032.5625 C 1901.460938 2032.664062 1901.480469 2032.765625 1901.511719 2032.867188 C 1903.878906 2041.46875 1908.859375 2050.378906 1916.460938 2059.59375 L 1836.171875 2059.839844 C 1828.53125 2052.777344 1823.03125 2044.988281 1823.171875 2033.550781 C 1825.171875 1888.417969 1818.738281 1742.171875 1817.378906 1596.890625 C 1829.230469 1597.28125 1840.878906 1599.320312 1852.339844 1603.019531 "/>
<path fill-rule="nonzero" fill="rgb(99.609375%, 57.617188%, 0%)" fill-opacity="1" d="M 2060.609375 1629.558594 C 2071.910156 1639.808594 2090.46875 1654.988281 2116.308594 1675.078125 C 2146.789062 1698.800781 2179.679688 1730.351562 2215 1769.71875 C 2207.300781 1776.078125 2201.28125 1783.859375 2196.929688 1793.039062 C 2158.019531 1755.621094 2119.46875 1717.820312 2081.308594 1679.648438 C 2066.570312 1664.921875 2059.671875 1648.21875 2060.609375 1629.558594 "/>
<path fill-rule="nonzero" fill="rgb(100%, 71.875%, 0%)" fill-opacity="1" d="M 2507.890625 1801.757812 C 2526.75 1782.441406 2538.949219 1769.578125 2544.5 1763.148438 C 2547.390625 1759.769531 2548.300781 1756.199219 2547.230469 1752.441406 C 2546.558594 1750.089844 2547.730469 1747.601562 2549.949219 1746.640625 C 2553.621094 1745.050781 2556.101562 1742.199219 2557.398438 1738.078125 C 2593.179688 1780.53125 2573.078125 1813.296875 2537.980469 1847.519531 C 2493.800781 1890.65625 2449.289062 1933.582031 2404.429688 1976.292969 C 2385.351562 1994.503906 2343.378906 2032.378906 2317.429688 2007.0625 C 2163.679688 1856.980469 2059.871094 1755.910156 2005.988281 1703.851562 C 1999.371094 1697.421875 1995.230469 1689.601562 1993.570312 1680.378906 C 2104.480469 1781.128906 2212.710938 1884.472656 2318.261719 1990.414062 C 2326.890625 1999.113281 2339.699219 2003.867188 2356.671875 2004.679688 C 2358.039062 2004.738281 2359.378906 2004.226562 2360.371094 2003.265625 C 2399.421875 1963.667969 2438.480469 1924.183594 2477.558594 1884.8125 C 2499.171875 1863.050781 2522.058594 1837.539062 2507.890625 1801.757812 "/>
<path fill-rule="nonzero" fill="rgb(100%, 91.796875%, 5.899048%)" fill-opacity="1" d="M 2215 1769.71875 C 2238.820312 1795.851562 2263.601562 1821.035156 2289.339844 1845.28125 C 2309.589844 1864.367188 2312.710938 1886.324219 2313.238281 1914.171875 C 2269.261719 1881.261719 2232.539062 1848.511719 2203.070312 1815.925781 C 2198.070312 1810.40625 2196.019531 1802.777344 2196.929688 1793.039062 C 2201.28125 1783.859375 2207.300781 1776.078125 2215 1769.71875 "/>
<path fill-rule="nonzero" fill="rgb(3.500366%, 2.700806%, 8.203125%)" fill-opacity="1" d="M 3049.949219 2069.136719 C 2982.929688 2109.058594 2910.78125 2134.960938 2833.5 2146.839844 C 2759.691406 2157.308594 2659.589844 2164.464844 2585.980469 2137.832031 C 2579.5 2135.496094 2581.351562 2131.164062 2587.238281 2130.773438 C 2665.371094 2125.191406 2743.011719 2115.679688 2820.160156 2102.242188 C 2903.148438 2088.578125 2982.359375 2063.621094 3057.789062 2027.363281 C 3067.871094 2022.546875 3099.898438 2014.511719 3079.359375 2042.261719 C 3073.421875 2050.28125 3063.621094 2059.238281 3049.949219 2069.136719 "/>
<path fill-rule="nonzero" fill="rgb(3.500366%, 2.700806%, 8.203125%)" fill-opacity="1" d="M 2216.410156 2098.152344 L 2402.191406 2121.425781 C 2408.78125 2122.269531 2409.359375 2124.605469 2403.941406 2128.4375 C 2403.171875 2129.019531 2402.210938 2129.492188 2401.070312 2129.847656 C 2314.75 2158.378906 2216.75 2146.984375 2122.691406 2131.164062 C 2044.789062 2118.050781 1976.050781 2094.195312 1916.460938 2059.59375 C 1908.859375 2050.378906 1903.878906 2041.46875 1901.511719 2032.867188 C 1901.480469 2032.765625 1901.460938 2032.664062 1901.429688 2032.5625 C 1900.878906 2029.980469 1902.570312 2027.390625 1905.179688 2026.832031 C 1905.269531 2026.8125 1905.359375 2026.796875 1905.449219 2026.78125 C 1912.199219 2025.710938 1916.800781 2025.613281 1919.230469 2026.488281 C 2018.058594 2062.078125 2108.71875 2081.359375 2216.410156 2098.152344 "/>
<path fill-rule="nonzero" fill="rgb(99.609375%, 57.617188%, 0%)" fill-opacity="1" d="M 1916.460938 2059.59375 C 1976.050781 2094.195312 2044.789062 2118.050781 2122.691406 2131.164062 C 2216.75 2146.984375 2314.75 2158.378906 2401.070312 2129.847656 C 2402.210938 2129.492188 2403.171875 2129.019531 2403.941406 2128.4375 C 2409.359375 2124.605469 2408.78125 2122.269531 2402.191406 2121.425781 L 2216.410156 2098.152344 C 2216.308594 2088.9375 2221.628906 2084.261719 2232.378906 2084.132812 C 2250.160156 2083.90625 2277.328125 2079.167969 2313.878906 2069.917969 C 2458.5 2080.109375 2602.839844 2078.371094 2746.878906 2064.707031 C 2768.179688 2078.957031 2791.300781 2088.808594 2816.261719 2094.257812 C 2818.460938 2094.75 2820.050781 2096.683594 2820.109375 2098.933594 L 2820.160156 2102.242188 C 2743.011719 2115.679688 2665.371094 2125.191406 2587.238281 2130.773438 C 2581.351562 2131.164062 2579.5 2135.496094 2585.980469 2137.832031 C 2659.589844 2164.464844 2759.691406 2157.308594 2833.5 2146.839844 C 2838.75 2147.035156 2842.101562 2149.191406 2843.53125 2153.316406 C 2844.261719 2155.4375 2846.410156 2156.777344 2848.691406 2156.527344 C 2851.738281 2156.171875 2854.28125 2157.128906 2856.328125 2159.402344 C 2863.761719 2167.742188 2867.511719 2172.125 2867.578125 2172.546875 C 2867.898438 2175.890625 2867.488281 2179.085938 2866.359375 2182.136719 C 2670.640625 2219.574219 2458.128906 2220.792969 2256.570312 2202.195312 C 2171.929688 2194.40625 2088.820312 2178.664062 2007.25 2154.96875 C 1947.570312 2137.636719 1879.460938 2107.597656 1836.171875 2059.839844 L 1916.460938 2059.59375 "/>
<path fill-rule="nonzero" fill="rgb(82.617188%, 54.881287%, 19.993591%)" fill-opacity="1" d="M 3134.320312 2071.570312 C 3068.839844 2133.257812 2954.628906 2167.578125 2866.359375 2182.136719 C 2867.488281 2179.085938 2867.898438 2175.890625 2867.578125 2172.546875 C 2867.511719 2172.125 2863.761719 2167.742188 2856.328125 2159.402344 C 2854.28125 2157.128906 2851.738281 2156.171875 2848.691406 2156.527344 C 2846.410156 2156.777344 2844.261719 2155.4375 2843.53125 2153.316406 C 2842.101562 2149.191406 2838.75 2147.035156 2833.5 2146.839844 C 2910.78125 2134.960938 2982.929688 2109.058594 3049.949219 2069.136719 C 3050.671875 2075.238281 3054.039062 2076.894531 3060.078125 2074.105469 C 3076.238281 2066.605469 3093.53125 2064.984375 3111.929688 2069.234375 C 3112.96875 2069.457031 3114.058594 2069.335938 3115.039062 2068.894531 C 3120.738281 2066.3125 3133.449219 2058.769531 3134.320312 2071.570312 "/>
<path fill-rule="nonzero" fill="rgb(56.443787%, 44.309998%, 29.393005%)" fill-opacity="1" d="M 2776.289062 2431.648438 C 2774.019531 2369.980469 2773.609375 2308.3125 2775.070312 2246.644531 C 2860.660156 2235.738281 2944.46875 2217.042969 3026.488281 2190.558594 C 3026.96875 2190.398438 3027.480469 2190.320312 3028 2190.320312 C 3030.628906 2190.320312 3032.808594 2192.453125 3032.859375 2195.085938 C 3033.089844 2209.042969 3033.199219 2222.984375 3033.199219 2236.90625 C 3033.171875 2250.054688 3031.449219 2259.710938 3028.039062 2265.875 C 3017.671875 2284.667969 2973.128906 2303.265625 2956.089844 2309.742188 C 2950.628906 2311.835938 2835.980469 2352.292969 2889.289062 2358.574219 C 2962.121094 2367.140625 3081.550781 2338.027344 3081.691406 2245.671875 C 3081.761719 2219.445312 3081.890625 2193.269531 3082.078125 2167.140625 C 3082.121094 2165.214844 3083.28125 2163.476562 3085.050781 2162.710938 C 3110.761719 2151.675781 3134.191406 2137.101562 3155.359375 2118.992188 C 3159.511719 2115.453125 3161.648438 2116.410156 3161.78125 2121.863281 C 3162.71875 2161.398438 3162.121094 2200.78125 3159.980469 2240.023438 C 3152.53125 2376.925781 2875.21875 2419.039062 2776.289062 2431.648438 "/>
<path fill-rule="nonzero" fill="rgb(100%, 100%, 100%)" fill-opacity="1" d="M 1910.46875 2262.808594 C 1885.480469 2266.085938 1866.148438 2278.679688 1852.480469 2300.589844 C 1832.179688 2277.753906 1826.78125 2257.890625 1826.921875 2225.367188 C 1827.050781 2193.335938 1826.550781 2161.167969 1825.410156 2128.875 C 1825.191406 2121.863281 1827.820312 2120.515625 1833.300781 2124.835938 C 1855.828125 2142.589844 1880.488281 2156.773438 1907.300781 2167.386719 C 1909.148438 2168.121094 1910.371094 2169.921875 1910.371094 2171.914062 L 1910.46875 2262.808594 "/>
<path fill-rule="nonzero" fill="rgb(87.5%, 82.617188%, 68.554688%)" fill-opacity="1" d="M 2231.011719 2247.035156 C 2232.28125 2291.824219 2232.71875 2336.617188 2232.328125 2381.40625 C 2232.230469 2394.550781 2234.859375 2414.21875 2231.011719 2431.648438 C 2160.449219 2425.027344 2089.449219 2411.332031 2018.011719 2390.558594 C 1957.011719 2372.839844 1894.839844 2347.519531 1852.480469 2300.589844 C 1866.148438 2278.679688 1885.480469 2266.085938 1910.46875 2262.808594 C 1915.5 2293.253906 1932 2316.621094 1959.980469 2332.914062 C 2000.339844 2356.480469 2058.421875 2376.003906 2104.871094 2363.683594 C 2110.710938 2362.128906 2111.378906 2359.335938 2106.871094 2355.3125 C 2068.789062 2321.570312 1964.21875 2300.539062 1960.761719 2255.019531 C 1959.300781 2236.160156 1958.960938 2217.289062 1959.738281 2198.398438 C 1959.839844 2195.800781 1962 2193.722656 1964.601562 2193.722656 C 1965.058594 2193.722656 1965.53125 2193.789062 1965.96875 2193.917969 C 2052.691406 2219.300781 2141.039062 2237.003906 2231.011719 2247.035156 "/>
<path fill-rule="nonzero" fill="rgb(41.601562%, 36.108398%, 30.589294%)" fill-opacity="1" d="M 3209.929688 2240.703125 C 3259.101562 2249.078125 3418.648438 2287.441406 3426.871094 2347.863281 C 3440.851562 2449.859375 3041.191406 2498.59375 2967.671875 2506.527344 C 2764.070312 2528.632812 2560 2533.96875 2355.449219 2522.546875 C 2252.480469 2516.800781 1776 2482.183594 1753.890625 2352.535156 C 1753.738281 2351.585938 1753.851562 2350.617188 1754.238281 2349.761719 C 1762.550781 2330.253906 1775.351562 2315.859375 1792.648438 2306.578125 C 1823.96875 2350.71875 1866.550781 2384.050781 1920.398438 2406.578125 C 2030.328125 2452.488281 2156.179688 2473.128906 2272.058594 2483.597656 C 2493.089844 2503.511719 2726.921875 2500.441406 2943.769531 2449.175781 C 3048.199219 2424.492188 3205.359375 2372.59375 3209.929688 2240.703125 "/>
<path fill-rule="nonzero" fill="rgb(100%, 100%, 100%)" fill-opacity="1" d="M 2231.011719 2247.035156 C 2412.378906 2265.308594 2593.738281 2265.179688 2775.070312 2246.644531 C 2773.609375 2308.3125 2774.019531 2369.980469 2776.289062 2431.648438 C 2594.53125 2452.292969 2412.769531 2452.292969 2231.011719 2431.648438 C 2234.859375 2414.21875 2232.230469 2394.550781 2232.328125 2381.40625 C 2232.71875 2336.617188 2232.28125 2291.824219 2231.011719 2247.035156 "/>
</svg>
