<?xml version="1.0" encoding="UTF-8"?>
<svg xmlns="http://www.w3.org/2000/svg" xmlns:xlink="http://www.w3.org/1999/xlink" width="3115.8" height="3313.8" viewBox="0 0 3115.8 3313.8">
<defs>
<clipPath id="clip-0">
<path clip-rule="evenodd" d="M 470.699219 962.101562 C 503.5 962.101562 530.300781 935.398438 530.300781 902.5 C 530.300781 869.699219 503.5 842.898438 470.699219 842.898438 C 437.898438 842.898438 411.101562 869.601562 411.101562 902.5 C 411.101562 935.398438 437.898438 962.101562 470.699219 962.101562 Z M 1014.300781 769.300781 C 1047.101562 769.300781 1073.898438 742.601562 1073.898438 709.699219 C 1073.898438 676.898438 1047.101562 650.101562 1014.300781 650.101562 C 981.5 650.101562 954.699219 676.800781 954.699219 709.699219 C 954.699219 742.601562 981.5 769.300781 1014.300781 769.300781 Z M 1557.898438 570.5 C 1590.699219 570.5 1617.5 543.800781 1617.5 510.898438 C 1617.5 478 1590.699219 451.199219 1557.898438 451.199219 C 1525.101562 451.199219 1498.300781 478 1498.300781 510.898438 C 1498.300781 543.800781 1525.101562 570.5 1557.898438 570.5 Z M 2101.5 426.101562 C 2134.300781 426.101562 2161.101562 399.300781 2161.101562 366.5 C 2161.101562 333.699219 2134.300781 306.800781 2101.5 306.800781 C 2068.699219 306.800781 2041.898438 333.601562 2041.898438 366.5 C 2041.898438 399.199219 2068.699219 426.101562 2101.5 426.101562 Z M 2645.101562 150.898438 C 2612.300781 150.898438 2585.5 177.699219 2585.5 210.601562 C 2585.5 243.398438 2612.300781 270.199219 2645.101562 270.199219 C 2677.898438 270.199219 2704.800781 243.5 2704.800781 210.601562 C 2704.800781 177.601562 2678 150.898438 2645.101562 150.898438 Z M 2101.5 2261.601562 C 2134.300781 2261.601562 2161.101562 2234.898438 2161.101562 2202 C 2161.101562 2169.199219 2134.300781 2142.300781 2101.5 2142.300781 C 2068.699219 2142.300781 2041.898438 2169.101562 2041.898438 2202 C 2041.898438 2234.898438 2068.699219 2261.601562 2101.5 2261.601562 Z M 2645.101562 2298.199219 C 2612.300781 2298.199219 2585.5 2324.898438 2585.5 2357.800781 C 2585.5 2390.601562 2612.300781 2417.5 2645.101562 2417.5 C 2677.898438 2417.5 2704.800781 2390.699219 2704.800781 2357.800781 C 2704.800781 2324.898438 2678 2298.199219 2645.101562 2298.199219 Z M 1557.898438 2117 C 1590.699219 2117 1617.5 2090.199219 1617.5 2057.300781 C 1617.5 2024.398438 1590.699219 1997.699219 1557.898438 1997.699219 C 1525.101562 1997.699219 1498.300781 2024.398438 1498.300781 2057.300781 C 1498.300781 2090.300781 1525.101562 2117 1557.898438 2117 Z M 1014.300781 1918.300781 C 1047.101562 1918.300781 1073.898438 1891.601562 1073.898438 1858.699219 C 1073.898438 1825.898438 1047.101562 1799.101562 1014.300781 1799.101562 C 981.5 1799.101562 954.699219 1825.800781 954.699219 1858.699219 C 954.699219 1891.601562 981.5 1918.300781 1014.300781 1918.300781 Z M 470.699219 1725.300781 C 503.5 1725.300781 530.300781 1698.601562 530.300781 1665.699219 C 530.300781 1632.898438 503.5 1606.101562 470.699219 1606.101562 C 437.898438 1606.101562 411.101562 1632.800781 411.101562 1665.699219 C 411.101562 1698.601562 437.898438 1725.300781 470.699219 1725.300781 Z M 0 956.898438 L 0 1611.199219 C 0 1619.300781 6.601562 1625.898438 14.699219 1625.898438 L 159.101562 1625.898438 L 159.101562 942.199219 L 14.699219 942.199219 C 6.601562 942.300781 0 948.800781 0 956.898438 Z M 331.699219 1665.699219 C 331.699219 1742.398438 394.101562 1804.800781 470.800781 1804.800781 C 547.5 1804.800781 609.898438 1742.398438 609.898438 1665.699219 C 609.898438 1589 547.398438 1526.601562 470.699219 1526.601562 C 394 1526.601562 331.699219 1589.101562 331.699219 1665.699219 Z M 331.699219 902.601562 C 331.699219 979.300781 394.101562 1041.699219 470.800781 1041.699219 C 547.5 1041.699219 609.898438 979.300781 609.898438 902.601562 C 609.898438 825.898438 547.5 763.5 470.800781 763.5 C 394 763.5 331.699219 825.898438 331.699219 902.601562 Z M 238.601562 1842.398438 L 238.601562 1668.300781 C 238.699219 1667.398438 238.699219 1666.601562 238.699219 1665.800781 C 238.699219 1664.898438 238.699219 1664.101562 238.601562 1663.300781 L 238.601562 905.101562 C 238.699219 904.300781 238.699219 903.398438 238.699219 902.601562 C 238.699219 901.699219 238.699219 900.898438 238.601562 900.101562 L 238.601562 726.101562 C 238.601562 712.5 249.601562 701.5 263.199219 701.5 L 702.800781 701.5 L 702.800781 1867 L 263.199219 1867 C 249.601562 1866.898438 238.601562 1855.800781 238.601562 1842.398438 Z M 875.199219 1858.699219 C 875.199219 1935.398438 937.601562 1997.800781 1014.300781 1997.800781 C 1091 1997.800781 1153.398438 1935.398438 1153.398438 1858.699219 C 1153.398438 1782 1091 1719.601562 1014.300781 1719.601562 C 937.601562 1719.601562 875.199219 1782 875.199219 1858.699219 Z M 875.199219 709.699219 C 875.199219 786.398438 937.601562 848.800781 1014.300781 848.800781 C 1091 848.800781 1153.398438 786.398438 1153.398438 709.699219 C 1153.398438 633 1091 570.601562 1014.300781 570.601562 C 937.601562 570.601562 875.199219 633 875.199219 709.699219 Z M 782.300781 2035.199219 L 782.300781 533.101562 C 782.300781 519.601562 793.300781 508.5 806.898438 508.5 L 1246.398438 508.5 L 1246.398438 2059.699219 L 806.898438 2059.699219 C 793.300781 2059.800781 782.300781 2048.800781 782.300781 2035.199219 Z M 1418.800781 2057.398438 C 1418.800781 2134.199219 1481.199219 2196.601562 1557.898438 2196.601562 C 1634.601562 2196.601562 1697 2134.199219 1697 2057.398438 C 1697 1980.699219 1634.601562 1918.300781 1557.898438 1918.300781 C 1481.300781 1918.300781 1418.800781 1980.699219 1418.800781 2057.398438 Z M 1418.800781 510.898438 C 1418.800781 587.601562 1481.199219 650 1557.898438 650 C 1634.601562 650 1697 587.601562 1697 510.898438 C 1697 434.101562 1634.601562 371.699219 1557.898438 371.699219 C 1481.300781 371.699219 1418.800781 434.199219 1418.800781 510.898438 Z M 1325.898438 471.199219 C 1326 470.398438 1326 469.601562 1326 468.800781 C 1326 468 1326 467.101562 1325.898438 466.398438 L 1325.898438 331.398438 C 1325.898438 317.898438 1336.898438 306.800781 1350.5 306.800781 L 1790 306.800781 L 1790 2261.5 L 1350.398438 2261.5 C 1336.898438 2261.5 1325.800781 2250.5 1325.800781 2236.898438 L 1325.800781 2101.800781 C 1325.898438 2101 1325.898438 2100.199219 1325.898438 2099.398438 C 1325.898438 2098.601562 1325.898438 2097.800781 1325.800781 2097 Z M 1962.398438 2202 C 1962.398438 2278.699219 2024.800781 2341.101562 2101.5 2341.101562 C 2178.199219 2341.101562 2240.601562 2278.699219 2240.601562 2202 C 2240.601562 2125.199219 2178.199219 2062.800781 2101.5 2062.800781 C 2024.800781 2062.800781 1962.398438 2125.199219 1962.398438 2202 Z M 1962.398438 366.5 C 1962.398438 443.199219 2024.800781 505.601562 2101.5 505.601562 C 2178.199219 505.601562 2240.601562 443.199219 2240.601562 366.5 C 2240.601562 289.699219 2178.199219 227.300781 2101.5 227.300781 C 2024.800781 227.300781 1962.398438 289.699219 1962.398438 366.5 Z M 1869.398438 269.601562 C 1869.5 268.699219 1869.5 267.898438 1869.5 267 C 1869.5 266.101562 1869.5 265.300781 1869.398438 264.398438 L 1869.398438 182.898438 C 1869.398438 169.398438 1880.398438 158.300781 1894 158.300781 L 2333.601562 158.300781 L 2333.601562 2409.800781 L 1894 2409.800781 C 1880.5 2409.800781 1869.398438 2398.800781 1869.398438 2385.199219 L 1869.398438 2303.601562 C 1869.5 2302.699219 1869.5 2301.898438 1869.5 2301.101562 C 1869.5 2300.300781 1869.5 2299.398438 1869.398438 2298.601562 Z M 2784.300781 210.5 C 2784.300781 133.699219 2721.898438 71.300781 2645.101562 71.300781 C 2568.398438 71.300781 2506 133.699219 2506 210.5 C 2506 287.199219 2568.398438 349.601562 2645.101562 349.601562 C 2721.898438 349.601562 2784.300781 287.199219 2784.300781 210.5 Z M 2784.300781 2357.800781 C 2784.300781 2281.101562 2721.898438 2218.699219 2645.101562 2218.699219 C 2568.398438 2218.699219 2506 2281.101562 2506 2357.800781 C 2506 2434.5 2568.398438 2496.898438 2645.101562 2496.898438 C 2721.898438 2496.898438 2784.300781 2434.5 2784.300781 2357.800781 Z M 2877.101562 26.101562 L 2877.101562 2542.5 C 2877.101562 2556.800781 2865.398438 2568.5 2851 2568.5 L 2439 2568.5 C 2424.699219 2568.5 2412.898438 2556.800781 2412.898438 2542.398438 L 2412.898438 26.101562 C 2412.898438 11.800781 2424.601562 0 2439 0 L 2851 0 C 2865.5 0 2877.101562 11.699219 2877.101562 26.101562 Z M 3101.199219 451.300781 L 2956.699219 451.300781 L 2956.699219 2117.101562 L 3101.199219 2117.101562 C 3109.300781 2117.101562 3115.800781 2110.5 3115.800781 2102.398438 L 3115.800781 466 C 3115.898438 457.898438 3109.300781 451.300781 3101.199219 451.300781 Z M 285.199219 3028.699219 C 265.300781 3028.699219 246.398438 3036.601562 232.300781 3050.601562 C 218.101562 3064.699219 210.398438 3083.601562 210.398438 3103.601562 C 210.398438 3144.800781 243.898438 3178.398438 285.300781 3178.398438 L 2375.300781 3178.398438 C 2369 3154 2365.898438 3128.898438 2365.898438 3103.601562 C 2365.898438 3077.800781 2369.199219 3052.699219 2375.300781 3028.699219 Z M 2877.101562 3103.5 C 2877.101562 3219.5 2782.800781 3313.800781 2666.800781 3313.800781 C 2576.398438 3313.800781 2499 3256.398438 2469.398438 3176.101562 L 2469.398438 3176 L 2469.199219 3175.699219 L 2469.199219 3175.601562 C 2460.898438 3153.101562 2456.398438 3128.800781 2456.398438 3103.398438 C 2456.398438 2987.398438 2550.800781 2893.101562 2666.699219 2893.101562 C 2782.800781 2893.199219 2877.101562 2987.5 2877.101562 3103.5 "/>
</clipPath>
<linearGradient id="linear-pattern-0" gradientUnits="userSpaceOnUse" x1="-0.185833" y1="0" x2="1.070748" y2="0" gradientTransform="matrix(2558.37, 2558.37, -2558.37, 2558.37, 459.859, 491)">
<stop offset="0" stop-color="rgb(83.769226%, 15.103149%, 17.62085%)" stop-opacity="1"/>
<stop offset="0.125" stop-color="rgb(83.769226%, 15.103149%, 17.62085%)" stop-opacity="1"/>
<stop offset="0.140625" stop-color="rgb(83.769226%, 15.103149%, 17.62085%)" stop-opacity="1"/>
<stop offset="0.148438" stop-color="rgb(83.769226%, 15.118408%, 17.61322%)" stop-opacity="1"/>
<stop offset="0.152344" stop-color="rgb(83.781433%, 15.34729%, 17.485046%)" stop-opacity="1"/>
<stop offset="0.15625" stop-color="rgb(83.792114%, 15.562439%, 17.364502%)" stop-opacity="1"/>
<stop offset="0.160156" stop-color="rgb(83.80127%, 15.731812%, 17.248535%)" stop-opacity="1"/>
<stop offset="0.164062" stop-color="rgb(83.810425%, 15.90271%, 17.131042%)" stop-opacity="1"/>
<stop offset="0.167969" stop-color="rgb(83.816528%, 16.020203%, 17.019653%)" stop-opacity="1"/>
<stop offset="0.171875" stop-color="rgb(83.822632%, 16.137695%, 16.906738%)" stop-opacity="1"/>
<stop offset="0.175781" stop-color="rgb(83.981323%, 16.343689%, 16.793823%)" stop-opacity="1"/>
<stop offset="0.179687" stop-color="rgb(84.140015%, 16.549683%, 16.679382%)" stop-opacity="1"/>
<stop offset="0.183594" stop-color="rgb(84.288025%, 16.749573%, 16.564941%)" stop-opacity="1"/>
<stop offset="0.1875" stop-color="rgb(84.437561%, 16.950989%, 16.448975%)" stop-opacity="1"/>
<stop offset="0.191406" stop-color="rgb(84.443665%, 17.068481%, 16.333008%)" stop-opacity="1"/>
<stop offset="0.195312" stop-color="rgb(84.449768%, 17.185974%, 16.217041%)" stop-opacity="1"/>
<stop offset="0.199219" stop-color="rgb(84.509277%, 17.298889%, 16.093445%)" stop-opacity="1"/>
<stop offset="0.203125" stop-color="rgb(84.568787%, 17.410278%, 15.969849%)" stop-opacity="1"/>
<stop offset="0.207031" stop-color="rgb(84.664917%, 17.518616%, 15.841675%)" stop-opacity="1"/>
<stop offset="0.210938" stop-color="rgb(84.759521%, 17.626953%, 15.713501%)" stop-opacity="1"/>
<stop offset="0.214844" stop-color="rgb(84.771729%, 17.829895%, 15.637207%)" stop-opacity="1"/>
<stop offset="0.21875" stop-color="rgb(84.78241%, 18.031311%, 15.559387%)" stop-opacity="1"/>
<stop offset="0.222656" stop-color="rgb(84.825134%, 18.199158%, 15.463257%)" stop-opacity="1"/>
<stop offset="0.226562" stop-color="rgb(84.867859%, 18.367004%, 15.367126%)" stop-opacity="1"/>
<stop offset="0.230469" stop-color="rgb(84.962463%, 18.476868%, 15.235901%)" stop-opacity="1"/>
<stop offset="0.234375" stop-color="rgb(85.058594%, 18.585205%, 15.103149%)" stop-opacity="1"/>
<stop offset="0.238281" stop-color="rgb(85.090637%, 18.765259%, 15.011597%)" stop-opacity="1"/>
<stop offset="0.242187" stop-color="rgb(85.121155%, 18.945312%, 14.920044%)" stop-opacity="1"/>
<stop offset="0.246094" stop-color="rgb(85.15625%, 19.136047%, 14.845276%)" stop-opacity="1"/>
<stop offset="0.25" stop-color="rgb(85.191345%, 19.328308%, 14.767456%)" stop-opacity="1"/>
<stop offset="0.257812" stop-color="rgb(85.379028%, 19.450378%, 14.706421%)" stop-opacity="1"/>
<stop offset="0.265625" stop-color="rgb(85.705566%, 19.73114%, 14.56604%)" stop-opacity="1"/>
<stop offset="0.269531" stop-color="rgb(85.948181%, 20.088196%, 14.393616%)" stop-opacity="1"/>
<stop offset="0.273437" stop-color="rgb(86.048889%, 20.283508%, 14.300537%)" stop-opacity="1"/>
<stop offset="0.28125" stop-color="rgb(86.064148%, 20.391846%, 14.279175%)" stop-opacity="1"/>
<stop offset="0.289062" stop-color="rgb(86.109924%, 20.596313%, 14.225769%)" stop-opacity="1"/>
<stop offset="0.296875" stop-color="rgb(86.238098%, 20.793152%, 14.109802%)" stop-opacity="1"/>
<stop offset="0.304687" stop-color="rgb(86.49292%, 21.003723%, 13.993835%)" stop-opacity="1"/>
<stop offset="0.3125" stop-color="rgb(86.833191%, 21.232605%, 13.946533%)" stop-opacity="1"/>
<stop offset="0.316406" stop-color="rgb(87.117004%, 21.549988%, 13.835144%)" stop-opacity="1"/>
<stop offset="0.320312" stop-color="rgb(87.219238%, 21.748352%, 13.737488%)" stop-opacity="1"/>
<stop offset="0.328125" stop-color="rgb(87.281799%, 21.913147%, 13.626099%)" stop-opacity="1"/>
<stop offset="0.332031" stop-color="rgb(87.350464%, 22.193909%, 13.38501%)" stop-opacity="1"/>
<stop offset="0.335937" stop-color="rgb(87.356567%, 22.309875%, 13.25531%)" stop-opacity="1"/>
<stop offset="0.339844" stop-color="rgb(87.442017%, 22.494507%, 13.150024%)" stop-opacity="1"/>
<stop offset="0.34375" stop-color="rgb(87.528992%, 22.677612%, 13.043213%)" stop-opacity="1"/>
<stop offset="0.347656" stop-color="rgb(87.612915%, 22.85614%, 12.95929%)" stop-opacity="1"/>
<stop offset="0.351562" stop-color="rgb(87.696838%, 23.034668%, 12.875366%)" stop-opacity="1"/>
<stop offset="0.359375" stop-color="rgb(87.702942%, 23.13385%, 12.860107%)" stop-opacity="1"/>
<stop offset="0.367188" stop-color="rgb(87.771606%, 23.381042%, 12.812805%)" stop-opacity="1"/>
<stop offset="0.371094" stop-color="rgb(87.937927%, 23.722839%, 12.736511%)" stop-opacity="1"/>
<stop offset="0.375" stop-color="rgb(88.041687%, 23.913574%, 12.692261%)" stop-opacity="1"/>
<stop offset="0.378906" stop-color="rgb(88.056946%, 24.108887%, 12.661743%)" stop-opacity="1"/>
<stop offset="0.382812" stop-color="rgb(88.072205%, 24.304199%, 12.631226%)" stop-opacity="1"/>
<stop offset="0.386719" stop-color="rgb(88.08136%, 24.464417%, 12.606812%)" stop-opacity="1"/>
<stop offset="0.390625" stop-color="rgb(88.092041%, 24.62616%, 12.582397%)" stop-opacity="1"/>
<stop offset="0.398438" stop-color="rgb(88.098145%, 24.723816%, 12.567139%)" stop-opacity="1"/>
<stop offset="0.402344" stop-color="rgb(88.182068%, 24.987793%, 12.515259%)" stop-opacity="1"/>
<stop offset="0.40625" stop-color="rgb(88.259888%, 25.154114%, 12.478638%)" stop-opacity="1"/>
<stop offset="0.410156" stop-color="rgb(88.365173%, 25.349426%, 12.437439%)" stop-opacity="1"/>
<stop offset="0.414063" stop-color="rgb(88.470459%, 25.544739%, 12.39624%)" stop-opacity="1"/>
<stop offset="0.417969" stop-color="rgb(88.575745%, 25.769043%, 12.380981%)" stop-opacity="1"/>
<stop offset="0.421875" stop-color="rgb(88.68103%, 25.994873%, 12.365723%)" stop-opacity="1"/>
<stop offset="0.429687" stop-color="rgb(88.78479%, 26.156616%, 12.342834%)" stop-opacity="1"/>
<stop offset="0.4375" stop-color="rgb(88.986206%, 26.411438%, 12.289429%)" stop-opacity="1"/>
<stop offset="0.441406" stop-color="rgb(89.108276%, 26.690674%, 12.228394%)" stop-opacity="1"/>
<stop offset="0.445312" stop-color="rgb(89.131165%, 26.875305%, 12.197876%)" stop-opacity="1"/>
<stop offset="0.449219" stop-color="rgb(89.169312%, 27.070618%, 12.164307%)" stop-opacity="1"/>
<stop offset="0.453125" stop-color="rgb(89.207458%, 27.267456%, 12.129211%)" stop-opacity="1"/>
<stop offset="0.457031" stop-color="rgb(89.31427%, 27.461243%, 12.083435%)" stop-opacity="1"/>
<stop offset="0.460938" stop-color="rgb(89.419556%, 27.655029%, 12.036133%)" stop-opacity="1"/>
<stop offset="0.46875" stop-color="rgb(89.460754%, 27.787781%, 12.010193%)" stop-opacity="1"/>
<stop offset="0.476563" stop-color="rgb(89.512634%, 28.02124%, 11.967468%)" stop-opacity="1"/>
<stop offset="0.480469" stop-color="rgb(89.628601%, 28.318787%, 11.904907%)" stop-opacity="1"/>
<stop offset="0.484375" stop-color="rgb(89.735413%, 28.514099%, 11.857605%)" stop-opacity="1"/>
<stop offset="0.492187" stop-color="rgb(89.839172%, 28.668213%, 11.817932%)" stop-opacity="1"/>
<stop offset="0.5" stop-color="rgb(90.045166%, 28.919983%, 11.746216%)" stop-opacity="1"/>
<stop offset="0.503906" stop-color="rgb(90.176392%, 29.194641%, 11.683655%)" stop-opacity="1"/>
<stop offset="0.507812" stop-color="rgb(90.206909%, 29.370117%, 11.651611%)" stop-opacity="1"/>
<stop offset="0.511719" stop-color="rgb(90.254211%, 29.550171%, 11.618042%)" stop-opacity="1"/>
<stop offset="0.515625" stop-color="rgb(90.301514%, 29.728699%, 11.582947%)" stop-opacity="1"/>
<stop offset="0.519531" stop-color="rgb(90.496826%, 29.826355%, 11.534119%)" stop-opacity="1"/>
<stop offset="0.523438" stop-color="rgb(90.692139%, 29.920959%, 11.486816%)" stop-opacity="1"/>
<stop offset="0.53125" stop-color="rgb(90.838623%, 30.075073%, 11.437988%)" stop-opacity="1"/>
<stop offset="0.535156" stop-color="rgb(91.094971%, 30.426025%, 11.341858%)" stop-opacity="1"/>
<stop offset="0.539062" stop-color="rgb(91.203308%, 30.62439%, 11.29303%)" stop-opacity="1"/>
<stop offset="0.546875" stop-color="rgb(91.217041%, 30.729675%, 11.276245%)" stop-opacity="1"/>
<stop offset="0.554687" stop-color="rgb(91.300964%, 30.944824%, 11.24115%)" stop-opacity="1"/>
<stop offset="0.5625" stop-color="rgb(91.571045%, 31.190491%, 11.204529%)" stop-opacity="1"/>
<stop offset="0.566406" stop-color="rgb(91.836548%, 31.504822%, 11.157227%)" stop-opacity="1"/>
<stop offset="0.570312" stop-color="rgb(91.902161%, 31.686401%, 11.129761%)" stop-opacity="1"/>
<stop offset="0.574219" stop-color="rgb(91.926575%, 31.886292%, 11.094666%)" stop-opacity="1"/>
<stop offset="0.578125" stop-color="rgb(91.950989%, 32.086182%, 11.061096%)" stop-opacity="1"/>
<stop offset="0.582031" stop-color="rgb(92.060852%, 32.286072%, 11.012268%)" stop-opacity="1"/>
<stop offset="0.585938" stop-color="rgb(92.172241%, 32.485962%, 10.961914%)" stop-opacity="1"/>
<stop offset="0.589844" stop-color="rgb(92.236328%, 32.687378%, 10.920715%)" stop-opacity="1"/>
<stop offset="0.59375" stop-color="rgb(92.300415%, 32.887268%, 10.879517%)" stop-opacity="1"/>
<stop offset="0.597656" stop-color="rgb(92.315674%, 33.088684%, 10.847473%)" stop-opacity="1"/>
<stop offset="0.601562" stop-color="rgb(92.330933%, 33.288574%, 10.813904%)" stop-opacity="1"/>
<stop offset="0.605469" stop-color="rgb(92.428589%, 33.48999%, 10.766602%)" stop-opacity="1"/>
<stop offset="0.609375" stop-color="rgb(92.527771%, 33.691406%, 10.719299%)" stop-opacity="1"/>
<stop offset="0.613281" stop-color="rgb(92.614746%, 33.892822%, 10.673523%)" stop-opacity="1"/>
<stop offset="0.617187" stop-color="rgb(92.701721%, 34.094238%, 10.627747%)" stop-opacity="1"/>
<stop offset="0.621094" stop-color="rgb(92.71698%, 34.295654%, 10.594177%)" stop-opacity="1"/>
<stop offset="0.625" stop-color="rgb(92.732239%, 34.495544%, 10.562134%)" stop-opacity="1"/>
<stop offset="0.628906" stop-color="rgb(92.808533%, 34.698486%, 10.517883%)" stop-opacity="1"/>
<stop offset="0.632812" stop-color="rgb(92.884827%, 34.899902%, 10.473633%)" stop-opacity="1"/>
<stop offset="0.636719" stop-color="rgb(92.996216%, 35.101318%, 10.423279%)" stop-opacity="1"/>
<stop offset="0.640625" stop-color="rgb(93.107605%, 35.302734%, 10.372925%)" stop-opacity="1"/>
<stop offset="0.648437" stop-color="rgb(93.115234%, 35.404968%, 10.35614%)" stop-opacity="1"/>
<stop offset="0.652344" stop-color="rgb(93.174744%, 35.684204%, 10.302734%)" stop-opacity="1"/>
<stop offset="0.65625" stop-color="rgb(93.226624%, 35.865784%, 10.266113%)" stop-opacity="1"/>
<stop offset="0.660156" stop-color="rgb(93.348694%, 36.170959%, 10.198975%)" stop-opacity="1"/>
<stop offset="0.664062" stop-color="rgb(93.469238%, 36.474609%, 10.13031%)" stop-opacity="1"/>
<stop offset="0.671875" stop-color="rgb(93.502808%, 36.621094%, 10.102844%)" stop-opacity="1"/>
<stop offset="0.679687" stop-color="rgb(93.545532%, 36.90033%, 10.05249%)" stop-opacity="1"/>
<stop offset="0.683594" stop-color="rgb(93.579102%, 37.336731%, 9.980774%)" stop-opacity="1"/>
<stop offset="0.6875" stop-color="rgb(93.603516%, 37.638855%, 9.93042%)" stop-opacity="1"/>
<stop offset="0.691406" stop-color="rgb(93.67218%, 37.832642%, 9.889221%)" stop-opacity="1"/>
<stop offset="0.695312" stop-color="rgb(93.740845%, 38.026428%, 9.846497%)" stop-opacity="1"/>
<stop offset="0.703125" stop-color="rgb(93.847656%, 38.131714%, 9.811401%)" stop-opacity="1"/>
<stop offset="0.707031" stop-color="rgb(93.97583%, 38.430786%, 9.741211%)" stop-opacity="1"/>
<stop offset="0.710937" stop-color="rgb(93.997192%, 38.626099%, 9.709167%)" stop-opacity="1"/>
<stop offset="0.714844" stop-color="rgb(94.044495%, 38.829041%, 9.669495%)" stop-opacity="1"/>
<stop offset="0.71875" stop-color="rgb(94.091797%, 39.031982%, 9.629822%)" stop-opacity="1"/>
<stop offset="0.722656" stop-color="rgb(94.206238%, 39.239502%, 9.576416%)" stop-opacity="1"/>
<stop offset="0.726562" stop-color="rgb(94.320679%, 39.44397%, 9.524536%)" stop-opacity="1"/>
<stop offset="0.734375" stop-color="rgb(94.361877%, 39.578247%, 9.495544%)" stop-opacity="1"/>
<stop offset="0.742188" stop-color="rgb(94.419861%, 39.820862%, 9.448242%)" stop-opacity="1"/>
<stop offset="0.746094" stop-color="rgb(94.551086%, 40.136719%, 9.375%)" stop-opacity="1"/>
<stop offset="0.75" stop-color="rgb(94.665527%, 40.344238%, 9.321594%)" stop-opacity="1"/>
<stop offset="0.753906" stop-color="rgb(94.78302%, 40.551758%, 9.268188%)" stop-opacity="1"/>
<stop offset="0.757812" stop-color="rgb(94.897461%, 40.759277%, 9.214783%)" stop-opacity="1"/>
<stop offset="0.761719" stop-color="rgb(95.014954%, 40.966797%, 9.159851%)" stop-opacity="1"/>
<stop offset="0.765625" stop-color="rgb(95.129395%, 41.174316%, 9.106445%)" stop-opacity="1"/>
<stop offset="0.769531" stop-color="rgb(95.161438%, 41.378784%, 9.069824%)" stop-opacity="1"/>
<stop offset="0.773437" stop-color="rgb(95.193481%, 41.583252%, 9.033203%)" stop-opacity="1"/>
<stop offset="0.777344" stop-color="rgb(95.233154%, 41.78772%, 8.99353%)" stop-opacity="1"/>
<stop offset="0.78125" stop-color="rgb(95.272827%, 41.992188%, 8.955383%)" stop-opacity="1"/>
<stop offset="0.785156" stop-color="rgb(95.39032%, 42.201233%, 8.900452%)" stop-opacity="1"/>
<stop offset="0.789062" stop-color="rgb(95.506287%, 42.410278%, 8.84552%)" stop-opacity="1"/>
<stop offset="0.792969" stop-color="rgb(95.561218%, 42.616272%, 8.804321%)" stop-opacity="1"/>
<stop offset="0.796875" stop-color="rgb(95.617676%, 42.822266%, 8.761597%)" stop-opacity="1"/>
<stop offset="0.800781" stop-color="rgb(95.63446%, 43.025208%, 8.728027%)" stop-opacity="1"/>
<stop offset="0.804688" stop-color="rgb(95.652771%, 43.228149%, 8.692932%)" stop-opacity="1"/>
<stop offset="0.808594" stop-color="rgb(95.669556%, 43.431091%, 8.659363%)" stop-opacity="1"/>
<stop offset="0.8125" stop-color="rgb(95.68634%, 43.635559%, 8.624268%)" stop-opacity="1"/>
<stop offset="0.816406" stop-color="rgb(95.703125%, 43.838501%, 8.590698%)" stop-opacity="1"/>
<stop offset="0.820312" stop-color="rgb(95.721436%, 44.041443%, 8.555603%)" stop-opacity="1"/>
<stop offset="0.824219" stop-color="rgb(95.73822%, 44.245911%, 8.522034%)" stop-opacity="1"/>
<stop offset="0.828125" stop-color="rgb(95.755005%, 44.448853%, 8.486938%)" stop-opacity="1"/>
<stop offset="0.832031" stop-color="rgb(95.77179%, 44.65332%, 8.453369%)" stop-opacity="1"/>
<stop offset="0.835938" stop-color="rgb(95.788574%, 44.856262%, 8.4198%)" stop-opacity="1"/>
<stop offset="0.839844" stop-color="rgb(95.806885%, 45.06073%, 8.384705%)" stop-opacity="1"/>
<stop offset="0.84375" stop-color="rgb(95.823669%, 45.263672%, 8.351135%)" stop-opacity="1"/>
<stop offset="0.847656" stop-color="rgb(95.840454%, 45.46814%, 8.31604%)" stop-opacity="1"/>
<stop offset="0.851563" stop-color="rgb(95.857239%, 45.671082%, 8.282471%)" stop-opacity="1"/>
<stop offset="0.859375" stop-color="rgb(95.870972%, 45.820618%, 8.256531%)" stop-opacity="1"/>
<stop offset="0.867187" stop-color="rgb(95.892334%, 46.072388%, 8.213806%)" stop-opacity="1"/>
<stop offset="0.871094" stop-color="rgb(95.924377%, 46.461487%, 8.149719%)" stop-opacity="1"/>
<stop offset="0.875" stop-color="rgb(95.948792%, 46.748352%, 8.100891%)" stop-opacity="1"/>
<stop offset="0.878906" stop-color="rgb(95.97168%, 47.02301%, 8.055115%)" stop-opacity="1"/>
<stop offset="0.882812" stop-color="rgb(95.994568%, 47.299194%, 8.007812%)" stop-opacity="1"/>
<stop offset="0.886719" stop-color="rgb(96.011353%, 47.502136%, 7.974243%)" stop-opacity="1"/>
<stop offset="0.890625" stop-color="rgb(96.029663%, 47.705078%, 7.939148%)" stop-opacity="1"/>
<stop offset="0.894531" stop-color="rgb(96.052551%, 47.97821%, 7.893372%)" stop-opacity="1"/>
<stop offset="0.898438" stop-color="rgb(96.075439%, 48.249817%, 7.847595%)" stop-opacity="1"/>
<stop offset="0.902344" stop-color="rgb(96.099854%, 48.544312%, 7.798767%)" stop-opacity="1"/>
<stop offset="0.90625" stop-color="rgb(96.124268%, 48.83728%, 7.749939%)" stop-opacity="1"/>
<stop offset="0.914062" stop-color="rgb(96.133423%, 48.939514%, 7.731628%)" stop-opacity="1"/>
<stop offset="0.917969" stop-color="rgb(96.157837%, 49.234009%, 7.6828%)" stop-opacity="1"/>
<stop offset="0.921875" stop-color="rgb(96.173096%, 49.424744%, 7.650757%)" stop-opacity="1"/>
<stop offset="0.925781" stop-color="rgb(96.199036%, 49.729919%, 7.598877%)" stop-opacity="1"/>
<stop offset="0.929687" stop-color="rgb(96.224976%, 50.035095%, 7.548523%)" stop-opacity="1"/>
<stop offset="0.9375" stop-color="rgb(96.237183%, 50.17395%, 7.524109%)" stop-opacity="1"/>
<stop offset="1" stop-color="rgb(96.255493%, 50.390625%, 7.487488%)" stop-opacity="1"/>
</linearGradient>
</defs>
<g clip-path="url(#clip-0)">
<path fill-rule="nonzero" fill="url(#linear-pattern-0)" d="M 1557.898438 -1557.898438 L -1656.898438 1656.898438 L 1557.898438 4871.699219 L 4772.699219 1656.898438 Z M 1557.898438 -1557.898438 "/>
</g>
</svg>
