<?xml version="1.0" encoding="utf-8"?>
<svg viewBox="39.80001449584961 30.400007247924805 132.09669494628906 98.14151000976562" width="132.09669494628906" height="98.14151000976562" xmlns="http://www.w3.org/2000/svg"><g transform="matrix(1, 0, 0, 1, 0, 0)"><path class="st1" d="M610.9,437.7c0,9.4-10.2,17-22.8,17H62.6c-12.6,0-22.8-7.6-22.8-17V47.4c0-9.4,10.2-17,22.8-17h525.5&#10;&#9;&#9;&#9;c12.6,0,22.8,7.6,22.8,17V437.7z" style="fill: rgb(64, 168, 222);" transform="matrix(0.2313021868467331, 0, 0, 0.23130218684673312, 30.594181060791016, 23.368415832519517)"/><g transform="matrix(0.23866960406303406, 0, 0, 0.23866960406303409, 28.495521545410156, 34.818229675292955)">
		<linearGradient id="SVGID_3_" gradientUnits="userSpaceOnUse" x1="324.494" y1="60.3926" x2="324.494" y2="262.9043">
			<stop offset="0" style="stop-color:#333490"/>
			<stop offset="0.2586" style="stop-color:#32338D"/>
			<stop offset="0.4705" style="stop-color:#2E3083"/>
			<stop offset="0.6659" style="stop-color:#292A71"/>
			<stop offset="0.8501" style="stop-color:#21225A"/>
			<stop offset="1" style="stop-color:#181A40"/>
		</linearGradient>
		<path class="st3" d="M186.4,89.2c5.3,0.4,10.5,0.9,15.8,1.3c0.3-7,0.7-14,1-21.1c0.2-1.6-0.2-7.4,0.7-7.9c0,1.3,0,2.6,0,4&#10;&#9;&#9;&#9;c-0.3,11.9-0.6,23.9-0.9,35.8c2.1,2.6,4.3,5.3,6.4,7.9c0,0,0.1,0,0.1,0c-0.1-2.9,1.3-3.7,2.3-5.5c1.2,0.3,2.5,0.5,3.7,0.8&#10;&#9;&#9;&#9;c0.7,1.3,1.4,2.6,2.1,3.9c-0.4,1-0.7,2.1-1.1,3.1c2.1,0.7,4.2,1.4,6.3,2.1c2.1-0.7,4.2-1.4,6.3-2.1c5.7-0.8,11.5-1.7,17.2-2.5&#10;&#9;&#9;&#9;c2.4-0.5,5.6-1.6,8.4-1.1c5.1,0.3,10.2,0.7,15.3,1c3.9,0.6,7.9,1.2,11.8,1.9c5.5,1,11.1,1.9,16.6,2.9c3,1,6,1.9,9,2.9&#10;&#9;&#9;&#9;c0.2,2.8,0.4,5.7,0.6,8.5c3.3,0.8,6.6,1.7,9.9,2.5c6.1,1.3,12.1,2.6,18.2,4c2.4,1,4.8,2,7.2,3c2.9,1.1,5.9,2.3,8.8,3.4&#10;&#9;&#9;&#9;c0.7,0.9,1.4,1.8,2.1,2.6c-2.7,4.4-3.5,1.6-7.7,3.4c0.1,0,0.1,0,0.2,0c11.8,4.7,23.5,9.4,35.3,14.1c6.7,0.6,13.4,1.2,20.1,1.9&#10;&#9;&#9;&#9;c7.6,0.7,15.3,1.5,22.9,2.2c6.5,1.2,13,2.4,19.5,3.5c6.4,1.4,13.2,2.3,19.3,4c7.4,2,14.9,4.6,24.6,3.1c8.7-0.4,17.3-0.7,26-1.1&#10;&#9;&#9;&#9;c5.2-0.2,10.4-0.4,15.7-0.7c3.5-0.1,7-0.3,10.5-0.4c6.4-0.2,12.8-0.4,19.2-0.5c7.8-0.1,15.7-0.2,23.5-0.3c1.2,0.8,2.4,1.5,3.5,2.3&#10;&#9;&#9;&#9;c-0.1,0.2-0.3,0.4-0.4,0.5c-2.6,1.7-5.2,3.4-7.8,5.1c-6.6,4.2-12.9,8.6-19.2,13c-8.2,5.7-16.4,11.4-24.6,17.1&#10;&#9;&#9;&#9;c-8.3,6.8-16.7,13.6-25,20.4c-11.5,11.7-23,23.3-34.5,34.9c-22.3-0.4-44.6-0.9-66.9-1.3c-20.4-0.4-40.9-0.8-61.3-1.2&#10;&#9;&#9;&#9;c-15-0.3-30.1-0.6-45.1-0.9c-13.2-0.3-26.3-0.5-39.5-0.8c-7.5-0.1-15-0.3-22.5-0.4c-26.9-1.4-53.7-2.7-80.6-4.1&#10;&#9;&#9;&#9;c-31.6-1.7-63.1-3.3-94.7-5c-0.1-1.4-0.2-2.7-0.3-4.1c-0.2-0.5-3-3.2-1.5-4.6c0.9-0.3,1.8-0.5,2.8-0.8c0.6-2,1.1-4,1.7-5.9&#10;&#9;&#9;&#9;c0.7-2.8,1.5-5.5,2.2-8.3c1.4-3.3,2.9-6.7,4.3-10c0.6-1.5,2.3-7.2,3.4-7.8c0.6-0.2,1.2-0.4,1.9-0.5c0.8-0.5,1.1-1.6,2.2-1.9&#10;&#9;&#9;&#9;c4-0.4,8-0.7,12-1.1c0.8-1.2,1.6-2.4,2.4-3.6c2.4-3.7,4.8-7.4,7.2-11c-6.9-0.1-13.7-0.2-20.6-0.2c0-0.1,0.1-0.2,0.1-0.3&#10;&#9;&#9;&#9;c1.6-2.2,3.3-4.5,5-6.7c0.5-0.5,1.2-0.3,1.9-0.7c0.7-0.7,1.4-1.5,2.1-2.2c1-1.1,2-2.2,3-3.3c11.8-2.2,23.5-4.5,35.3-6.7&#10;&#9;&#9;&#9;c3.8-0.7,7.6-1.4,11.4-2.1c1-1-0.4-2.5-0.6-3.3c3-3.9,6-7.9,9-11.8c-7.4-0.3-14.8-1.3-20-3.9c1.7-2.5,3.5-4.9,5.2-7.4&#10;&#9;&#9;&#9;c-0.4-0.6-0.7-1.2-1.1-1.8c0.8-2,1.7-3.9,2.5-5.8c3.2-0.5,6-1.7,10.1-1.1c0.8,0,1.5,0,2.3,0c0.7,0.5,1.3,1,2,1.5&#10;&#9;&#9;&#9;c4.6-0.5,9.2-1,13.8-1.5c-0.4-1.2-0.7-2.5-1.1-3.7c1.7-1.6,3.5-3.2,5.2-4.9c-1.2-3.4-2.4-6.8-3.6-10.3c-2.8-0.9-5.6-1.8-8.4-2.6&#10;&#9;&#9;&#9;c0-0.5-0.1-1-0.1-1.5c2.8-0.4,5.5-0.9,8.3-1.3c0-0.3,0-0.6,0-0.9c1.4-0.5,2.7-1.1,4.1-1.7c-0.1-3.8,0.4-6.7,2.2-8.5&#10;&#9;&#9;&#9;c4.6,0.3,9.1,0.5,13.7,0.8c-0.1-2.2-0.3-4.4-0.4-6.6c-0.9,0-1.8,0-2.6,0c0.1-0.5,0.1-1,0.2-1.5c1.1,0,2.2,0.1,3.3,0.1&#10;&#9;&#9;&#9;c0.7-9.7,1.4-19.4,2.1-29.1C186.7,70,186.6,79.6,186.4,89.2z M185.9,97.9c1.5,0,3-0.1,4.5-0.1c0,0,0-0.1,0-0.1&#10;&#9;&#9;&#9;c-0.6-1.4-1.5-2.1-2.2-3.3c0.7-0.7,1.5-1.4,2.2-2.1c0,0,0-0.1,0-0.1c-1.5,0-2.9-0.1-4.4-0.1C185.9,94,185.9,95.9,185.9,97.9z&#10;&#9;&#9;&#9; M195.1,92.1c0.5,0.7,1,1.3,1.5,2c0,0.5,0,1,0,1.4c-1,0.8-3.7,1.2-4.4,2.3c0,0,0,0.1,0,0.1c2.3,0,4.5,1.9,4.9,1.9&#10;&#9;&#9;&#9;c0.4-1.2-0.1-2.4,0.5-3.3c0.1,0,0.1-0.1,0.2-0.1c0.8,0,1.6,0.2,2.1,0.5c0.4,1.1,1.2,2.2,2,2.9c0-1.4,0.7-6.8,0.2-7.4&#10;&#9;&#9;&#9;C199.8,92.4,197.5,92.3,195.1,92.1z M180.8,98.6c-0.1,0.9-0.3,1.8-0.4,2.8c0.4,0.1,0.7,0.1,1.1,0.2c0.1,1.1,0.2,2.1,0.2,3.2&#10;&#9;&#9;&#9;c4.3,0.6,12.3,3.8,16.5,2.1c0,0,0-0.1,0-0.1c-1-0.8-2-1.6-3-2.4c0.4-0.8,1.1-1.9,1-2.8c-2.1-0.8-4.5-1.9-6.9-2.3&#10;&#9;&#9;&#9;C186.5,99.1,183.6,98.9,180.8,98.6z M180.2,110.7c1.7,1.4,3.4,2.9,5.1,4.3c2.3,2.5,4.5,5.1,6.8,7.6c7.5-2,14.9-4,22.4-6&#10;&#9;&#9;&#9;c-6-1.5-12-3.1-18-4.6C191.1,111.5,185.7,111.1,180.2,110.7z M287.9,133.1c0,0.6,0.1,1.2,0.1,1.2c5,3.5,10,7.1,15,10.6&#10;&#9;&#9;&#9;c8,0.4,16,0.8,23.9,1.2c-0.1-0.1-0.1-0.2-0.2-0.3c-4.9-3.6-9.8-7.2-14.8-10.8C304,134.4,296,133.8,287.9,133.1z M274.9,147&#10;&#9;&#9;&#9;c4.5-0.5,9-1,13.5-1.5c0.4-0.8,0.9-1.5,1.3-2.3c-0.5-1.6-2.2-2.2-3.5-3c-3.7-2.2-7.3-4.5-11-6.7C275.1,138,275,142.5,274.9,147z&#10;&#9;&#9;&#9; M272.6,147.9c0.2-4.6,0.4-9.3,0.7-13.9c-3.7,0.4-7.4,0.8-11.1,1.2c-0.8,0.7-1.5,1.3-2.3,2c0,3.7-1.3,10,0.8,12&#10;&#9;&#9;&#9;C265,149.3,268.5,148.2,272.6,147.9z M315.4,135.6c1.4,2,4.3,3.2,6.4,4.5c3.2,2.1,6.4,4.3,9.6,6.4c3.1,0.5,6.2,1,9.3,1.4&#10;&#9;&#9;&#9;c3.3,0.5,6.7,1,10,1.5c-0.1,0-0.1,0-0.2,0c-4.7-3.6-9.5-7.1-14.2-10.7C329.3,137.7,322.3,136.6,315.4,135.6z M241.1,151.7&#10;&#9;&#9;&#9;c4.7-0.5,9.5-1,14.2-1.4c0.1-4.3,0.1-8.7,0.2-13c-4.5,0.6-9,1.2-13.6,1.8C240.5,141.9,241.1,147.3,241.1,151.7z M218.6,139.7&#10;&#9;&#9;&#9;c-4,0.9-8.1,1.8-12.1,2.6c-1.3,1.1-1.6,11.3-2,14.1c0.2,0,0.4,0,0.5,0c1.6-0.2,3.2-0.4,4.7-0.7c2.7-1.4,5.4-2.8,8.2-4.2&#10;&#9;&#9;&#9;c0.3-4,0.7-7.9,1-11.9C218.8,139.7,218.7,139.7,218.6,139.7z M188.1,157.8c4-0.3,7.9-0.5,11.9-0.8c0.7-4.7,1.5-9.5,2.2-14.2&#10;&#9;&#9;&#9;c-2.2,0.3-11.5,2-12.3,3.2C188.8,147.4,188.1,155.6,188.1,157.8z M185.3,146.5c-1.8,1-3.7,1.9-5.5,2.9c-4.6,2.7-9.3,5.5-13.4,8.6&#10;&#9;&#9;&#9;c-1.4,1-5.2,3-4.7,5.2c7.4-1.1,14.8-2.2,22.3-3.3c0.6-4.4,1.2-8.9,1.8-13.3C185.5,146.5,185.4,146.5,185.3,146.5z M393.7,170&#10;&#9;&#9;&#9;c-4.3,1.6-18.2-1.3-19.7,2.4c-0.8,2.8-0.8,5.6-0.3,7.9c11.8-0.8,23.5-1.6,35.3-2.4c0.1-0.8-0.1-1.4-0.2-2.3&#10;&#9;&#9;&#9;C403.4,174,400.5,170,393.7,170z M365.1,172c-1.6,0-3.2,0.1-4.8,0.1c-6.6,1-15.1-0.8-20.1,1.8c-0.8,2.8-1.7,6.3-0.4,9.5&#10;&#9;&#9;&#9;c9.4-0.9,18.7-1.8,28.1-2.6c0.5-3.5,1.6-6.8-1.1-8.7C366.2,172,365.7,172,365.1,172z M332.6,173.1c-2.2,0.1-4.5,0.1-6.7,0.2&#10;&#9;&#9;&#9;c-4.7,0.1-9.3,0.3-14,0.4c-1.1,0.6-2.1,1.2-3.2,1.9c-0.6,4-1,6.1-0.2,10.3c8.2,0.1,18.9-0.8,25.5-2.7c0.3-1.9,2.2-7.9,0.8-9.4&#10;&#9;&#9;&#9;C334.2,173.3,333.7,173,332.6,173.1z M302.1,174.7c-6.9,0.5-13.9,1-20.8,1.4c-0.6,3.3-2,6-2,10.3c0.3,0.7,0.7,1.5,1,2.2&#10;&#9;&#9;&#9;c6.8-0.5,13.7-1,20.5-1.5c0.7-0.4,1.3-0.9,2-1.3c0.4-4.4,1.1-6.7,0.4-11C302.8,174.7,302.4,174.7,302.1,174.7z M273.7,176.4&#10;&#9;&#9;&#9;c-1.1,0.2-2.3,0.4-3.4,0.7c-7.1,2.7-14.3,5.4-21.4,8.1c-1.4,1-2.7,2.1-4.1,3.1c-0.1,1.5-0.3,2.2,0.2,3.4&#10;&#9;&#9;&#9;c5.1,0.1,10.6-0.3,15.5-1.1c4.9-0.8,10.2-0.2,13.8-2.1c0.2-4.3,2.8-9.2-0.1-12C274.1,176.4,273.9,176.4,273.7,176.4z M530.6,181&#10;&#9;&#9;&#9;c0,1.2,0,2.5,0,3.7c4.4,0,8.7,0,13.1,0c0-1.2,0-2.5,0-3.7C539.3,181,535,181,530.6,181z M194.2,184.4c0,5.9,0,11.8,0,17.6&#10;&#9;&#9;&#9;c3.4,0,6.8,0,10.3,0c0-5.9,0-11.8,0-17.6C201.1,184.4,197.7,184.4,194.2,184.4z M163.7,188.6c0,5.3,0,10.7,0,16c3.2,0,6.5,0,9.7,0&#10;&#9;&#9;&#9;c0-5.3,0-10.7,0-16C170.2,188.6,166.9,188.6,163.7,188.6z M150.1,189.4c0,5.4,0,10.9,0,16.3c3,0,6,0,8.9,0c0-5.4,0-10.9,0-16.3&#10;&#9;&#9;&#9;C156.1,189.4,153.1,189.4,150.1,189.4z M137.5,190.4c0,5.3,0,10.6,0,15.9c2.8,0,5.5,0,8.3,0c0-5.3,0-10.6,0-15.9&#10;&#9;&#9;&#9;C143,190.4,140.2,190.4,137.5,190.4z M125.3,191c0,5.2,0,10.4,0,15.5c2.5,0,5,0,7.5,0c0-5.2,0-10.4,0-15.5&#10;&#9;&#9;&#9;C130.3,191,127.8,191,125.3,191z M188.4,214.7c0,0.8,0,1.5,0,2.3c3.4,0,6.8,0,10.1,0c0-0.8,0-1.5,0-2.3&#10;&#9;&#9;&#9;C195.2,214.7,191.8,214.7,188.4,214.7z M143.5,217.3c0,0.6,0,1.1,0,1.7c2.9,0,5.9,0,8.8,0c0-0.6,0-1.1,0-1.7&#10;&#9;&#9;&#9;C149.4,217.3,146.5,217.3,143.5,217.3z M119.2,217.8c0,0.6,0,1.2,0,1.9c2.4,0,4.8,0,7.2,0c0-0.6,0-1.2,0-1.9&#10;&#9;&#9;&#9;C123.9,217.8,121.6,217.8,119.2,217.8z" style="fill-rule: evenodd; clip-rule: evenodd; fill: rgb(51, 52, 144);"/>
	</g></g></svg>